<svg width="767" height="187" viewBox="0 0 767 187" fill="none" xmlns="http://www.w3.org/2000/svg">
<path d="M5 43L5.875 34.375C6.45833 29.5417 7.125 23.7083 7.875 16.875L9.375 4.375C9.70833 3.29167 10.2083 2.66667 10.875 2.5C11.625 2.33333 12.625 2.25 13.875 2.25C15.125 2.25 16.0417 2.58333 16.625 3.25C17.2083 3.83333 17.5 4.58333 17.5 5.5C17.5833 6.41667 17.5 7.45833 17.25 8.625C17 9.79167 16.875 10.9167 16.875 12C22.7083 12 28.5 11.375 34.25 10.125C40.0833 8.875 45.875 7.5 51.625 6C57.375 4.5 63.125 3.125 68.875 1.875C74.625 0.625 80.4167 0 86.25 0C87.0833 0 87.8333 0.125 88.5 0.375C89.25 0.541667 89.8333 1.20833 90.25 2.375C89.9167 3.375 89.3333 4.20833 88.5 4.875C87.6667 5.54167 86.25 6.20833 84.25 6.875C82.3333 7.54167 79.7083 8.25 76.375 9C73.0417 9.66667 68.75 10.5833 63.5 11.75C58.25 12.8333 51.8333 14.1667 44.25 15.75C36.75 17.3333 27.875 19.2917 17.625 21.625V37.625C20.2917 37.375 23.3333 36.9583 26.75 36.375C33.0833 35.2917 37.9167 34.75 41.25 34.75C44.5833 34.75 47.3333 34.7917 49.5 34.875C51.75 34.9583 54.2917 35.5417 57.125 36.625C63.2083 38.9583 66.625 43.75 67.375 51C67.375 56.25 65.9167 60.7083 63 64.375C60.1667 67.9583 56.5833 70.8333 52.25 73C44.0833 77.0833 34.5833 79.125 23.75 79.125C21.4167 79.125 19.75 78.875 18.75 78.375C17.75 77.875 17.25 76.7917 17.25 75.125C17.25 73.4583 17.9167 71.875 19.25 70.375C20.5833 68.875 22.0833 68.125 23.75 68.125V70.375C33.5833 70.375 40.6667 69.7083 45 68.375C49.3333 66.9583 52.75 65.0417 55.25 62.625C57.8333 60.125 59.125 57.0417 59.125 53.375C59.125 49.7083 58.375 47.0417 56.875 45.375C55.375 43.7083 53.5417 42.4583 51.375 41.625C48.0417 40.2917 44.25 39.625 40 39.625C35.75 39.625 32.5417 39.9583 30.375 40.625C28.2083 41.2917 26.0833 42.0417 24 42.875C18.4167 44.9583 14.1667 46 11.25 46H9.25C6.41667 46 5 45 5 43Z" fill="white"/>
<path d="M0 43L0.875 34.375C1.45833 29.5417 2.125 23.7083 2.875 16.875L4.375 4.375C4.70833 3.29167 5.20833 2.66667 5.875 2.5C6.625 2.33333 7.625 2.25 8.875 2.25C10.125 2.25 11.0417 2.58333 11.625 3.25C12.2083 3.83333 12.5 4.58333 12.5 5.5C12.5833 6.41667 12.5 7.45833 12.25 8.625C12 9.79167 11.875 10.9167 11.875 12C17.7083 12 23.5 11.375 29.25 10.125C35.0833 8.875 40.875 7.5 46.625 6C52.375 4.5 58.125 3.125 63.875 1.875C69.625 0.625 75.4167 0 81.25 0C82.0833 0 82.8333 0.125 83.5 0.375C84.25 0.541667 84.8333 1.20833 85.25 2.375C84.9167 3.375 84.3333 4.20833 83.5 4.875C82.6667 5.54167 81.25 6.20833 79.25 6.875C77.3333 7.54167 74.7083 8.25 71.375 9C68.0417 9.66667 63.75 10.5833 58.5 11.75C53.25 12.8333 46.8333 14.1667 39.25 15.75C31.75 17.3333 22.875 19.2917 12.625 21.625V37.625C15.2917 37.375 18.3333 36.9583 21.75 36.375C28.0833 35.2917 32.9167 34.75 36.25 34.75C39.5833 34.75 42.3333 34.7917 44.5 34.875C46.75 34.9583 49.2917 35.5417 52.125 36.625C58.2083 38.9583 61.625 43.75 62.375 51C62.375 56.25 60.9167 60.7083 58 64.375C55.1667 67.9583 51.5833 70.8333 47.25 73C39.0833 77.0833 29.5833 79.125 18.75 79.125C16.4167 79.125 14.75 78.875 13.75 78.375C12.75 77.875 12.25 76.7917 12.25 75.125C12.25 73.4583 12.9167 71.875 14.25 70.375C15.5833 68.875 17.0833 68.125 18.75 68.125V70.375C28.5833 70.375 35.6667 69.7083 40 68.375C44.3333 66.9583 47.75 65.0417 50.25 62.625C52.8333 60.125 54.125 57.0417 54.125 53.375C54.125 49.7083 53.375 47.0417 51.875 45.375C50.375 43.7083 48.5417 42.4583 46.375 41.625C43.0417 40.2917 39.25 39.625 35 39.625C30.75 39.625 27.5417 39.9583 25.375 40.625C23.2083 41.2917 21.0833 42.0417 19 42.875C13.4167 44.9583 9.16667 46 6.25 46H4.25C1.41667 46 0 45 0 43Z" fill="white"/>
<path d="M113.38 9.12499H200.164V105.125H183.268V16.421L190.948 24.101H122.852L130.02 18.341C130.703 25.3383 131.215 31.9517 131.556 38.181C131.897 44.4103 132.068 50.2557 132.068 55.717C132.068 67.6637 131.044 77.3917 128.996 84.901C126.948 92.4103 123.748 97.957 119.396 101.541C115.129 105.04 109.54 106.789 102.628 106.789C99.9827 106.789 97.38 106.49 94.82 105.893C92.26 105.381 89.956 104.57 87.908 103.461V89.125C91.492 90.5757 94.8627 91.301 98.02 91.301C104.335 91.301 108.9 88.3143 111.716 82.341C114.617 76.3677 116.068 66.6823 116.068 53.285C116.068 47.4823 115.855 40.869 115.428 33.445C115.001 25.9357 114.319 17.829 113.38 9.12499Z" fill="white"/>
<path d="M255 25.75C263.333 25.75 268.875 26.2917 271.625 27.375V33.5C269.375 33.8333 266.292 34.0417 262.375 34.125C258.458 34.125 254.292 34.1667 249.875 34.25C237.542 34.5 229.125 35.125 224.625 36.125C223.208 42.7917 222.542 47.3333 222.625 49.75C222.708 52.1667 222.792 54.0417 222.875 55.375C223.208 58.625 223.375 62.4583 223.375 66.875C229.042 66.875 235.5 66.375 242.75 65.375C250.083 64.375 255.75 63.6667 259.75 63.25C263.75 62.75 267.875 62.5 272.125 62.5V69.375L224.25 75.375L225 95.875C233.25 95.875 241.667 95.5 250.25 94.75C258.917 93.9167 265.458 93.3333 269.875 93C274.375 92.5833 279.125 92.375 284.125 92.375C284.125 94.0417 283.625 95.625 282.625 97.125C280.625 99.7917 278.833 100.583 277.25 99.5C262.583 101.083 249.458 102.333 237.875 103.25C226.375 104.167 218.625 104.792 214.625 105.125L215.125 25.375C217.292 26.0417 221.292 26.375 227.125 26.375L255 25.75Z" fill="white"/>
<path d="M347.875 43.75L336.75 43.5C333.833 43.5 330.458 43.7917 326.625 44.375C326.458 47.625 326.125 51.8333 325.625 57C323.875 75.3333 323 87.25 323 92.75C323 98.1667 323.083 102 323.25 104.25L311.5 105.125L315.375 43.375L288.75 41.875C288.083 41.875 287.542 41.3333 287.125 40.25C286.792 39.1667 286.625 38.1667 286.625 37.25C286.625 36.3333 287 35.3333 287.75 34.25C288.5 33.1667 289.375 32.625 290.375 32.625C296.458 32.875 302.583 33.2917 308.75 33.875C320.167 34.875 329.875 35.375 337.875 35.375L345.625 35.125C351.708 34.9583 357.75 34.2917 363.75 33.125C365.083 33.375 365.917 35.4583 366.25 39.375C366.333 40.2083 366.375 40.875 366.375 41.375C360.875 42.9583 354.708 43.75 347.875 43.75Z" fill="white"/>
<path d="M179.591 167.83C182.424 168.08 186.466 168.205 191.716 168.205C196.882 168.205 203.174 167.413 210.591 165.83L215.591 175.705L181.591 180.205C181.174 183.122 180.174 184.58 178.591 184.58C177.424 184.58 176.049 183.913 174.466 182.58C172.882 181.163 171.591 180.122 170.591 179.455C169.507 178.788 168.341 178.413 167.091 178.33C165.757 178.163 163.424 177.955 160.091 177.705C156.757 177.455 153.216 177.247 149.466 177.08C145.716 176.83 142.174 176.622 138.841 176.455C135.507 176.205 133.174 176.08 131.841 176.08C130.007 174.247 128.882 172.913 128.466 172.08C127.382 169.997 127.799 168.58 129.716 167.83L169.091 168.58C169.091 147.997 167.757 135.622 165.091 131.455H125.591C124.174 130.955 123.466 128.622 123.466 124.455C123.466 123.538 123.507 122.788 123.591 122.205C125.174 122.205 127.591 122.163 130.841 122.08C134.007 121.913 137.632 121.788 141.716 121.705C145.799 121.538 150.132 121.372 154.716 121.205C159.216 121.038 163.507 120.872 167.591 120.705C176.091 120.455 182.341 120.247 186.341 120.08C196.341 119.497 204.424 117.455 210.591 113.955C212.091 117.705 212.841 121.83 212.841 126.33C203.341 130.163 190.882 132.205 175.466 132.455C175.299 137.955 175.216 141.705 175.216 143.705C175.216 145.705 175.341 147.955 175.591 150.455C175.924 155.622 177.257 161.413 179.591 167.83Z" fill="white"/>
<path d="M271.091 120.83V117.33C271.091 115.913 271.216 114.58 271.466 113.33C271.716 111.997 272.632 111.33 274.216 111.33C277.549 110.747 279.174 112.705 279.091 117.205C279.007 118.455 278.924 119.622 278.841 120.705C278.757 121.705 278.757 122.538 278.841 123.205C278.841 123.872 279.049 124.163 279.466 124.08C281.882 123.247 284.591 122.372 287.591 121.455C290.591 120.455 293.591 119.372 296.591 118.205C304.007 115.205 309.341 112.372 312.591 109.705C314.341 111.122 315.799 112.788 316.966 114.705C318.132 116.538 318.716 117.538 318.716 117.705C318.716 117.788 318.674 117.872 318.591 117.955L281.466 135.58L289.841 169.705L295.091 170.955C304.674 173.372 311.341 176.08 315.091 179.08C315.924 179.58 316.007 180.622 315.341 182.205C314.341 184.872 313.507 186.205 312.841 186.205C312.674 186.205 310.257 185.33 305.591 183.58C300.924 181.83 296.216 180.08 291.466 178.33C286.632 176.497 281.591 174.622 276.341 172.705C271.091 170.705 266.091 168.83 261.341 167.08C256.591 165.33 252.341 163.747 248.591 162.33C244.757 160.913 242.007 159.913 240.341 159.33C238.591 158.747 237.091 158.372 235.841 158.205C234.507 157.955 233.382 157.622 232.466 157.205C230.549 156.372 229.591 154.288 229.591 150.955C231.591 147.372 234.216 144.622 237.466 142.705C240.632 140.705 244.049 139.038 247.716 137.705C251.382 136.288 255.091 134.913 258.841 133.58C262.591 132.247 266.007 130.455 269.091 128.205C270.257 127.455 270.882 126.33 270.966 124.83C271.049 123.33 271.091 121.997 271.091 120.83ZM244.091 152.08C249.174 152.747 254.382 154.247 259.716 156.58C265.049 158.913 269.216 160.788 272.216 162.205C275.132 163.622 277.841 164.83 280.341 165.83C280.341 160.163 278.674 153.205 275.341 144.955C274.424 142.872 273.591 140.872 272.841 138.955C256.091 142.872 246.507 147.247 244.091 152.08Z" fill="white"/>
<path d="M332.812 185.375L327.188 185.125V156C327.604 149.75 327.938 144.208 328.188 139.375C328.438 134.542 328.896 130.375 329.562 126.875C330.229 123.375 331.312 120.458 332.812 118.125C334.312 115.708 336.562 113.792 339.562 112.375C344.979 109.708 354.938 108.375 369.438 108.375C375.688 108.375 380.979 109 385.312 110.25C389.646 111.417 392.854 112.542 394.938 113.625C399.688 115.958 402.062 119.208 402.062 123.375C402.062 127.542 400.854 131.333 398.438 134.75C396.104 138.083 393.021 141 389.188 143.5C385.438 145.917 381.188 147.917 376.438 149.5C371.688 151.083 366.938 152.375 362.188 153.375C353.688 155.042 345.521 155.875 337.688 155.875L337.188 183.875C337.188 184.875 335.729 185.375 332.812 185.375ZM337.562 141.75C337.562 145.917 339.354 148 342.938 148C343.438 148 344.312 148 345.562 148C346.812 147.917 348.979 147.792 352.062 147.625C355.229 147.375 358.562 146.958 362.062 146.375C365.562 145.708 369.062 144.875 372.562 143.875C376.146 142.875 379.354 141.625 382.188 140.125C388.604 136.625 391.812 132.167 391.812 126.75C390.562 121.333 385.604 117.875 376.938 116.375C374.354 115.875 372.021 115.625 369.938 115.625C367.938 115.625 365.521 115.75 362.688 116C359.938 116.167 356.729 116.792 353.062 117.875C349.396 118.958 346.312 120.417 343.812 122.25C341.312 124.083 339.938 126.208 339.688 128.625C339.604 129.625 339.396 130.792 339.062 132.125C338.062 136.375 337.562 139.583 337.562 141.75Z" fill="white"/>
<path d="M414.815 185.125V89.125H431.711V178.981L424.159 171.429H464.35C470.238 171.429 474.889 169.936 478.302 166.949C481.716 163.877 483.422 159.824 483.422 154.789C483.422 149.669 481.716 145.616 478.302 142.629C474.889 139.557 470.238 138.021 464.35 138.021H422.495V124.325H465.118C472.372 124.325 478.644 125.605 483.935 128.165C489.225 130.725 493.321 134.309 496.223 138.917C499.124 143.44 500.574 148.73 500.574 154.789C500.574 160.762 499.124 166.053 496.223 170.661C493.321 175.184 489.225 178.725 483.935 181.285C478.644 183.845 472.372 185.125 465.118 185.125H414.815ZM511.07 89.125H527.966V185.125H511.07V89.125Z" fill="white"/>
<path d="M558.062 149.875C557.812 152.708 557.688 156.75 557.688 162C557.688 167.167 558.479 173.458 560.062 180.875L550.188 185.875L545.688 151.875C542.771 151.458 541.312 150.458 541.312 148.875C541.312 147.708 541.979 146.333 543.312 144.75C544.729 143.167 545.771 141.875 546.438 140.875C547.104 139.792 547.479 138.625 547.562 137.375C547.729 136.042 547.938 133.708 548.188 130.375C548.438 127.042 548.646 123.5 548.812 119.75C549.062 116 549.271 112.458 549.438 109.125C549.688 105.792 549.812 103.458 549.812 102.125C551.646 100.292 552.979 99.1667 553.812 98.75C555.896 97.6667 557.312 98.0833 558.062 100L557.312 139.375C577.896 139.375 590.271 138.042 594.438 135.375V95.875C594.938 94.4583 597.271 93.75 601.438 93.75C602.354 93.75 603.104 93.7917 603.688 93.875C603.688 95.4583 603.729 97.875 603.812 101.125C603.979 104.292 604.104 107.917 604.188 112C604.354 116.083 604.521 120.417 604.688 125C604.854 129.5 605.021 133.792 605.188 137.875C605.438 146.375 605.646 152.625 605.812 156.625C606.396 166.625 608.438 174.708 611.938 180.875C608.188 182.375 604.062 183.125 599.562 183.125C595.729 173.625 593.688 161.167 593.438 145.75C587.938 145.583 584.188 145.5 582.188 145.5C580.188 145.5 577.938 145.625 575.438 145.875C570.271 146.208 564.479 147.542 558.062 149.875Z" fill="white"/>
<path d="M621.562 183.25C621.562 182.917 621.646 182.417 621.812 181.75C622.062 181.083 622.271 179.375 622.438 176.625C622.688 173.875 622.854 170.583 622.938 166.75C623.104 162.833 623.229 158.583 623.312 154C623.479 149.333 623.604 144.583 623.688 139.75C623.854 134.917 624.021 130.208 624.188 125.625C624.354 120.958 624.604 116.708 624.938 112.875C625.688 104.542 626.688 99.5833 627.938 98C628.604 96.0833 630.854 95.125 634.688 95.125C634.688 95.125 635.271 95.125 636.438 95.125C636.438 98.2917 636.062 104.958 635.312 115.125C634.646 125.292 634.271 131.333 634.188 133.25C639.604 130.5 644.812 127.542 649.812 124.375C654.896 121.125 659.604 118.167 663.938 115.5C668.354 112.75 672.354 110.5 675.938 108.75C679.521 106.917 682.188 106 683.938 106C686.854 106 688.312 107.125 688.312 109.375C688.312 111.125 686.979 113.083 684.312 115.25C681.646 117.333 678.312 119.542 674.312 121.875C670.312 124.125 665.938 126.417 661.188 128.75C656.521 131.083 652.188 133.375 648.188 135.625C644.188 137.792 640.854 139.833 638.188 141.75C635.521 143.667 634.188 145.333 634.188 146.75C635.688 147.667 638.146 148.917 641.562 150.5C645.062 152 648.938 153.75 653.188 155.75C657.521 157.667 661.979 159.75 666.562 162C671.229 164.167 675.479 166.375 679.312 168.625C687.979 173.542 692.312 177.625 692.312 180.875C692.312 181.958 691.604 182.708 690.188 183.125C689.604 183.292 689.021 183.375 688.438 183.375H687.188C683.188 183.375 679.438 182.417 675.938 180.5C672.438 178.583 668.688 176.292 664.688 173.625C660.771 170.958 656.312 168.208 651.312 165.375C646.312 162.458 640.271 160.042 633.188 158.125V183.125C633.021 183.458 632.271 183.833 630.938 184.25C629.021 184.833 626.979 185.125 624.812 185.125C622.646 185.125 621.562 184.5 621.562 183.25Z" fill="white"/>
<path d="M737.812 105.75C746.146 105.75 751.688 106.292 754.438 107.375V113.5C752.188 113.833 749.104 114.042 745.188 114.125C741.271 114.125 737.104 114.167 732.688 114.25C720.354 114.5 711.938 115.125 707.438 116.125C706.021 122.792 705.354 127.333 705.438 129.75C705.521 132.167 705.604 134.042 705.688 135.375C706.021 138.625 706.188 142.458 706.188 146.875C711.854 146.875 718.312 146.375 725.562 145.375C732.896 144.375 738.562 143.667 742.562 143.25C746.562 142.75 750.688 142.5 754.938 142.5V149.375L707.062 155.375L707.812 175.875C716.062 175.875 724.479 175.5 733.062 174.75C741.729 173.917 748.271 173.333 752.688 173C757.188 172.583 761.938 172.375 766.938 172.375C766.938 174.042 766.438 175.625 765.438 177.125C763.438 179.792 761.646 180.583 760.062 179.5C745.396 181.083 732.271 182.333 720.688 183.25C709.188 184.167 701.438 184.792 697.438 185.125L697.938 105.375C700.104 106.042 704.104 106.375 709.938 106.375L737.812 105.75Z" fill="white"/>
</svg>
