<svg width="206" height="52" viewBox="3 3 201 40" fill="none" xmlns="http://www.w3.org/2000/svg">
  <!-- заливка -->
  <path
    d="
    M25.3 3.6
    C19.0 3.2 13.1 4.9 9.3 7.8
    C5.5 10.6 4.0 14.2 3.7 18.2
    C3.4 20.9 3.1 23.6 3.6 26.8
    C4.3 31.0 6.4 35.0 10.6 38.1
    C14.7 41.2 20.3 42.9 27.5 42.6

    C32.2 42.4 37.0 42.8 41.6 42.3
    C46.1 41.8 50.7 42.7 55.2 42.2
    C60.0 41.6 64.8 42.5 69.5 42.1
    C74.2 41.7 79.0 42.6 83.8 42.2
    C88.6 41.8 93.4 42.7 98.2 42.2
    C103.0 41.7 107.8 42.6 112.6 42.1
    C117.4 41.6 122.2 42.5 127.0 42.0
    C131.8 41.5 136.6 42.4 141.4 42.1
    C146.2 41.8 151.0 42.6 155.8 42.2
    C160.6 41.9 165.4 42.7 170.2 42.3
    C174.8 41.9 179.4 42.5 183.8 41.8

    C189.8 40.9 194.8 39.0 198.6 35.9
    C202.4 32.8 203.8 28.9 203.6 24.8
    C203.4 22.0 203.6 19.2 203.1 16.4
    C202.4 12.2 200.5 8.6 196.6 6.1
    C192.6 3.6 186.8 2.9 180.2 3.5

    C175.4 3.9 170.6 3.1 165.8 3.6
    C161.0 4.1 156.2 3.2 151.4 3.7
    C146.6 4.2 141.8 3.3 137.0 3.8
    C132.2 4.3 127.4 3.4 122.6 3.9
    C117.8 4.4 113.0 3.5 108.2 4.0
    C103.4 4.5 98.6 3.6 93.8 4.1
    C89.0 4.6 84.2 3.7 79.4 4.2
    C74.6 4.7 69.8 3.8 65.0 4.3
    C60.2 4.8 55.4 3.9 50.6 4.4
    C45.8 4.9 41.0 4.0 36.2 4.5
    C32.0 4.9 28.0 3.9 25.3 3.6

    Z"
    fill="black"
  />

  <!-- обводка -->
  <path
    d="
    M25.3 3.6
    C19.0 3.2 13.1 4.9 9.3 7.8
    C5.5 10.6 4.0 14.2 3.7 18.2
    C3.4 20.9 3.1 23.6 3.6 26.8
    C4.3 31.0 6.4 35.0 10.6 38.1
    C14.7 41.2 20.3 42.9 27.5 42.6

    C32.2 42.4 37.0 42.8 41.6 42.3
    C46.1 41.8 50.7 42.7 55.2 42.2
    C60.0 41.6 64.8 42.5 69.5 42.1
    C74.2 41.7 79.0 42.6 83.8 42.2
    C88.6 41.8 93.4 42.7 98.2 42.2
    C103.0 41.7 107.8 42.6 112.6 42.1
    C117.4 41.6 122.2 42.5 127.0 42.0
    C131.8 41.5 136.6 42.4 141.4 42.1
    C146.2 41.8 151.0 42.6 155.8 42.2
    C160.6 41.9 165.4 42.7 170.2 42.3
    C174.8 41.9 179.4 42.5 183.8 41.8

    C189.8 40.9 194.8 39.0 198.6 35.9
    C202.4 32.8 203.8 28.9 203.6 24.8
    C203.4 22.0 203.6 19.2 203.1 16.4
    C202.4 12.2 200.5 8.6 196.6 6.1
    C192.6 3.6 186.8 2.9 180.2 3.5

    C175.4 3.9 170.6 3.1 165.8 3.6
    C161.0 4.1 156.2 3.2 151.4 3.7
    C146.6 4.2 141.8 3.3 137.0 3.8
    C132.2 4.3 127.4 3.4 122.6 3.9
    C117.8 4.4 113.0 3.5 108.2 4.0
    C103.4 4.5 98.6 3.6 93.8 4.1
    C89.0 4.6 84.2 3.7 79.4 4.2
    C74.6 4.7 69.8 3.8 65.0 4.3
    C60.2 4.8 55.4 3.9 50.6 4.4
    C45.8 4.9 41.0 4.0 36.2 4.5
    C32.0 4.9 28.0 3.9 25.3 3.6

    Z"
    stroke="black"
    stroke-width="0.800726"
    fill="none"
    stroke-linecap="round"
    stroke-linejoin="round"
  />
</svg>
