<svg width="49" height="66" viewBox="0 0 49 66" fill="none" xmlns="http://www.w3.org/2000/svg">
<path d="M20.8749 25.002C20.7605 25.0815 19.4074 26.4334 18.1306 27.5836C17.9685 27.7296 17.8942 27.7904 17.2188 28.6642C16.5435 29.538 15.263 31.2142 13.8364 32.89C12.4097 34.5657 10.8758 36.1901 9.75444 37.3238C8.005 39.0924 7.02854 39.9571 6.27917 40.722C5.13098 41.894 4.01791 42.8749 3.27896 43.6613C1.91138 45.1167 1.45566 45.6092 1.10731 46.37C1.03638 46.5249 0.968765 46.608 0.996673 46.6598C1.3072 47.2364 3.16622 46.6082 4.2109 46.5061C5.7245 46.3568 6.66296 46.3747 6.92604 46.4231C7.08813 46.4527 7.30825 46.4923 7.57799 46.5463" stroke="#8C8C8C" stroke-width="1.98078" stroke-linecap="round"/>
<path d="M7.64795 46.75C7.64795 46.7583 7.64795 47.3503 7.68167 50.0414C7.70802 52.145 7.78282 55.7463 7.81358 57.93C7.85359 60.77 7.8804 61.8259 7.98482 62.4801C8.10067 63.2058 8.50213 63.513 9.29905 64.0431C9.82823 64.3951 10.272 64.5171 10.565 64.5934C10.9959 64.7056 12.2294 64.6849 14.4752 64.6567C15.7566 64.6406 17.3262 64.6379 18.5016 64.6015C21.5223 64.3672 22.351 64.2326 22.5723 64.2239C22.6876 64.2194 22.8091 64.2151 22.9545 64.0786" stroke="#8C8C8C" stroke-width="1.98078" stroke-linecap="round"/>
<path d="M22.9551 64.0783C22.9618 64.0783 24.1176 64.0807 26.1387 64.1222C27.5615 64.1515 28.6494 64.4239 29.8049 64.5911C32.1124 64.9249 32.8874 64.5757 33.294 64.3812C33.6699 64.2014 33.7727 63.2181 33.9668 61.6042C34.0888 60.5902 34.0774 59.1591 34.0909 56.9921C34.1045 54.8252 34.0971 51.9604 34.119 50.2506C34.141 48.5409 34.1925 48.0731 34.2564 47.7901C34.3203 47.5072 34.3949 47.4234 34.5884 47.3801C35.5552 47.1636 36.5317 47.6797 37.7052 47.9047C39.1289 47.8761 39.9011 47.6535 40.418 47.4658C40.5269 47.4315 40.6241 47.4097 40.9903 47.3496" stroke="#8C8C8C" stroke-width="1.98078" stroke-linecap="round"/>
<path d="M40.99 47.3509C40.975 47.1831 40.215 45.6203 39.5192 44.5755C39.2411 44.1578 38.5574 43.8086 37.6931 43.178C35.8713 41.5326 35.3513 40.8366 34.8524 39.9385C34.7406 39.7522 34.6743 39.6795 34.4106 39.5664" stroke="#8C8C8C" stroke-width="1.98078" stroke-linecap="round"/>
<path d="M36.109 26.5449C36.109 26.5544 36.1033 27.6059 35.867 30.9953C35.6364 33.338 35.181 36.9453 34.9465 38.9006C34.7119 40.8559 34.7119 41.05 34.7119 41.2501" stroke="#8C8C8C" stroke-width="1.98078" stroke-linecap="round"/>
<path d="M35.7765 26.0918C35.7446 26.0918 34.5087 26.0856 32.5756 26.0615C31.2084 25.9873 30.4448 26.0175 29.9395 26.0543C29.5772 26.0672 28.9997 26.0681 28.1963 25.9648" stroke="#8C8C8C" stroke-width="1.98078" stroke-linecap="round"/>
<path d="M27.2016 25.8789C27.2016 26.1399 27.2016 26.401 27.1964 27.4288C27.1911 28.4566 27.1806 30.2433 27.126 32.0146C27.0714 33.7859 26.973 35.4876 26.8135 37.435" stroke="#8C8C8C" stroke-width="1.98078" stroke-linecap="round"/>
<path d="M26.3662 30.9081C26.3587 30.9163 26.2799 30.8562 25.8934 30.3367C24.9693 29.0945 24.0354 27.5444 23.2098 26.4142C22.8229 25.9087 22.5012 25.5411 22.2758 25.302C22.0503 25.063 21.9308 24.9636 21.5776 24.7305" stroke="#8C8C8C" stroke-width="1.98078" stroke-linecap="round"/>
<path d="M22.2135 26.8965C22.113 26.9759 21.8103 27.2133 20.8015 28.2492C19.8887 29.1866 18.1729 30.9728 17.1583 32.0099C16.1437 33.0469 15.885 33.2839 15.4982 33.7184C15.1115 34.1528 14.6045 34.7776 13.0851 36.5362C11.5656 38.2948 9.0491 41.1683 7.74254 42.6867C6.43599 44.2051 6.41568 44.2813 6.4627 44.2882C6.50972 44.2952 6.62468 44.2305 9.30941 42.6384C11.9941 41.0463 17.2451 37.9289 20.5229 35.8564C23.8007 33.784 24.9461 32.8511 25.6419 32.3195C26.3378 31.7879 26.5493 31.686 26.6149 31.7299C26.6805 31.7739 26.5938 31.9668 25.7441 32.9284C24.8944 33.89 23.2843 35.6145 20.2496 38.2408C17.215 40.8671 12.8045 44.3429 10.4703 46.196C8.13599 48.0491 8.01157 48.1741 7.87964 48.341C7.74772 48.508 7.61206 48.7132 8.1543 48.3195C8.69654 47.9257 9.92079 46.9268 12.7583 44.8882C15.5958 42.8496 20.0095 39.8016 23.4048 37.2142C26.8001 34.6267 29.0432 32.5923 30.8174 31.1255C32.5916 29.6586 33.829 28.821 34.4721 28.4297C35.1152 28.0383 35.1266 28.1186 35.0222 28.3334C34.9177 28.5481 34.697 28.8949 33.7082 30.169C32.7193 31.4431 30.9689 33.6339 29.8399 34.9503C28.7109 36.2667 28.2563 36.6424 27.9075 36.9101C27.5586 37.1778 27.3293 37.3261 28.1643 37.1766C28.9994 37.027 30.9058 36.575 31.928 36.3369C33.0288 36.0806 33.2086 36.0777 33.3168 36.1238C33.3577 36.1413 33.2557 36.2623 30.3109 38.4708C27.3661 40.6794 21.5523 45.0014 17.5365 47.7484C13.5207 50.4954 11.4791 51.5366 10.2575 52.1377C9.03587 52.7389 8.69604 52.8686 8.58998 52.9252C8.48392 52.9817 8.62192 52.9612 12.1752 51.3008C15.7284 49.6405 22.6928 46.341 26.8259 44.4638C30.9591 42.5866 32.0501 42.2316 32.8024 42.0035C33.9297 41.6617 34.4963 41.5409 34.6834 41.5267C34.7213 41.5238 34.5642 41.6884 31.3846 43.437C28.205 45.1856 21.9874 48.5537 18.4127 50.5916C14.838 52.6295 14.0946 53.2352 13.5149 53.7584C12.511 54.6645 12.0381 55.2195 11.6838 55.4743C10.4932 56.3308 10.1414 56.6077 10.1404 56.7152C10.1396 56.8021 10.4609 56.6168 12.4793 55.7821C14.4978 54.9474 18.286 53.3825 20.445 52.5243C22.604 51.6661 23.0189 51.562 24.1407 51.1197C25.2625 50.6773 27.0786 49.8999 28.1628 49.4639C30.2369 48.6297 31.3734 48.7082 31.6202 48.752C31.6991 48.766 31.645 48.8835 31.5515 48.9885C31.4581 49.0935 31.3168 49.2131 29.2325 50.6713C27.1482 52.1296 23.1251 54.9227 20.9049 56.4901C18.6846 58.0574 18.389 58.3144 18.1568 58.4956C17.7759 58.7927 16.9744 59.1006 15.8911 59.4735C15.172 59.7211 14.7743 59.7548 14.6929 59.7572C14.4999 59.7629 15.2775 59.6597 15.9499 59.4056C16.4075 59.2327 17.072 58.8843 18.1711 58.189C19.2703 57.4937 20.7766 56.4399 21.8002 55.7837C22.8239 55.1274 23.3191 54.9006 24.4189 54.5296C25.5186 54.1586 27.2078 53.6504 28.1244 53.3838C29.513 52.9801 30.3593 52.9871 31.2347 52.8867C31.618 52.8427 31.8692 52.9026 32.0047 53.0004C32.0697 53.0472 32.0847 53.1443 32.0615 53.2352C32.0087 53.4418 31.223 54.0197 29.8529 55.1181C29.1341 55.6943 28.4335 56.4045 27.8059 56.9294C26.1348 58.3272 25.7471 58.2881 25.5146 58.3698C24.7656 58.6333 24.2721 59.9407 23.9034 60.7534C23.8106 60.9457 23.7301 61.0831 23.6507 61.1973C23.5712 61.3115 23.4952 61.3983 23.3452 61.5944" stroke="#8C8C8C" stroke-width="1.98078" stroke-linecap="round"/>
<path d="M8.73095 56.6447C8.73095 56.6628 9.06163 57.1016 9.75292 57.9603C10.9121 59.4003 11.3956 59.8594 11.976 60.3073C12.675 60.8468 13.4908 61.4229 14.1028 61.8146C14.4778 62.0545 14.7319 62.3426 14.9776 62.5371C15.0579 62.6006 15.0966 62.4939 15.0871 62.3674C15.0777 62.2409 15.0313 62.0725 14.4422 60.938C13.8532 59.8036 12.7229 57.7082 11.769 56.1628C10.815 54.6173 10.0718 53.6852 9.64068 53.1198C9.20958 52.5544 9.11316 52.3839 9.14429 52.3489C9.17543 52.314 9.33704 52.4197 9.98814 53.046C10.6392 53.6723 11.775 54.8161 12.5544 55.5722C13.3339 56.3284 13.7227 56.6622 14.7828 57.6501C15.843 58.6379 17.5626 60.2696 18.4822 61.1546C19.6357 62.2646 19.8821 62.5119 20.0749 62.5816C20.1485 62.6083 20.1877 62.4839 20.1961 62.3407C20.2392 61.6114 19.8128 60.7078 19.1571 59.46C18.7597 58.7039 18.0853 57.7959 17.189 56.7143C16.2928 55.6328 15.1578 54.4302 14.3977 53.6607C13.6377 52.8912 13.287 52.5912 12.6741 51.9626C12.0611 51.334 11.1966 50.3857 10.5878 49.6705C9.62015 48.5338 9.12175 47.817 8.77201 47.405C8.24458 46.7837 8.08144 46.2031 8.0337 45.9001C8.02052 45.8164 8.1242 45.873 9.30473 47.1268C10.4853 48.3806 12.7636 50.8294 15.4219 53.3422C18.0802 55.8551 21.0493 58.3579 22.6342 59.7163C24.7101 61.4954 25.248 61.9749 25.3244 62.0009C25.3796 62.0197 25.2507 61.7187 24.2061 59.7623C23.1616 57.8059 21.1498 54.1185 19.5642 51.5284C17.9786 48.9382 16.8803 47.557 15.7395 46.3261C14.5988 45.0952 13.449 44.0565 12.6522 43.2715C11.4014 42.0391 10.7691 41.2027 10.3062 40.6885C10.0919 40.4505 9.94897 40.2286 11.8187 41.8227C13.6884 43.4168 17.5826 46.826 20.9172 49.9609C24.2517 53.0958 26.9086 55.8533 28.3677 57.4074C29.8268 58.9614 30.0076 59.2285 30.2941 59.7888C31.0024 61.1741 31.4578 62.1996 31.6214 62.3288C31.7692 62.4455 31.7158 61.6665 31.4359 60.657C31.2538 60.0002 30.8973 59.083 28.7822 55.1197C26.667 51.1564 22.7803 44.1832 20.6637 40.2993C18.5472 36.4155 18.3185 35.8323 18.0099 35.1236C17.7013 34.4148 17.3197 33.5981 17.1976 33.2345C17.0755 32.8709 17.2245 32.9851 19.8463 35.5157C22.468 38.0464 27.5579 42.99 30.1733 45.4812C32.7887 47.9724 32.7754 47.8614 32.7216 47.6898C32.6677 47.5183 32.5736 47.2895 31.4109 45.3517C30.2482 43.414 28.0196 39.7742 26.3733 36.7605C24.7271 33.7468 23.7306 31.4694 23.1836 30.2563C22.4968 28.7329 22.1118 28.5572 21.9269 28.3931C21.8132 28.2923 21.7071 28.0984 23.5469 30.3479C25.3867 32.5973 29.1877 37.2814 31.4075 39.9589C33.6273 42.6364 34.1506 43.1653 34.4454 43.4669C34.9162 43.9485 35.4447 44.7558 35.7644 45.1102C35.8164 45.1678 35.7097 44.8021 35.2167 43.5686C34.7237 42.3351 33.791 40.1021 33.1811 38.3526C32.5711 36.6031 32.312 35.4047 31.8327 33.912C31.3533 32.4193 30.6616 30.6685 30.2427 29.54C29.8239 28.4115 29.699 27.9583 29.6151 27.6884C29.5311 27.4185 29.4919 27.3455 29.4226 27.248" stroke="#8C8C8C" stroke-width="1.98078" stroke-linecap="round"/>
<path d="M31.5539 25.4037C31.4505 25.3549 31.1426 25.093 30.6085 24.0528C30.4402 23.7252 30.2669 22.8787 29.9724 20.858C29.7851 19.5733 29.7195 17.7323 29.6651 16.6342C29.5954 15.2303 29.7702 14.4886 30.0616 13.7398C30.4512 12.7389 31.2287 12.4562 31.9243 12.1644C32.4732 11.9341 33.0752 12.1306 33.226 12.2894C33.7183 12.8075 33.6375 14.2082 33.5259 14.8135C33.4454 15.2498 32.269 15.4786 30.2907 15.6502C29.3135 15.735 28.7126 15.2006 28.3143 14.7432C27.7806 14.1303 27.839 13.0493 27.8204 10.375C27.8112 9.04829 28.3258 8.06942 29.0969 6.86078C30.173 5.17395 31.1836 4.73575 32.1105 4.3499C32.4356 4.21455 32.8728 4.15905 33.681 4.09322C34.4893 4.0274 35.6664 3.99043 36.5233 4.00255C37.3801 4.01466 37.881 4.07696 38.5252 4.21312C39.9502 4.51426 41.2106 4.98011 42.0384 5.3693C43.272 5.94933 44.2951 7.24317 44.6578 7.80852C44.8009 8.03149 44.7816 8.34058 44.7511 8.57212C44.7373 8.67691 44.6571 8.73753 44.5627 8.78066C43.9588 9.05651 43.0291 8.62862 42.2275 8.27371C41.9339 8.14369 41.7275 7.91442 41.5206 7.66202C41.0343 7.0685 41.434 5.59133 41.6897 4.94977C41.8345 4.58645 42.1297 4.3791 42.6162 3.99594C43.7212 3.12568 44.7979 2.47335 45.4264 2.13773C45.744 1.94076 46.0588 1.68968 46.3302 1.50282C46.6015 1.31596 46.8197 1.20092 47.2566 1" stroke="#8C8C8C" stroke-width="2" stroke-linecap="round"/>
</svg>
