<svg width="42" height="42" viewBox="0 0 42 42" fill="none" xmlns="http://www.w3.org/2000/svg">
<path d="M20.8847 1.27148C20.7703 1.35103 19.4172 2.70295 18.1403 3.85311C17.9782 3.99912 17.904 4.05992 17.2286 4.93373C16.5532 5.80754 15.2727 7.48377 13.8461 9.15949C12.4195 10.8352 10.8855 12.4596 9.7642 13.5933C8.01477 15.362 7.03831 16.2267 6.28893 16.9915C5.14074 18.1635 4.02767 19.1444 3.28873 19.9308C1.92115 21.3862 1.46542 21.8788 1.11708 22.6395C1.04614 22.7944 0.97853 22.8776 1.00644 22.9294C1.31697 23.5059 3.17599 22.8778 4.22067 22.7756C5.73427 22.6264 6.67272 22.6442 6.9358 22.6927C7.09789 22.7222 7.31802 22.7618 7.58775 22.8158" stroke="#8C8C8C" stroke-width="2" stroke-linecap="round"/>
<path d="M7.65869 23.0195C7.65869 23.0278 7.65869 23.6198 7.69241 26.3109C7.71877 28.4145 7.79356 32.0159 7.82433 34.1995C7.86433 37.0395 7.89114 38.0954 7.99556 38.7496C8.11142 39.4753 8.51287 39.7825 9.3098 40.3126C9.83897 40.6646 10.2827 40.7867 10.5757 40.8629C11.0066 40.9751 12.2401 40.9545 14.4859 40.9262C15.7674 40.9101 17.337 40.9075 18.5123 40.871C21.533 40.6367 22.3617 40.5022 22.583 40.4934C22.6984 40.489 22.8198 40.4846 22.9653 40.3482" stroke="#8C8C8C" stroke-width="2" stroke-linecap="round"/>
<path d="M22.9648 40.3478C22.9716 40.3478 24.1274 40.3502 26.1485 40.3918C27.5712 40.421 28.6591 40.6935 29.8147 40.8606C32.1222 41.1945 32.8972 40.8452 33.3038 40.6507C33.6797 40.4709 33.7825 39.4876 33.9766 37.8737C34.0986 36.8597 34.0872 35.4286 34.1007 33.2617C34.1143 31.0947 34.1069 28.2299 34.1288 26.5201C34.1508 24.8104 34.2023 24.3426 34.2662 24.0597C34.3301 23.7768 34.4047 23.6929 34.5982 23.6496C35.565 23.4331 36.5415 23.9492 37.715 24.1742C39.1387 24.1456 39.9109 23.9231 40.4278 23.7353C40.5367 23.701 40.6338 23.6792 41.0001 23.6192" stroke="#8C8C8C" stroke-width="2" stroke-linecap="round"/>
<path d="M41.0002 23.6204C40.9853 23.4526 40.2253 21.8898 39.5295 20.845C39.2513 20.4273 38.5676 20.0781 37.7034 19.4475C35.8816 17.8022 35.3616 17.1062 34.8626 16.208C34.7509 16.0217 34.6845 15.949 34.4209 15.8359" stroke="#8C8C8C" stroke-width="2" stroke-linecap="round"/>
<path d="M36.1178 2.81445C36.1178 2.82391 36.1121 3.87541 35.8758 7.26481C35.6452 9.60758 35.1898 13.2148 34.9553 15.1701C34.7207 17.1254 34.7207 17.3196 34.7207 17.5196" stroke="#8C8C8C" stroke-width="2" stroke-linecap="round"/>
<path d="M35.7862 2.36138C35.7543 2.36138 34.5185 2.35514 32.5853 2.33106C31.2182 2.25679 30.4545 2.28698 29.9493 2.32383C29.5869 2.33668 29.0095 2.33765 28.2061 2.23438" stroke="#8C8C8C" stroke-width="2" stroke-linecap="round"/>
<path d="M27.2119 2.14844C27.2119 2.40947 27.2119 2.67049 27.2066 3.69831C27.2014 4.72613 27.1908 6.51282 27.1362 8.28411C27.0816 10.0554 26.9833 11.7572 26.8237 13.7045" stroke="#8C8C8C" stroke-width="2" stroke-linecap="round"/>
<path d="M26.3755 7.17762C26.368 7.18588 26.2891 7.12569 25.9027 6.60626C24.9786 5.36403 24.0446 3.81393 23.2191 2.68377C22.8322 2.17821 22.5105 1.81063 22.285 1.57157C22.0596 1.3325 21.9401 1.2331 21.5869 1" stroke="#8C8C8C" stroke-width="2" stroke-linecap="round"/>
</svg>
