<svg width="56" height="54" viewBox="0 0 56 54" fill="none" xmlns="http://www.w3.org/2000/svg">
<path d="M3.00125 3.74103C3.00125 3.74692 2.98829 3.84436 3.14062 3.93976C3.38466 4.09259 4.31465 3.68211 5.07995 3.58343C6.84586 3.35572 9.06008 3.59559 11.6315 3.67986C13.6014 3.74442 16.2606 4.06996 18.0931 4.11066C20.5871 4.16606 22.1134 4.03444 23.4288 4.13661C24.6733 4.23327 26.2952 4.03644 27.9832 3.96464C30.3982 3.86191 31.8762 3.718 32.9846 3.52677C33.6779 3.40715 34.1128 3.21062 34.6094 3.11071C35.9788 2.83523 38.4004 3.14831 39.6399 3.2492C41.0112 3.36084 43.3634 3.38573 46.1009 3.46266C46.9959 3.52653 47.8539 3.59703 49.249 3.64076C50.1464 3.65563 51.4287 3.65563 53.001 3.6324" stroke="black" stroke-width="6" stroke-linecap="round"/>
<path d="M3.00098 28.1358C4.26814 27.7855 6.11594 27.4021 6.69569 27.4195C7.30438 27.4378 7.85136 27.8806 8.54457 28.1767C9.58492 28.621 11.1797 28.4191 12.5821 28.4762C13.8889 28.5293 14.905 27.8678 16.2491 27.6313C18.4121 27.2507 19.6515 28.0186 20.8887 27.9988C22.2654 27.9768 27.1069 28.2759 30.3777 28.1597C31.9252 28.1047 33.0776 27.8624 35.0339 27.6624C40.1062 27.1439 41.6793 28.2702 44.0594 28.5812C46.9796 28.5904 49.3001 28.4777 50.4278 28.2982C51.099 28.2129 51.971 28.1397 53.001 28.0449" stroke="black" stroke-width="6" stroke-linecap="round"/>
<path d="M3.00098 49.9157C3.27365 50.0159 3.74534 50.1717 4.40952 50.2374C5.17913 50.3135 5.79465 49.7196 6.75896 49.5726C8.01618 49.3808 9.28531 49.6804 10.3828 49.9687C11.8992 50.3671 16.7125 50.7185 23.6073 50.6503C29.9694 50.5874 31.4945 50.0204 33.2377 50.0337C35.097 50.0479 37.5216 50.3149 38.9926 50.3785C40.9477 50.463 45.8303 50.6077 49.5836 50.6748C50.2081 50.5996 50.7208 50.4587 51.274 50.351C51.8272 50.2433 52.4053 50.173 53.001 50.1005" stroke="black" stroke-width="6" stroke-linecap="round"/>
</svg>
