<svg width="40" height="40" viewBox="0 0 40 40" fill="none" xmlns="http://www.w3.org/2000/svg">
<path d="M24.0785 21.4164C24.581 21.7635 25.0741 22.2967 25.4434 22.7229C25.814 23.1508 26.2139 23.6577 26.4054 23.8879C26.653 24.1855 27.0064 24.5739 27.4408 25.0435L28.9649 26.6851L28.985 26.7071L29.0041 26.7301C29.3545 27.1431 29.664 27.5161 30.2019 28.1029C30.557 28.4789 31.0784 29.0133 31.7321 29.6649C32.2908 30.222 32.3035 31.1384 31.7607 31.7117C31.2178 32.2849 30.3249 32.2982 29.7662 31.7413C29.0944 31.0716 28.549 30.5119 28.1678 30.108L28.1606 30.1007L28.1538 30.093C27.5787 29.4659 27.2331 29.0509 26.8963 28.6536C25.8293 27.4977 24.8143 26.4333 24.2596 25.7664C23.9751 25.4244 23.6954 25.0619 23.3349 24.6457C22.9731 24.228 22.6832 23.942 22.5031 23.8176C22.4452 23.7776 22.3909 23.7484 22.22 23.6517C22.0652 23.5641 21.8604 23.4448 21.6258 23.2733C21.0162 22.8273 20.2918 22.2082 19.2261 21.2016C18.868 20.8633 18.5371 20.5752 18.1641 20.2345C17.8188 19.919 17.4488 19.5684 17.143 19.2035C16.9379 18.9586 16.685 18.7023 16.3144 18.3334C15.954 17.9744 15.5088 17.5341 14.9794 16.9669C14.5711 16.5295 14.1114 15.9758 13.6816 15.4575C13.2369 14.9213 12.8182 14.416 12.4491 14.0124C11.9655 13.4835 11.3839 12.8105 11.0189 12.4071C10.5894 11.9323 10.2393 11.5767 9.91926 11.3214C9.83357 11.2531 9.72364 11.1917 9.47412 11.0412C9.38097 10.9851 9.22989 10.8929 9.09198 10.7851C9.02167 10.7301 8.91642 10.6417 8.81243 10.5209C8.71823 10.4115 8.54271 10.182 8.46145 9.83966C8.39218 9.54771 8.38876 9.20424 8.51859 8.86227C8.58064 8.6989 8.66343 8.56267 8.75041 8.45252C8.78028 8.41472 8.83275 8.35782 8.86665 8.32194C9.4182 7.76666 10.3038 7.76983 10.8514 8.3316C10.948 8.43075 11.0267 8.54143 11.0894 8.6584C11.1339 8.68514 11.1804 8.71196 11.2222 8.73801C11.3445 8.81423 11.4987 8.91519 11.6504 9.03616C12.159 9.44177 12.6366 9.94021 13.0868 10.438C13.6016 11.0071 13.9521 11.4256 14.5066 12.032C14.9329 12.498 15.4008 13.0641 15.8303 13.582C16.2747 14.1179 16.6773 14.6015 17.0167 14.9651C17.5049 15.4881 17.9135 15.8923 18.2791 16.2563C18.6346 16.6103 18.9803 16.9559 19.2823 17.3163C19.4563 17.524 19.7043 17.7657 20.0401 18.0725C20.3483 18.3541 20.7624 18.7182 21.1372 19.0722C22.1687 20.0466 22.7935 20.5728 23.2632 20.9164C23.3662 20.9918 23.461 21.0482 23.583 21.1173C23.6888 21.1772 23.8889 21.2855 24.0785 21.4164ZM8.86665 8.32194C8.86341 8.3252 8.8598 8.3283 8.85658 8.3316C8.91841 8.26816 8.90385 8.28255 8.86665 8.32194Z" fill="black"/>
<path d="M27.4838 9.69821C27.7823 9.4258 28.0915 9.17952 28.2929 9.00864C28.5227 8.81362 28.7591 8.59832 29.026 8.35505C29.6084 7.8243 30.4999 7.87855 31.0172 8.47597C31.5346 9.07356 31.4821 9.98856 30.8997 10.5194C30.6404 10.7557 30.3658 11.0061 30.0906 11.2396C29.799 11.487 29.6256 11.6203 29.3883 11.8349C27.845 13.4465 25.8695 15.5332 25.0831 16.3747C24.5515 16.9437 23.502 18.135 22.736 18.9268C22.3373 19.339 21.9083 19.7143 21.337 20.243C20.7417 20.7937 19.9032 21.589 18.586 22.9276C15.6852 25.8754 13.8178 27.9418 13.333 28.5851C12.9355 29.1126 12.39 29.8253 11.707 30.4293C11.407 30.6946 11.118 30.8799 10.9564 30.9889C10.7773 31.1097 10.7388 31.1465 10.7158 31.1725C10.5051 31.4106 10.3778 31.5921 10.307 31.6965C9.86182 32.3523 8.9826 32.5136 8.34337 32.0569C7.70411 31.6001 7.54685 30.6981 7.99207 30.0422C8.10795 29.8715 8.31066 29.5842 8.62714 29.2267C8.90963 28.9075 9.21254 28.7012 9.40636 28.5704C9.61766 28.4279 9.73338 28.3528 9.86513 28.2363C10.3085 27.8442 10.7004 27.346 11.1012 26.8142C11.7195 25.9938 13.7236 23.7947 16.6009 20.8709C17.9495 19.5005 18.8199 18.6742 19.4477 18.0933C20.0993 17.4904 20.4083 17.2241 20.7337 16.8877C21.5127 16.0826 22.3771 15.0879 23.0464 14.3716C23.8497 13.5119 25.8607 11.3881 27.4149 9.7655L27.4484 9.73052L27.4838 9.69821Z" fill="black"/>
</svg>
