<svg width="40" height="40" viewBox="0 0 40 40" fill="none" xmlns="http://www.w3.org/2000/svg">
<path d="M22.7945 8.07904C23.3058 7.97616 23.9055 7.994 24.3436 8.02055C24.7836 8.04721 25.3021 8.10276 25.5174 8.1203C25.8112 8.14421 26.2119 8.15885 26.7044 8.17198L28.4435 8.21551L28.4734 8.21642L28.5034 8.21868C28.9231 8.24864 29.2905 8.2792 29.8989 8.29848C30.2963 8.30491 30.8727 8.30451 31.5872 8.29395C32.3562 8.28268 32.989 8.89688 33.0004 9.66594C33.0118 10.4351 32.3972 11.0678 31.628 11.0792C30.8887 11.0901 30.2782 11.0905 29.8426 11.0833L29.8322 11.0828H29.8222C29.1622 11.0621 28.7402 11.028 28.3424 10.9994C27.133 10.9656 25.9732 10.9524 25.2917 10.8969C24.9314 10.8676 24.6002 10.827 24.1754 10.8013C23.7488 10.7754 23.4683 10.7849 23.344 10.8099C23.3075 10.8172 23.2789 10.8261 23.1232 10.8724C22.9856 10.9134 22.7931 10.9686 22.5515 11.0103C21.951 11.1139 21.1965 11.1838 20.052 11.2324C19.6717 11.2486 19.344 11.2764 18.9417 11.3005C18.5768 11.3222 18.1619 11.3399 17.7706 11.3095C17.5405 11.2917 17.2754 11.2928 16.8666 11.2991C16.472 11.3052 15.9797 11.3149 15.3704 11.3014C14.8945 11.2908 14.3282 11.2437 13.8104 11.2007C13.2692 11.1558 12.7708 11.1146 12.3559 11.101C11.8116 11.0831 11.0839 11.0391 10.6871 11.0239C10.194 11.005 9.82781 11.0079 9.53821 11.0452C9.48015 11.0527 9.4148 11.0728 9.17868 11.1359C9.09671 11.1578 8.94609 11.1976 8.78969 11.2193C8.70976 11.2304 8.58007 11.244 8.42744 11.2343C8.2886 11.2254 8.00964 11.1908 7.72063 11.0098C7.48046 10.8594 7.25457 10.6298 7.1199 10.3143C7.05574 10.164 7.02259 10.0181 7.00928 9.8872C7.00475 9.84258 7.0032 9.77039 7.00248 9.72398C7.00949 8.96079 7.63001 8.34435 8.3948 8.34428C8.50064 8.34428 8.60356 8.35727 8.70264 8.37964C8.71672 8.376 8.73116 8.37197 8.74571 8.36831C8.86005 8.33954 9.01413 8.30424 9.18186 8.28261C9.71206 8.21425 10.2699 8.21988 10.7941 8.23999C11.4145 8.2638 11.7977 8.29534 12.4471 8.31662C12.9467 8.333 13.5233 8.38162 14.0407 8.42453C14.5813 8.46936 15.0578 8.50779 15.4325 8.51612C15.9811 8.5283 16.4221 8.52004 16.824 8.51385C17.2114 8.50788 17.6059 8.50243 17.9864 8.53199C18.1728 8.54646 18.4238 8.54076 18.7757 8.51974C19.0901 8.50097 19.5305 8.46662 19.9337 8.44947C21.0314 8.40277 21.6495 8.33889 22.0781 8.26493C22.1583 8.25109 22.2279 8.23253 22.3293 8.20236C22.4126 8.17757 22.6004 8.11808 22.7945 8.07904ZM7.00248 9.72398C7.00244 9.72833 7.00203 9.73277 7.00203 9.73713C7.00203 9.65284 7.00168 9.67256 7.00248 9.72398Z" fill="white"/>
<path d="M10.2347 19.3413C10.6517 19.3717 10.9785 19.5269 11.1465 19.611C11.2323 19.654 11.3425 19.7135 11.3863 19.7366C11.4484 19.7694 11.4853 19.7875 11.5137 19.7997C11.4884 19.7888 11.5586 19.8193 11.8651 19.8246C12.0033 19.827 12.1455 19.8247 12.3262 19.8228C12.4954 19.8209 12.6958 19.8195 12.8979 19.8278C12.9481 19.8298 13.0265 19.823 13.2597 19.748C13.4463 19.6879 13.8666 19.5322 14.3024 19.4555C15.0276 19.3279 15.6047 19.397 16.0461 19.4823C16.1498 19.5023 16.2466 19.5236 16.3254 19.5408C16.4094 19.5591 16.4698 19.5723 16.5267 19.5834C16.5814 19.5941 16.618 19.5994 16.6437 19.6024C16.6644 19.6048 16.674 19.6051 16.6754 19.6051C17.0396 19.5993 17.8322 19.6344 18.6154 19.6596C19.4466 19.6862 20.3463 19.7055 21.0536 19.6804C21.7275 19.6565 22.0449 19.5662 23.1228 19.456C25.5712 19.2057 26.8986 19.7601 27.5632 19.8754C28.8613 19.8766 29.8001 19.824 30.1923 19.7616L30.2141 19.7579L30.2359 19.7552C30.5788 19.7117 31.0223 19.6743 31.4781 19.6323C32.244 19.5618 32.9222 20.1255 32.9928 20.8914C33.0633 21.6574 32.4997 22.3357 31.7338 22.4063C31.2333 22.4523 30.867 22.4831 30.5868 22.5187L30.5863 22.5182C29.9332 22.6163 28.7794 22.6652 27.4503 22.6611H27.3619L27.2744 22.6493C25.703 22.4439 25.5755 22.0054 23.4062 22.2272C22.6678 22.3027 21.9153 22.4376 21.1525 22.4647C20.3415 22.4936 19.358 22.4706 18.5261 22.4439C17.646 22.4156 16.9948 22.386 16.7198 22.3904C16.4335 22.395 16.1797 22.3538 15.9931 22.3174C15.8996 22.2991 15.8061 22.2784 15.7315 22.2621C15.6515 22.2446 15.5843 22.2301 15.5175 22.2172C15.2766 22.1707 15.0636 22.15 14.7848 22.1991C14.5969 22.2321 14.4693 22.2851 14.1125 22.3999C13.8022 22.4997 13.3409 22.6338 12.7845 22.6112C12.6611 22.6062 12.5246 22.6066 12.357 22.6085C12.2007 22.6102 12.0055 22.6135 11.817 22.6103C11.4701 22.6043 10.9282 22.5786 10.4197 22.3614C10.2872 22.3048 10.1717 22.2455 10.0869 22.2009C10.0485 22.1806 10.0009 22.1551 9.9745 22.141C9.97332 22.1404 9.97202 22.1398 9.97087 22.1392C9.88151 22.1527 9.76961 22.1719 9.64172 22.1972C9.3511 22.2549 9.02265 22.3325 8.76398 22.404C8.0227 22.6088 7.25568 22.1741 7.05068 21.4328C6.84574 20.6914 7.28086 19.9239 8.02226 19.7189C8.35184 19.6278 8.74688 19.535 9.09948 19.465C9.39045 19.4073 9.83024 19.3271 10.1504 19.3367L10.2347 19.3413Z" fill="white"/>
<path d="M30.1878 32.9086C30.5385 32.8664 30.9444 32.7676 31.0723 32.7426C31.2717 32.7038 31.4896 32.6764 31.776 32.6415C32.5395 32.5486 33.0834 31.8545 32.9906 31.0909C32.8977 30.3273 32.2032 29.7834 31.4396 29.8762C31.1729 29.9087 30.8538 29.947 30.5396 30.0082C30.204 30.0735 30.1072 30.105 29.9366 30.1306C28.2176 30.0988 26.0381 30.0342 25.1644 29.9964C24.852 29.9829 24.4401 29.9481 23.9398 29.9107C23.4643 29.8751 22.926 29.8391 22.4432 29.8354C21.9333 29.8315 21.3927 29.9157 20.8542 29.9728C20.2507 30.0368 19.3798 30.1074 17.948 30.1215C16.3725 30.1371 15.045 30.1046 14.0349 30.0467C12.982 29.9864 12.3768 29.9035 12.1761 29.8508C11.6792 29.7203 10.8315 29.4993 9.92962 29.6368C9.52292 29.6989 9.17781 29.8545 9.04191 29.9139C8.96839 29.8983 8.91419 29.88 8.87552 29.8658C8.15356 29.6004 7.35327 29.9708 7.08786 30.6928C6.82251 31.4148 7.19243 32.2152 7.91436 32.4806C8.107 32.5514 8.44665 32.6626 8.91179 32.7086L9.01697 32.7163C9.53639 32.7399 9.94864 32.5554 10.1046 32.4892C10.2222 32.4393 10.2579 32.4229 10.3095 32.404C10.3461 32.3906 10.3549 32.39 10.3494 32.3908C10.6149 32.3503 10.9458 32.4078 11.4679 32.545C11.9713 32.6772 12.8356 32.7683 13.8758 32.8279C14.9593 32.8899 16.3498 32.9233 17.9752 32.9072C19.4967 32.8922 20.4566 32.8164 21.1479 32.7431C21.9042 32.6629 22.1226 32.6184 22.4219 32.6207C22.8023 32.6236 23.2584 32.6532 23.7322 32.6887C24.1812 32.7223 24.6737 32.7638 25.0443 32.7798C25.9673 32.8197 28.2464 32.8873 29.9965 32.9186L30.0926 32.9199L30.1878 32.9086Z" fill="white"/>
</svg>
