<svg width="71" height="54" viewBox="0 0 71 54" fill="none" xmlns="http://www.w3.org/2000/svg">
<path d="M3.00015 3.63729C3.00015 3.64235 2.99315 3.72615 3.07541 3.80819C3.20719 3.93962 3.70938 3.58661 4.12265 3.50175C5.07624 3.30592 6.27192 3.51221 7.66047 3.58468C8.72424 3.6402 10.1602 3.92016 11.1497 3.95517C12.4965 4.00281 13.3207 3.88962 14.031 3.97748C14.7031 4.06061 15.5789 3.89134 16.4904 3.82959C17.7945 3.74125 18.5926 3.61748 19.1911 3.45302C19.5656 3.35015 19.8004 3.18113 20.0686 3.09521C20.808 2.85829 22.1157 3.12755 22.785 3.21432C23.5255 3.31032 24.7957 3.33173 26.2739 3.39789C26.7573 3.45281 27.2206 3.51345 27.9739 3.55106C28.4586 3.56384 29.1509 3.56384 30 3.54386" stroke="black" stroke-width="6" stroke-linecap="round"/>
<path d="M13.5557 28.1348C14.4608 27.7846 15.7806 27.4011 16.1947 27.4185C16.6295 27.4368 17.0202 27.8796 17.5154 28.1757C18.2585 28.6201 19.3976 28.4182 20.3993 28.4752C21.3328 28.5283 22.0585 27.8668 23.0186 27.6303C24.5636 27.2497 25.4489 28.0177 26.3326 27.9978C27.316 27.9758 30.7742 28.2749 33.1105 28.1587C34.2158 28.1038 35.039 27.8615 36.4363 27.6615C40.0594 27.1429 41.1831 28.2692 42.8831 28.5802C44.969 28.5894 46.6265 28.4768 47.432 28.2972C47.9114 28.212 48.5343 28.1387 49.27 28.0439" stroke="black" stroke-width="6" stroke-linecap="round"/>
<path d="M18 49.9147C18.2727 50.0149 18.7444 50.1707 19.4085 50.2364C20.1782 50.3125 20.7937 49.7187 21.758 49.5716C23.0152 49.3799 24.2843 49.6794 25.3819 49.9677C26.8982 50.3661 31.7115 50.7175 38.6063 50.6494C44.9684 50.5864 46.4935 50.0194 48.2367 50.0327C50.096 50.0469 52.5206 50.3139 53.9916 50.3775C55.9467 50.4621 60.8293 50.6068 64.5826 50.6738C65.2072 50.5986 65.7198 50.4578 66.273 50.35C66.8262 50.2423 67.4043 50.172 68 50.0995" stroke="black" stroke-width="6" stroke-linecap="round"/>
</svg>
