<svg width="53" height="53" viewBox="0 0 53 53" fill="none" xmlns="http://www.w3.org/2000/svg">
<path d="M25.4619 0.593146C26.103 0.147168 26.9846 0.305557 27.4306 0.946662C27.8766 1.58789 27.7183 2.4694 27.0771 2.91541C27.1608 2.85715 27.2049 2.81009 27.1093 2.89881C27.0546 2.94959 26.9769 3.02381 26.8759 3.12049C26.6715 3.31611 26.4058 3.57245 26.079 3.88612C25.4366 4.50285 24.6015 5.29808 23.7861 6.0326C23.704 6.10655 23.6785 6.12567 23.58 6.23963C23.4539 6.38557 23.2408 6.65003 22.8183 7.19666C21.9796 8.28181 20.3579 10.4056 18.5488 12.5306C16.7372 14.6586 14.7944 16.7157 13.3749 18.1508C12.2692 19.2686 11.4076 20.1019 10.707 20.7728C9.9987 21.4511 9.48292 21.9368 9.03509 22.3939C8.29788 23.1464 7.57382 23.8355 6.93353 24.4457C6.2826 25.0661 5.73523 25.59 5.3056 26.0472C4.75493 26.6333 4.34018 27.0794 4.01947 27.4359C4.02691 27.4345 4.03446 27.4335 4.04193 27.432C4.44143 27.3533 4.89615 27.2666 5.30072 27.2269C6.27917 27.1304 7.08439 27.0865 7.69818 27.0756C8.26833 27.0654 8.76897 27.081 9.08685 27.139C9.28712 27.1756 9.57542 27.2279 9.9267 27.2982C10.6924 27.4517 11.1884 28.1965 11.0351 28.9623C10.8817 29.7282 10.1369 30.225 9.37103 30.0717C9.04797 30.007 8.78497 29.9596 8.58002 29.9222L8.57709 29.9213C8.59491 29.9246 8.53987 29.9155 8.37201 29.9086C8.22025 29.9023 8.01223 29.899 7.74799 29.9037C7.22011 29.9131 6.4923 29.9523 5.57904 30.0424H5.57709C5.32916 30.0666 5.00371 30.1257 4.58881 30.2074C4.20119 30.2838 3.73626 30.3798 3.30267 30.4467C2.88311 30.5113 2.37603 30.569 1.90619 30.5277C1.51056 30.4929 0.632267 30.3433 0.176696 29.4974C-0.0384986 29.0979 -0.0148474 28.7145 0.0302118 28.4906C0.0703696 28.2913 0.143473 28.1375 0.168884 28.0844C0.197108 28.0253 0.234821 27.9547 0.243102 27.9389C0.25897 27.9085 0.267399 27.8906 0.274352 27.8754C0.827404 26.6676 1.59051 25.8695 3.24408 24.1097C3.7381 23.584 4.34795 23.0025 4.98236 22.3978C5.62737 21.7831 6.31668 21.1268 7.01459 20.4144C7.5034 19.9155 8.0672 19.3836 8.74994 18.7299C9.4405 18.0686 10.2831 17.2545 11.3642 16.1615C12.748 14.7625 14.6399 12.7586 16.3945 10.6976C18.1518 8.63348 19.7313 6.5665 20.581 5.46717C21.4281 4.37122 21.5871 4.2052 21.8925 3.93006C22.6731 3.22697 23.4821 2.45853 24.1201 1.84608C24.4333 1.54531 24.7171 1.27063 24.9199 1.07654C25.0225 0.978346 25.1131 0.89185 25.1845 0.825568C25.2151 0.797165 25.3426 0.676125 25.4619 0.593146Z" fill="black"/>
<path d="M8.32324 28.9395C8.32324 28.1584 8.95621 27.5254 9.7373 27.5254C10.5184 27.5254 11.1514 28.1584 11.1514 28.9395C11.1514 28.9403 11.1512 29.6727 11.1934 33.0361C11.2265 35.6826 11.3195 40.1304 11.3584 42.8945C11.4093 46.5061 11.4447 47.6899 11.5547 48.3789C11.585 48.5688 11.6293 48.6344 11.7031 48.7148C11.8364 48.86 12.0644 49.0317 12.585 49.3779C13.0523 49.6887 13.4289 49.7939 13.7402 49.875C13.7464 49.8762 13.8356 49.8944 14.0693 49.9092C14.2955 49.9235 14.5967 49.9313 14.9883 49.9346C15.7732 49.9411 16.8414 49.926 18.2539 49.9082C19.8722 49.8879 21.7853 49.8841 23.2344 49.8398C25.0883 49.6958 26.2672 49.5839 27.0137 49.5059C27.523 49.4526 27.905 49.4087 28.1465 49.3857C28.7049 49.0521 29.4391 49.1389 29.9023 49.6328C30.4365 50.2025 30.4075 51.0975 29.8379 51.6318C29.598 51.8568 29.3244 52.0181 29.0205 52.1084C28.7494 52.1889 28.5054 52.1922 28.4482 52.1943C28.4411 52.1949 28.4235 52.1969 28.3906 52.2002C28.3382 52.2054 28.2683 52.2136 28.1699 52.2246C27.9764 52.2463 27.6968 52.2777 27.3076 52.3184C26.5283 52.3998 25.3129 52.5168 23.4141 52.6641L23.3809 52.666L23.3486 52.667C21.8626 52.7131 19.8646 52.7175 18.2891 52.7373C16.8943 52.7548 15.7873 52.7705 14.9648 52.7637C14.21 52.7574 13.4999 52.7353 13.0273 52.6123C12.6063 52.5027 11.8731 52.3025 11.0176 51.7334C10.5425 51.4174 10.0211 51.0661 9.61816 50.627C9.15585 50.123 8.87624 49.5424 8.76172 48.8252C8.61065 47.8789 8.57941 46.4224 8.53027 42.9346C8.49231 40.2397 8.39797 35.6838 8.36523 33.0713C8.32308 29.707 8.32324 28.9594 8.32324 28.9395ZM27.9492 49.5283C27.9298 49.5431 27.915 49.5574 27.9033 49.5684C27.9182 49.5544 27.9339 49.5415 27.9492 49.5283Z" fill="black"/>
<path d="M43.2783 28.3118C44.1496 28.1573 44.9581 28.3115 45.6123 28.4779C46.3664 28.6696 46.8121 28.834 47.4346 28.9642C48.9506 28.9196 49.7269 28.6832 50.2168 28.5052L50.2461 28.4945L50.2744 28.4857C50.5182 28.4089 50.7318 28.3678 51.1865 28.2933C51.9571 28.1671 52.6841 28.6897 52.8105 29.4603C52.9369 30.2311 52.4144 30.9589 51.6436 31.0853C51.2067 31.1569 51.1571 31.1719 51.1289 31.181C50.3458 31.461 49.2346 31.7591 47.3369 31.7972L47.1885 31.8001L47.042 31.7718C46.2745 31.6246 45.3844 31.3384 44.915 31.2191C44.6782 31.1589 44.4811 31.1198 44.3125 31.098C44.2843 31.4893 44.2554 32.1545 44.2402 33.3333C44.2128 35.4691 44.2222 39.0161 44.2051 41.7513C44.1885 44.3969 44.2049 46.3049 44.04 47.6761C43.9229 48.6496 43.822 49.5401 43.6855 50.2015C43.6172 50.5328 43.5241 50.8926 43.376 51.2152C43.236 51.52 42.9568 51.9902 42.4053 52.2542C42.0756 52.412 41.5567 52.6463 40.6895 52.7601C39.8582 52.8691 38.7581 52.862 37.2305 52.6409C35.6283 52.4091 34.4852 52.1029 32.8213 52.0687C30.304 52.0169 28.8691 52.014 28.8711 52.014C28.09 52.014 27.457 51.381 27.457 50.5999C27.4571 49.8189 28.0901 49.1859 28.8711 49.1859C28.8899 49.1859 30.3445 49.1894 32.8799 49.2415C34.7725 49.2805 36.3493 49.655 37.6357 49.8411C38.9925 50.0374 39.82 50.0211 40.3213 49.9554C40.5569 49.9245 40.7291 49.8808 40.8652 49.8353C40.8795 49.7799 40.898 49.712 40.915 49.6292C41.0209 49.1156 41.1059 48.3818 41.2314 47.3382C41.3714 46.1746 41.3596 44.5049 41.377 41.7337C41.3937 39.0515 41.3846 35.4358 41.4121 33.2972C41.4392 31.1873 41.5 30.4513 41.6182 29.9281C41.6665 29.7139 41.7664 29.3198 42.0527 28.972C42.396 28.5552 42.8257 28.4092 43.1035 28.347L43.2783 28.3118Z" fill="black"/>
<path d="M41.8901 19.4C42.1981 18.6822 43.0297 18.35 43.7475 18.6579C43.9587 18.7484 44.2222 18.8762 44.4682 19.0915C44.6583 19.2578 44.7892 19.4353 44.8784 19.5729L44.9546 19.695L44.9673 19.7155L44.978 19.736C45.4926 20.6623 46.0152 21.4075 48.185 23.3717C48.6935 23.7398 49.0612 23.9676 49.5171 24.2848C49.9008 24.5519 50.4127 24.9252 50.7524 25.4352C51.2277 26.1489 51.7101 27.015 52.0718 27.7184C52.2538 28.0724 52.4123 28.3989 52.5298 28.6588C52.5878 28.7872 52.6417 28.9118 52.6841 29.0211C52.7049 29.075 52.7286 29.1391 52.7495 29.2057C52.7618 29.2449 52.8071 29.3878 52.8227 29.5622C52.8921 30.3402 52.3175 31.0279 51.5395 31.0973C50.8405 31.1595 50.2164 30.7014 50.0464 30.0436C50.0299 30.001 49.9997 29.9282 49.9526 29.8239C49.8596 29.6179 49.7225 29.335 49.5561 29.0114C49.2207 28.3591 48.7933 27.5949 48.3989 27.0026C48.4064 27.0139 48.3872 26.983 48.2973 26.9049C48.208 26.8273 48.0822 26.7323 47.9009 26.6061C47.5895 26.3895 47.0005 26.0096 46.4595 25.6149L46.3999 25.5709L46.3452 25.5221C44.0799 23.4762 43.2856 22.4818 42.5757 21.2291C41.8979 20.9024 41.5906 20.0984 41.8901 19.4Z" fill="black"/>
<path d="M42.1514 22.0635C42.1514 21.7127 42.1634 21.381 42.4541 18.958C42.7495 16.4957 43.3153 12.015 43.6016 9.10645C43.8934 4.91224 43.8975 3.64436 43.8975 3.68164C43.8975 2.90062 44.5305 2.2677 45.3115 2.26758C46.0926 2.26758 46.7256 2.90055 46.7256 3.68164C46.7256 3.74268 46.716 5.09538 46.4199 9.34277L46.4189 9.36328L46.417 9.38281C46.1268 12.3312 45.5537 16.869 45.2627 19.2949C44.967 21.7598 44.9795 21.9142 44.9795 22.0635C44.9793 22.8444 44.3464 23.4775 43.5654 23.4775C42.7845 23.4775 42.1516 22.8444 42.1514 22.0635Z" fill="black"/>
<path d="M35.6025 1.55467C36.5143 1.67184 37.1567 1.67007 37.5488 1.65623C38.2384 1.60771 39.2369 1.57392 40.9365 1.66502C42.1321 1.67989 43.1127 1.68866 43.7998 1.69432C44.1451 1.69716 44.4163 1.69898 44.6035 1.70018C44.6971 1.70078 44.7701 1.70089 44.8203 1.70116H44.8974C45.6784 1.70136 46.3115 2.33523 46.3115 3.11619C46.3113 3.89697 45.6782 4.53005 44.8974 4.53026C44.8485 4.53026 43.2958 4.5223 40.8779 4.49217H40.8486L40.8193 4.49022C39.1656 4.40038 38.2712 4.43812 37.7041 4.47948L37.6777 4.48143L37.6514 4.48241C37.1375 4.50063 36.3363 4.50012 35.2412 4.35936C34.4667 4.25958 33.9199 3.55094 34.0195 2.77635C34.1193 2.00184 34.8279 1.45511 35.6025 1.55467Z" fill="black"/>
<path d="M32.7655 2.84961C32.7655 2.06852 33.3985 1.43555 34.1796 1.43555C34.9606 1.43563 35.5936 2.06857 35.5936 2.84961C35.5936 3.1789 35.5934 3.50766 35.5868 4.79395C35.5802 6.07879 35.5678 8.32848 35.4989 10.5625C35.4298 12.8031 35.3046 14.9546 35.1034 17.4102C35.0396 18.1886 34.3574 18.7677 33.579 18.7041C32.8006 18.6403 32.2215 17.958 32.285 17.1797C32.4827 14.7668 32.6033 12.6632 32.6708 10.4756C32.7384 8.28149 32.7521 6.06393 32.7587 4.7793C32.7652 3.49659 32.7655 3.17284 32.7655 2.84961Z" fill="black"/>
<path d="M25.9675 0.63542C26.3977 -0.0164517 27.2755 -0.19622 27.9274 0.234053C28.4402 0.57252 28.6781 0.765153 29.0495 1.15886C29.3659 1.49432 29.7993 1.99092 30.3112 2.65983L30.3307 2.68522C30.8708 3.42462 31.4422 4.29494 31.9997 5.13835C32.5673 5.99697 33.1267 6.83853 33.6774 7.57878C33.8792 7.85001 33.9962 7.99551 34.0563 8.06706C34.0664 8.0758 34.0776 8.08337 34.0876 8.09245C34.6643 8.61916 34.705 9.51374 34.1784 10.0905C33.7737 10.5336 33.2574 10.5725 32.9831 10.5436C32.7316 10.5172 32.5498 10.4301 32.4782 10.3932C32.3212 10.3124 32.2128 10.2189 32.1774 10.1882C32.0854 10.1081 32.0066 10.0215 31.9509 9.95769C31.8279 9.8169 31.6561 9.59995 31.4079 9.26628C30.8035 8.45387 30.2021 7.54932 29.6393 6.69792C29.0714 5.8388 28.5474 5.04039 28.0592 4.37077C27.6068 3.7801 27.238 3.36027 26.9919 3.09929C26.8705 2.97065 26.8087 2.91279 26.7467 2.86198C26.6773 2.80501 26.5787 2.73394 26.3688 2.59538C25.7169 2.16509 25.5372 1.2873 25.9675 0.63542ZM32.1764 8.09636C32.1472 8.12349 32.1178 8.15228 32.0895 8.18327C32.1174 8.15277 32.1466 8.12385 32.1764 8.09636ZM32.2673 8.02019C32.2514 8.03261 32.2351 8.04485 32.2194 8.05827C32.235 8.04501 32.2512 8.03267 32.2673 8.02019ZM32.446 7.90202C32.4185 7.91731 32.3913 7.93401 32.3639 7.95183C32.3909 7.93428 32.4181 7.91755 32.446 7.90202ZM32.5973 7.82878C32.5854 7.83361 32.5732 7.83818 32.5612 7.84343C32.5731 7.83817 32.5853 7.8337 32.5973 7.82878ZM32.7516 7.77605C32.7403 7.77915 32.7289 7.78237 32.7175 7.78581C32.7288 7.78233 32.7402 7.77924 32.7516 7.77605ZM32.9001 7.74284C32.89 7.74449 32.88 7.74681 32.8698 7.7487C32.8799 7.74679 32.8899 7.74454 32.9001 7.74284ZM33.2868 7.7321C33.2842 7.73181 33.2816 7.7314 33.279 7.73112C33.2742 7.73062 33.2692 7.7306 33.2643 7.73015C33.2718 7.73084 33.2793 7.73129 33.2868 7.7321ZM33.0397 7.72624C33.0336 7.72665 33.0274 7.7277 33.0212 7.72819C33.0274 7.7277 33.0335 7.72665 33.0397 7.72624Z" fill="black"/>
<path d="M22.7441 24.0606C25.3418 24.0856 27.9817 24.1087 29.6025 24.2813C31.032 24.4335 32.2142 24.7331 32.8438 25.7335L32.9629 25.9434L33.0557 26.128L33.0918 26.3321C33.0918 26.3321 33.099 26.368 33.124 26.46C33.1475 26.5462 33.1792 26.6551 33.2197 26.7901C33.2959 27.0437 33.4105 27.4142 33.5225 27.793C33.7524 28.5706 34.0245 29.5608 34.1943 30.5635C34.3595 31.5389 34.4534 32.6649 34.2314 33.6641C33.9951 34.7278 33.3435 35.8107 31.9707 36.1954C30.5114 36.6043 27.6777 37.2718 23.8398 37.0518C23.5352 37.0344 22.704 37.0208 22.0186 36.4864C21.2631 35.8973 21.003 34.9792 20.9463 34.0108C20.6732 29.3439 20.6729 26.2402 20.6729 26.129C20.6729 25.5747 20.9982 25.0979 21.4678 24.8751C21.6884 24.3905 22.1774 24.0552 22.7441 24.0606ZM23.4561 26.8458C23.471 28.0118 23.5253 30.5253 23.7197 33.8487C23.7311 34.0434 23.7545 34.1757 23.7744 34.2618C23.8288 34.2668 23.9003 34.2727 23.999 34.2784C27.4281 34.475 29.9391 33.8799 31.2217 33.5206C31.3122 33.4952 31.4297 33.4661 31.5195 33.0616C31.6238 32.592 31.6015 31.8919 31.4551 31.0274C31.3133 30.1903 31.0788 29.3267 30.8584 28.5811C30.7453 28.1985 30.6496 27.8896 30.5596 27.5899C30.5281 27.4853 30.4953 27.3722 30.4639 27.2598C30.2875 27.1962 29.9457 27.1119 29.3086 27.044C27.9908 26.9037 25.8358 26.87 23.4561 26.8458Z" fill="black"/>
<path d="M26.1836 26.874V25.6523C26.1836 24.8853 26.8052 24.2637 27.5723 24.2637C28.3393 24.2637 28.9609 24.8853 28.9609 25.6523V26.874C28.9609 28.0761 28.9629 30.3373 29.1025 31.7852C29.2301 33.1076 29.4605 33.6037 29.8496 34.5996C30.1287 35.314 29.7758 36.1192 29.0615 36.3984C28.3471 36.6776 27.5409 36.3248 27.2617 35.6104C26.8641 34.5927 26.5044 33.7878 26.3369 32.0527C26.1816 30.4428 26.1836 28.0306 26.1836 26.874Z" fill="black"/>
<path d="M28.3633 28.875C29.0886 28.8809 30.5306 28.8924 32.543 29.0205C33.3083 29.0695 33.8896 29.7297 33.8408 30.4951C33.7921 31.2605 33.1316 31.8416 32.3662 31.793C30.4299 31.6697 29.0477 31.6581 28.3408 31.6523C27.6195 31.6465 27.6088 31.6465 27.5967 31.6465C26.8296 31.6465 26.208 31.0249 26.208 30.2578C26.208 29.4908 26.8296 28.8691 27.5967 28.8691C27.6237 28.8691 27.6526 28.8692 28.3633 28.875Z" fill="black"/>
<path d="M23.8018 15.2787C24.4246 14.8309 25.2925 14.9734 25.7403 15.5961C26.188 16.2188 26.0466 17.0868 25.4239 17.5345C23.938 18.6031 22.9769 19.3442 22.1553 20.0316C21.7413 20.3781 21.3638 20.7096 21.0001 21.0277C20.642 21.3409 20.2887 21.6487 19.9493 21.9232L19.9219 21.9457L19.8926 21.9672C17.2759 23.8691 12.9216 27.4545 11.5938 28.5638C11.0053 29.0555 10.1296 28.9773 9.63776 28.389C9.14594 27.8004 9.22391 26.9238 9.81256 26.432C11.1254 25.3351 15.4955 21.735 18.2032 19.7611C18.4939 19.5258 18.8075 19.2548 19.171 18.9369C19.5292 18.6235 19.9303 18.2714 20.3721 17.9017C21.2627 17.1565 22.2819 16.3717 23.8018 15.2787Z" fill="black"/>
<path d="M24.6123 15.0176C24.8833 15.0176 25.0914 15.1017 25.0986 15.1045C25.1575 15.1262 25.204 15.1474 25.2266 15.1582C25.2746 15.1811 25.3157 15.2043 25.3398 15.2178C25.3926 15.2473 25.4519 15.2825 25.5088 15.3174C25.6266 15.3895 25.7879 15.4916 25.9854 15.6191C26.3826 15.8757 26.9552 16.2537 27.6885 16.7441C28.7897 17.4807 30.2599 18.4771 32.0527 19.71L33.9512 21.0205L33.9873 21.0459L34.0225 21.0732C35.7829 22.4662 37.2633 23.657 38.5244 24.6807L41.749 27.3135L41.7832 27.3457C42.1898 27.727 42.4799 28.0635 42.6885 28.3027C42.9173 28.5651 42.9933 28.6402 43.0518 28.6826C43.6732 29.1322 43.8128 30.0006 43.3633 30.6221C42.9137 31.2434 42.0453 31.3831 41.4238 30.9336C41.0661 30.6747 40.789 30.3516 40.5947 30.1289C40.3865 29.8902 40.1876 29.6603 39.9102 29.3975C38.1457 27.9564 35.7873 26.0122 32.3379 23.2822C29.692 21.4487 27.5921 20.021 26.1445 19.0527C25.4177 18.5665 24.8583 18.1984 24.4785 17.9531C24.2877 17.8299 24.1484 17.7415 24.0586 17.6865C24.0367 17.6731 24.0191 17.6621 24.0059 17.6543H24.0078C23.5442 17.4293 23.2236 16.9562 23.2236 16.4062C23.2236 15.6392 23.8452 15.0176 24.6123 15.0176ZM24.4863 17.7881C24.5249 17.7916 24.5671 17.7949 24.6123 17.7949C24.5698 17.7949 24.5279 17.7918 24.4863 17.7881ZM24.3691 17.7715C24.3903 17.7753 24.4137 17.78 24.4395 17.7832C24.4157 17.7803 24.3925 17.7756 24.3691 17.7715ZM24.2734 17.7529C24.2805 17.7547 24.2896 17.7554 24.2998 17.7578C24.282 17.7537 24.2646 17.7489 24.2471 17.7441C24.2555 17.7465 24.2643 17.7506 24.2734 17.7529ZM24.1377 17.7109C24.1429 17.7129 24.1495 17.7134 24.1562 17.7158C24.1438 17.7115 24.1315 17.7068 24.1191 17.7021C24.1253 17.7045 24.1311 17.7085 24.1377 17.7109Z" fill="black"/>
</svg>
