<svg width="420" height="146" viewBox="0 0 420 146" fill="none" xmlns="http://www.w3.org/2000/svg">
  <path
    d="M18 3 C9 4 4 10 3 20 C2 43 4 67 3 91 C2 115 5 134 13 141 C21 148 35 143 51 144 C94 146 127 143 169 144 C212 145 248 143 290 144 C331 146 366 143 397 144 C411 142 417 134 416 122 C414 100 417 78 416 54 C415 34 419 17 412 9 C405 2 394 4 379 3 C339 5 303 2 262 4 C222 5 184 2 145 4 C105 5 70 2 31 4 C26 4 22 3 18 3Z"
    fill="#fbfbfb"
    stroke="black"
    stroke-width="1.4"
    stroke-linecap="round"
    stroke-linejoin="round"
  />
</svg>
