<svg width="365" height="144" viewBox="0 0 365 144" preserveAspectRatio="none" fill="none" xmlns="http://www.w3.org/2000/svg">
  <path
    d="M16 3 C8 4 4 9 3 17 C2 41 4 64 3 88 C2 112 4 132 11 139 C17 145 30 142 43 142 C81 144 110 141 146 142 C183 143 215 141 251 142 C287 144 317 141 344 142 C356 140 362 133 361 122 C359 99 362 77 361 53 C360 33 364 16 357 8 C351 2 342 4 329 3 C294 5 263 2 228 4 C193 5 160 2 126 4 C91 5 61 2 27 4 C23 4 19 3 16 3Z"
    fill="#fbfbfb"
    stroke="black"
    stroke-width="1.4"
    stroke-linecap="round"
    stroke-linejoin="round"
  />
</svg>
