<svg width="420" height="184" viewBox="0 0 420 184" fill="none" xmlns="http://www.w3.org/2000/svg">
  <path
    d="M18 3 C9 4 4 10 3 20 C2 51 4 81 3 112 C2 141 4 166 12 177 C19 185 34 181 50 182 C93 184 126 181 168 182 C211 183 247 181 289 182 C330 184 365 181 397 182 C411 180 417 171 416 157 C414 127 417 99 416 68 C415 42 420 19 412 10 C405 2 394 4 379 3 C339 5 303 2 262 4 C222 5 184 2 145 4 C105 5 70 2 31 4 C26 4 22 3 18 3Z"
    fill="#fbfbfb"
    stroke="black"
    stroke-width="1.4"
    stroke-linecap="round"
    stroke-linejoin="round"
  />
</svg>
