<svg width="35" height="32" viewBox="0 0 35 32" fill="none" xmlns="http://www.w3.org/2000/svg">
  <path
    d="M14.4 7.6
       C15.2 8.3 16.1 9.6 16.9 11.2
       C17.2 11.8 17.4 12.5 17.6 13.2
       C17.9 12.1 18.3 10.9 18.8 9.7
       C19.4 8.2 20.2 6.8 21.0 6.0
       C22.0 5.0 23.2 4.5 24.5 4.6
       C25.7 4.7 26.9 5.1 28.0 5.8
       C29.0 6.5 29.6 7.5 30.0 8.8
       C30.4 10.1 30.4 11.4 30.1 12.7
       C29.8 14.0 29.3 15.3 28.6 16.4
       C27.9 17.5 27.0 18.5 26.0 19.4
       C25.2 20.2 24.5 21.0 23.9 21.9
       C23.1 23.1 22.0 24.3 20.8 25.4
       C19.5 26.5 18.1 27.4 16.7 28.1
       C15.4 27.4 14.0 26.5 12.7 25.5
       C11.3 24.5 10.0 23.3 8.9 22.0
       C7.9 20.8 7.1 19.6 6.5 18.3
       C5.9 17.0 5.5 15.6 5.1 14.3
       C4.8 13.1 4.7 11.9 4.7 10.8
       C4.7 9.6 5.0 8.5 5.6 7.6
       C6.2 6.7 7.1 6.0 8.3 5.5
       C9.7 4.9 11.2 5.1 12.7 5.9
       C13.3 6.2 13.9 6.6 14.4 7.0
       C14.6 7.2 14.7 7.4 14.4 7.6 Z"
    fill="#FF4D4D"
    stroke="black"
    stroke-linecap="round"
    stroke-linejoin="round"
  />
</svg>