<svg width="72" height="61" viewBox="0 0 72 61" fill="none" xmlns="http://www.w3.org/2000/svg">
<path d="M29.8155 8.80813L37.3506 23.2291C37.3506 23.2291 42.551 5.92252 46.5981 3.21395C51.6602 -0.173892 55.3323 1.07103 61.0311 3.21375C65.9001 5.04443 67.6447 8.94156 68.863 14.0096C70.0074 18.7699 68.5907 21.7378 67.2314 26.441C65.6928 31.7645 59.7486 34.8917 56.646 39.479C50.0784 49.1895 34.1376 59.0531 34.1376 59.0531C34.1376 59.0531 19.7636 51.1258 12.1715 42.1976C8.24978 37.5858 6.83124 32.2844 5.22876 26.441C3.94501 21.7599 5.22876 18.8643 5.22876 14.0096C5.22876 9.15477 8.98292 5.20698 14.04 3.21375C20.4927 0.670398 29.8155 8.80813 29.8155 8.80813Z" 
fill="none"
    stroke="black"
    stroke-width="3"/>
<path d="M14.8769 2.92438C14.7229 2.92776 12.5646 4.19845 10.1731 6.22987C9.44254 6.85041 8.60654 7.98024 7.60511 9.18476C6.60367 10.3893 5.54045 11.7164 4.69102 12.903C3.16006 15.0417 2.47704 16.4359 2.38403 16.9038C2.35082 17.0708 2.66713 17.0822 2.90207 17.0706C3.137 17.059 3.36307 17.0208 6.48549 15.6831C9.6079 14.3453 15.6198 11.7092 18.8056 10.298C22.574 8.62881 23.1794 7.89344 24.278 7.1949C24.7884 6.87034 25.7036 6.53595 26.1459 6.44689C26.5882 6.35782 26.5648 6.58673 26.114 7.20417C25.6632 7.82162 24.7858 8.82067 23.0823 10.4577C21.3788 12.0947 18.8757 14.3395 16.427 16.9111C13.9783 19.4828 11.6598 22.3133 10.4175 23.849C9.06141 25.5255 8.83333 26.0043 8.41788 26.994C7.14991 30.0145 6.30039 31.3387 5.31724 32.5896C4.99693 32.9972 5.16113 33.0323 5.35921 32.9796C5.55728 32.9268 5.81542 32.808 8.63381 31.1306C11.4522 29.4532 16.823 26.2209 19.9879 24.2249C23.1528 22.2288 23.949 21.5669 24.7355 20.8752C26.2944 19.5042 27.7439 18.2535 28.9089 17.4321C29.8951 16.7367 30.3609 16.7173 30.5378 16.7618C30.6299 16.7849 30.4885 17.0746 28.1942 20.2577C25.8999 23.4407 21.3962 29.5762 18.8145 33.1955C16.2329 36.8148 15.7098 37.732 15.1801 38.8532C14.6504 39.9743 14.1299 41.2716 16.9433 38.8389C19.7567 36.4062 25.9197 30.2041 29.3056 26.8298C32.6915 23.4556 33.1135 23.0969 33.6031 22.618C34.6653 21.5788 35.3343 20.836 35.6234 20.6206C35.7728 20.5092 35.9406 20.4113 35.902 20.645C35.8635 20.8787 35.6168 21.4514 33.406 24.9794C31.1952 28.5075 27.0278 34.9734 24.368 39.3714C21.7082 43.7694 20.6823 45.9036 20.3519 46.6611C20.0216 47.4185 20.4179 46.7346 21.0978 45.726C21.7777 44.7174 22.7292 43.4049 27.8031 38.1528C32.8769 32.9007 42.0444 23.7489 47.333 18.2988C52.6216 12.8488 53.7536 11.3778 54.9148 10.0964C56.076 8.81508 57.232 7.76794 58.2767 6.89962C59.3213 6.03131 60.2195 5.37356 60.9261 4.93694C61.6327 4.50031 62.1205 4.30475 61.8177 5.0201C61.5149 5.73545 60.4067 7.36764 57.7401 10.937C55.0734 14.5064 50.8818 19.9636 48.0507 23.8781C45.2196 27.7926 43.8759 29.9991 41.3851 33.4053C38.8943 36.8116 35.297 41.3506 33.2371 44.1555C30.5841 47.7681 30.2143 49.0163 30.0794 49.1973C30.0658 49.2155 30.1734 49.0902 30.578 48.501C30.9826 47.9118 31.6833 46.8641 36.3962 41.8326C41.1091 36.801 49.8129 27.8174 54.779 22.5605C59.745 17.3036 60.7095 16.0457 61.9482 14.7856C64.5316 12.1572 66.4127 10.8938 66.8274 10.5919C67.6795 9.97159 68.0791 9.20857 68.3109 9.07681C68.3989 9.0268 68.4792 9.18681 68.5492 9.33001C68.6192 9.47321 68.69 9.63968 68.631 10.1476C68.572 10.6556 68.381 11.4999 66.8713 13.3279C65.3617 15.1559 62.539 17.9419 60.9671 19.5772C59.3951 21.2126 59.1593 21.613 57.4464 23.9799C55.7335 26.3468 52.5506 30.6681 50.7862 32.9807C49.0218 35.2933 48.7723 35.4661 48.4331 35.6303C48.0938 35.7945 47.6723 35.9447 46.2376 38.2561C44.8028 40.5675 42.3675 45.0355 39.6901 48.4779C37.0127 51.9203 34.1671 54.2016 32.6377 55.4152C31.1083 56.6289 30.9814 56.7058 32.0519 56.4308C33.1224 56.1558 35.3942 55.5266 36.7448 55.1067C38.0954 54.6868 38.4561 54.4952 43.2771 50.3547C48.0981 46.2143 57.3684 38.1307 62.4469 33.7564C67.5254 29.382 68.1311 28.9619 68.5315 28.6504C69.7686 27.688 70.758 26.9154 70.6821 27.0621C70.5362 27.3441 69.8981 27.8567 68.2529 29.2028C66.6076 30.549 63.9046 32.6643 59.3274 36.9791C54.7503 41.2939 48.381 47.7442 44.7632 51.5238C41.1454 55.3034 40.4721 56.217 40.0717 56.7268C39.6713 57.2366 39.5643 57.3151 39.5845 57.0775C39.6047 56.84 39.7555 56.2841 40.2695 55.3217C40.7835 54.3592 41.6562 53.007 45.3931 48.3876C49.1301 43.7682 55.7047 35.9226 60.068 30.4695C64.4312 25.0165 66.3838 22.1938 67.5924 20.5137C69.154 18.343 69.7053 17.76 69.8614 17.3434C69.9565 17.0896 70.0034 16.723 66.417 19.4074C62.8307 22.0919 55.589 27.8316 51.5779 31.069C47.5668 34.3065 47.0057 34.8676 46.0813 35.6755C45.157 36.4833 43.8866 37.5208 41.4177 40.1251C38.9489 42.7294 35.3202 46.8691 33.2505 49.1634C30.8397 51.836 30.1371 52.2456 29.8264 52.3773C29.7527 52.4085 29.8238 52.2448 33.9065 47.6483C37.9891 43.0517 46.0744 33.9959 50.7462 28.8989C55.4179 23.8019 56.431 22.938 57.2818 22.0997C58.1326 21.2615 58.7904 20.475 59.4556 19.5555C60.1207 18.636 60.7732 17.6073 61.3587 16.4719C62.5433 14.1747 63.3337 12.4536 64.0196 11.6441C65.163 10.2947 65.7392 8.62625 65.5779 6.89617C65.5176 6.24895 65.6012 5.73666 65.8101 5.26969C65.9143 5.03669 66.0675 4.83715 61.9155 8.16637C57.7635 11.4956 49.315 18.3661 42.5387 24.8459C35.7624 31.3257 30.9142 37.2067 27.982 40.9438C25.0499 44.6809 24.1806 46.0959 23.4274 47.5005C22.6742 48.9052 22.0635 50.2565 21.7975 50.7969C21.5315 51.3373 21.6289 51.0258 25.6376 45.2627C29.6463 39.4996 37.5634 28.2943 42.0671 21.6046C46.5708 14.9148 47.4211 13.0801 48.2636 11.3843C49.8647 8.16158 50.8793 6.23649 51.0841 5.5138C51.1734 5.19875 51.1713 4.97275 50.8407 4.55791C49.9501 3.44026 48.9307 2.77851 48.3164 2.7815C47.1558 2.78717 46.071 4.45684 44.8599 5.75368C43.674 7.02362 42.8869 8.548 41.8049 11.0503C41.0424 12.8137 40.1171 15.6902 38.9974 17.9551C37.8776 20.22 36.6606 21.8146 35.3629 23.2317C34.0653 24.6489 32.7239 25.8403 31.4655 27.1052C30.2072 28.3702 29.0725 29.6725 27.4635 31.7053C25.8545 33.738 23.8055 36.4617 22.0886 38.5632C20.3718 40.6646 19.0492 42.0613 18.2635 42.8611C17.4778 43.6609 17.269 43.8215 17.8472 42.7839C18.4253 41.7464 19.7968 39.506 21.4363 36.3679C23.0757 33.2299 24.9417 29.2621 26.381 26.4225C27.8203 23.5829 28.7764 21.9916 29.4847 20.9114C30.193 19.8311 30.6244 19.3103 29.1712 20.9019C27.718 22.4935 24.3671 26.2134 21.4267 29.2161C18.4863 32.2188 16.058 34.3915 14.6252 35.6153C13.1923 36.839 12.8283 37.0479 12.1886 37.2308C11.5489 37.4137 10.6444 37.5643 10.5142 37.0468C10.3841 36.5293 11.0557 35.3391 13.693 31.8365C16.3302 28.3339 20.9127 22.5548 23.3977 19.3498C25.8827 16.1448 26.1313 15.6889 26.3719 15.1708C26.6125 14.6527 26.8375 14.0863 25.879 14.0452C24.9205 14.0042 22.7717 14.5057 20.7 15.3839C18.6282 16.2622 16.6987 17.5019 14.052 18.8937C11.4053 20.2855 8.09981 21.7917 6.09188 22.6438C4.08395 23.4959 3.47371 23.6483 5.14697 21.0355C6.82023 18.4228 10.7955 13.0404 12.951 10.0712C15.3678 6.74197 15.6245 6.09499 15.8403 5.66505C16.2981 4.75278 16.9456 4.61592 16.9598 4.62637C17.499 5.02221 14.9129 5.6929 12.9255 7.16068C11.8422 7.96069 10.7838 9.09892 9.5633 10.5206C8.34278 11.9423 7.03732 13.6708 6.11633 15.0136C5.19534 16.3563 4.69838 17.2609 3.93158 19.1774C3.16478 21.0939 2.14322 23.9949 1.59648 25.6427C0.787675 28.0804 0.995814 28.7169 1.11662 28.9678C1.17907 29.0974 1.35943 29.1583 1.59854 29.0531C1.83764 28.9479 2.15958 28.6559 4.81076 24.985C7.46195 21.314 12.4326 14.273 15.8486 9.97858C19.2645 5.68417 20.9752 4.34978 21.8994 3.77812C22.8236 3.20645 22.9095 3.43794 22.8469 3.71921C22.7843 4.00048 22.5705 4.32451 21.7279 5.26464C20.8853 6.20477 19.4202 7.75117 18.5058 8.75964C17.2361 10.16 16.6792 11.8561 16.2706 14.4481C15.8297 17.2457 15.9462 19.4868 15.525 20.843C15.1069 22.1899 14.08 23.3638 13.4113 24.9922C12.5755 27.0272 12.3213 29.4532 12.0411 31.2808C11.5906 32.6022 10.5977 33.8456 9.81411 35.5689C9.67744 36.0536 9.57137 36.5719 9.4621 37.1065" 
fill="none"
    stroke="black"
    stroke-width="3"/>


</svg>
