<svg width="60" height="54" viewBox="-4 -4 64 58" fill="none" xmlns="http://www.w3.org/2000/svg">
<path d="M37.3557 2.028C39.7624 0.421384 41.9227 -0.129935 44.1829 0.0250684C46.3632 0.174651 48.5779 0.983631 51.05 1.91081C55.8721 3.71938 57.5328 7.62508 58.6252 12.1579C59.7181 16.6926 58.3287 19.656 57.178 23.6276C56.4144 26.2629 54.5765 28.2895 52.7493 30.0719C50.8525 31.9222 49.0064 33.4856 47.7268 35.3727C44.7339 39.7868 39.6651 44.1668 35.425 47.405C33.2914 49.0345 31.3415 50.3953 29.9241 51.3483C29.215 51.825 28.6379 52.1998 28.2375 52.4567C28.0374 52.5852 27.8814 52.6845 27.7747 52.7516C27.7216 52.785 27.6806 52.8104 27.6526 52.8278C27.6387 52.8365 27.6278 52.8437 27.6204 52.8483C27.6168 52.8505 27.6136 52.852 27.6116 52.8532L27.6086 52.8551L27.0549 53.1969L26.4856 52.8835C26.4851 52.8832 26.4836 52.882 26.4827 52.8815C26.4808 52.8805 26.4781 52.8794 26.4749 52.8776C26.4681 52.8739 26.4583 52.8681 26.4456 52.861C26.4201 52.8469 26.3827 52.8266 26.3342 52.7995C26.2373 52.7451 26.0956 52.6646 25.9133 52.5602C25.5489 52.3515 25.0226 52.0461 24.3713 51.655C23.0689 50.8728 21.2624 49.7478 19.2454 48.3757C15.2295 45.6437 10.3039 41.8821 6.86939 37.8532C3.23647 33.5914 1.93859 28.6955 0.54126 23.613C-0.0693719 21.3919 -0.0652687 19.5889 0.0822761 17.8317C0.232229 16.046 0.502198 14.4877 0.502198 12.4186C0.502349 7.52488 4.27825 3.75537 8.95239 1.91765C10.6469 1.25148 12.4668 1.30859 14.1653 1.69401C15.866 2.07996 17.5216 2.81155 18.9524 3.59245C20.3883 4.37614 21.6335 5.22906 22.5178 5.88347C22.9609 6.21132 23.3165 6.49135 23.5627 6.69108C23.6859 6.79101 23.7826 6.87156 23.8489 6.92741C23.8819 6.95524 23.9081 6.97747 23.926 6.99284C23.9347 7.00026 23.9416 7.00612 23.9465 7.01042C23.949 7.01258 23.9509 7.01494 23.9524 7.01628L23.9543 7.01726L23.9553 7.01823C23.9543 7.01984 23.9275 7.05118 23.3245 7.74382L23.9553 7.01823L24.1145 7.15593L24.2112 7.34147L29.5979 17.6257C30.0831 16.1674 30.7561 14.2285 31.5374 12.2155C32.3379 10.1528 33.2605 7.9884 34.218 6.17741C34.6967 5.27215 35.1949 4.43584 35.7014 3.73698C36.1981 3.05161 36.7506 2.43196 37.3557 2.028ZM2.72974 12.4186C2.72974 14.6055 2.4351 16.4449 2.30298 18.0182C2.16846 19.6202 2.17307 21.1394 2.69067 23.0221C4.10997 28.1846 5.30569 32.5838 8.56567 36.4079C11.8035 40.2061 16.5308 43.8332 20.4993 46.5329C22.4742 47.8763 24.2432 48.9783 25.5178 49.7438C26.1368 50.1156 26.6392 50.4076 26.9905 50.6091C27.0047 50.5999 27.0197 50.5912 27.0344 50.5817C27.4227 50.3325 27.9855 49.9656 28.6799 49.4987C30.0696 48.5644 31.9825 47.2306 34.0725 45.6344C38.2804 42.4208 43.1029 38.2206 45.8821 34.1217C47.3292 31.9874 49.4586 30.1687 51.1936 28.4762C52.9979 26.716 54.4487 25.0388 55.0374 23.0075C56.2759 18.7329 57.3768 16.492 56.4583 12.6803C55.4092 8.32719 54.003 5.39897 50.2668 3.99772C47.7309 3.04661 45.8278 2.37105 44.0305 2.24772C42.3129 2.12993 40.635 2.51839 38.593 3.88151C38.3089 
4.07118 37.9401 4.44574 37.5061 5.0446C37.0819 5.62993 36.6387 6.36846 36.1887 7.2194C35.2891 8.9208 34.4021 10.9943 33.6155 13.0212C32.8307 15.0433 32.1544 16.9958 31.6741 18.444C31.4341 19.1676 31.243 19.7646 31.1125 20.1794C31.0474 20.3865 30.9978 20.5484 30.9641 20.6579C30.9473 20.7124 30.9345 20.7541 30.926 20.7819C30.9218 20.7957 30.9183 20.8063 30.9163 20.8132C30.9152 20.8166 30.9148 20.8194 30.9143 20.821L30.9133 20.8229L30.1262 23.4362L22.3391 8.57097C22.2901 8.53024 22.2303 8.48003 22.1594 8.42253C21.9354 8.24084 21.6061 7.98044 21.1926 7.67448C20.3635 7.06096 19.2061 6.26952 17.885 5.54851C16.5587 4.82466 15.1025 4.19147 13.6721 3.86687C12.2395 3.54177 10.9087 3.54335 9.76782 3.99187C5.55329 5.64889 2.72989 8.80049 2.72974 12.4186Z" 

fill="none"
    stroke="black"
    stroke-width="2"
/>
</svg>
