<svg width="88" height="119" viewBox="0 0 88 119" fill="none" xmlns="http://www.w3.org/2000/svg">
<path d="M37.8091 45.2422C37.6033 45.3854 35.1677 47.8188 32.8694 49.8891C32.5776 50.1519 32.4439 50.2614 31.2282 51.8342C30.0126 53.4071 27.7077 56.4243 25.1398 59.4406C22.5719 62.4569 19.8107 65.3809 17.7923 67.4215C14.6433 70.605 12.8857 72.1615 11.5368 73.5383C9.47009 75.6478 7.46656 77.4134 6.13646 78.829C3.67482 81.4487 2.85452 82.3353 2.22749 83.7046C2.09981 83.9835 1.97811 84.1331 2.02834 84.2264C2.5873 85.2642 5.93353 84.1335 7.81396 83.9497C10.5384 83.681 12.2277 83.7131 12.7012 83.8003C12.993 83.8535 13.3892 83.9248 13.8747 84.022" stroke="black" stroke-width="4.03402" stroke-linecap="round"/>
<path d="M14.0021 84.3887C14.0021 84.4036 14.0021 85.4691 14.0628 90.3132C14.1102 94.0997 14.2448 100.582 14.3002 104.513C14.3722 109.625 14.4205 111.525 14.6084 112.703C14.817 114.009 15.5396 114.562 16.974 115.516C17.9266 116.15 18.7253 116.369 19.2527 116.507C20.0284 116.709 22.2486 116.672 26.291 116.621C28.5977 116.592 31.423 116.587 33.5386 116.521C38.9758 116.1 40.4675 115.857 40.8659 115.842C41.0735 115.834 41.292 115.826 41.5539 115.58" stroke="black" stroke-width="4.03402" stroke-linecap="round"/>
<path d="M41.5518 115.58C41.5639 115.58 43.6443 115.584 47.2823 115.659C49.8433 115.712 51.8015 116.202 53.8815 116.503C58.035 117.104 59.43 116.475 60.1619 116.125C60.8385 115.801 61.0235 114.032 61.3729 111.127C61.5925 109.301 61.5719 106.725 61.5963 102.825C61.6207 98.9244 61.6074 93.7677 61.6469 90.6902C61.6864 87.6127 61.7792 86.7706 61.8942 86.2613C62.0092 85.7521 62.1435 85.6012 62.4918 85.5232C64.232 85.1335 65.9898 86.0625 68.102 86.4675C70.6646 86.416 72.0547 86.0154 72.9851 85.6775C73.1811 85.6157 73.3559 85.5765 74.0152 85.4684" stroke="black" stroke-width="4.03402" stroke-linecap="round"/>
<path d="M74.0148 85.4671C73.9878 85.1652 72.6199 82.352 71.3674 80.4714C70.8667 79.7196 69.636 79.091 68.0804 77.9559C64.8012 74.9943 63.8652 73.7415 62.9671 72.1248C62.7659 71.7894 62.6465 71.6586 62.172 71.4551" stroke="black" stroke-width="4.03402" stroke-linecap="round"/>
<path d="M65.2283 48.0176C65.2283 48.0346 65.2181 49.9273 64.7928 56.0282C64.3777 60.2452 63.5581 66.7382 63.1359 70.2578C62.7136 73.7774 62.7136 74.1268 62.7136 74.4868" stroke="black" stroke-width="4.03402" stroke-linecap="round"/>
<path d="M64.6335 47.2052C64.576 47.2052 62.3516 47.1939 58.8719 47.1506C56.4109 47.0169 55.0364 47.0713 54.127 47.1376C53.4747 47.1607 52.4353 47.1625 50.9892 46.9766" stroke="black" stroke-width="4.03402" stroke-linecap="round"/>
<path d="M49.1961 46.8184C49.1961 47.2882 49.1961 47.7581 49.1866 49.6081C49.1771 51.4582 49.1582 54.6742 49.0599 57.8626C48.9616 61.0509 48.7846 64.114 48.4974 67.6193" stroke="black" stroke-width="4.03402" stroke-linecap="round"/>
<path d="M47.6956 55.8717C47.682 55.8865 47.5401 55.7782 46.8445 54.8432C45.1811 52.6072 43.5 49.817 42.014 47.7827C41.3177 46.8727 40.7386 46.2111 40.3327 45.7808C39.9269 45.3505 39.7118 45.1715 39.0761 44.752" stroke="black" stroke-width="4.03402" stroke-linecap="round"/>
<path d="M40.2173 48.6504C40.0364 48.7933 39.4915 49.2206 37.6757 51.0853C36.0326 52.7726 32.9443 55.9878 31.1179 57.8545C29.2916 59.7211 28.8259 60.1477 28.1298 60.9298C27.4336 61.7118 26.5211 62.8365 23.7861 66.0019C21.0511 69.1674 16.5214 74.3396 14.1696 77.0727C11.8178 79.8058 11.7812 79.9431 11.8658 79.9555C11.9505 79.968 12.1574 79.8516 16.9899 76.9859C21.8224 74.1201 31.2742 68.5087 37.1742 64.7783C43.0742 61.0479 45.136 59.3686 46.3885 58.4118C47.641 57.455 48.0217 57.2715 48.1398 57.3506C48.2579 57.4297 48.1019 57.7769 46.5724 59.5078C45.0429 61.2387 42.1447 64.3428 36.6823 69.0701C31.2199 73.7974 23.2811 80.0539 19.0794 83.3895C14.8778 86.725 14.6538 86.95 14.4163 87.2506C14.1789 87.5512 13.9347 87.9205 14.9107 87.2118C15.8868 86.503 18.0904 84.7049 23.1979 81.0355C28.3055 77.366 36.2501 71.8795 42.3616 67.2222C48.4731 62.5649 52.5107 58.9029 55.7043 56.2625C58.8979 53.6222 61.1251 52.1145 62.2827 51.4101C63.4404 50.7057 63.4609 50.8502 63.2729 51.2368C63.0849 51.6234 62.6877 52.2476 60.9077 54.5409C59.1277 56.8342 55.977 60.7777 53.9447 63.1472C51.9125 65.5168 51.0943 66.193 50.4664 66.6748C49.8385 67.1567 49.4257 67.4237 50.9288 67.1545C52.4319 66.8853 55.8635 66.0717 57.7034 65.6432C59.6849 65.1817 60.0085 65.1765 60.2032 65.2596C60.2769 65.2911 60.0932 65.5088 54.7926 69.4842C49.4919 73.4596 39.0271 81.2392 31.7987 86.1838C24.5703 91.1285 20.8954 93.0025 18.6965 94.0847C16.4976 95.1668 15.8859 95.4002 15.695 95.502C15.504 95.6038 15.7524 95.5668 22.1483 92.5782C28.5442 89.5897 41.08 83.6506 48.5196 80.2715C55.9593 76.8925 57.9231 76.2536 59.2773 75.843C61.3064 75.2277 62.3264 75.0103 62.6631 74.9847C62.7313 74.9795 62.4486 75.2759 56.7253 78.4233C51.002 81.5708 39.8103 87.6333 33.3759 91.3016C26.9414 94.9698 25.6033 96.06 24.5599 97.0018C22.7527 98.6328 21.9016 99.6318 21.2639 100.09C19.1207 101.632 18.4875 102.131 18.4857 102.324C18.4842 102.48 19.0626 102.147 22.6958 100.645C26.3289 99.1421 33.1478 96.3252 37.034 94.7804C40.9202 93.2357 41.667 93.0484 43.6862 92.2522C45.7055 91.4559 48.9745 90.0565 50.926 89.2717C54.6595 87.7702 56.7051 87.9115 57.1493 87.9904C57.2914 88.0156 57.1941 88.227 57.0258 88.416C56.8575 88.605 56.6032 88.8203 52.8515 91.4451C49.0998 94.0699 41.8583 99.0976 37.8618 101.919C33.8652 104.74 33.3332 105.203 32.9152 105.529C32.2296 106.064 30.7868 106.618 28.837 107.289C27.5425 107.735 26.8268 107.795 26.6803 107.8C26.3329 107.81 27.7324 107.624 28.9429 107.167C29.7664 106.856 30.9625 106.229 32.941 104.977C34.9196 103.725 37.6309 101.829 39.4734 100.647C41.3159 99.466 42.2074 99.0578 44.187 98.39C46.1665 97.7222 49.207 96.8074 50.8569 96.3276C53.3564 95.6009 54.8798 95.6136 56.4554 95.4328C57.1454 95.3536 57.5975 95.4614 57.8415 95.6374C57.9584 95.7217 57.9854 95.8965 57.9436 96.0602C57.8486 96.432 56.4344 97.4722 53.9682 99.4492C52.6743 100.486 51.4132 101.765 50.2836 102.71C47.2756 105.226 46.5777 105.155 46.1593 105.302C44.811 105.777 43.9227 108.13 43.2591 109.593C43.0921 109.939 42.9472 110.186 42.8042 110.392C42.6612 110.597 42.5244 110.754 42.2544 111.107" stroke="black" stroke-width="4.03402" stroke-linecap="round"/>
<path d="M15.949 102.197C15.949 102.23 16.5443 103.02 17.7886 104.565C19.8752 107.157 20.7454 107.984 21.7901 108.79C23.0484 109.761 24.5168 110.798 25.6184 111.503C26.2934 111.935 26.7507 112.453 27.1931 112.804C27.3375 112.918 27.4072 112.726 27.3902 112.498C27.3732 112.27 27.2897 111.967 26.2294 109.925C25.1691 107.883 23.1345 104.112 21.4175 101.33C19.7004 98.5479 18.3625 96.8701 17.5866 95.8524C16.8106 94.8347 16.637 94.5278 16.6931 94.4648C16.7491 94.4019 17.04 94.5921 18.212 95.7195C19.384 96.8469 21.4282 98.9056 22.8313 100.267C24.2343 101.628 24.9342 102.229 26.8424 104.007C28.7506 105.785 31.846 108.722 33.5013 110.315C35.5776 112.313 36.0211 112.758 36.3681 112.884C36.5006 112.932 36.5712 112.708 36.5864 112.45C36.6639 111.137 35.8964 109.511 34.716 107.265C34.0008 105.904 32.7869 104.269 31.1736 102.323C29.5603 100.376 27.5173 98.211 26.1492 96.8259C24.7812 95.4408 24.1499 94.9009 23.0466 93.7694C21.9434 92.6379 20.3873 90.931 19.2915 89.6437C17.5496 87.5975 16.6525 86.3074 16.0229 85.5657C15.0736 84.4474 14.7799 83.4023 14.694 82.8569C14.6703 82.7063 14.8569 82.8082 16.9818 85.065C19.1068 87.3218 23.2079 91.7296 27.9928 96.2527C32.7776 100.776 38.122 105.281 40.975 107.726C44.7115 110.928 45.6798 111.792 45.8172 111.838C45.9166 111.872 45.6845 111.33 43.8044 107.809C41.9243 104.287 38.3029 97.6501 35.4489 92.9878C32.5948 88.3255 30.6178 85.8393 28.5645 83.6237C26.5112 81.4081 24.4415 79.5385 23.0073 78.1254C20.7559 75.9071 19.6178 74.4015 18.7844 73.476C18.3987 73.0477 18.1415 72.6482 21.507 75.5176C24.8725 78.387 31.8821 84.5234 37.8843 90.1663C43.8864 95.8092 48.6688 100.773 51.2952 103.57C53.9216 106.367 54.2471 106.848 54.7628 107.857C56.0376 110.35 56.8574 112.196 57.1518 112.429C57.4179 112.639 57.3218 111.236 56.818 109.419C56.4902 108.237 55.8485 106.586 52.0412 99.4522C48.234 92.3182 41.2379 79.7664 37.4281 72.7755C33.6182 65.7846 33.2067 64.7349 32.6512 63.4592C32.0957 62.1834 31.4087 60.7133 31.189 60.0588C30.9692 59.4043 31.2375 59.6099 35.9566 64.1651C40.6757 68.7202 49.8375 77.6187 54.5453 82.1029C59.253 86.587 59.2291 86.3872 59.1321 86.0784C59.0352 85.7696 58.8659 85.3578 56.773 81.8698C54.68 78.3819 50.6687 71.8303 47.7054 66.4056C44.742 60.9809 42.9483 56.8817 41.9639 54.6981C40.7276 51.9559 40.0345 51.6397 39.7017 51.3444C39.4971 51.1628 39.3061 50.8138 42.6177 54.8629C45.9293 58.9119 52.7712 67.3433 56.7668 72.1627C60.7624 76.9822 61.7043 77.9343 62.2351 78.4772C63.0824 79.344 64.0337 80.7972 64.6092 81.435C64.7029 81.5388 64.5108 80.8804 63.6234 78.6601C62.736 76.4399 61.0572 72.4205 59.9592 69.2714C58.8613 66.1223 58.395 63.9653 57.5322 61.2783C56.6693 58.5914 55.4241 55.44 54.6703 53.4087C53.9164 51.3774 53.6916 50.5617 53.5405 50.0759C53.3894 49.59 53.3187 49.4586 53.1941 49.2832" stroke="black" stroke-width="4.03402" stroke-linecap="round"/>
<path d="M57.0315 45.9637C56.8454 45.8759 56.2912 45.4045 55.3297 43.5321C55.0269 42.9424 54.7149 41.4188 54.1847 37.7814C53.8477 35.469 53.7297 32.1553 53.6316 30.1788C53.5062 27.6516 53.8209 26.3165 54.3454 24.9687C55.0467 23.1671 56.4461 22.6583 57.6981 22.133C58.6863 21.7185 59.7698 22.0721 60.0414 22.358C60.9275 23.2906 60.7819 25.8118 60.5811 26.9014C60.4363 27.6867 58.3188 28.0986 54.7578 28.4075C52.9988 28.56 51.9172 27.5983 51.2002 26.7749C50.2396 25.6717 50.3446 23.7259 50.3113 18.912C50.2947 16.524 51.2209 14.7621 52.6089 12.5865C54.5459 9.55023 56.365 8.76145 58.0334 8.06693C58.6186 7.8233 59.4055 7.7234 60.8604 7.60491C62.3152 7.48642 64.4341 7.41989 65.9764 7.44169C67.5187 7.46349 68.4202 7.57565 69.5799 7.82073C72.1448 8.36278 74.4136 9.20131 75.9035 9.90184C78.1241 10.9459 79.9656 13.2748 80.6186 14.2924C80.8761 14.6938 80.8414 15.2502 80.7865 15.6669C80.7617 15.8555 80.6174 15.9647 80.4474 16.0423C79.3603 16.5388 77.6869 15.7686 76.244 15.1298C75.7154 14.8957 75.3439 14.4831 74.9716 14.0287C74.0962 12.9604 74.8158 10.3015 75.2759 9.1467C75.5365 8.49272 76.0679 8.11948 76.9436 7.4298C78.9326 5.86332 80.8707 4.68914 82.002 4.08502C82.5736 3.73048 83.1404 3.27854 83.6288 2.94218C84.1172 2.60583 84.51 2.39877 85.2964 2.03711" stroke="black" stroke-width="4.07317" stroke-linecap="round"/>
</svg>
