<svg width="77" height="77" viewBox="0 0 77 77" fill="none" xmlns="http://www.w3.org/2000/svg">
<path d="M37.8287 2.52734C37.6228 2.67052 35.1873 5.10399 32.8889 7.17426C32.5972 7.4371 32.4635 7.54652 31.2478 9.11938C30.0321 10.6922 27.7273 13.7095 25.1593 16.7258C22.5914 19.7421 19.8303 22.666 17.8119 24.7066C14.6629 27.8902 12.9053 29.4467 11.5564 30.8235C9.48965 32.933 7.48613 34.6986 6.15603 36.1141C3.69438 38.7339 2.87408 39.6204 2.24705 40.9898C2.11937 41.2686 1.99767 41.4183 2.0479 41.5116C2.60686 42.5494 5.95309 41.4186 7.83352 41.2348C10.558 40.9661 12.2472 40.9982 12.7208 41.0855C13.0125 41.1386 13.4088 41.2099 13.8943 41.3071" stroke="black" stroke-width="4.07317" stroke-linecap="round"/>
<path d="M14.0217 41.6738C14.0217 41.6888 14.0217 42.7543 14.0824 47.5983C14.1298 51.3848 14.2644 57.8672 14.3198 61.7978C14.3918 66.9098 14.4401 68.8105 14.628 69.988C14.8366 71.2942 15.5592 71.8472 16.9936 72.8014C17.9462 73.435 18.7449 73.6547 19.2723 73.7919C20.048 73.9939 22.2682 73.9567 26.3107 73.9059C28.6173 73.8769 31.4426 73.8721 33.5582 73.8065C38.9954 73.3848 40.4871 73.1426 40.8855 73.1268C41.0931 73.1188 41.3116 73.111 41.5735 72.8654" stroke="black" stroke-width="4.07317" stroke-linecap="round"/>
<path d="M41.5728 72.8652C41.5849 72.8652 43.6654 72.8694 47.3034 72.9442C49.8644 72.9969 51.8226 73.4873 53.9026 73.7882C58.0561 74.3891 59.4511 73.7605 60.1829 73.4104C60.8596 73.0867 61.0445 71.3168 61.394 68.4118C61.6135 66.5866 61.593 64.0106 61.6174 60.1101C61.6418 56.2095 61.6285 51.0529 61.668 47.9753C61.7075 44.8978 61.8003 44.0557 61.9153 43.5465C62.0302 43.0372 62.1646 42.8863 62.5129 42.8083C64.2531 42.4186 66.0108 43.3477 68.1231 43.7526C70.6857 43.7012 72.0758 43.3006 73.0061 42.9626C73.2021 42.9009 73.377 42.8616 74.0362 42.7536" stroke="black" stroke-width="4.07317" stroke-linecap="round"/>
<path d="M74.0363 42.7523C74.0094 42.4503 72.6414 39.6372 71.389 37.7566C70.8883 37.0048 69.6576 36.3762 68.102 35.2411C64.8227 32.2794 63.8868 31.0266 62.9886 29.4099C62.7874 29.0746 62.6681 28.9438 62.1935 28.7402" stroke="black" stroke-width="4.07317" stroke-linecap="round"/>
<path d="M65.2487 5.30273C65.2487 5.31975 65.2384 7.21245 64.8131 13.3134C64.398 17.5304 63.5784 24.0233 63.1562 27.5429C62.734 31.0625 62.734 31.412 62.734 31.772" stroke="black" stroke-width="4.07317" stroke-linecap="round"/>
<path d="M64.6512 4.48837C64.5938 4.48837 62.3694 4.47715 58.8897 4.43379C56.4287 4.30011 55.0542 4.35446 54.1447 4.42079C53.4925 4.44392 52.4531 4.44566 51.0069 4.25977" stroke="black" stroke-width="4.07317" stroke-linecap="round"/>
<path d="M49.2179 4.10352C49.2179 4.57337 49.2179 5.04322 49.2085 6.89329C49.199 8.74336 49.18 11.9594 49.0818 15.1477C48.9835 18.3361 48.8064 21.3992 48.5193 24.9045" stroke="black" stroke-width="4.07317" stroke-linecap="round"/>
<path d="M47.7126 13.1568C47.699 13.1717 47.5571 13.0634 46.8616 12.1284C45.1981 9.89237 43.517 7.10219 42.031 5.0679C41.3347 4.1579 40.7556 3.49624 40.3498 3.06593C39.9439 2.63562 39.7288 2.4567 39.0931 2.03711" stroke="black" stroke-width="4.07317" stroke-linecap="round"/>
<path d="M31.7681 37.6267C31.7681 37.7505 31.7681 42.1813 32.1589 48.8598C32.2962 51.2058 33.3311 51.2951 34.4437 51.3589C39.6758 51.6589 43.5235 50.7503 45.4977 50.1971C49.7123 49.0162 45.9399 39.7558 45.6808 38.2622C45.3534 37.6147 44.6286 37.1916 42.4154 36.956C40.2023 36.7203 36.5229 36.6849 32.7319 36.6484" stroke="black" stroke-width="4" stroke-linecap="round"/>
<path d="M39.7032 36.9414C39.7032 36.9718 39.7032 37.0022 39.7032 38.7003C39.7032 40.3985 39.7032 43.7634 39.9156 45.9652C40.1281 48.1669 40.553 49.1035 41.1195 50.5534" stroke="black" stroke-width="4" stroke-linecap="round"/>
<path d="M39.7389 43.5723C39.767 43.5723 39.7952 43.5723 40.8263 43.5806C41.8574 43.589 43.8905 43.6057 46.7338 43.7868" stroke="black" stroke-width="4" stroke-linecap="round"/>
<path d="M15.4118 39.5968C17.3196 38.003 23.6384 32.7978 27.4688 30.0138C28.3768 29.2793 29.3861 28.3433 30.6189 27.3117C31.8517 26.2802 33.2773 25.1814 35.4416 23.625" stroke="black" stroke-width="4" stroke-linecap="round"/>
<path d="M35.4416 23.625C35.5554 23.625 40.0739 26.5928 47.7506 31.9133C52.8062 35.9136 56.2478 38.7525 58.8003 40.8368C59.8059 41.7797 60.2231 42.4898 60.8226 42.9235" stroke="black" stroke-width="4" stroke-linecap="round"/>
</svg>
