<svg width="110" height="110" viewBox="0 0 110 110" fill="none" xmlns="http://www.w3.org/2000/svg">
<g clip-path="url(#clip0_545_1031)">
<path d="M1.02417 64.2749C2.28111 60.6733 -0.95793 56.4432 3.80395 54.0744C7.06716 52.4548 10.1612 50.5211 13.7628 48.4906V43.8496H96.3101C96.2376 51.3429 97.6154 52.9624 104.48 55.5247C105.592 55.9356 105.979 58.377 106.728 59.9481C107.042 59.5856 107.55 58.9571 108.299 58.0627C108.396 58.8362 108.565 59.223 108.444 59.5372C105.471 67.7315 103.078 69.0368 92.5393 68.9885C83.5473 68.9643 74.5553 69.4477 65.5633 69.2543C56.3055 69.061 47.0718 68.2633 37.8381 67.8524C33.6805 67.659 29.5229 67.7315 25.3653 67.7557C20.2167 67.7799 15.0197 68.3358 9.94363 67.804C6.89796 67.4898 4.0215 65.5077 1 64.2508L1.02417 64.2749Z" fill="black"/>
<path d="M6.00342 29.3448C26.6221 25.4773 44.1226 16.0744 57.9248 0C59.7619 2.80395 61.5264 6.26054 63.992 9.08866C65.9257 11.2883 68.7539 12.6903 71.1711 14.4548C72.9114 15.736 74.6035 17.1138 76.4164 18.2982C78.1568 19.4343 79.3654 22.0448 82.266 20.2803C82.7978 19.966 84.1756 20.9088 85.1183 21.368C89.3484 23.4952 93.4334 25.9124 97.8086 27.6769C99.6698 28.4262 102.063 27.7978 104.843 28.7163C102.063 31.1093 99.2831 33.5265 97.2043 35.3394H81.4683C81.5167 35.1944 81.7342 34.6143 81.8792 34.155C77.915 34.7835 73.9025 35.8954 69.8658 35.9679C62.9284 36.1129 55.9669 35.3394 49.0054 35.4361C43.0107 35.5328 37.0402 36.3788 31.0214 36.7172C25.3652 37.0556 19.7089 37.2248 14.0527 37.3699C10.8136 37.4424 6.31766 32.9947 5.95508 29.3689L6.00342 29.3448Z" fill="black"/>
<path d="M31.7703 98.8399H7.86426V75.1997C14.8016 75.1997 21.2555 75.3447 27.6853 75.1755C38.3451 74.8613 48.9808 74.0394 59.6406 74.0152C72.9594 73.9669 86.254 74.4262 99.5727 74.7646C104.069 74.8854 104.746 76.1424 104.504 80.5417C104.214 86.0529 104.431 91.6124 104.431 96.9303C99.9353 97.1962 95.391 97.5346 90.8466 97.7521C87.4626 97.9213 83.9818 98.3806 80.7186 97.8246C79.365 97.5829 77.6004 95.1174 77.407 93.4979C76.706 87.334 72.2584 83.6115 68.826 79.2364C68.27 78.5354 66.8922 78.197 65.9012 78.2453C58.6979 78.5112 51.3013 78.0036 44.3639 79.5023C38.2726 80.8076 35.9521 87.0681 33.7524 92.5068C32.9064 94.5856 32.423 96.8094 31.7945 98.864L31.7703 98.8399Z" fill="black"/>
<path d="M2.57156 105.728C8.75959 105.728 14.9234 105.801 21.1115 105.728C28.4597 105.632 35.808 105.052 43.1321 105.342C50.287 105.632 57.4178 106.744 64.5727 107.517C65.4429 107.614 66.3372 107.904 67.1833 107.783C73.1779 107.058 79.1484 106.018 85.1672 105.535C90.9443 105.076 96.7697 105.1 102.595 105.003C104.36 104.979 106.124 105.293 107.889 105.463L108.034 106.623C106.221 107.01 104.456 107.614 102.619 107.735C90.896 108.557 79.1726 109.306 67.4491 109.983C65.7813 110.079 64.0167 109.765 62.373 109.306C51.1089 106.164 39.7722 108.581 28.4839 108.919C21.0873 109.137 13.7148 109.62 6.31822 109.62C4.94042 109.62 3.58679 107.976 2.20898 107.082C2.32984 106.623 2.47488 106.188 2.59574 105.728H2.57156Z" fill="black"/>
</g>
<defs>
<clipPath id="clip0_545_1031">
<rect width="110" height="110" fill="white"/>
</clipPath>
</defs>
</svg>
