<svg width="110" height="110" viewBox="0 0 110 110" fill="none" xmlns="http://www.w3.org/2000/svg">
<g clip-path="url(#clip0_544_873)">
<path d="M37.6788 92.5528C34.7192 93.8923 31.7724 95.2317 28.8128 96.5712C27.3968 97.209 25.8405 97.6683 24.5648 98.523C20.3041 101.419 16.1454 104.468 11.8718 108.537C42.6539 108.039 73.4359 107.542 102.827 107.07C98.2861 104.544 92.839 101.457 87.3408 98.4719C85.9631 97.7193 84.4323 97.26 82.9652 96.6605C78.258 89.9377 73.3084 83.3552 68.9583 76.4155C67.0448 73.3666 66.3432 69.5779 65.6926 65.8784C69.4558 67.8302 68.1546 73.4432 71.4969 74.6041C72.9767 77.7039 73.8186 80.7273 75.6301 82.998C78.8703 87.0546 82.5315 90.8179 86.3075 94.4153C91.2444 99.1225 96.7553 102.975 103.708 104.315C105.685 104.697 107.509 105.871 109.78 106.853C104.371 108.945 9.67768 111.101 1.78125 109.366C5.3659 107.912 8.50406 106.751 11.5402 105.373C13.1858 104.621 15.9923 104.582 14.8314 101.368C14.8059 101.278 15.8392 100.87 16.3112 100.526C21.2608 96.9539 26.2487 93.4075 31.1345 89.7463C33.0863 88.2793 34.1069 86.4933 32.474 83.9803C30.8411 81.4799 29.17 79.3878 25.7384 80.3956C23.7101 80.9952 21.6818 81.582 19.6407 82.1816L19.7045 82.2581C24.7817 77.2702 29.2338 77.9718 35.3315 85.0773C36.2117 83.6741 37.0154 82.3984 37.9594 80.8931C29.693 76.8748 24.1311 70.0244 18.8115 63.1612C14.2318 57.2676 11.1447 50.379 10.29 42.8015C10.1369 41.4237 10.9278 39.6505 11.8336 38.5152C14.8824 34.7009 15.8137 30.3636 16.6174 25.6564C17.2552 21.9314 18.9518 17.7855 21.5159 15.0938C30.1778 5.98547 41.1358 1.17618 53.7395 0.436286C57.9237 0.193907 62.3376 -0.456685 66.2921 0.525585C74.7244 2.63045 80.9624 8.44753 86.384 14.979C91.3464 20.9619 95.4413 27.6209 96.8573 35.3388C97.5717 39.2678 97.0869 43.5286 96.5384 47.5597C95.6454 53.9636 94.8673 60.5844 89.114 64.1308C91.946 65.5085 94.9055 66.8224 97.7248 68.3788C101.08 70.2285 102.1 73.1498 100.684 77.0916C104.958 77.2064 106.91 79.9109 106.655 83.2531C106.552 84.6181 103.491 85.7662 101.781 87.0164C101.565 86.6974 101.335 86.3658 101.118 86.0469C102.866 85.307 104.601 84.5543 107.484 83.3297C104.932 80.8931 102.993 79.0434 101.067 77.2064C100.901 77.4233 100.748 77.6274 100.582 77.8443C100.008 75.5991 100.072 72.7671 98.6943 71.2363C96.717 69.0294 93.8595 67.0138 91.0403 66.3249C87.9531 65.5723 85.44 67.5878 85.1084 71.2363C78.3856 68.9401 77.0461 69.6672 76.1531 77.1682C75.1708 75.4205 73.9845 74.03 74.2524 73.6473C75.5535 71.7721 77.4033 68.5829 78.7555 68.7232C85.4273 69.4376 87.1494 64.0542 89.9559 60.3165C92.9793 56.2854 95.352 51.795 94.4973 46.2841C94.0508 43.401 94.2805 40.4159 93.9743 37.5074C92.2649 20.9747 82.557 10.1059 68.4608 2.80904C65.3864 1.21445 61.1001 0.767963 57.6303 1.35477C50.2442 2.63045 42.7687 4.25056 35.8545 7.04429C31.5938 8.76645 28.4301 13.0655 24.5648 15.9485C20.2275 19.176 19.207 23.9342 18.0461 28.6925C17.6124 30.4912 17.421 32.4175 16.6556 34.0758C11.1064 46.0927 15.9668 56.3236 22.9064 65.534C27.1034 71.0959 33.0991 75.3057 38.6993 80.5104C41.1358 76.4155 43.33 73.0988 45.1159 69.5906C46.162 67.5368 47.3866 66.5928 49.7084 66.6693C54.0584 66.7969 58.4085 66.7076 62.7713 66.7076C62.784 67.0776 62.8096 67.4475 62.8223 67.8047C57.7069 68.0726 52.6042 68.3405 48.3306 68.5701C41.9778 77.4616 36.0076 85.8172 29.4507 94.9893C32.7164 94.0198 35.1784 93.2927 37.6405 92.5528H37.6788Z" fill="black"/>
<path d="M19.6673 82.166C18.8891 84.4367 18.1109 86.6947 17.218 89.2843C16.4398 88.2893 15.8657 87.3197 15.0748 86.5799C12.2301 83.9137 9.07915 84.6536 7.39526 88.1872C6.62985 89.7946 5.88996 91.6826 4.5505 92.6776C0.27699 95.854 0.251476 97.0659 5.04801 99.7321C5.62207 100.051 6.22164 100.306 6.9105 100.638C3.50445 101.824 1.97364 101.148 0.4811 97.9971C-0.832845 95.1907 0.748993 93.545 2.76456 91.9632C3.77234 91.1723 5.21385 90.2665 5.41796 89.2077C6.64261 82.7911 9.84455 81.8088 15.5723 84.5005C17.0904 83.6713 18.4043 82.9569 19.731 82.2426L19.6673 82.166Z" fill="black"/>
<path d="M58.9827 87.3197C57.1968 92.3203 51.1756 93.8511 47.9226 89.7562C45.6009 86.8221 43.7129 87.2431 41.2764 89.0418C43.5598 85.6613 45.2437 85.3551 47.7185 87.9065C52.1706 92.4989 54.5689 92.3713 58.9955 87.3197H58.9827Z" fill="black"/>
<path d="M83.0807 96.5456C81.9454 97.0814 80.1467 98.3698 79.7768 98.0381C75.6308 94.4025 71.7145 90.4989 67.7344 86.6719C70.7577 89.4528 73.7428 92.2593 76.8044 95.002C78.6031 96.6221 80.4656 98.2423 83.0935 96.5328L83.0807 96.5456Z" fill="black"/>
</g>
<defs>
<clipPath id="clip0_544_873">
<rect width="110" height="110" fill="white"/>
</clipPath>
</defs>
</svg>
