<svg width="110" height="110" viewBox="0 0 110 110" fill="none" xmlns="http://www.w3.org/2000/svg">
<g clip-path="url(#clip0_545_934)">
<path d="M0.544084 74.0817C1.70471 73.5549 2.85641 72.6264 4.04381 72.5818C9.24877 72.4211 14.4537 72.4032 19.6587 72.5461C31.1667 72.8586 42.6748 73.5371 54.1917 73.6174C68.6192 73.7156 83.0377 73.3049 97.4652 73.2603C100.947 73.2514 104.429 73.8406 107.911 74.1531C108 74.5638 108.098 74.9745 108.188 75.3851C107.116 75.7601 106.054 76.4386 104.974 76.4654C92.5995 76.7065 80.2165 76.894 67.8335 76.9832C63.6374 77.01 59.4413 76.6172 55.2363 76.5458C47.3976 76.4119 39.5411 76.5636 31.7113 76.2422C27.042 76.0458 22.4174 74.9209 17.7392 74.6798C12.1771 74.3942 6.58826 74.6084 1.00833 74.6084L0.535156 74.0727L0.544084 74.0817Z" fill="black"/>
<path d="M0.928711 86.9119C5.51764 86.5994 10.1066 86.1262 14.7044 86.0012C21.8735 85.8048 29.0515 85.8941 36.2206 85.787C41.9613 85.7066 47.7108 85.5905 53.4425 85.3495C58.4153 85.1352 63.3792 84.5371 68.3521 84.4567C71.0572 84.4121 73.9231 84.6263 76.4407 85.5191C80.3512 86.894 84.1009 87.385 88.2523 86.8762C92.2431 86.394 96.3499 87.0279 100.403 86.9297C102.573 86.8762 104.715 86.2691 106.885 85.9923C107.662 85.8941 108.474 86.0637 109.269 86.1084C108.778 86.8851 108.447 88.1082 107.778 88.3403C105.706 89.0546 103.519 89.7241 101.35 89.8045C95.5911 90.0188 89.8147 89.9831 84.0562 89.8849C82.2528 89.8581 80.2797 89.7063 78.6816 88.9653C74.2088 86.9029 69.6466 86.9297 64.8702 87.2511C51.0052 88.1707 37.1134 88.8135 23.2306 89.5367C21.7932 89.6081 20.3379 89.5277 18.9005 89.4742C13.9634 89.3045 9.0263 89.1171 4.08918 88.9296C3.10712 88.8939 2.13398 88.7867 1.15191 88.7153C1.08048 88.1171 1.00906 87.519 0.937639 86.9208L0.928711 86.9119Z" fill="black"/>
<path d="M105.572 63.0553C104.706 63.3053 103.831 63.7785 102.965 63.7606C96.3051 63.6356 89.636 63.225 82.9847 63.2964C78.8689 63.341 74.7532 64.457 70.6553 64.3856C66.9056 64.3231 63.1826 63.1625 59.424 62.7428C56.3349 62.3947 53.2102 62.3322 50.0944 62.2875C46.1929 62.225 42.1128 63.0375 38.4256 62.1447C32.069 60.6002 25.9444 62.3679 19.7217 62.2965C13.249 62.2161 6.76734 62.2786 0.29462 62.2786C0.196413 61.734 0.0982067 61.1894 0 60.6448C1.7945 60.1538 3.58901 59.261 5.38351 59.252C11.017 59.2253 16.7219 60.1895 22.2572 59.5467C28.8728 58.7878 35.2919 59.0735 41.8093 59.9663C43.9877 60.2609 46.2554 59.8324 48.4873 59.7788C51.6032 59.6984 54.9065 58.9485 57.7991 59.7252C66.8074 62.1447 75.7174 62.1982 84.922 61.0555C90.9394 60.3055 97.1532 61.1001 103.269 61.2876C104.037 61.3144 104.795 61.8233 105.554 62.109C105.554 62.4304 105.563 62.7429 105.572 63.0643V63.0553Z" fill="black"/>
<path d="M109.902 24.2996C106.135 24.4246 102.367 24.7371 98.6085 24.6478C87.6986 24.3711 76.7888 23.8532 65.8789 23.6033C62.4863 23.5318 59.0937 24.1479 55.6922 24.1925C54.7637 24.2014 53.8173 23.2997 52.8799 22.8176C53.7548 22.2552 54.6208 21.2106 55.5047 21.1927C64.7629 21.041 74.03 20.9338 83.2883 21.0588C90.8055 21.157 98.3317 21.5588 105.849 21.907C107.242 21.9695 108.617 22.4069 110 22.6658C109.974 23.2104 109.938 23.755 109.911 24.2996H109.902Z" fill="black"/>
<path d="M52.5314 35.1491C53.4867 34.6402 54.4152 33.7385 55.3883 33.6849C61.8432 33.3635 68.307 33.1671 74.7618 33.0242C84.2075 32.8189 93.6532 32.6314 103.09 32.5957C104.411 32.5957 105.742 33.4439 107.072 33.8902C106.929 34.5688 106.777 35.2384 106.634 35.9169H52.8706C52.7546 35.658 52.6385 35.3991 52.5225 35.1402L52.5314 35.1491Z" fill="black"/>
<path d="M54.2545 47.7171C59.7362 45.8244 65.2357 44.2799 70.9674 46.8511C71.5478 47.11 72.262 47.1993 72.8959 47.1636C80.2614 46.7619 87.6269 46.2173 95.0013 45.9405C99.0189 45.7887 103.117 45.6994 106.822 47.5118C106.795 47.9403 106.768 48.3778 106.741 48.8063C104.179 48.8063 101.608 48.7081 99.0456 48.8331C97.0101 48.9313 94.9835 49.2884 92.9658 49.5652C92.4479 49.6366 91.948 49.9848 91.448 49.967C83.9129 49.6634 76.3867 49.2884 68.8515 48.9938C65.9143 48.8778 62.977 48.9403 60.0308 48.9224C58.0488 48.9224 56.0757 48.9224 54.0938 48.9224C54.1473 48.5206 54.2009 48.1189 54.2545 47.7171Z" fill="black"/>
<path d="M2.89263 47.3882C2.62479 48.3435 2.14268 49.3613 3.51758 49.8969C4.24074 50.1737 5.08889 50.0755 5.6067 49.4773C6.18702 48.8167 6.16916 47.79 5.6067 47.1829C4.89247 46.4061 3.41937 45.5044 2.89263 47.3882Z" fill="black"/>
<path d="M2.55376 38.9351C2.28592 39.8904 1.80382 40.9081 3.17871 41.4438C3.90187 41.7206 4.75002 41.6224 5.26784 41.0242C5.84815 40.3635 5.83029 39.3368 5.26784 38.7297C4.5536 37.953 3.0805 37.0513 2.55376 38.9351Z" fill="black"/>
<path d="M2.89263 30.478C2.62479 31.4333 2.14268 32.4511 3.51758 32.9868C4.24074 33.2635 5.08889 33.1653 5.6067 32.5672C6.18702 31.9065 6.16916 30.8798 5.6067 30.2727C4.89247 29.496 3.41937 28.5943 2.89263 30.478Z" fill="black"/>
<path d="M2.82935 21.3905C2.61508 22.569 2.22226 23.8189 3.32931 24.4795C3.90963 24.8277 4.58815 24.7027 5.00776 23.9617C5.47201 23.1404 5.46308 21.8815 5.00776 21.1226C4.43637 20.1674 3.24896 19.0514 2.82935 21.3816V21.3905Z" fill="black"/>
<path d="M13.0166 48.2808C12.7488 49.2361 12.2667 50.2538 13.6416 50.7895C14.3648 51.0663 15.2129 50.9681 15.7307 50.3699C16.311 49.7092 16.2932 48.6825 15.7307 48.0754C15.0165 47.2987 13.5434 46.397 13.0166 48.2808Z" fill="black"/>
<path d="M12.6778 39.8276C12.4099 40.7829 11.9278 41.8007 13.3027 42.3364C14.0259 42.6131 14.874 42.5149 15.3919 41.9168C15.9722 41.2561 15.9543 40.2294 15.3919 39.6223C14.6776 38.8456 13.2045 37.9439 12.6778 39.8276Z" fill="black"/>
<path d="M13.0166 31.3706C12.7488 32.3259 12.2667 33.3437 13.6416 33.8793C14.3648 34.1561 15.2129 34.0579 15.7307 33.4597C16.311 32.7991 16.2932 31.7724 15.7307 31.1653C15.0165 30.3886 13.5434 29.4868 13.0166 31.3706Z" fill="black"/>
<path d="M12.9631 22.2831C12.7489 23.4615 12.356 24.7114 13.4631 25.3721C14.0434 25.7203 14.7219 25.5953 15.1415 24.8543C15.6058 24.0329 15.5969 22.7741 15.1415 22.0152C14.5702 21.0599 13.3828 19.944 12.9631 22.2741V22.2831Z" fill="black"/>
<path d="M22.8555 47.3882C22.5877 48.3435 22.1056 49.3613 23.4805 49.8969C24.2036 50.1737 25.0518 50.0755 25.5696 49.4773C26.1499 48.8167 26.132 47.79 25.5696 47.1829C24.8554 46.4061 23.3823 45.5044 22.8555 47.3882Z" fill="black"/>
<path d="M22.5157 38.9351C22.2478 39.8904 21.7657 40.9081 23.1406 41.4438C23.8638 41.7206 24.7119 41.6224 25.2297 41.0242C25.8101 40.3635 25.7922 39.3368 25.2297 38.7297C24.5155 37.953 23.0424 37.0513 22.5157 38.9351Z" fill="black"/>
<path d="M22.8555 30.478C22.5877 31.4333 22.1056 32.4511 23.4805 32.9868C24.2036 33.2635 25.0518 33.1653 25.5696 32.5672C26.1499 31.9065 26.132 30.8798 25.5696 30.2727C24.8554 29.496 23.3823 28.5943 22.8555 30.478Z" fill="black"/>
<path d="M22.7932 21.3905C22.579 22.569 22.1861 23.8189 23.2932 24.4795C23.8735 24.8277 24.552 24.7027 24.9716 23.9617C25.4359 23.1404 25.4269 21.8815 24.9716 21.1226C24.4002 20.1674 23.2128 19.0514 22.7932 21.3816V21.3905Z" fill="black"/>
<path d="M33.542 48.2808C33.2742 49.2361 32.7921 50.2538 34.167 50.7895C34.8902 51.0663 35.7383 50.9681 36.2561 50.3699C36.8364 49.7092 36.8186 48.6825 36.2561 48.0754C35.5419 47.2987 34.0688 46.397 33.542 48.2808Z" fill="black"/>
<path d="M33.2032 39.8276C32.9353 40.7829 32.4532 41.8007 33.8281 42.3364C34.5513 42.6131 35.3994 42.5149 35.9173 41.9168C36.4976 41.2561 36.4797 40.2294 35.9173 39.6223C35.203 38.8456 33.7299 37.9439 33.2032 39.8276Z" fill="black"/>
<path d="M33.542 31.3706C33.2742 32.3259 32.7921 33.3437 34.167 33.8793C34.8902 34.1561 35.7383 34.0579 36.2561 33.4597C36.8364 32.7991 36.8186 31.7724 36.2561 31.1653C35.5419 30.3886 34.0688 29.4868 33.542 31.3706Z" fill="black"/>
<path d="M33.4876 22.2831C33.2733 23.4615 32.8805 24.7114 33.9875 25.3721C34.5678 25.7203 35.2464 25.5953 35.666 24.8543C36.1302 24.0329 36.1213 22.7741 35.666 22.0152C35.0946 21.0599 33.9072 19.944 33.4876 22.2741V22.2831Z" fill="black"/>
<path d="M44.7549 48.2808C44.4871 49.2361 44.005 50.2538 45.3799 50.7895C46.103 51.0663 46.9512 50.9681 47.469 50.3699C48.0493 49.7092 48.0315 48.6825 47.469 48.0754C46.7548 47.2987 45.2817 46.397 44.7549 48.2808Z" fill="black"/>
<path d="M44.4161 39.8276C44.1482 40.7829 43.6661 41.8007 45.041 42.3364C45.7642 42.6131 46.6123 42.5149 47.1301 41.9168C47.7105 41.2561 47.6926 40.2294 47.1301 39.6223C46.4159 38.8456 44.9428 37.9439 44.4161 39.8276Z" fill="black"/>
<path d="M44.7549 31.3706C44.4871 32.3259 44.005 33.3437 45.3799 33.8793C46.103 34.1561 46.9512 34.0579 47.469 33.4597C48.0493 32.7991 48.0315 31.7724 47.469 31.1653C46.7548 30.3886 45.2817 29.4868 44.7549 31.3706Z" fill="black"/>
<path d="M44.6926 22.2831C44.4784 23.4615 44.0855 24.7114 45.1926 25.3721C45.7729 25.7203 46.4514 25.5953 46.871 24.8543C47.3353 24.0329 47.3264 22.7741 46.871 22.0152C46.2997 21.0599 45.1122 19.944 44.6926 22.2741V22.2831Z" fill="black"/>
</g>
<defs>
<clipPath id="clip0_545_934">
<rect width="110" height="110" fill="white"/>
</clipPath>
</defs>
</svg>
