<svg width="87" height="87" viewBox="0 0 87 87" fill="none" xmlns="http://www.w3.org/2000/svg">
<g filter="url(#filter0_g_272_1022)">
<g clip-path="url(#clip0_272_1022)">
<path d="M78.2031 76.537V56.0703C77.1531 56.3703 76.0198 56.537 74.8698 56.537H11.5365C10.3865 56.537 9.25312 56.3703 8.20312 56.0703V76.537H28.2031V74.4536C28.2031 66.187 34.9365 59.4536 43.2031 59.4536C51.4698 59.4536 58.2031 66.187 58.2031 74.4536V76.537H78.2031Z" fill="black"/>
<path d="M44.5202 3.85312C44.2035 3.43646 43.7202 3.20312 43.2035 3.20312C42.6869 3.20312 42.2035 3.43646 41.8868 3.85312C41.7702 4.00312 29.5202 19.5698 8.22018 23.3698C7.43685 23.5198 6.85352 24.2198 6.85352 25.0198C6.85352 26.9531 7.67018 28.7698 9.15352 30.1198C10.5868 31.4531 12.5035 32.1865 14.5368 32.1865H71.8702C76.1035 32.1865 79.5535 28.9698 79.5535 25.0198C79.5535 24.2031 78.9702 23.5198 78.1869 23.3698C56.9535 19.5865 44.6369 4.00312 44.5202 3.85312Z" fill="black"/>
<path d="M82.1365 43.9027C77.5531 42.1194 74.9365 39.6527 74.0698 38.7194V35.3027C73.3531 35.4527 72.6198 35.5194 71.8698 35.5194H14.5365C13.7865 35.5194 13.0531 35.4527 12.3365 35.3027V38.7194C11.4698 39.6527 8.85312 42.1194 4.26979 43.9027C3.61979 44.1527 3.20312 44.7694 3.20312 45.4527C3.20312 49.7194 6.93646 53.2027 11.5365 53.2027H74.8698C79.4698 53.2027 83.2031 49.7194 83.2031 45.4527C83.2031 44.7694 82.7865 44.1527 82.1365 43.9027Z" fill="black"/>
<path d="M81.5365 79.8691H4.86979C3.95312 79.8691 3.20312 80.6191 3.20312 81.5358C3.20312 82.4525 3.95312 83.2025 4.86979 83.2025H81.5365C82.4531 83.2025 83.2031 82.4525 83.2031 81.5358C83.2031 80.6191 82.4531 79.8691 81.5365 79.8691Z" fill="black"/>
</g>
</g>
<defs>
<filter id="filter0_g_272_1022" x="0.000222683" y="0.000222683" width="86.4058" height="86.4058" filterUnits="userSpaceOnUse" color-interpolation-filters="sRGB">
<feFlood flood-opacity="0" result="BackgroundImageFix"/>
<feBlend mode="normal" in="SourceGraphic" in2="BackgroundImageFix" result="shape"/>
<feTurbulence type="fractalNoise" baseFrequency="0.027508091181516647 0.027508091181516647" numOctaves="3" seed="3084"/>
<feDisplacementMap in="shape" scale="6.4058046340942383" xChannelSelector="R" yChannelSelector="G" result="displacedImage" width="100%" height="100%"/>
<feMerge result="effect1_texture_272_1022">
<feMergeNode in="displacedImage"/>
</feMerge>
</filter>
<clipPath id="clip0_272_1022">
<rect width="80" height="80" fill="white" transform="translate(3.20312 3.20312)"/>
</clipPath>
</defs>
</svg>
