<svg width="110" height="110" viewBox="0 0 110 110" fill="none" xmlns="http://www.w3.org/2000/svg">
<g clip-path="url(#clip0_545_901)">
<path d="M2 54.219C6.54138 54.7949 9.01145 53.5433 9.64281 49.0684C9.9308 50.4419 9.83111 52.1033 10.6065 53.1002C11.3708 54.086 12.999 54.3962 14.0291 54.9057C13.719 57.4422 13.3867 60.1338 13.0544 62.8365C10.3406 58.7714 8.14748 61.2415 5.51126 64.1435C7.74872 59.6021 7.1949 56.246 2.01108 54.23L2 54.219Z" fill="black"/>
<path d="M15.4577 27.7025C15.6017 31.9116 17.6951 33.1521 20.3424 32.5208C19.8551 35.5557 19.4009 38.3581 18.9468 41.1716C18.1714 40.3187 17.0195 39.067 15.7789 37.7157C14.3168 38.9009 13.0319 39.9531 11.3261 41.3377C11.7692 39.0338 12.8769 36.8517 12.2123 35.6333C11.6252 34.5589 9.06653 34.5478 7.2832 33.3404C9.04437 33.2075 11.1489 33.6174 12.467 32.7755C13.763 31.9559 14.2503 29.8735 15.4577 27.6914V27.7025Z" fill="black"/>
<path d="M35.7388 21.5327C35.0188 20.6688 34.1548 19.6497 33.025 18.3205C31.9174 19.9377 31.0202 21.2448 29.8461 22.9616C30.0454 18.9962 28.2621 16.2086 24.4961 14.5988C29.691 15.0197 31.9838 12.6826 31.4854 7.41016C33.2244 10.5337 33.169 15.053 37.7326 13.2807C37.079 16.0056 36.4034 18.7636 35.7388 21.5438V21.5327Z" fill="black"/>
<path d="M8.93359 80.4713C13.2534 80.6929 15.8564 79.5852 15.4355 74.7559C17.4071 77.1373 19.0132 79.0979 20.5418 80.9476C19.9769 82.6424 19.2126 84.902 18.4594 87.1616C15.79 84.1931 13.3421 86.3198 10.728 88.8009C11.2707 85.7881 15.3469 82.299 8.94467 80.4713H8.93359Z" fill="black"/>
<path d="M61.6027 6.61269C61.0489 8.06372 60.2846 10.1018 59.5536 12.007C58.8225 11.8851 57.2386 11.1873 55.9426 11.5528C54.6024 11.9294 53.5612 13.3472 52.3871 14.3109C52.1655 14.0783 51.944 13.8457 51.7225 13.602C52.3649 12.5165 53.0073 11.431 53.8159 10.0686C52.4978 9.44829 51.2019 8.83908 49.917 8.21879C54.3587 7.37698 57.4933 5.51612 57.294 0C58.9776 2.58083 60.2071 4.47492 61.6027 6.60162V6.61269Z" fill="black"/>
<path d="M56.2406 99.0898C58.4559 100.508 60.7488 101.959 63.2742 103.576C62.5099 104.096 61.2583 104.96 60.062 105.78C60.8706 107.563 61.369 108.671 61.8564 109.779C58.7439 107.94 55.9415 106.711 52.8844 110C53.4161 108.538 53.9367 107.076 54.5016 105.514C53.2167 104.761 52.0094 104.052 49.6611 102.668C54.125 102.967 56.0966 101.338 56.2295 99.112L56.2406 99.0898Z" fill="black"/>
<path d="M39.1059 96.2547C38.3306 96.7642 37.2562 97.4842 36.0599 98.2817C36.514 99.6663 36.946 100.973 37.7324 103.344C35.8273 101.793 34.7086 100.874 33.3794 99.7881C32.172 100.796 30.9093 101.837 28.8934 103.499C29.3918 101.306 29.6798 100.01 29.9789 98.6916C28.9487 98.2042 27.8965 97.6947 27.0879 97.3181C29.5469 95.4683 32.0059 93.6185 34.2212 91.957C35.5725 93.1422 37.3226 94.6819 39.117 96.2547H39.1059Z" fill="black"/>
<path d="M83.9326 18.7069C83.412 18.3635 82.3486 17.6546 81.0748 16.8018C79.8453 17.6879 78.6269 18.5629 78.0177 19.006C76.1901 16.1925 74.5064 13.6117 72.9668 11.2303C77.0208 12.0942 79.3506 10.8241 79.9561 7.41992C83.0575 8.23959 80.7315 14.52 85.0181 13.2905C84.6747 15.0406 84.287 16.979 83.9437 18.718L83.9326 18.7069Z" fill="black"/>
<path d="M103.749 51.6595C105.4 53.3099 106.884 54.7942 108.357 56.2563C105.588 57.4636 106.341 60.3546 107.892 63.4339C107.427 63.6 106.961 63.7772 106.496 63.9434C105.942 62.7914 105.4 61.6395 104.835 60.4543C103.295 61.8389 102.243 62.7914 101.179 63.744C103.373 59.0586 100.216 57.6408 96.5605 55.9351C100.936 56.3781 103.118 54.3068 103.738 51.6484L103.749 51.6595Z" fill="black"/>
<path d="M97.3354 34.0272C96.1612 35.7219 95.2419 37.0511 94.3225 38.3803C93.8684 38.4357 93.4143 38.48 92.9601 38.5354C95.0204 34.5921 94.6548 31.6014 90.3018 30.1726C93.2038 28.9874 95.6185 27.9905 98.4319 26.8496C98.8972 28.1456 99.4731 31.0476 103.583 30.1172C99.8054 31.6568 100.016 34.1158 100.736 36.9625C99.6836 36.0653 98.6313 35.157 97.3354 34.0383V34.0272Z" fill="black"/>
<path d="M79.7456 91.625C81.4071 94.1283 81.2188 97.562 84.3646 96.4322C84.0876 98.7694 83.8107 101.062 83.5338 103.333C81.385 101.073 78.8706 99.8659 76.9211 105.127C76.6885 104.729 76.467 104.33 76.2344 103.931C76.5335 102.436 76.8325 100.94 77.1759 99.1792C76.2233 98.714 75.2153 98.2155 73.7754 97.4956C76.2676 95.9781 80.3992 96.3215 79.7456 91.625Z" fill="black"/>
<path d="M102.475 87.4817C99.3182 82.32 97.1029 87.7475 93.6249 89.3868C94.6771 87.0497 95.375 85.51 96.1614 83.7821C94.7879 83.2283 93.6803 82.7852 92.5615 82.3311C92.5948 82.1317 92.6169 81.9323 92.6501 81.7329C93.8575 81.6111 95.0648 81.4893 96.2832 81.3674C97.0254 80.0382 97.7675 78.7423 98.7533 76.9922C99.4068 78.5761 99.8277 79.6284 100.326 80.8357H102.896C102.752 83.0511 102.619 85.1667 102.475 87.4928V87.4817Z" fill="black"/>
</g>
<defs>
<clipPath id="clip0_545_901">
<rect width="110" height="110" fill="white"/>
</clipPath>
</defs>
</svg>
