<svg width="87" height="86" viewBox="0 0 87 86" fill="none" xmlns="http://www.w3.org/2000/svg">
<g filter="url(#filter0_g_268_856)">
<g clip-path="url(#clip0_268_856)">
<path d="M43.2027 3.20312L41.8553 7.32944H37.5605L41.0974 9.85576L39.6658 13.9821L43.2027 11.4558L46.7395 13.9821L45.3921 9.85576L48.8448 7.32944H44.55L43.2027 3.20312Z" fill="black"/>
<path d="M26.0249 7.75L24.7618 11.8763H20.3828L23.9197 14.4026L22.5723 18.5289L26.0249 16.0026L29.5618 18.5289L28.2144 14.4026L31.7512 11.8763H27.3723L26.0249 7.75Z" fill="black"/>
<path d="M60.3816 7.75L59.0342 11.8763H54.6553L58.1921 14.4026L56.8447 18.5289L60.3816 16.0026L63.8342 18.5289L62.4869 14.4026L66.0237 11.8763H61.729L60.3816 7.75Z" fill="black"/>
<path d="M13.4771 20.3828L12.2139 24.4249H7.83496L11.3718 27.0354L10.0244 31.0775L13.4771 28.5512L17.0139 31.0775L15.6665 26.9512L19.2034 24.5091H14.8244L13.4771 20.3828Z" fill="black"/>
<path d="M69.3926 31.0775L72.9294 28.5512L76.3821 31.0775L75.0347 26.9512L78.5715 24.5091H74.2768L72.9294 20.3828L71.5821 24.4249H67.2031L70.74 27.0354L69.3926 31.0775Z" fill="black"/>
<path d="M8.84523 45.7292L12.3821 48.2555L11.0347 44.1292L14.5715 41.6029H10.1926L8.84523 37.4766L7.58207 41.6029H3.20312L6.73997 44.1292L5.3926 48.2555L8.84523 45.7292Z" fill="black"/>
<path d="M83.2034 41.6029H78.8244L77.5613 37.4766L76.2139 41.6029H71.835L75.3718 44.1292L74.0244 48.2555L77.5613 45.7292L81.0139 48.2555L79.6665 44.1292L83.2034 41.6029Z" fill="black"/>
<path d="M74.2768 58.6986L72.9294 54.5723L71.5821 58.6986H67.2031L70.74 61.2249L69.3926 65.3512L72.9294 62.8249L76.3821 65.3512L75.0347 61.2249L78.5715 58.6986H74.2768Z" fill="black"/>
<path d="M14.8244 58.6986L13.4771 54.5723L12.2139 58.6986H7.83496L11.3718 61.2249L10.0244 65.3512L13.4771 62.8249L17.0139 65.3512L15.6665 61.2249L19.2034 58.6986H14.8244Z" fill="black"/>
<path d="M27.3723 71.3294L26.0249 67.2031L24.7618 71.3294H20.3828L23.9197 73.8558L22.5723 77.9821L26.0249 75.3715L29.5618 77.9821L28.2144 73.8558L31.7512 71.3294H27.3723Z" fill="black"/>
<path d="M61.729 71.3294L60.3816 67.2031L59.0342 71.3294H54.6553L58.1921 73.8558L56.8447 77.9821L60.3816 75.3715L63.8342 77.9821L62.4869 73.8558L66.0237 71.3294H61.729Z" fill="black"/>
<path d="M44.55 75.8763L43.2027 71.75L41.8553 75.8763H37.5605L41.0974 78.4026L39.6658 82.5289L43.2027 80.0026L46.7395 82.5289L45.3921 78.4026L48.8448 75.8763H44.55Z" fill="black"/>
</g>
</g>
<defs>
<filter id="filter0_g_268_856" x="0.000222683" y="-0.999777" width="86.4058" height="86.4058" filterUnits="userSpaceOnUse" color-interpolation-filters="sRGB">
<feFlood flood-opacity="0" result="BackgroundImageFix"/>
<feBlend mode="normal" in="SourceGraphic" in2="BackgroundImageFix" result="shape"/>
<feTurbulence type="fractalNoise" baseFrequency="0.027508091181516647 0.027508091181516647" numOctaves="3" seed="3084"/>
<feDisplacementMap in="shape" scale="6.4058046340942383" xChannelSelector="R" yChannelSelector="G" result="displacedImage" width="100%" height="100%"/>
<feMerge result="effect1_texture_268_856">
<feMergeNode in="displacedImage"/>
</feMerge>
</filter>
<clipPath id="clip0_268_856">
<rect width="80" height="80" fill="white" transform="translate(3.20312 2.20312)"/>
</clipPath>
</defs>
</svg>
