<svg width="87" height="87" viewBox="0 0 87 87" fill="none" xmlns="http://www.w3.org/2000/svg">
<g filter="url(#filter0_g_272_976)">
<g clip-path="url(#clip0_272_976)">
<path d="M81.7811 83.1576H4.25277C3.7465 83.2258 3.27972 82.8704 3.21151 82.3641C3.14329 81.8542 3.49876 81.3875 4.00503 81.3193C8.14498 80.1056 12.0515 78.2134 15.5703 75.7216C17.3262 74.5008 18.9922 73.1578 20.5613 71.7037C20.7372 71.5385 20.9095 71.3805 21.0747 71.2082C23.0065 69.377 24.8089 67.4129 26.4714 65.334C27.9937 63.4022 29.4121 61.3879 30.7191 59.3054C32.597 56.3611 34.2235 53.2624 35.5699 50.0381C35.7063 49.6862 36.0475 49.4528 36.4245 49.4492H49.6094C49.9864 49.4528 50.3275 49.6862 50.4639 50.0381C51.4298 52.3935 52.5608 54.6807 53.8463 56.8782C54.27 57.6214 54.7655 58.4149 55.3076 59.3054C56.5212 61.2479 57.839 63.1294 59.2501 64.939C61.2501 67.5171 63.4727 69.9156 65.8856 72.1094C70.4887 76.3822 76.0114 79.5455 82.0284 81.3556C82.5347 81.4238 82.8902 81.8906 82.822 82.4004C82.7537 82.9067 82.287 83.2622 81.7807 83.194L81.7811 83.1576ZM9.46643 81.3192H76.5675C72.1906 79.3588 68.1547 76.7089 64.618 73.4702C62.1261 71.2189 59.8317 68.7593 57.76 66.1166C56.3166 64.2567 54.9664 62.3285 53.717 60.3357C53.1389 59.4165 52.6505 58.5979 52.2197 57.8366V57.833C50.9989 55.7362 49.9074 53.5674 48.9558 51.3341H37.0064C35.6562 54.4543 34.0657 57.4632 32.2452 60.3357C30.9024 62.4793 29.4445 64.5475 27.879 66.5295C26.1807 68.6802 24.3387 70.7126 22.3639 72.6156L21.8109 73.129C20.1844 74.6442 18.4502 76.041 16.6262 77.3121C14.3749 78.8776 11.9799 80.2205 9.46643 81.3192Z" fill="black"/>
<path d="M62.6679 74.0781C61.1922 74.0817 59.7631 73.5539 58.6429 72.588L49.846 64.8287C49.2715 64.2937 48.3809 64.2937 47.8064 64.8287L43.0166 69.2344C41.839 70.308 40.0364 70.308 38.8623 69.2344L36.2232 66.8V66.7964C35.6021 66.2327 34.6578 66.2327 34.0366 66.7964L28.3096 72.1823C26.8482 73.5935 24.7405 74.1105 22.7944 73.536C22.1301 73.3529 21.5198 73.0082 21.0206 72.5343C20.7118 72.1645 20.7406 71.6187 21.0853 71.2847C21.43 70.9508 21.9757 70.9364 22.3348 71.256C22.6257 71.5002 22.9704 71.6761 23.3366 71.7695C24.64 72.1393 26.0367 71.7874 27.0133 70.8503L32.7296 65.4931C34.0545 64.2688 36.094 64.2688 37.4189 65.4931L40.0652 67.9275C40.532 68.3548 41.2466 68.3548 41.7097 67.9275L46.4637 63.5075C47.724 62.2795 49.7168 62.2293 51.031 63.3962L59.8279 71.1555C60.8046 72.0208 62.1259 72.3942 63.4149 72.1645L65.0774 71.888C65.5836 71.8018 66.0647 72.1465 66.1546 72.6528C66.2407 73.159 65.896 73.6402 65.3898 73.7264L63.6806 74.0208C63.3467 74.0675 63.0055 74.0853 62.6679 74.0781Z" fill="black"/>
<path d="M16.1023 77.432H8.36451C5.90852 77.4284 3.81525 75.6511 3.41669 73.2274C3.01813 70.8074 4.42927 68.452 6.75593 67.662C6.69848 67.3568 6.66975 67.0516 6.67334 66.7428C6.67693 64.8973 7.68951 63.206 9.31244 62.3335C10.9389 61.461 12.9102 61.5472 14.4505 62.5597C16.0268 59.6693 19.3517 58.1972 22.5509 58.9728C25.7538 59.7448 28.0374 62.5742 28.1164 65.8703C28.1164 66.1145 28.0194 66.3479 27.8471 66.5202C27.6747 66.6926 27.4413 66.7895 27.1972 66.7895C26.6909 66.7895 26.278 66.3766 26.278 65.8703C26.2062 63.2276 24.2421 61.0195 21.6281 60.6352C19.0106 60.251 16.5008 61.8057 15.6713 64.3156C15.5672 64.6316 15.3015 64.8685 14.9783 64.9332C14.6516 64.9978 14.3141 64.8793 14.0986 64.628C13.2333 63.6226 11.833 63.2635 10.587 63.7231C9.34108 64.1828 8.51528 65.3677 8.51169 66.6962C8.49733 67.1414 8.5835 67.583 8.75944 67.9924C8.87434 68.2617 8.85639 68.5705 8.70558 68.8218C8.55837 69.0732 8.29626 69.2419 8.00542 69.2707C6.35372 69.4861 5.15086 70.9403 5.24425 72.6027C5.33764 74.2652 6.69842 75.5758 8.36445 75.6045H16.1058H16.1022C16.6121 75.6045 17.0214 76.0138 17.0214 76.5236C17.0214 77.0299 16.6121 77.4428 16.1022 77.4428L16.1023 77.432Z" fill="black"/>
<path d="M74.4993 66.4296H58.5247C58.0148 66.4296 57.6055 66.0166 57.6055 65.5104C57.6055 65.0005 58.0148 64.5912 58.5247 64.5912H74.4993C76.1941 64.5984 77.598 63.2806 77.6914 61.5895C77.7883 59.8983 76.5424 58.4297 74.8584 58.2466C74.3557 58.1892 73.9967 57.7404 74.0505 57.2376C74.0757 56.9935 74.1942 56.7709 74.3845 56.6201C74.5748 56.4657 74.8189 56.3938 75.0595 56.419C77.6016 56.7026 79.5262 58.8534 79.5262 61.4099C79.5226 64.1818 77.2713 66.4296 74.4993 66.4296Z" fill="black"/>
<path d="M53.0564 58.2575C52.5465 58.3365 52.0726 57.9882 51.9936 57.482C51.9146 56.9721 52.2629 56.4981 52.7692 56.4192C53.4657 56.1822 54.0726 55.7441 54.5177 55.1589C54.6362 53.3708 55.7063 51.7837 57.322 51.0046C58.9342 50.2218 60.8444 50.3726 62.3201 51.3924C63.4332 49.7263 65.1639 48.5738 67.128 48.1824C67.6091 48.0854 68.0974 48.0352 68.5893 48.0352C72.7436 48.0567 76.1044 51.4283 76.108 55.5826C76.108 56.2576 76.0182 56.9254 75.8423 57.5789C75.731 57.9919 75.3504 58.2719 74.9231 58.2576C74.4132 58.2576 74.0039 57.8446 74.0039 57.3384C74.0003 57.2271 74.0219 57.1193 74.0578 57.0152C74.187 56.5484 74.2589 56.0674 74.2696 55.5826C74.266 52.43 71.7059 49.8736 68.5534 49.8736C68.1835 49.8736 67.8137 49.9131 67.4475 49.9849C65.645 50.3403 64.1262 51.5432 63.3686 53.22C63.2357 53.5036 62.97 53.7011 62.6612 53.7442C62.3488 53.7873 62.0364 53.6688 61.8318 53.4318C61.2573 52.7747 60.4387 52.387 59.5662 52.3582C58.6972 52.3295 57.8534 52.667 57.2358 53.2846C56.647 53.8734 56.3166 54.6741 56.3166 55.5107C56.3166 55.6795 56.27 55.8447 56.1802 55.9883C55.4908 57.0224 54.4782 57.8052 53.3041 58.2109C53.2215 58.236 53.1389 58.2539 53.0564 58.2575Z" fill="black"/>
<path d="M31.5082 60.7103C31.3826 60.7139 31.2569 60.6887 31.1384 60.6385C23.573 57.3674 17.6915 51.1202 14.877 43.3714C12.0619 35.6229 12.5682 27.0594 16.2737 19.6949C19.9755 12.3306 26.5539 6.81882 34.4489 4.4565C42.3482 2.09748 50.8684 3.09563 58.0068 7.22124C65.1449 11.3433 70.2689 18.2304 72.1679 26.2513C74.0673 34.2727 72.5773 42.7214 68.0459 49.608C67.913 49.8126 67.7012 49.9563 67.4606 50.0065C67.2237 50.0568 66.9723 50.0101 66.7676 49.8737C66.563 49.7408 66.4229 49.529 66.3727 49.2884C66.326 49.0478 66.3727 48.8001 66.5091 48.5954C70.7604 42.1324 72.1571 34.2009 70.3726 26.6708C68.5881 19.1449 63.7802 12.6853 57.0801 8.8146C50.3801 4.94397 42.3841 4.00676 34.969 6.22579C27.558 8.44122 21.3861 13.6153 17.9097 20.5275C14.4333 27.4397 13.96 35.4791 16.6027 42.7499C19.2418 50.0245 24.7641 55.8842 31.8659 58.958C32.2537 59.134 32.4691 59.5576 32.3865 59.9778C32.3003 60.3979 31.9341 60.7031 31.5068 60.7103L31.5082 60.7103Z" fill="black"/>
</g>
</g>
<defs>
<filter id="filter0_g_272_976" x="0.000222683" y="0.000222683" width="86.4058" height="86.4058" filterUnits="userSpaceOnUse" color-interpolation-filters="sRGB">
<feFlood flood-opacity="0" result="BackgroundImageFix"/>
<feBlend mode="normal" in="SourceGraphic" in2="BackgroundImageFix" result="shape"/>
<feTurbulence type="fractalNoise" baseFrequency="0.027508091181516647 0.027508091181516647" numOctaves="3" seed="3084"/>
<feDisplacementMap in="shape" scale="6.4058046340942383" xChannelSelector="R" yChannelSelector="G" result="displacedImage" width="100%" height="100%"/>
<feMerge result="effect1_texture_272_976">
<feMergeNode in="displacedImage"/>
</feMerge>
</filter>
<clipPath id="clip0_272_976">
<rect width="80" height="80" fill="white" transform="translate(3.20312 3.20312)"/>
</clipPath>
</defs>
</svg>
