<svg width="87" height="80" viewBox="0 0 87 80" fill="none" xmlns="http://www.w3.org/2000/svg">
<g filter="url(#filter0_g_271_874)">
<path d="M82.4484 62.2832H3.95784C3.75768 62.2832 3.56571 62.3627 3.42418 62.5043C3.28264 62.6458 3.20312 62.8378 3.20312 63.0379C3.20312 63.2381 3.28264 63.43 3.42418 63.5716C3.56571 63.7131 3.75768 63.7926 3.95784 63.7926H82.4484C82.6486 63.7926 82.8405 63.7131 82.9821 63.5716C83.1236 63.43 83.2031 63.2381 83.2031 63.0379C83.2031 62.8378 83.1236 62.6458 82.9821 62.5043C82.8405 62.3627 82.6486 62.2832 82.4484 62.2832Z" fill="black"/>
<path d="M82.4484 53.2266H3.95784C3.75768 53.2266 3.56571 53.3061 3.42418 53.4476C3.28264 53.5892 3.20312 53.7811 3.20312 53.9813C3.20312 54.1814 3.28264 54.3734 3.42418 54.5149C3.56571 54.6565 3.75768 54.736 3.95784 54.736H82.4484C82.6486 54.736 82.8405 54.6565 82.9821 54.5149C83.1236 54.3734 83.2031 54.1814 83.2031 53.9813C83.2031 53.7811 83.1236 53.5892 82.9821 53.4476C82.8405 53.3061 82.6486 53.2266 82.4484 53.2266Z" fill="black"/>
<path d="M82.4484 44.1699H3.95784C3.75768 44.1699 3.56571 44.2494 3.42418 44.391C3.28264 44.5325 3.20312 44.7245 3.20312 44.9246C3.20312 45.1248 3.28264 45.3168 3.42418 45.4583C3.56571 45.5998 3.75768 45.6794 3.95784 45.6794H82.4484C82.6486 45.6794 82.8405 45.5998 82.9821 45.4583C83.1236 45.3168 83.2031 45.1248 83.2031 44.9246C83.2031 44.7245 83.1236 44.5325 82.9821 44.391C82.8405 44.2494 82.6486 44.1699 82.4484 44.1699Z" fill="black"/>
<path d="M82.4482 35.1133H43.203C43.0028 35.1133 42.8108 35.1928 42.6693 35.3343C42.5278 35.4759 42.4482 35.6678 42.4482 35.868C42.4482 36.0682 42.5278 36.2601 42.6693 36.4017C42.8108 36.5432 43.0028 36.6227 43.203 36.6227H82.4482C82.6484 36.6227 82.8404 36.5432 82.9819 36.4017C83.1234 36.2601 83.203 36.0682 83.203 35.868C83.203 35.6678 83.1234 35.4759 82.9819 35.3343C82.8404 35.1928 82.6484 35.1133 82.4482 35.1133Z" fill="black"/>
<path d="M6.97622 36.6232C7.1256 36.6248 7.27201 36.5815 7.39655 36.499C7.52109 36.4165 7.61803 36.2986 7.67485 36.1604C7.73166 36.0223 7.74575 35.8702 7.71528 35.724C7.68482 35.5778 7.6112 35.444 7.50394 35.34C7.36272 35.2022 7.1732 35.125 6.97586 35.125C6.77851 35.125 6.58898 35.2022 6.44777 35.34C6.3445 35.4456 6.27444 35.5791 6.24628 35.7241C6.21812 35.8691 6.23308 36.0191 6.28932 36.1557C6.34556 36.2922 6.4406 36.4093 6.56269 36.4924C6.68478 36.5755 6.82856 36.621 6.97622 36.6232Z" fill="black"/>
<path d="M13.0143 36.6232C13.1637 36.6248 13.3101 36.5815 13.4346 36.499C13.5592 36.4165 13.6561 36.2986 13.7129 36.1604C13.7697 36.0223 13.7838 35.8702 13.7534 35.724C13.7229 35.5778 13.6493 35.444 13.542 35.34C13.4008 35.2022 13.2113 35.125 13.0139 35.125C12.8166 35.125 12.6271 35.2022 12.4859 35.34C12.3826 35.4456 12.3125 35.5791 12.2844 35.7241C12.2562 35.8691 12.2712 36.0191 12.3274 36.1557C12.3836 36.2922 12.4787 36.4093 12.6008 36.4924C12.7229 36.5755 12.8666 36.621 13.0143 36.6232Z" fill="black"/>
<path d="M18.7659 35.1714L18.5241 35.3372C18.4526 35.4054 18.3957 35.4873 18.3568 35.5781C18.3179 35.6688 18.2979 35.7666 18.2979 35.8653C18.2979 35.9641 18.3179 36.0618 18.3568 36.1526C18.3957 36.2433 18.4526 36.3253 18.5241 36.3934L18.7659 36.56L19.0526 36.6205C19.2019 36.622 19.3484 36.5788 19.4729 36.4963C19.5974 36.4138 19.6944 36.2958 19.7512 36.1577C19.808 36.0195 19.8221 35.8675 19.7916 35.7213C19.7612 35.575 19.6875 35.4413 19.5803 35.3373C19.4764 35.2319 19.3434 35.1598 19.1984 35.1302C19.0533 35.1007 18.9027 35.115 18.7659 35.1714Z" fill="black"/>
<path d="M24.5611 35.34C24.4538 35.445 24.3802 35.5795 24.3497 35.7264C24.3192 35.8734 24.3332 36.026 24.3899 36.165C24.4466 36.304 24.5433 36.4229 24.6679 36.5066C24.7924 36.5903 24.9391 36.635 25.0892 36.635C25.2392 36.635 25.3859 36.5903 25.5104 36.5066C25.635 36.4229 25.7318 36.304 25.7884 36.165C25.8451 36.026 25.8591 35.8734 25.8286 35.7264C25.7981 35.5795 25.7245 35.445 25.6172 35.34C25.476 35.2022 25.2865 35.125 25.0892 35.125C24.8918 35.125 24.7023 35.2022 24.5611 35.34Z" fill="black"/>
<path d="M31.4133 35.1714C31.2763 35.115 31.1257 35.1007 30.9805 35.1302C30.8354 35.1597 30.7023 35.2318 30.5982 35.3372C30.4949 35.4428 30.4249 35.5763 30.3967 35.7213C30.3685 35.8663 30.3835 36.0163 30.4397 36.1529C30.4959 36.2895 30.591 36.4066 30.7131 36.4897C30.8352 36.5728 30.9789 36.6182 31.1266 36.6205L31.4133 36.5601L31.6543 36.3935C31.726 36.3255 31.7831 36.2436 31.8222 36.1528C31.8612 36.062 31.8813 35.9643 31.8813 35.8654C31.8813 35.7666 31.8612 35.6688 31.8222 35.578C31.7831 35.4872 31.726 35.4054 31.6543 35.3374L31.4133 35.1714Z" fill="black"/>
<path d="M36.8791 35.1714L36.6374 35.3372C36.5659 35.4054 36.509 35.4873 36.4701 35.5781C36.4312 35.6688 36.4111 35.7666 36.4111 35.8653C36.4111 35.9641 36.4312 36.0618 36.4701 36.1526C36.509 36.2433 36.5659 36.3253 36.6374 36.3934L36.8791 36.56L37.1658 36.6205C37.3152 36.622 37.4616 36.5788 37.5862 36.4963C37.7107 36.4138 37.8077 36.2958 37.8645 36.1577C37.9213 36.0195 37.9354 35.8675 37.9049 35.7213C37.8744 35.575 37.8008 35.4413 37.6936 35.3373C37.5897 35.2319 37.4567 35.1598 37.3116 35.1302C37.1666 35.1007 37.016 35.115 36.8791 35.1714Z" fill="black"/>
<path d="M6.97622 27.5666C7.1256 27.5681 7.27201 27.5249 7.39655 27.4424C7.52109 27.3599 7.61803 27.2419 7.67485 27.1038C7.73166 26.9656 7.74575 26.8136 7.71528 26.6674C7.68482 26.5211 7.6112 26.3874 7.50394 26.2834C7.36272 26.1455 7.1732 26.0684 6.97586 26.0684C6.77851 26.0684 6.58898 26.1455 6.44777 26.2834C6.3445 26.389 6.27444 26.5225 6.24628 26.6675C6.21812 26.8124 6.23308 26.9625 6.28932 27.099C6.34556 27.2356 6.4406 27.3527 6.56269 27.4358C6.68478 27.5189 6.82856 27.5643 6.97622 27.5666Z" fill="black"/>
<path d="M13.0143 27.5666C13.1637 27.5681 13.3101 27.5249 13.4346 27.4424C13.5592 27.3599 13.6561 27.2419 13.7129 27.1038C13.7697 26.9656 13.7838 26.8136 13.7534 26.6674C13.7229 26.5211 13.6493 26.3874 13.542 26.2834C13.4008 26.1455 13.2113 26.0684 13.0139 26.0684C12.8166 26.0684 12.6271 26.1455 12.4859 26.2834C12.3826 26.389 12.3125 26.5225 12.2844 26.6675C12.2562 26.8124 12.2712 26.9625 12.3274 27.099C12.3836 27.2356 12.4787 27.3527 12.6008 27.4358C12.7229 27.5189 12.8666 27.5643 13.0143 27.5666Z" fill="black"/>
<path d="M19.5803 26.2806C19.4764 26.1752 19.3434 26.1031 19.1983 26.0736C19.0533 26.044 18.9027 26.0584 18.7659 26.1148L18.5241 26.2806C18.4526 26.3487 18.3957 26.4307 18.3568 26.5214C18.3179 26.6122 18.2979 26.7099 18.2979 26.8087C18.2979 26.9074 18.3179 27.0052 18.3568 27.0959C18.3957 27.1867 18.4526 27.2687 18.5241 27.3368L18.7659 27.5033L19.0526 27.5637C19.2019 27.5653 19.3484 27.522 19.4729 27.4395C19.5974 27.357 19.6944 27.2391 19.7512 27.1009C19.808 26.9628 19.8221 26.8108 19.7916 26.6645C19.7612 26.5183 19.6875 26.3846 19.5803 26.2806Z" fill="black"/>
<path d="M25.6172 26.2834C25.476 26.1455 25.2865 26.0684 25.0892 26.0684C24.8918 26.0684 24.7023 26.1455 24.5611 26.2834C24.4538 26.3883 24.3802 26.5228 24.3497 26.6698C24.3192 26.8167 24.3332 26.9694 24.3899 27.1084C24.4466 27.2473 24.5433 27.3662 24.6679 27.45C24.7924 27.5337 24.9391 27.5784 25.0892 27.5784C25.2392 27.5784 25.3859 27.5337 25.5104 27.45C25.635 27.3662 25.7318 27.2473 25.7884 27.1084C25.8451 26.9694 25.8591 26.8167 25.8286 26.6698C25.7981 26.5228 25.7245 26.3883 25.6172 26.2834Z" fill="black"/>
<path d="M31.6543 26.2806L31.4133 26.1148C31.2763 26.0584 31.1256 26.044 30.9805 26.0736C30.8353 26.1031 30.7022 26.1752 30.5982 26.2806C30.4949 26.3862 30.4248 26.5197 30.3967 26.6647C30.3685 26.8096 30.3835 26.9597 30.4397 27.0963C30.496 27.2328 30.591 27.3499 30.7131 27.433C30.8352 27.5161 30.9789 27.5615 31.1266 27.5638L31.4133 27.5034L31.6543 27.3368C31.726 27.2688 31.7831 27.1869 31.8222 27.0961C31.8612 27.0053 31.8813 26.9076 31.8813 26.8087C31.8813 26.7099 31.8612 26.6121 31.8222 26.5213C31.7831 26.4305 31.726 26.3486 31.6543 26.2806Z" fill="black"/>
<path d="M37.6936 26.2806C37.5896 26.1752 37.4567 26.1031 37.3116 26.0736C37.1666 26.044 37.016 26.0584 36.8791 26.1148L36.6374 26.2806C36.5659 26.3487 36.509 26.4307 36.4701 26.5214C36.4312 26.6122 36.4111 26.7099 36.4111 26.8087C36.4111 26.9074 36.4312 27.0052 36.4701 27.0959C36.509 27.1867 36.5659 27.2687 36.6374 27.3368L36.8791 27.5033L37.1658 27.5637C37.3152 27.5653 37.4616 27.522 37.5862 27.4395C37.7107 27.357 37.8077 27.2391 37.8645 27.1009C37.9213 26.9628 37.9354 26.8108 37.9049 26.6645C37.8744 26.5183 37.8008 26.3846 37.6936 26.2806Z" fill="black"/>
<path d="M6.97621 18.508C7.12558 18.5095 7.272 18.4663 7.39654 18.3838C7.52108 18.3013 7.61802 18.1833 7.67484 18.0452C7.73166 17.907 7.74574 17.755 7.71527 17.6088C7.68481 17.4625 7.61118 17.3288 7.50392 17.2248C7.36271 17.0869 7.17319 17.0098 6.97584 17.0098C6.77849 17.0098 6.58897 17.0869 6.44776 17.2248C6.34449 17.3304 6.27444 17.4639 6.24628 17.6089C6.21812 17.7538 6.23308 17.9039 6.28932 18.0404C6.34556 18.177 6.4406 18.2941 6.56269 18.3772C6.68477 18.4603 6.82855 18.5057 6.97621 18.508Z" fill="black"/>
<path d="M13.0143 18.508C13.1637 18.5095 13.3101 18.4663 13.4346 18.3838C13.5592 18.3013 13.6561 18.1833 13.7129 18.0452C13.7697 17.907 13.7838 17.755 13.7534 17.6088C13.7229 17.4625 13.6493 17.3288 13.542 17.2248C13.4008 17.0869 13.2113 17.0098 13.0139 17.0098C12.8166 17.0098 12.6271 17.0869 12.4858 17.2248C12.3826 17.3304 12.3125 17.4639 12.2844 17.6089C12.2562 17.7538 12.2712 17.9039 12.3274 18.0404C12.3836 18.177 12.4787 18.2941 12.6008 18.3772C12.7229 18.4603 12.8666 18.5057 13.0143 18.508Z" fill="black"/>
<path d="M19.5803 17.2259C19.4764 17.1205 19.3434 17.0484 19.1983 17.0189C19.0533 16.9894 18.9027 17.0037 18.7659 17.0601L18.5241 17.2259C18.4526 17.2941 18.3957 17.376 18.3568 17.4668C18.3179 17.5575 18.2979 17.6553 18.2979 17.754C18.2979 17.8528 18.3179 17.9505 18.3568 18.0413C18.3957 18.132 18.4526 18.214 18.5241 18.2821L18.7659 18.4487L19.0526 18.5091C19.2019 18.5106 19.3484 18.4674 19.4729 18.3849C19.5974 18.3024 19.6944 18.1844 19.7512 18.0463C19.808 17.9081 19.8221 17.7561 19.7916 17.6099C19.7612 17.4636 19.6875 17.3299 19.5803 17.2259Z" fill="black"/>
<path d="M25.6172 17.2248C25.476 17.0869 25.2865 17.0098 25.0892 17.0098C24.8918 17.0098 24.7023 17.0869 24.5611 17.2248C24.4538 17.3297 24.3802 17.4643 24.3497 17.6112C24.3192 17.7581 24.3332 17.9108 24.3899 18.0498C24.4466 18.1887 24.5433 18.3077 24.6679 18.3914C24.7924 18.4751 24.9391 18.5198 25.0892 18.5198C25.2392 18.5198 25.3859 18.4751 25.5104 18.3914C25.635 18.3077 25.7318 18.1887 25.7884 18.0498C25.8451 17.9108 25.8591 17.7581 25.8286 17.6112C25.7981 17.4643 25.7245 17.3297 25.6172 17.2248Z" fill="black"/>
<path d="M31.6542 17.2259L31.4132 17.0601C31.2762 17.0037 31.1256 16.9894 30.9804 17.0189C30.8353 17.0484 30.7022 17.1205 30.5981 17.2259C30.4949 17.3315 30.4248 17.465 30.3967 17.61C30.3685 17.7549 30.3835 17.905 30.4397 18.0415C30.4959 18.1781 30.591 18.2951 30.713 18.3782C30.8351 18.4613 30.9789 18.5068 31.1265 18.509L31.4132 18.4487L31.6542 18.2821C31.7259 18.2141 31.783 18.1322 31.8221 18.0414C31.8611 17.9506 31.8812 17.8528 31.8812 17.754C31.8812 17.6552 31.8611 17.5574 31.8221 17.4666C31.783 17.3758 31.7259 17.2939 31.6542 17.2259Z" fill="black"/>
<path d="M37.6936 17.2259C37.5896 17.1205 37.4567 17.0484 37.3116 17.0189C37.1666 16.9894 37.016 17.0037 36.8791 17.0601L36.6374 17.2259C36.5659 17.2941 36.509 17.376 36.4701 17.4668C36.4312 17.5575 36.4111 17.6553 36.4111 17.754C36.4111 17.8528 36.4312 17.9505 36.4701 18.0413C36.509 18.132 36.5659 18.214 36.6374 18.2821L36.8791 18.4487L37.1658 18.5091C37.3152 18.5106 37.4616 18.4674 37.5862 18.3849C37.7107 18.3024 37.8077 18.1844 37.8645 18.0463C37.9213 17.9081 37.9354 17.7561 37.9049 17.6099C37.8744 17.4636 37.8008 17.3299 37.6936 17.2259Z" fill="black"/>
<path d="M3.67114 22.9761L3.95784 23.0364C4.10721 23.038 4.25363 22.9947 4.37817 22.9122C4.5027 22.8298 4.59964 22.7118 4.65646 22.5736C4.71328 22.4355 4.72736 22.2835 4.6969 22.1372C4.66643 21.991 4.59281 21.8572 4.48555 21.7533C4.38164 21.6478 4.24867 21.5758 4.10362 21.5462C3.95857 21.5167 3.808 21.531 3.67114 21.5874L3.42939 21.7533C3.35789 21.8214 3.30097 21.9033 3.26207 21.9941C3.22318 22.0849 3.20313 22.1826 3.20312 22.2813C3.20313 22.3801 3.22318 22.4778 3.26207 22.5686C3.30097 22.6594 3.35789 22.7413 3.42939 22.8094L3.67114 22.9761Z" fill="black"/>
<path d="M9.99472 23.0364L10.2814 22.976L10.5224 22.8094C10.5941 22.7414 10.6513 22.6595 10.6903 22.5687C10.7293 22.4779 10.7494 22.3802 10.7494 22.2813C10.7494 22.1825 10.7293 22.0847 10.6903 21.9939C10.6513 21.9031 10.5941 21.8212 10.5224 21.7532L10.2814 21.5874C10.1444 21.531 9.99378 21.5167 9.84863 21.5462C9.70347 21.5758 9.57039 21.6478 9.46633 21.7532C9.36305 21.8588 9.293 21.9923 9.26484 22.1373C9.23667 22.2823 9.25164 22.4323 9.30787 22.5689C9.36411 22.7055 9.45916 22.8225 9.58125 22.9056C9.70334 22.9887 9.84705 23.0341 9.99472 23.0364Z" fill="black"/>
<path d="M15.7463 22.9761L16.033 23.0364C16.1824 23.038 16.3288 22.9947 16.4534 22.9122C16.5779 22.8298 16.6748 22.7118 16.7317 22.5736C16.7885 22.4355 16.8026 22.2835 16.7721 22.1372C16.7416 21.991 16.668 21.8572 16.5607 21.7533C16.4568 21.6478 16.3239 21.5758 16.1788 21.5462C16.0338 21.5167 15.8832 21.531 15.7463 21.5874L15.5046 21.7533C15.4331 21.8214 15.3762 21.9033 15.3373 21.9941C15.2984 22.0849 15.2783 22.1826 15.2783 22.2813C15.2783 22.3801 15.2984 22.4778 15.3373 22.5686C15.3762 22.6594 15.4331 22.7413 15.5046 22.8094L15.7463 22.9761Z" fill="black"/>
<path d="M22.5977 21.756C22.4565 21.6182 22.267 21.541 22.0696 21.541C21.8723 21.541 21.6828 21.6182 21.5415 21.756C21.4343 21.861 21.3607 21.9955 21.3302 22.1424C21.2997 22.2894 21.3137 22.4421 21.3704 22.581C21.427 22.72 21.5238 22.8389 21.6484 22.9226C21.7729 23.0063 21.9196 23.051 22.0696 23.051C22.2197 23.051 22.3664 23.0063 22.4909 22.9226C22.6154 22.8389 22.7122 22.72 22.7689 22.581C22.8256 22.4421 22.8395 22.2894 22.809 22.1424C22.7786 21.9955 22.705 21.861 22.5977 21.756Z" fill="black"/>
<path d="M28.6357 21.7532L28.3947 21.5874C28.2577 21.531 28.1071 21.5167 27.9619 21.5462C27.8167 21.5758 27.6837 21.6478 27.5796 21.7532C27.4763 21.8588 27.4063 21.9924 27.3781 22.1373C27.35 22.2823 27.3649 22.4324 27.4212 22.5689C27.4774 22.7055 27.5724 22.8225 27.6945 22.9056C27.8166 22.9887 27.9604 23.0342 28.1081 23.0364L28.3948 22.976L28.6358 22.8095C28.7075 22.7415 28.7646 22.6596 28.8036 22.5688C28.8426 22.478 28.8628 22.3802 28.8628 22.2814C28.8628 22.1826 28.8426 22.0848 28.8036 21.994C28.7646 21.9032 28.7074 21.8212 28.6357 21.7532Z" fill="black"/>
<path d="M34.674 21.7533C34.5701 21.6478 34.4371 21.5758 34.2921 21.5462C34.147 21.5167 33.9965 21.531 33.8596 21.5874L33.6179 21.7533C33.5464 21.8214 33.4894 21.9033 33.4506 21.9941C33.4117 22.0849 33.3916 22.1826 33.3916 22.2813C33.3916 22.3801 33.4117 22.4778 33.4506 22.5686C33.4894 22.6594 33.5464 22.7413 33.6179 22.8094L33.8596 22.976L34.1463 23.0364C34.2957 23.0379 34.4421 22.9947 34.5666 22.9122C34.6912 22.8297 34.7881 22.7117 34.8449 22.5736C34.9018 22.4354 34.9158 22.2834 34.8854 22.1372C34.8549 21.9909 34.7813 21.8572 34.674 21.7533Z" fill="black"/>
<path d="M3.67114 32.0327L3.95784 32.0931C4.10721 32.0946 4.25363 32.0514 4.37817 31.9689C4.5027 31.8864 4.59964 31.7684 4.65646 31.6303C4.71328 31.4921 4.72736 31.3401 4.6969 31.1939C4.66643 31.0476 4.59281 30.9139 4.48555 30.8099C4.38164 30.7045 4.24867 30.6324 4.10362 30.6029C3.95857 30.5733 3.808 30.5877 3.67114 30.6441L3.42939 30.8099C3.35789 30.878 3.30097 30.96 3.26207 31.0507C3.22318 31.1415 3.20312 31.2392 3.20312 31.338C3.20312 31.4367 3.22318 31.5345 3.26207 31.6252C3.30097 31.716 3.35789 31.7979 3.42939 31.8661L3.67114 32.0327Z" fill="black"/>
<path d="M9.99478 32.0931L10.2815 32.0327L10.5225 31.8662C10.5942 31.7982 10.6513 31.7163 10.6903 31.6255C10.7294 31.5347 10.7495 31.4369 10.7495 31.3381C10.7495 31.2393 10.7294 31.1415 10.6903 31.0507C10.6513 30.9599 10.5942 30.878 10.5225 30.81L10.2815 30.6441C10.1445 30.5877 9.99384 30.5733 9.84868 30.6029C9.70353 30.6324 9.57045 30.7045 9.46638 30.8099C9.36309 30.9155 9.29302 31.049 9.26485 31.194C9.23667 31.3389 9.25162 31.489 9.30786 31.6256C9.36409 31.7621 9.45914 31.8792 9.58123 31.9623C9.70332 32.0454 9.8471 32.0909 9.99478 32.0931Z" fill="black"/>
<path d="M15.7463 32.0327L16.033 32.0931C16.1824 32.0946 16.3288 32.0514 16.4534 31.9689C16.5779 31.8864 16.6748 31.7684 16.7317 31.6303C16.7885 31.4921 16.8026 31.3401 16.7721 31.1939C16.7416 31.0476 16.668 30.9139 16.5607 30.8099C16.4568 30.7045 16.3239 30.6324 16.1788 30.6029C16.0338 30.5733 15.8832 30.5877 15.7463 30.6441L15.5046 30.8099C15.4331 30.878 15.3762 30.96 15.3373 31.0507C15.2984 31.1415 15.2783 31.2392 15.2783 31.338C15.2783 31.4367 15.2984 31.5345 15.3373 31.6252C15.3762 31.716 15.4331 31.7979 15.5046 31.8661L15.7463 32.0327Z" fill="black"/>
<path d="M21.5415 30.8127C21.4343 30.9176 21.3607 31.0521 21.3302 31.1991C21.2997 31.346 21.3137 31.4987 21.3704 31.6377C21.427 31.7766 21.5238 31.8955 21.6484 31.9793C21.7729 32.063 21.9196 32.1077 22.0696 32.1077C22.2197 32.1077 22.3664 32.063 22.4909 31.9793C22.6154 31.8955 22.7122 31.7766 22.7689 31.6377C22.8256 31.4987 22.8395 31.346 22.809 31.1991C22.7786 31.0521 22.705 30.9176 22.5977 30.8127C22.4565 30.6748 22.267 30.5977 22.0696 30.5977C21.8723 30.5977 21.6828 30.6748 21.5415 30.8127Z" fill="black"/>
<path d="M28.3948 30.6441C28.2578 30.5877 28.1071 30.5733 27.962 30.6029C27.8168 30.6324 27.6837 30.7045 27.5797 30.8099C27.4764 30.9155 27.4063 31.049 27.3781 31.194C27.35 31.3389 27.3649 31.489 27.4211 31.6256C27.4774 31.7621 27.5724 31.8792 27.6945 31.9623C27.8166 32.0454 27.9604 32.0909 28.1081 32.0931L28.3948 32.0327L28.6358 31.8662C28.7075 31.7982 28.7646 31.7163 28.8036 31.6255C28.8426 31.5347 28.8628 31.4369 28.8628 31.3381C28.8628 31.2393 28.8426 31.1415 28.8036 31.0507C28.7646 30.9599 28.7075 30.878 28.6358 30.81L28.3948 30.6441Z" fill="black"/>
<path d="M33.8596 30.6441L33.6179 30.8099C33.5464 30.878 33.4894 30.9599 33.4506 31.0507C33.4117 31.1415 33.3916 31.2392 33.3916 31.338C33.3916 31.4367 33.4117 31.5345 33.4506 31.6252C33.4894 31.716 33.5464 31.7979 33.6179 31.8661L33.8596 32.0326L34.1463 32.0931C34.2957 32.0947 34.4421 32.0514 34.5666 31.9689C34.6912 31.8864 34.7881 31.7685 34.8449 31.6303C34.9018 31.4922 34.9158 31.3402 34.8854 31.1939C34.8549 31.0477 34.7813 30.9139 34.674 30.8099C34.5701 30.7045 34.4372 30.6324 34.2921 30.6029C34.1471 30.5733 33.9965 30.5877 33.8596 30.6441Z" fill="black"/>
<path d="M82.4482 26.0566H43.203C43.0028 26.0566 42.8108 26.1362 42.6693 26.2777C42.5278 26.4192 42.4482 26.6112 42.4482 26.8114C42.4482 27.0115 42.5278 27.2035 42.6693 27.345C42.8108 27.4866 43.0028 27.5661 43.203 27.5661H82.4482C82.6484 27.5661 82.8404 27.4866 82.9819 27.345C83.1234 27.2035 83.203 27.0115 83.203 26.8114C83.203 26.6112 83.1234 26.4192 82.9819 26.2777C82.8404 26.1362 82.6484 26.0566 82.4482 26.0566Z" fill="black"/>
<path d="M82.4482 17H43.203C43.0028 17 42.8108 17.0795 42.6693 17.2211C42.5278 17.3626 42.4482 17.5546 42.4482 17.7547C42.4482 17.9549 42.5278 18.1468 42.6693 18.2884C42.8108 18.4299 43.0028 18.5094 43.203 18.5094H82.4482C82.6484 18.5094 82.8404 18.4299 82.9819 18.2884C83.1234 18.1468 83.203 17.9549 83.203 17.7547C83.203 17.5546 83.1234 17.3626 82.9819 17.2211C82.8404 17.0795 82.6484 17 82.4482 17Z" fill="black"/>
</g>
<defs>
<filter id="filter0_g_271_874" x="0.000222683" y="-3.2029" width="86.4058" height="86.4058" filterUnits="userSpaceOnUse" color-interpolation-filters="sRGB">
<feFlood flood-opacity="0" result="BackgroundImageFix"/>
<feBlend mode="normal" in="SourceGraphic" in2="BackgroundImageFix" result="shape"/>
<feTurbulence type="fractalNoise" baseFrequency="0.027508091181516647 0.027508091181516647" numOctaves="3" seed="3084"/>
<feDisplacementMap in="shape" scale="6.4058046340942383" xChannelSelector="R" yChannelSelector="G" result="displacedImage" width="100%" height="100%"/>
<feMerge result="effect1_texture_271_874">
<feMergeNode in="displacedImage"/>
</feMerge>
</filter>
</defs>
</svg>
