<svg width="69" height="79" viewBox="0 0 69 79" fill="none" xmlns="http://www.w3.org/2000/svg">
<path d="M2.69922 34.3616C2.69922 42.6858 3.50893 60.7975 4.44499 64.3728C5.63629 68.9229 4.36037 72.536 4.11114 73.5653C3.99615 74.0402 4.86357 74.4139 5.58442 74.4544C9.64667 74.6829 23.9276 72.9603 32.3721 72.046C37.1904 71.5243 44.3169 72.0209 49.517 72.7485C53.1607 73.2583 55.0867 75.3545 56.6596 75.5366C60.1871 75.9449 62.6268 73.4032 63.887 72.4524C68.3922 69.0533 63.158 62.0183 62.5129 59.0786C61.6768 55.269 61.2314 50.915 63.5261 46.0218C66.6694 39.3193 65.2555 34.0044 63.922 31.4947C63.5959 30.8809 63.6245 30.1576 63.0332 29.7765C60.1685 27.9302 56.1623 30.0651 52.5048 30.6228C47.6341 31.3656 44.0053 29.3226 40.0629 28.5447C32.1561 26.9845 24.3494 28.65 16.9202 28.7459C12.2579 28.3445 7.79377 28.6617 4.77341 29.8615C4.1907 30.2838 3.76537 30.812 2.97769 31.4899" stroke="black" stroke-width="5.4" stroke-linecap="round"/>
<path d="M22.6788 25.8087C22.4093 24.2366 21.8013 19.9983 22.0084 17.5331C22.2882 14.2035 22.5955 10.7805 23.6092 7.60414C24.0219 6.31124 25.0304 5.33882 25.9566 4.44277C27.8219 2.63798 35.239 2.26181 39.7668 3.10157C43.1428 3.72769 43.9112 7.71707 45.7474 11.326C46.2258 13.0536 46.7713 15.8183 47.2919 18.8076C47.8125 21.7969 48.2919 24.9269 48.7857 28.1517" stroke="black" stroke-width="5.4" stroke-linecap="round"/>
<path d="M8.62635 31.6335C8.61666 31.6335 8.26229 31.8203 7.00604 32.8209C6.05292 33.5801 4.64539 35.0701 3.96115 35.7298C3.42325 36.2485 5.3454 34.8661 8.37874 32.9123C9.58971 32.1323 10.2006 31.8875 9.45122 33.3799C8.70179 34.8723 6.5905 38.1363 7.81908 38.1352C9.04766 38.1342 13.6801 34.7692 16.1332 33.0355C18.5863 31.3018 18.7198 31.3014 18.881 31.2615" stroke="black" stroke-width="2" stroke-linecap="round"/>
<path d="M28.2718 31.7202C28.2621 31.7202 28.0835 31.7726 25.4653 33.1193C23.0055 34.3846 18.3104 36.9485 15.082 38.9438C11.8536 40.939 10.2499 42.318 9.23099 43.1402C7.86824 44.2397 7.04478 44.7104 6.38217 45.2482C5.90662 45.6342 5.37684 46.5829 4.90076 47.6369C4.75881 47.9512 5.09149 47.9081 9.63564 45.1049C14.1798 42.3017 22.995 36.7628 28.9292 33.2122C34.8635 29.6617 37.6497 28.2674 39.1306 27.5928C40.6115 26.9181 40.7026 27.0053 40.5599 27.5861C40.1466 29.269 39.3891 30.7521 38.7938 31.5838C38.4794 32.0232 38.049 32.429 37.1112 33.198C36.1734 33.9669 34.718 35.0691 31.571 36.8995C28.4239 38.7298 23.6292 41.2549 20.2971 43.1933C16.965 45.1316 15.2407 46.4068 13.8807 47.5601C12.5206 48.7135 11.577 49.7065 10.6273 50.5798C9.67747 51.453 8.75009 52.1764 7.88781 52.9761C6.18458 54.5557 5.39861 55.6151 5.27208 55.8976C5.09285 56.2978 5.08894 57.0709 5.35397 57.8632C5.6455 58.7348 7.12488 58.323 7.80939 58.3125C8.45235 58.3026 8.88405 58.1492 10.6288 56.6523C12.2711 55.2434 15.3882 52.4449 19.8349 48.9123C24.2816 45.3796 29.9474 41.1793 33.284 38.6539C36.6206 36.1284 37.4562 35.4051 38.8569 34.4728C40.2577 33.5406 42.1982 32.4212 43.2998 31.8153C44.5831 31.1093 45.2851 31.0672 45.9898 31.1074C46.2949 31.1248 45.3959 32.8468 44.0918 35.0482C43.5958 35.8854 43.3893 36.1257 42.2975 37.09C41.2057 38.0542 39.2228 39.728 35.9607 41.9603C32.6987 44.1925 28.2176 46.9326 23.3852 50.3211C18.5528 53.7095 13.5049 57.6632 10.427 60.1703C7.34915 62.6775 6.39422 63.6182 5.66567 64.2963C3.89967 65.9399 3.55793 66.279 3.5191 66.4816C3.3988 67.1095 5.19616 66.6969 6.10414 66.4578C6.40701 66.3781 6.78179 66.1594 10.9762 63.4689C15.1706 60.7785 23.1609 55.5853 28.4798 51.7679C33.7987 47.9505 36.204 45.6663 38.8197 43.5871C41.4355 41.5079 44.1889 39.703 46.3135 38.061C48.4381 36.419 49.8504 34.9946 50.7029 34.1644C52.203 32.7034 53.6076 32.5551 54.8415 32.5868C55.2825 32.5981 55.3355 32.7654 55.264 32.982C55.1925 33.1987 54.9919 33.5018 54.313 34.28C53.6342 35.0582 52.4832 36.3022 47.087 40.7894C41.6909 45.2766 32.0844 52.9693 26.6808 57.2324C21.2772 61.4956 20.3675 62.096 18.9152 63.1901C17.4628 64.2842 15.4953 65.8537 14.0913 66.8319C12.6873 67.81 11.9063 68.1491 11.0403 68.5683C8.08145 70.0008 6.93081 71.3451 6.54515 72.2213C6.11131 73.207 10.2306 73.0905 12.0604 72.9793C12.7594 72.9368 13.9305 72.4765 14.7123 72.2344C15.4941 71.9923 15.8311 71.8522 20.4237 68.1211C25.0163 64.3899 33.8543 57.072 39.3772 52.6431C44.9001 48.2142 46.84 46.8962 49.445 44.9209C52.0501 42.9456 55.2616 40.353 57.3348 38.7093C60.2226 36.42 61.2196 35.7225 61.4541 35.5674C61.6828 35.4162 62.0047 35.4943 62.2726 35.6264C62.5085 35.7426 62.5858 36.202 62.6786 36.7328C62.7645 37.224 62.5115 37.8217 61.7894 38.8915C61.2846 39.6393 60.3696 40.7116 55.5489 44.6785C50.7281 48.6453 41.9962 55.4508 37.0202 59.4874C32.0442 63.524 31.0887 64.5855 30.2288 65.7195C28.5335 67.9551 27.8101 69.3752 27.7011 69.6541C27.5963 69.9225 27.6339 70.2538 27.7477 70.5514C27.9937 71.1952 28.9326 70.7923 30.3688 70.4293C31.5701 70.1258 33.6932 69.4413 34.9153 69.047C36.3964 68.5692 37.4732 67.8339 38.921 66.7841C39.548 66.3294 39.9037 65.9626 41.2511 64.2768C42.5985 62.5909 44.9134 59.579 46.8501 57.3004C48.7868 55.0218 50.2752 53.5676 51.8436 52.2377C53.4121 50.9078 55.0155 49.7462 55.9364 49.094C57.3428 48.0979 58.4314 48.0376 59.5715 48.0939C59.9798 48.1141 60.0132 48.354 60.0046 48.6379C59.9681 49.8576 59.1712 50.5668 57.8365 51.7704C56.95 52.5699 55.5083 53.6017 53.5308 55.2257C51.5533 56.8498 49.0502 58.9964 46.876 61.2545C44.7018 63.5125 42.9322 65.8171 42.0158 67.1482C41.0994 68.4794 41.0896 68.7673 41.1621 68.9962C41.2982 69.4266 41.8143 69.6825 42.3392 69.9018C43.6134 70.4341 46.1341 69.6945 48.2086 68.8145C48.7816 68.5715 49.0567 68.2102 49.3832 67.8106C49.8334 67.2595 50.3269 65.431 50.8539 63.205C51.0706 62.2894 51.2308 61.9709 51.4539 61.5715C51.6808 61.1651 53.4378 59.8055 55.8567 57.9099C57.3427 56.7454 58.3188 55.9916 59.1109 55.9729C59.5642 55.9623 60.2118 56.349 60.8789 56.6667C61.1436 56.7928 61.105 57.0893 61.0807 57.2709C61.0397 57.5778 60.8141 57.9391 60.5074 58.4126C60.2075 58.8755 58.6184 60.197 56.4849 61.98C55.7173 62.6215 55.6148 62.7587 55.06 63.6225C54.5052 64.4863 53.5079 66.0802 52.762 67.5247C51.4083 70.1462 51.1175 71.6498 51.2578 71.8793C51.3932 72.1006 51.8616 71.951 52.3106 71.8804C52.8426 71.7969 53.4836 71.4092 54.6452 70.2937C55.4981 69.4747 56.6412 67.9051 57.5361 66.6585C59.0628 64.532 59.8354 63.2799 60.3463 62.9065C61.048 62.3937 62.0099 62.5516 62.4263 62.5951C62.6175 62.615 62.7519 62.7255 62.8752 62.9061C63.7593 64.2007 63.3181 66.3158 62.6619 68.0562C61.9558 69.929 61.0746 70.533 59.6941 71.36C57.9475 72.4064 56.5979 72.9364 56.4018 73.1913C55.6556 74.1617 52.833 73.2772 51.0327 72.9661C49.8701 72.7651 47.7143 72.3056 46.1321 72.0338C44.5499 71.762 43.6106 71.6702 43.0319 71.6031C42.4531 71.536 42.2633 71.4964 37.8892 71.4735C33.515 71.4507 24.9624 71.4458 20.4705 71.4253C15.9787 71.4048 15.8068 71.3689 14.77 70.9172C13.7332 70.4654 11.8367 69.5989 10.18 68.7256C7.10512 67.1047 5.57673 65.9625 5.22784 65.6491C4.55493 65.0446 4.3366 64.1493 4.35344 63.5952C4.35734 63.467 4.47028 63.3716 4.63577 63.2944C5.55441 62.8657 6.85921 63.2152 8.46072 63.9213C9.57507 64.4127 11.5699 65.591 12.9684 66.4122C14.3669 67.2334 15.0688 67.7439 15.7623 68.1657C16.4558 68.5874 17.1195 68.9051 18.5922 69.4249C20.065 69.9448 22.3265 70.6573 23.6798 71.0537C25.396 71.5564 25.9607 71.5702 26.3838 71.5316C27.0025 71.4751 27.8401 71.1076 28.6096 70.6185C28.9385 70.4095 28.9601 70.0458 28.9509 69.8081C28.9352 69.3985 28.1846 68.6083 27.2367 67.5907C26.7569 67.0756 26.211 66.7894 23.6372 65.8492C21.4619 65.0546 17.447 63.8281 14.1784 62.6786C10.9099 61.5291 8.49032 60.5481 7.12033 59.9639C4.76988 58.9616 3.69548 57.6005 3.28882 56.9336C3.09048 56.6084 3.13569 56.219 3.26841 55.9371C3.46547 55.5186 4.29858 55.4428 5.31933 55.3038C6.75565 55.1082 8.29866 55.3257 9.76961 55.6413C10.5711 55.8133 11.4479 56.1605 13.8103 57.2806C16.1727 58.4007 19.9848 60.3217 23.8219 62.485C27.6589 64.6483 31.4054 66.9955 33.5308 68.2754C36.0067 69.7662 37.4611 70.0076 39.1888 70.2623C39.9033 70.3677 40.2971 70.3603 40.6058 70.3203C40.9145 70.2802 41.1283 70.1913 41.294 69.8718C41.7131 69.064 41.6715 67.4524 41.6143 65.7655C41.5777 64.684 41.1133 63.725 40.5259 62.7582C40.2774 62.3493 40.0232 62.1761 38.8088 61.4888C37.5944 60.8014 35.4004 59.6229 33.9165 58.8826C32.4327 58.1422 31.7254 57.8757 28.9911 57.1464C26.2568 56.4171 21.5168 55.2331 17.4285 54.0371C13.3402 52.8412 10.0472 51.6691 8.06329 50.9251C4.50843 49.5919 3.70152 48.7961 3.36194 48.4015C3.27393 48.2993 3.23562 48.1488 3.28311 47.9611C3.39783 47.5078 4.28674 47.0667 5.50841 46.6678C6.55759 46.3252 8.65541 46.21 11.4897 46.1552C12.7565 46.1307 13.674 46.3576 15.6733 47.2214C17.6725 48.0852 20.7256 49.6414 22.4284 50.5386C24.4141 51.5848 24.9861 52.15 25.5438 52.7377C25.9373 53.1524 26.1029 53.5185 27.7166 55.4334C29.2297 57.229 32.2626 60.6029 34.0914 62.5876C35.9202 64.5723 36.4812 65.0413 37.178 65.7772C37.8748 66.5131 38.6903 67.5017 40.2435 68.7602C41.7967 70.0187 44.0629 71.5173 45.5603 72.4424C47.6737 73.748 48.7252 74.0445 49.2857 74.0989C49.5178 74.1214 49.6479 74.0394 49.7834 73.9022C50.556 73.1198 50.7235 70.6182 50.6507 68.9315C50.638 68.6364 50.4427 68.3973 47.1005 65.9323C43.7583 63.4673 37.2032 58.7955 30.3 54.6316C23.3969 50.4677 16.3444 46.9533 12.4836 44.9843C8.62288 43.0152 8.16761 42.698 7.76997 42.3794C7.02154 41.7796 6.04099 40.5091 4.9292 38.9423C3.90467 37.4984 3.82429 36.6308 3.77369 34.9348C3.74546 33.9887 4.65045 33.1514 5.32207 32.5688C5.88122 32.0837 7.36534 32.3154 9.01088 32.875C9.70842 33.1123 10.6528 33.8926 13.783 36.7916C16.9132 39.6907 22.1387 44.8212 27.9058 49.8691C33.6729 54.917 39.8232 59.7268 43.4332 62.4548C47.0431 65.1827 47.9264 65.6829 48.7758 66.228C49.6251 66.7732 50.4137 67.348 51.2521 67.8845C52.0906 68.4209 52.955 68.9016 54.0752 69.3455C58.0019 70.9015 58.6003 70.637 58.8918 70.5215C59.5404 70.2645 59.3918 69.3254 59.3131 68.9407C59.2651 68.7065 59.091 68.4225 57.5938 66.7084C56.0965 64.9943 53.2533 61.8663 49.4374 58.5703C45.6216 55.2743 40.9193 51.9051 37.9266 49.6589C34.9339 47.4127 33.7932 46.3917 32.1 45.0555C30.4067 43.7192 28.1955 42.0988 26.966 41.1804C25.5399 40.1153 24.9999 39.4339 24.1348 38.0541C22.8408 35.99 22.3111 33.8569 22.1789 32.6368C22.1237 32.1272 22.1313 31.8364 22.294 31.6374C23.1292 30.6159 24.707 31.0538 25.3112 31.0737C25.5708 31.0823 25.731 31.1499 26.7012 31.9194C27.6714 32.689 29.4458 34.1745 30.6351 35.2322C31.8244 36.2899 32.375 36.8749 33.501 38.2231C34.627 39.5712 36.3118 41.6648 37.4573 42.9674C38.6028 44.27 39.1579 44.7182 39.902 45.2591C41.5406 46.4502 43.0406 47.5049 44.4752 48.8282C45.399 49.6803 46.6257 50.9989 47.4384 51.7793C48.251 52.5597 48.5881 52.7876 50.2529 53.4757C51.9177 54.1638 54.9 55.3052 56.5203 55.8948C58.1407 56.4843 58.3088 56.4873 58.4881 56.4567C58.8596 56.3933 59.4864 56.0534 60.182 55.6196C60.5597 55.384 60.5312 54.8389 60.5029 54.2694C60.4813 53.8337 60.0967 52.9114 58.7717 50.7227C57.8548 49.2082 56.0254 47.1458 54.4174 45.3928C52.8093 43.6398 51.3717 42.3283 49.6527 40.5496C47.9337 38.7709 45.9768 36.5647 44.8824 35.2956C43.7879 34.0265 43.6153 33.7612 43.509 33.5585C43.4026 33.3558 43.3678 33.2237 43.4658 33.1199C43.7222 32.8483 44.6992 32.8799 45.8199 32.9201C46.5078 32.9448 47.4971 33.4595 49.2226 34.5791C50.2332 35.2348 51.3355 36.3295 52.7801 37.9749C54.2246 39.6202 55.9314 41.8498 57.2414 43.3705C59.2891 45.7476 60.4393 46.4605 60.7134 46.5488C60.963 46.6293 61.3822 46.5197 61.9279 46.3673C62.4668 46.2168 62.8126 45.8174 62.9994 45.4308C63.3834 44.6361 63.0039 43.23 62.3929 41.741C62.1185 41.0723 61.4506 40.1243 60.5733 39.0371C59.696 37.9499 58.5521 36.7892 57.8293 36.0038C56.0867 34.1104 55.7695 32.6774 55.7429 32.3286C55.7295 32.1533 55.7626 31.9795 55.922 31.8164C57.1171 30.5939 59.4765 31.3578 59.7521 31.542C60.1575 31.8129 60.509 32.6995 61.1306 33.8826C61.8519 35.2552 62.7834 36.9383 63.463 38.6283C63.7539 39.3034 63.9354 39.6079 64.0716 39.8396C64.2078 40.0713 64.2933 40.221 64.4937 40.4431" stroke="black" stroke-width="2" stroke-linecap="round"/>
</svg>
