<svg width="69" height="67" viewBox="0 0 69 67" fill="none" xmlns="http://www.w3.org/2000/svg">
<path d="M2.69922 22.3616C2.69922 30.6858 3.50893 48.7975 4.44499 52.3728C5.63629 56.9229 4.36037 60.536 4.11114 61.5653C3.99615 62.0402 4.86357 62.4139 5.58442 62.4544C9.64667 62.6829 23.9276 60.9603 32.3721 60.046C37.1904 59.5243 44.3169 60.0209 49.517 60.7485C53.1607 61.2583 55.0867 63.3545 56.6596 63.5366C60.1871 63.9449 62.6268 61.4032 63.887 60.4524C68.3922 57.0533 63.158 50.0183 62.5129 47.0786C61.6768 43.269 61.2314 38.915 63.5261 34.0218C66.6694 27.3193 65.2555 22.0044 63.922 19.4947C63.5959 18.8809 63.6245 18.1576 63.0332 17.7765C60.1685 15.9302 56.1623 18.0651 52.5048 18.6228C47.6341 19.3656 44.0053 17.3226 40.0629 16.5447C32.1561 14.9845 24.3494 16.65 16.9202 16.7459C12.2579 16.3445 7.79377 16.6617 4.77341 17.8615C4.1907 18.2838 3.76537 18.812 2.97769 19.4899" stroke="black" stroke-width="5.4" stroke-linecap="round"/>
<path d="M22.6788 25.8087C22.4093 24.2366 21.8013 19.9983 22.0084 17.5331C22.2882 14.2035 22.5955 10.7805 23.6092 7.60414C24.0219 6.31124 25.0304 5.33882 25.9566 4.44277C27.8219 2.63798 35.239 2.26181 39.7668 3.10157C43.1428 3.72769 43.9112 7.71707 45.7474 11.326C46.2258 13.0536 46.7713 15.8183 47.2919 18.8076C47.8125 21.7969 48.2919 24.9269 48.7857 28.1517" stroke="black" stroke-width="5.4" stroke-linecap="round"/>
</svg>
