<svg width="40" height="40" viewBox="0 0 40 40" fill="none" xmlns="http://www.w3.org/2000/svg">
<path d="M18.3325 14.6636C19.7443 14.5772 21.2712 14.56 22.8404 14.8741C23.2563 14.9574 23.6502 15.0716 24.0005 15.1776C24.3677 15.2886 24.6733 15.3858 24.9958 15.4697C25.6119 15.63 26.1667 15.706 26.7811 15.6109C27.0242 15.5733 27.2925 15.5059 27.6225 15.4165C27.9287 15.3335 28.3118 15.2245 28.6837 15.1471C29.4021 14.9976 30.4732 14.8714 31.449 15.5094C31.926 15.8212 32.1025 16.2624 32.1741 16.4685C32.192 16.5201 32.2069 16.5677 32.2164 16.5984C32.2271 16.6335 32.2314 16.6477 32.2364 16.6634C32.8693 17.8972 33.4027 20.2276 32.1065 23.0317C31.4699 24.409 31.5717 25.6353 31.841 26.8801C31.8615 26.9748 31.945 27.1801 32.1514 27.6414C32.3268 28.0335 32.5626 28.5555 32.7356 29.0975C32.9061 29.6316 33.0563 30.3037 32.9793 30.9997C32.8961 31.7516 32.55 32.485 31.8327 33.034C31.6422 33.18 30.2335 34.6359 28.3018 34.4091C27.9196 34.3642 27.5995 34.2151 27.4015 34.1143C27.2239 34.024 26.9566 33.869 26.8256 33.7974C26.4837 33.6106 26.1541 33.4617 25.7392 33.4028C23.9381 33.1472 21.5417 32.9861 19.9987 33.1556C18.5193 33.3181 16.4851 33.5576 14.6607 33.7438C12.8853 33.9249 11.1363 34.0757 10.2854 34.0271C9.98769 34.0102 9.64831 33.9288 9.34671 33.7638C9.19804 33.6825 8.9735 33.5346 8.7891 33.2838C8.58355 33.0042 8.41561 32.567 8.53668 32.0596L8.64785 31.6275C8.77382 31.1089 8.90316 30.3397 8.66093 29.401C8.54563 28.9542 8.45893 28.1942 8.38714 27.3763C8.31173 26.5171 8.24364 25.4722 8.18659 24.3824C8.07264 22.2053 8 19.8048 8 18.2783C8.00003 18.0487 8.05818 17.8328 8.16 17.6439C8.00756 17.1531 8.14516 16.5972 8.55717 16.2374C8.65943 16.1482 8.73438 16.0726 8.8436 15.965C8.94329 15.8668 9.09247 15.7203 9.28088 15.5817L9.4169 15.4819L9.57341 15.4187C10.9086 14.8806 12.7014 14.7777 14.4144 14.9195C15.6774 14.8993 16.8719 14.7529 18.3325 14.6636ZM22.3146 17.5009C21.0824 17.2543 19.8255 17.2561 18.496 17.3374C17.236 17.4145 15.7447 17.5813 14.3957 17.599L14.3285 17.5999L14.2614 17.5942C12.8134 17.4677 11.5631 17.5693 10.7627 17.8349C10.751 17.8462 10.7377 17.8589 10.7231 17.8732C10.6988 17.8971 10.67 17.9246 10.6381 17.9561C10.6636 18.0594 10.6786 18.1671 10.6786 18.2783C10.6786 19.7439 10.7493 22.0951 10.8617 24.2425C10.9178 25.3149 10.9836 26.3258 11.0553 27.1422C11.1305 27.9996 11.204 28.5354 11.2545 28.7313C11.512 29.729 11.5035 30.6359 11.4215 31.3324C12.1712 31.2902 13.2075 31.1992 14.3891 31.0786C16.2024 30.8936 18.1942 30.6592 19.7066 30.4931C21.578 30.2876 24.2316 30.4834 26.1154 30.7508C26.9913 30.8751 27.6487 31.1945 28.11 31.4466C28.3806 31.5944 28.4691 31.6519 28.6166 31.7269C28.6401 31.7389 28.6588 31.7465 28.6724 31.7526C28.8953 31.7653 29.1127 31.7001 29.359 31.5547C29.4954 31.4742 29.6283 31.3761 29.7666 31.2648C29.8367 31.2084 29.9012 31.1544 29.9737 31.0939C30.0397 31.0389 30.1232 30.9693 30.2048 30.9068C30.2856 30.845 30.3063 30.8039 30.3173 30.705C30.3343 30.5502 30.306 30.2947 30.1839 29.9119C30.0642 29.5371 29.8931 29.1525 29.7065 28.7352C29.5509 28.3873 29.3168 27.8801 29.223 27.4465C28.8998 25.9525 28.6857 24.0482 29.6751 21.9078C30.5932 19.9215 30.1486 18.4496 29.8447 17.8693C29.8148 17.8122 29.79 17.7567 29.7684 17.7054C29.6549 17.7027 29.4848 17.7164 29.2295 17.7695C28.9577 17.826 28.6793 17.9053 28.3231 18.0019C27.9909 18.0919 27.5957 18.1956 27.1909 18.2582C26.0797 18.4301 25.1287 18.272 24.3214 18.062C23.9321 17.9607 23.546 17.8385 23.2254 17.7416C22.888 17.6396 22.597 17.5574 22.3146 17.5009Z" fill="black"/>
<path d="M19.4782 5.6058C20.5165 5.52059 21.7006 5.56283 22.647 5.74089C23.8797 5.97285 24.5412 6.85726 24.9192 7.55126C25.1069 7.89589 25.2648 8.26614 25.3972 8.57882C25.5032 8.82908 25.5973 9.05287 25.6959 9.26524L25.7965 9.47425L25.8589 9.59892L25.8953 9.73158C26.0838 10.4224 26.2862 11.4738 26.4707 12.5483C26.6578 13.6385 26.8298 14.7778 27.0043 15.9342C27.1145 16.6646 26.6058 17.308 25.868 17.3714C25.1302 17.4348 24.4424 16.8941 24.3322 16.1637C24.1568 15.0017 23.989 13.8903 23.8072 12.8315C23.6349 11.8275 23.4623 10.9445 23.3177 10.3833C23.161 10.0575 23.0253 9.73535 22.9119 9.46755C22.7729 9.13958 22.6659 8.89386 22.5547 8.68974C22.4444 8.48727 22.3684 8.39928 22.3305 8.3647C22.313 8.34865 22.3154 8.35098 22.299 8.34791C21.6411 8.22413 20.7088 8.1828 19.8669 8.2519C19.45 8.28612 19.095 8.34457 18.8317 8.41624C18.6406 8.46825 18.5572 8.51091 18.5382 8.51983C18.1865 8.86658 18.0786 9.00572 18.041 9.12529C17.7301 10.1135 17.6278 11.2055 17.5272 12.4205C17.4692 13.1216 17.6529 14.4895 17.7507 15.0687C17.8738 15.7979 17.3772 16.4509 16.6414 16.5271C15.9056 16.6033 15.2092 16.0738 15.086 15.3446C14.993 14.7937 14.7457 13.1147 14.8343 12.0435C14.932 10.8649 15.0478 9.49557 15.4553 8.20024C15.7092 7.39335 16.3118 6.83761 16.596 6.55871C16.9931 6.16894 17.5396 5.96937 17.9634 5.854C18.4288 5.72731 18.955 5.64874 19.4782 5.6058Z" fill="black"/>
<path d="M14.9642 16.7323C15.2033 16.6722 15.4461 16.8175 15.5061 17.0567C15.5647 17.2905 15.4268 17.5269 15.197 17.5934C15.1877 17.5983 15.1663 17.6099 15.1273 17.6343C15.0129 17.7058 14.794 17.8543 14.3595 18.1658C13.9299 18.4738 13.2928 18.9389 12.7107 19.3251C12.4199 19.5179 12.1335 19.6972 11.8871 19.8299C11.7642 19.8961 11.6432 19.9552 11.5314 19.9987C11.4301 20.038 11.2935 20.0822 11.1538 20.0824C10.9908 20.0825 10.788 20.0192 10.6642 19.8212C10.5638 19.6605 10.5689 19.4896 10.5792 19.3957C10.601 19.1987 10.6912 18.9773 10.7745 18.7962C10.8009 18.739 10.829 18.6805 10.8583 18.6218C10.6551 18.7584 10.4817 18.8762 10.3438 18.9689C10.2081 19.0601 10.0934 19.1361 10.0242 19.1764C10.0076 19.1861 9.97982 19.2021 9.94926 19.2156C9.93687 19.2211 9.90158 19.2364 9.85552 19.2466C9.83361 19.2514 9.7837 19.2609 9.72037 19.2557C9.65993 19.2508 9.52444 19.2263 9.41694 19.1014C9.30424 18.9705 9.30256 18.8238 9.3123 18.75C9.32169 18.6792 9.34599 18.6276 9.35677 18.6061C9.37973 18.5604 9.40577 18.5277 9.41432 18.5172C9.43629 18.4901 9.45992 18.4665 9.47448 18.4522L9.97454 17.9465C10.1808 17.7402 10.4055 17.5234 10.5849 17.3784C10.8123 17.1947 10.9632 17.0816 11.061 17.0126C11.1097 16.9782 11.147 16.9532 11.1756 16.9355C11.1897 16.9268 11.2039 16.9185 11.2175 16.911C11.2238 16.9076 11.2338 16.9022 11.2454 16.8967C11.2506 16.8942 11.2618 16.8891 11.2759 16.8836C11.2826 16.881 11.2959 16.876 11.313 16.8709C11.3183 16.8694 11.3712 16.8526 11.4398 16.8526L11.4852 16.8548C11.6377 16.8702 11.7669 16.9627 11.8348 17.0924C11.8437 17.0931 11.8528 17.0925 11.8619 17.0937C12.0105 17.1137 12.169 17.2041 12.2486 17.3806C12.3096 17.5161 12.2959 17.6446 12.2856 17.7071C12.2636 17.8408 12.2002 17.9874 12.1322 18.1248C12.0608 18.2689 11.9572 18.4551 11.8605 18.6332C11.8127 18.7213 11.7653 18.8095 11.7206 18.8956C11.8729 18.8041 12.0409 18.6977 12.2172 18.5808C12.7817 18.2064 13.3999 17.755 13.8394 17.4399C14.274 17.1283 14.5134 16.965 14.6542 16.877C14.724 16.8334 14.7821 16.8003 14.8352 16.7763C14.9015 16.7464 14.9505 16.7357 14.9642 16.7323Z" fill="black"/>
<path d="M22.7406 15.2293C22.8207 15.2336 22.9443 15.2584 23.0532 15.3562C23.1634 15.4553 23.2006 15.5769 23.2123 15.6574C23.2308 15.7853 23.1973 15.9112 23.1883 15.9482C23.0286 16.6078 22.7367 17.1925 22.4934 17.5374C22.4787 17.5582 22.4628 17.5781 22.4472 17.5984C22.8386 17.3562 23.2418 17.1215 23.5074 16.9732C23.7612 16.8316 23.9778 16.7454 24.1806 16.6998C24.3872 16.6535 24.558 16.6548 24.7042 16.6632C24.8365 16.6709 24.9731 16.7359 25.0612 16.8638C25.1331 16.9682 25.1435 17.073 25.1454 17.1219C25.1491 17.2201 25.1241 17.3082 25.1105 17.3525C25.1036 17.3749 25.095 17.3981 25.0861 17.4223C25.1521 17.4491 25.2179 17.4793 25.2831 17.5121C25.4832 17.6125 25.7162 17.7539 25.9907 17.9328C26.0056 17.9181 26.0202 17.904 26.0343 17.8901C26.347 17.5811 26.6647 17.3974 26.9821 17.2971C27.2719 17.2056 27.5419 17.1907 27.7712 17.1938C27.798 17.1462 27.8323 17.099 27.8758 17.0539L27.943 16.9893C28.2865 16.6854 28.7317 16.6556 29.0338 16.6798C29.2049 16.6935 29.3611 16.7264 29.4833 16.7613C29.5445 16.7788 29.6005 16.7978 29.6485 16.8167C29.6769 16.8279 29.7195 16.8455 29.7623 16.8694L29.805 16.8956L29.8743 16.9492C29.9389 17.0058 29.9886 17.0683 30.0256 17.121C30.077 17.1941 30.1232 17.2757 30.1647 17.3543C30.2066 17.4335 30.2502 17.5225 30.2942 17.6119C30.3392 17.7034 30.3867 17.7992 30.4393 17.901C30.5105 18.0383 30.5889 18.1883 30.6713 18.347C30.8764 18.4626 30.9435 18.6737 30.9656 18.7463C30.9969 18.8494 31.0163 18.9702 31.031 19.055C31.032 19.0609 31.0323 19.067 31.0331 19.0729C31.1202 19.2582 31.2043 19.4476 31.2799 19.6375C31.3734 19.8575 31.4282 19.9501 31.4709 20.0238C31.5183 20.1057 31.5297 20.1249 31.5681 20.1681C31.7317 20.3523 31.7151 20.6342 31.531 20.7981C31.348 20.9608 31.0684 20.9457 30.9041 20.7649C31.0168 21.0436 31.1168 21.3341 31.1683 21.6042C31.217 21.8594 31.2389 22.175 31.1081 22.4495C31.0052 22.6656 30.7974 22.9244 30.4468 23.0237C30.3539 23.05 30.2476 23.0798 30.1503 23.0974C30.1203 23.1028 30.0817 23.1074 30.0378 23.1109C30.0982 23.25 30.0913 23.3844 30.0901 23.4235C30.0802 23.7601 29.9554 24.0246 29.7793 24.2554C29.9165 24.4958 30.0186 24.6883 30.0914 24.8444C30.1883 25.0518 30.2578 25.2414 30.2663 25.4125C30.2706 25.5013 30.2799 25.6506 30.2589 25.7891C30.2521 25.8333 30.2402 25.8839 30.2222 25.9369C30.3756 26.0402 30.4448 26.1932 30.4672 26.3189C30.4885 26.438 30.4707 26.5486 30.4677 26.5717C30.4503 26.7036 30.3989 26.8185 30.3543 26.9035C30.3087 26.9906 30.2512 27.0814 30.1983 27.1642C30.1411 27.2537 30.0516 27.3465 29.9733 27.4232C29.8857 27.5091 29.7749 27.6097 29.6485 27.7214C29.3956 27.9449 29.0616 28.2278 28.6854 28.5467C28.5502 28.6614 28.4985 28.7108 28.457 28.7599C28.4431 28.7763 28.4305 28.7945 28.4151 28.8157C28.528 28.938 28.6332 29.0538 28.7303 29.1623C28.7402 29.1481 28.7504 29.134 28.76 29.12C28.8634 28.9699 28.9561 28.8348 29.0373 28.7198C29.1181 28.6053 29.1934 28.5022 29.2631 28.4168C29.3295 28.3355 29.4085 28.2476 29.499 28.1805C29.7203 28.0164 29.9659 27.9719 30.1486 27.9625C30.3277 27.9533 30.4955 27.9778 30.5488 27.9834C30.7696 28.0068 30.9112 28.1318 30.9974 28.2433L31.0314 28.2899L31.0737 28.3571C31.2737 28.6968 31.3036 29.0934 31.2725 29.444C31.2387 29.8248 31.1277 30.2126 31.0039 30.5457C30.8619 30.9278 30.6915 31.2072 30.4694 31.436C30.2549 31.6569 30.0092 31.8112 29.7658 31.9591C29.4419 32.156 29.1552 32.304 28.9492 32.4104C28.843 32.4652 28.7672 32.5045 28.7129 32.5355C28.7003 32.5427 28.6907 32.5482 28.6837 32.5525C28.5134 32.7428 28.2805 32.8073 28.103 32.8293C27.9049 32.8539 27.6902 32.8374 27.4952 32.8106C27.2961 32.7832 27.0888 32.7409 26.9006 32.7007C26.7465 32.6678 26.6084 32.6378 26.4838 32.6135C26.4446 32.6806 26.3981 32.7456 26.3421 32.8032C26.3018 32.8446 26.2322 32.9098 26.1302 32.9558C26.0208 33.005 25.9086 33.0172 25.8024 33.0068C25.5014 32.9772 25.0582 32.8273 24.2887 32.345C24.1992 32.2889 24.1026 32.2255 23.9996 32.1588C23.8196 32.135 23.6841 32.1211 23.5781 32.1087C23.4023 32.088 23.3606 32.0733 21.8058 32.0651C20.8493 32.06 19.3403 32.0567 17.948 32.0537C17.8885 32.0675 17.8301 32.0785 17.7727 32.0838C17.6364 32.0964 17.4899 32.0932 17.2674 32.052C16.6532 32.0505 16.0871 32.0497 15.6343 32.0476C14.9973 32.0447 14.5893 32.04 14.3059 32.0245C14.0457 32.2045 13.908 32.262 13.7299 32.3179C13.6672 32.3376 13.5951 32.3623 13.512 32.3907C13.431 32.4185 13.341 32.4492 13.2513 32.4779C13.0838 32.5315 12.8699 32.5942 12.6841 32.6057C12.355 32.626 11.8049 32.6478 11.3487 32.617C11.1292 32.6022 10.8877 32.5728 10.7 32.505C10.6122 32.4732 10.4722 32.4115 10.3686 32.2835C10.311 32.2123 10.2634 32.1183 10.2492 32.0049C10.2351 31.8925 10.2574 31.7912 10.2928 31.7097L10.3333 31.6239C10.4779 31.3409 10.7472 31.0256 11.2005 30.7009C10.9292 30.5438 10.7027 30.4041 10.519 30.2832C10.3642 30.3213 10.1699 30.3633 9.99631 30.3809C9.89074 30.3915 9.73394 30.4005 9.58955 30.36C9.51491 30.339 9.39175 30.291 9.29614 30.172C9.18637 30.0355 9.16644 29.874 9.19151 29.7413L9.21374 29.6606C9.24055 29.5852 9.27935 29.5267 9.30922 29.4867C9.35016 29.4318 9.40267 29.3744 9.46094 29.3145C9.48549 29.2892 9.51405 29.2619 9.54551 29.2308C9.49377 29.0633 9.47583 28.9023 9.47968 28.7734L9.48448 28.7141C9.52342 28.4279 9.77294 28.3045 9.835 28.2751L9.94137 28.2315C10.1748 28.1498 10.4188 28.153 10.6463 28.1914C10.7223 28.1233 10.8072 28.0479 10.9031 27.9642C10.841 27.9379 10.7827 27.9141 10.7292 27.891C9.80075 27.4894 9.35229 26.9318 9.16622 26.6223C8.99668 26.3403 9.0487 26.0357 9.13658 25.8463L9.16273 25.7952C9.30322 25.5535 9.56754 25.4794 9.6872 25.4495C9.8351 25.4126 10.0196 25.3891 10.1755 25.368C10.3379 25.1764 10.567 24.9318 10.8722 24.6447C10.8915 24.6265 10.9115 24.6086 10.931 24.5906C9.76586 24.1338 9.41865 23.8314 9.23423 23.614C9.09485 23.4497 9.06801 23.2414 9.11347 23.059L9.13004 23.0032C9.17415 22.8781 9.25238 22.7853 9.31837 22.7225C9.39634 22.6482 9.48697 22.5878 9.57429 22.5385C9.68914 22.4736 9.82305 22.4147 9.96579 22.3602C9.97676 22.3409 9.98741 22.3217 9.99849 22.3031C10.094 22.1423 10.2149 21.9672 10.3608 21.847C10.4938 21.7375 10.644 21.6339 10.7972 21.5248C10.8112 21.5148 10.825 21.5038 10.8395 21.4934C10.5201 21.2274 10.1429 20.7229 9.76394 20.1811C9.55948 19.8888 9.43391 19.6315 9.36284 19.3471C9.29483 19.0749 9.28319 18.7986 9.27434 18.4978C9.26506 18.1821 9.40899 17.9222 9.54551 17.7414C9.68404 17.5579 9.85434 17.4043 9.97407 17.2989C10.1095 17.1797 10.2709 17.1296 10.4057 17.1084C10.543 17.0868 10.6872 17.0899 10.8251 17.1044C11.101 17.1335 11.4139 17.2157 11.7219 17.322C11.9273 17.3929 12.1253 17.5305 12.3841 17.7462C12.649 17.967 13.0193 18.3067 13.5726 18.8266C13.7058 18.9518 13.8491 19.0881 14.0016 19.2338C14.5971 18.8749 15.2652 18.4921 15.8727 18.1543C15.8359 17.9863 15.8115 17.8348 15.7978 17.7061C15.7876 17.611 15.7787 17.5008 15.7886 17.3952C15.7994 17.2801 15.835 17.1432 15.9351 17.019L15.9861 16.9601C16.2473 16.6802 16.5894 16.6182 16.8354 16.6113C16.9689 16.6076 17.0928 16.6193 17.1868 16.6301C17.3007 16.6432 17.337 16.6496 17.3664 16.6506C17.4101 16.652 17.4727 16.657 17.5464 16.6789C17.6165 16.6998 17.678 16.7304 17.7326 16.7631C17.8178 16.814 17.9202 16.8917 18.0535 16.9976C18.1205 16.9645 18.1635 16.9445 18.1921 16.9318C18.2059 16.9256 18.2217 16.919 18.2374 16.913C18.245 16.9102 18.2581 16.9055 18.2741 16.9008C18.2756 16.9004 18.3305 16.8825 18.4005 16.8825L18.4463 16.8851C18.636 16.9045 18.79 17.0426 18.8338 17.2239C20.6519 16.1327 21.5534 15.6747 22.0605 15.4403C22.1937 15.3787 22.308 15.3287 22.4018 15.2942C22.4766 15.2668 22.6059 15.2221 22.7406 15.2293ZM28.0489 31.521C27.8838 31.6815 27.7332 31.8148 27.5903 31.9212C27.5992 31.9225 27.608 31.9248 27.6169 31.926C27.7846 31.949 27.9094 31.9538 27.9931 31.9434C28.0161 31.9406 28.0307 31.9355 28.0398 31.933C28.0843 31.8834 28.1303 31.8494 28.1553 31.8318C28.1929 31.8054 28.2334 31.7808 28.2708 31.7594C28.3275 31.7271 28.3968 31.6912 28.4705 31.6531C28.3488 31.6194 28.2094 31.5763 28.0489 31.521ZM12.0933 31.1879C11.7476 31.3884 11.5177 31.5707 11.3666 31.722C11.3803 31.723 11.3944 31.7249 11.4088 31.7259C11.806 31.7527 12.3098 31.7338 12.6291 31.7141C12.6909 31.7103 12.8081 31.6825 12.9792 31.6278C12.983 31.6266 12.9868 31.6251 12.9905 31.6239C12.7214 31.4987 12.4053 31.3472 12.0933 31.1879ZM25.8883 30.9298C25.818 30.9816 25.7368 31.0314 25.6406 31.0728C25.3788 31.1855 25.0922 31.2937 24.8066 31.3801C25.093 31.4301 25.4288 31.4971 25.74 31.5593C25.7784 31.567 25.8164 31.5745 25.8538 31.582C25.8784 31.3696 25.8896 31.1405 25.8883 30.9298ZM13.3088 30.5326C13.2242 30.5864 13.1459 30.6334 13.0725 30.6756C13.3571 30.8118 13.615 30.9299 13.7971 31.0104C13.904 31.0577 13.9656 31.0831 14.0543 31.1011C14.0826 31.0795 14.1121 31.0559 14.1437 31.0314C13.9912 30.9599 13.8641 30.8898 13.7339 30.8094C13.6038 30.7292 13.4693 30.6382 13.3219 30.5413C13.3175 30.5385 13.3132 30.5355 13.3088 30.5326ZM15.9307 30.7353C16.2841 30.8504 16.6405 30.9623 16.9008 31.0396C17.0989 31.0985 17.2458 31.1355 17.3559 31.1591C17.4799 31.1594 17.6058 31.1597 17.733 31.16C17.7243 31.0477 17.7351 30.9256 17.7818 30.8042L17.815 30.7279C17.8227 30.7115 17.8314 30.6935 17.8411 30.6739C17.7984 30.6271 17.7529 30.5773 17.7047 30.5248C17.6261 30.4391 17.5512 30.3715 16.7377 30.0661C16.4427 30.311 16.1714 30.5369 15.9307 30.7353ZM28.6711 30.782C28.7929 30.8169 28.8849 30.8386 28.9544 30.8504C28.9597 30.8513 28.9648 30.8514 28.9697 30.8522C28.9684 30.8436 28.9672 30.8351 28.9658 30.8269C28.9583 30.8155 28.9469 30.7975 28.9283 30.7724C28.8981 30.7317 28.8558 30.6795 28.7988 30.6098C28.7568 30.6671 28.7141 30.7247 28.6711 30.782ZM19.1172 30.2858C19.0447 30.3923 18.9804 30.4896 18.9245 30.5779C18.943 30.605 18.9604 30.6325 18.9764 30.6599C18.9975 30.696 19.0245 30.746 19.0466 30.8064C19.2148 30.7628 19.4352 30.6968 19.667 30.625C19.4991 30.5212 19.3143 30.4079 19.1172 30.2858ZM30.1939 28.8541C30.1074 28.8585 30.0581 28.8775 30.0308 28.8977C30.0308 28.8977 30.0077 28.9167 29.955 28.9814C29.9055 29.042 29.8445 29.1244 29.7666 29.2347C29.6892 29.3444 29.6006 29.4734 29.495 29.6266C29.4451 29.6991 29.3911 29.7758 29.3342 29.8577C29.4792 30.0294 29.5786 30.1503 29.6454 30.2405C29.7277 30.3514 29.7903 30.4507 29.8238 30.5684L29.8364 30.6198L29.8499 30.6943C29.854 30.7194 29.8578 30.7477 29.8613 30.7785C29.9678 30.6595 30.0687 30.4989 30.1669 30.2348C30.2756 29.9424 30.359 29.6371 30.3831 29.365C30.4033 29.1373 30.3779 28.9715 30.3273 28.8576C30.2837 28.8537 30.2406 28.8517 30.1939 28.8541ZM21.9035 30.6695C21.9412 30.677 21.979 30.6837 22.0169 30.6904C21.9962 30.6714 21.9757 30.6528 21.9558 30.6342C21.9383 30.6459 21.921 30.658 21.9035 30.6695ZM27.9225 29.5996C27.7818 29.8363 27.632 30.0994 27.5022 30.3504C27.5685 30.3804 27.6371 30.4103 27.7093 30.4393C27.7352 30.4497 27.761 30.4595 27.786 30.4694C27.9207 30.2991 28.063 30.1057 28.2024 29.9122C28.1168 29.8152 28.0233 29.7107 27.9225 29.5996ZM24.2072 29.5425C23.9698 29.846 23.7761 30.1134 23.6395 30.3146C23.6183 30.3459 23.5989 30.3752 23.5811 30.4022C23.5806 30.4165 23.5809 30.4309 23.5802 30.445C23.5771 30.5098 23.5726 30.5768 23.5659 30.6446C23.6577 30.6798 23.8709 30.6904 24.222 30.6128C24.5309 30.5446 24.877 30.4235 25.2055 30.2863C25.0896 30.1983 24.9568 30.0981 24.8044 29.9841C24.6293 29.8531 24.4289 29.7051 24.2072 29.5425ZM20.307 28.9138C19.98 29.2103 19.7899 29.4064 19.6522 29.5665C19.9794 29.7692 20.2666 29.9474 20.4966 30.0879C20.6002 30.1512 20.698 30.2075 20.7909 30.2579C20.9756 30.184 21.1449 30.093 21.3245 29.9798C21.2911 29.9429 21.2597 29.9079 21.2295 29.8756C21.0461 29.679 20.8146 29.4645 20.307 28.9138ZM14.8234 29.4108C14.5834 29.5985 14.3291 29.7958 14.0909 29.9767C14.1293 30.0016 14.1653 30.0266 14.2025 30.0495C14.3855 30.1624 14.5645 30.2528 14.9393 30.3935C15.0599 30.295 15.1923 30.1877 15.3361 30.0692C15.4666 29.9616 15.6062 29.8445 15.755 29.7212C15.5457 29.651 15.3213 29.5763 15.0876 29.4989C15.0005 29.4701 14.9124 29.4403 14.8234 29.4108ZM11.7602 29.6053C11.6398 29.6831 11.5346 29.75 11.4433 29.8084C11.6284 29.9194 11.8439 30.0425 12.0916 30.1768C12.0938 30.1757 12.0963 30.1749 12.0986 30.1738C12.2174 30.1154 12.3264 30.0616 12.4434 30.0007C12.2178 29.8669 11.9789 29.728 11.7602 29.6053ZM22.6821 30.0888C22.6857 30.092 22.6894 30.0951 22.693 30.0984C22.693 30.0918 22.6931 30.0853 22.693 30.0787C22.6895 30.0822 22.6857 30.0854 22.6821 30.0888ZM26.8967 28.5249C26.8786 28.5823 26.8585 28.6536 26.8365 28.7477C26.7451 29.1394 26.6536 29.5068 26.5645 29.8063C26.6175 29.8425 26.6706 29.8776 26.7236 29.9126C26.9031 29.5679 27.1127 29.2102 27.2882 28.9225C27.1641 28.7941 27.0336 28.6613 26.8967 28.5249ZM17.5246 29.413C17.9282 29.5775 18.1412 29.6976 18.3177 29.8738C18.33 29.8553 18.3427 29.8366 18.3556 29.8176C18.1109 29.6681 17.8558 29.5126 17.5935 29.3559C17.5705 29.375 17.5475 29.394 17.5246 29.413ZM12.6021 29.0586C12.8191 29.1853 13.0302 29.3104 13.2068 29.4156C13.2341 29.4319 13.2603 29.4484 13.2861 29.464C13.4488 29.3447 13.6253 29.2094 13.8067 29.069C13.6197 29.0049 13.4351 28.9412 13.2569 28.8776C13.1741 28.8481 13.093 28.8185 13.0132 28.7896C12.8678 28.8847 12.7305 28.9749 12.6021 29.0586ZM21.2862 28.068C21.1771 28.1593 21.0754 28.2455 20.9801 28.3265C21.4878 28.8774 21.6214 28.9867 21.8826 29.2665C21.9389 29.3269 21.995 29.3894 22.0539 29.4544C22.149 29.3663 22.2652 29.2338 22.4916 28.9509C22.453 28.8758 22.4084 28.7979 22.3591 28.7154C22.3455 28.6927 22.3409 28.6837 22.3002 28.6535C22.2382 28.6075 22.1326 28.5438 21.9114 28.4168C21.7444 28.3209 21.5238 28.1981 21.2862 28.068ZM25.9462 27.6207C25.7314 27.827 25.5191 28.0387 25.3158 28.2529C25.1798 28.3962 25.0489 28.5405 24.923 28.6827C25.3771 29.0153 25.6038 29.1624 25.7849 29.2787C25.8429 29.0615 25.904 28.8138 25.9667 28.545C26.0495 28.1903 26.1189 28.0354 26.2118 27.8648C26.125 27.7841 26.0365 27.7026 25.9462 27.6207ZM19.3714 27.8762C19.0166 28.1713 18.6631 28.465 18.3194 28.7512C18.5126 28.8677 18.7015 28.982 18.8835 29.0934C19.0608 28.8749 19.2879 28.6327 19.7071 28.2524C19.5989 28.1317 19.4862 28.0053 19.3714 27.8762ZM16.0554 28.4669C15.9079 28.5792 15.7881 28.6704 15.677 28.7538C15.9969 28.86 16.2988 28.961 16.5611 29.0525C16.6313 28.9941 16.7026 28.935 16.7748 28.875C16.7172 28.8418 16.6598 28.8082 16.6021 28.7752C16.4193 28.6706 16.2366 28.5678 16.0554 28.4669ZM11.8322 28.3435C11.7569 28.4075 11.6866 28.4672 11.6212 28.5236C11.6517 28.5379 11.6837 28.5527 11.7166 28.569C11.7984 28.5159 11.8855 28.4598 11.9778 28.3998C11.9283 28.3806 11.8797 28.3622 11.8322 28.3435ZM14.6516 27.7096C14.4108 27.8699 14.176 28.0257 13.9501 28.1748C14.1797 28.2542 14.4157 28.3335 14.6516 28.4124C14.7071 28.3695 14.7611 28.327 14.8142 28.2864C14.9449 28.1866 15.0624 28.0982 15.1961 27.9978C15.0102 27.8982 14.8281 27.802 14.6516 27.7096ZM18.1158 26.8481C17.5695 27.2854 17.1513 27.6152 16.8218 27.8736C16.8962 27.9156 16.971 27.9574 17.0455 28C17.1996 28.0882 17.3532 28.1776 17.5059 28.2668C17.9181 27.9235 18.3479 27.5661 18.7802 27.2065C18.686 27.0991 18.5934 26.9931 18.5038 26.89C18.4011 26.8623 18.2901 26.8336 18.1725 26.8024C18.1534 26.8177 18.1346 26.8331 18.1158 26.8481ZM29.4807 26.5595C29.389 26.6023 29.285 26.6429 29.1824 26.6607C29.1445 26.6672 29.0889 26.6743 29.0159 26.6685C29.0136 26.6683 29.0113 26.6674 29.0089 26.6672C28.8592 26.7707 28.6803 26.911 28.4518 27.0927C28.075 27.3922 27.749 27.651 27.4935 27.8596C27.597 27.9624 27.6969 28.0635 27.7934 28.1622C27.8824 28.0607 27.9803 27.9742 28.1082 27.8657C28.4879 27.5438 28.8131 27.2684 29.0573 27.0526C29.1794 26.9447 29.2767 26.8554 29.3481 26.7854C29.4281 26.707 29.4493 26.6778 29.4458 26.6833C29.4723 26.6418 29.4942 26.6063 29.5129 26.5757C29.5018 26.5701 29.4911 26.5646 29.4807 26.5595ZM13.3868 27.067C13.1096 27.2888 12.8515 27.4986 12.6178 27.69C12.7089 27.7246 12.8027 27.7603 12.8994 27.7964C13.1631 27.6232 13.4458 27.4379 13.7404 27.2427C13.6167 27.1807 13.4986 27.1219 13.3868 27.067ZM25.1968 26.9654C24.9944 27.2105 24.7842 27.474 24.576 27.7375C24.6068 27.7046 24.6372 27.6711 24.6684 27.6381C24.8643 27.4317 25.067 27.2279 25.2722 27.0295C25.2471 27.0082 25.2221 26.9867 25.1968 26.9654ZM20.3798 27.6652C20.3992 27.6487 20.4187 27.6319 20.4386 27.615C20.3711 27.5799 20.3059 27.546 20.2438 27.5143C20.2896 27.5656 20.3354 27.6156 20.3798 27.6652ZM23.9133 25.9282C23.4742 26.2817 23.0502 26.6237 22.6595 26.9406C22.9701 27.1872 23.2615 27.4166 23.5284 27.6242C23.8456 27.2176 24.188 26.7857 24.5075 26.3986C24.3102 26.2399 24.1113 26.0828 23.9133 25.9282ZM16.6113 26.3873C16.2405 26.641 15.8655 26.896 15.4952 27.145C15.6518 27.2285 15.8113 27.3147 15.973 27.4027C16.2541 27.1843 16.6136 26.9016 17.0969 26.5168C16.939 26.4749 16.7767 26.4316 16.6113 26.3873ZM12.4425 26.628C12.1335 26.897 11.9104 27.0726 11.7232 27.1786C11.6587 27.2151 11.598 27.2423 11.5405 27.2641C11.5815 27.281 11.6242 27.2977 11.6678 27.3155C11.7086 27.2817 11.7504 27.2469 11.7934 27.2113C12.0023 27.0387 12.2372 26.8476 12.4918 26.6419C12.4771 26.6353 12.4628 26.6286 12.4486 26.6223C12.4465 26.6241 12.4446 26.6262 12.4425 26.628ZM27.5689 26.1776C27.2693 26.4281 26.9399 26.7097 26.6033 27.0116C26.6855 27.0867 26.7663 27.1612 26.8457 27.2353C27.1198 27.0094 27.4841 26.7216 27.8963 26.3938C27.9226 26.373 27.949 26.3524 27.9748 26.3319C27.8489 26.2844 27.7117 26.2325 27.5689 26.1776ZM14.8687 25.906C14.6269 26.0916 14.3902 26.2751 14.1611 26.4545C14.2992 26.5237 14.4438 26.5972 14.594 26.6742C14.8849 26.4796 15.1813 26.2801 15.4782 26.0791C15.274 26.0222 15.0701 25.964 14.8687 25.906ZM10.6564 26.226C10.6542 26.244 10.6523 26.2708 10.6533 26.3075C10.6547 26.3582 10.6619 26.4168 10.6755 26.4793C10.7313 26.4793 10.7966 26.4735 10.877 26.4645C10.946 26.4567 11.0549 26.4428 11.1433 26.4414C11.1948 26.4406 11.2146 26.4404 11.2837 26.4013C11.3224 26.3793 11.3697 26.347 11.4315 26.3014C11.1626 26.254 10.9026 26.2243 10.6564 26.226ZM26.3408 25.6932C26.1614 25.8721 25.9759 26.0673 25.778 26.2879C25.8287 26.3307 25.8795 26.3732 25.9297 26.4161C26.1671 26.2016 26.4014 25.9981 26.6237 25.8079C26.5257 25.7688 26.431 25.7298 26.3408 25.6932ZM22.6172 25.1962C22.2938 25.4593 21.9384 25.7505 21.5634 26.0595C21.6927 26.1648 21.8207 26.2676 21.9462 26.369C22.3318 26.0558 22.7506 25.718 23.1853 25.368C23.0488 25.264 22.914 25.1621 22.782 25.0624C22.7281 25.1061 22.6732 25.1507 22.6172 25.1962ZM19.0331 26.1096C19.111 26.1312 19.1837 26.1522 19.2524 26.1719C19.1966 26.1372 19.1405 26.1028 19.0845 26.0682C19.0673 26.082 19.0502 26.0958 19.0331 26.1096ZM13.1811 25.9779C13.2099 25.9915 13.2394 26.0054 13.2696 26.0198C13.4464 25.88 13.6289 25.7368 13.8158 25.5912C13.768 25.5763 13.7207 25.5611 13.6737 25.5463C13.496 25.7006 13.332 25.8451 13.1811 25.9779ZM29.1236 24.9124C28.961 25.0566 28.7611 25.2169 28.535 25.3959C28.4819 25.438 28.4267 25.4816 28.3698 25.5267C28.4391 25.5527 28.504 25.5778 28.5638 25.5999C28.6967 25.649 28.7985 25.6847 28.8764 25.7115C29.0123 25.6493 29.16 25.6041 29.3163 25.6004C29.3344 25.5999 29.3525 25.6008 29.3703 25.6017C29.373 25.6001 29.3756 25.5985 29.3782 25.5969C29.3782 25.5938 29.3791 25.5906 29.3791 25.5873C29.3789 25.5504 29.3769 25.5098 29.3743 25.4565C29.375 25.4705 29.3725 25.4157 29.2823 25.2224C29.2431 25.1384 29.191 25.0365 29.1236 24.9124ZM24.6274 25.3532C24.781 25.474 24.9351 25.5961 25.0883 25.7194C25.2189 25.5731 25.3452 25.4371 25.468 25.3087C25.4237 25.2848 25.3815 25.2611 25.3416 25.2363C25.2292 25.1667 25.1376 25.0941 25.0477 25.0148C24.9074 25.1277 24.7672 25.2407 24.6274 25.3532ZM11.8784 24.9433C11.7396 25.0633 11.6094 25.177 11.4843 25.2947C11.4501 25.3269 11.4172 25.3586 11.3853 25.3894C11.576 25.4172 11.7621 25.4527 11.9399 25.4914C12.0452 25.5143 12.1517 25.5448 12.2729 25.5869C12.3975 25.4768 12.5363 25.3566 12.6867 25.2246C12.3938 25.1255 12.1234 25.0311 11.8784 24.9433ZM20.344 25.0502C20.5178 25.1961 20.6899 25.3407 20.8607 25.4822C21.2856 25.1318 21.6868 24.8015 22.0482 24.5074C21.8725 24.3751 21.7054 24.2502 21.5508 24.1324C21.5374 24.1222 21.5243 24.112 21.5111 24.1019C21.1171 24.423 20.7247 24.7415 20.344 25.0502ZM16.4879 24.6961C16.2452 24.8722 16.0021 25.0509 15.7611 25.2307C15.9907 25.2945 16.2205 25.3564 16.4469 25.4177C16.625 25.295 16.8009 25.1725 16.974 25.0519C16.8714 24.9546 16.7332 24.845 16.4879 24.6961ZM28.4627 23.9367C28.1446 24.1652 27.6003 24.5657 27.0667 25.0227C27.1774 25.0666 27.2909 25.1119 27.405 25.1565C27.6197 24.9826 27.8116 24.8299 27.9805 24.6961C28.2383 24.4919 28.4313 24.3378 28.5743 24.207C28.6024 24.1812 28.6288 24.1557 28.6545 24.132C28.6053 24.0617 28.5525 23.9885 28.4958 23.9136C28.4849 23.9211 28.4737 23.9287 28.4627 23.9367ZM15.3871 24.1041C15.0612 24.3699 14.7573 24.622 14.4763 24.8592C14.5455 24.8801 14.6151 24.9019 14.6856 24.9229C14.9926 24.6898 15.3057 24.4554 15.6203 24.224C15.5449 24.1847 15.4667 24.1451 15.3871 24.1041ZM24.0707 24.0335C23.896 24.1704 23.7072 24.3198 23.5005 24.4847C23.6321 24.5845 23.7662 24.6868 23.902 24.7908C24.071 24.6549 24.2408 24.5181 24.4108 24.3814C24.3939 24.3639 24.377 24.3464 24.3602 24.3291C24.2616 24.2271 24.1637 24.1269 24.0707 24.0335ZM27.6548 22.9043C27.0872 23.3696 26.4338 23.8972 25.7583 24.4415C25.7758 24.4537 25.7934 24.4658 25.812 24.4773C25.8887 24.5248 25.9872 24.5743 26.1464 24.6447C26.251 24.5492 26.3555 24.4566 26.4611 24.3657C27.0252 23.8804 27.5991 23.458 27.9308 23.2195C27.8406 23.1146 27.7478 23.0094 27.6548 22.9043ZM13.5926 23.3612C13.1958 23.7025 12.9235 23.9813 12.6326 24.2623C12.8909 24.3519 13.1708 24.4461 13.4697 24.5436C13.784 24.2741 14.1322 23.9796 14.5134 23.6651C14.2409 23.5319 13.9799 23.4077 13.7574 23.3102C13.7339 23.2999 13.7106 23.2903 13.6881 23.2805C13.6557 23.3078 13.6237 23.3344 13.5926 23.3612ZM20.6457 23.424C20.312 23.6969 19.9356 23.9962 19.4965 24.3299C19.548 24.3742 19.5998 24.418 19.6513 24.462C20.0211 24.1623 20.4034 23.8525 20.7883 23.5391C20.7389 23.4998 20.6919 23.461 20.6457 23.424ZM17.6367 23.8826C17.5601 23.9354 17.4837 23.9893 17.4065 24.043C17.5885 24.1459 17.7725 24.2497 17.9571 24.3561C17.9959 24.3282 18.0346 24.3008 18.0726 24.2732C18.0399 24.2443 18.0072 24.2155 17.9745 24.1865C17.861 24.0857 17.749 23.9835 17.6367 23.8826ZM22.8578 23.0011C22.6485 23.1729 22.4364 23.3467 22.2231 23.5212C22.3907 23.6482 22.5723 23.7848 22.7645 23.9293C22.9961 23.7437 23.2068 23.5765 23.4006 23.424C23.2255 23.2799 23.0452 23.1416 22.8578 23.0011ZM12.463 22.964C11.9813 22.9734 11.568 22.9884 11.2305 23.0137C10.9055 23.2105 10.6865 23.3373 10.5404 23.4126C10.5281 23.419 10.5157 23.4245 10.5038 23.4305C10.716 23.5369 11.0049 23.665 11.3993 23.815C11.4881 23.8488 11.5849 23.8838 11.6883 23.9223C11.74 23.876 11.7926 23.8302 11.8444 23.7819C12.0798 23.5623 12.3543 23.2798 12.6893 22.971C12.6149 22.9647 12.5414 22.9625 12.463 22.964ZM26.1747 22.4282C25.7095 22.786 25.3086 23.0805 24.7818 23.4828C24.8555 23.5577 24.9299 23.6337 25.0019 23.7082C25.0381 23.7456 25.0739 23.7824 25.1087 23.8185C25.7993 23.2623 26.4696 22.7217 27.0545 22.2425C26.9612 22.1438 26.869 22.0494 26.7776 21.956C26.5708 22.1193 26.3684 22.2792 26.1747 22.4282ZM19.3513 22.7294C19.0431 22.933 18.7242 23.145 18.3966 23.3655C18.4535 23.4164 18.5098 23.4682 18.567 23.519C18.6473 23.5903 18.7288 23.6604 18.8094 23.7313C19.2428 23.4051 19.6126 23.1142 19.9403 22.8485C19.8255 22.7536 19.7127 22.662 19.5964 22.5677C19.5155 22.621 19.4337 22.6751 19.3513 22.7294ZM16.7155 23.0438C16.5606 23.1652 16.407 23.286 16.256 23.4056C16.3498 23.4567 16.4449 23.5076 16.5402 23.56C16.6804 23.4608 16.8196 23.363 16.9579 23.267C16.8766 23.1924 16.7958 23.118 16.7155 23.0438ZM21.9593 22.3214C21.765 22.485 21.5626 22.6561 21.3446 22.8406C21.3935 22.8795 21.444 22.9199 21.4967 22.9614C21.706 22.7904 21.9144 22.6199 22.1206 22.4509C22.0668 22.4092 22.0133 22.3674 21.9593 22.3214ZM15.5728 21.9748C15.2143 22.1906 14.915 22.3814 14.659 22.5542C14.8961 22.6782 15.1442 22.8087 15.401 22.9453C15.6134 22.7756 15.8321 22.6026 16.0541 22.4282C15.8908 22.2749 15.73 22.1238 15.5728 21.9748ZM25.3546 20.9302C24.8455 21.3597 24.2309 21.8704 23.5672 22.4177C23.7544 22.561 23.9393 22.7081 24.1217 22.8637C24.7142 22.4093 25.1418 22.0959 25.6302 21.7201C25.7965 21.5922 25.9688 21.4559 26.1455 21.3169C25.9902 21.1601 25.8278 20.9944 25.6528 20.8107C25.6294 20.7861 25.6059 20.7612 25.5822 20.7361C25.5085 20.7986 25.4332 20.8639 25.3546 20.9302ZM28.3511 22.3296C28.3487 22.3316 28.346 22.3333 28.3436 22.3353C28.4841 22.4942 28.6267 22.6575 28.7644 22.8214C28.7704 22.82 28.7766 22.8185 28.7827 22.8171C28.9517 22.7786 29.1115 22.7664 29.2605 22.7643C29.2492 22.7549 29.2372 22.7459 29.2256 22.736C29.0575 22.5924 28.8493 22.3927 28.6 22.1191C28.52 22.1864 28.4377 22.2573 28.3511 22.3296ZM18.4672 21.6888C18.1283 21.9482 17.7798 22.2178 17.4305 22.4883C17.5242 22.5747 17.6183 22.6618 17.7134 22.7486C18.1084 22.4814 18.4908 22.2273 18.8561 21.9861C18.7255 21.8858 18.5948 21.7855 18.4672 21.6888ZM21.1859 21.5083C20.933 21.6814 20.6626 21.8633 20.3772 22.0524C20.4646 22.1242 20.5512 22.1946 20.6392 22.2673C20.8847 22.0601 21.1117 21.8684 21.3328 21.6818C21.3278 21.676 21.3226 21.6702 21.3176 21.6643C21.2753 21.6156 21.232 21.5627 21.1859 21.5083ZM29.9763 20.907C29.7976 21.0777 29.5712 21.2837 29.2792 21.5383C29.4985 21.7775 29.6736 21.9445 29.8054 22.0572C29.8961 22.1346 29.9639 22.1846 30.009 22.2145C30.0545 22.2052 30.1152 22.1894 30.2035 22.1644C30.2346 22.1556 30.2725 22.1274 30.302 22.0654C30.3023 22.0647 30.3044 22.0594 30.3068 22.048C30.3095 22.0353 30.3121 22.0165 30.3129 21.9905C30.3147 21.9369 30.3088 21.8645 30.2911 21.7716C30.2554 21.5841 30.1798 21.3547 30.0762 21.0984C30.0548 21.0456 30.021 20.9818 29.9763 20.907ZM13.1885 21.7916C13.3653 21.8829 13.5582 21.9825 13.7653 22.0894C14.0712 21.8678 14.4376 21.622 14.9027 21.3365C14.7684 21.2079 14.6375 21.082 14.5099 20.9594C14.045 21.2525 13.5981 21.5334 13.1885 21.7916ZM17.4422 20.9053C17.0746 21.1104 16.7124 21.3126 16.3745 21.5056C16.5029 21.6268 16.6339 21.7486 16.766 21.8723C17.0887 21.622 17.4119 21.3725 17.7278 21.1303C17.7074 21.1148 17.6873 21.0999 17.6681 21.0854C17.5859 21.0231 17.5114 20.963 17.4422 20.9053ZM24.9509 20.0495C24.5949 20.3236 24.1975 20.6101 23.7926 20.904C23.4216 21.1732 23.0416 21.4525 22.6669 21.7454C22.7059 21.7756 22.7449 21.806 22.7863 21.8366C22.8007 21.8472 22.8151 21.8578 22.8295 21.8684C23.5556 21.2703 24.2296 20.7115 24.7792 20.2478C24.8474 20.1902 24.9131 20.1333 24.9775 20.0787C24.9687 20.0689 24.9597 20.0593 24.9509 20.0495ZM27.7887 21.149C27.6869 21.2311 27.5834 21.3137 27.4796 21.3971C27.5674 21.4876 27.6559 21.5788 27.7442 21.6726C27.7557 21.663 27.7676 21.6538 27.7791 21.6443C27.8636 21.5737 27.9438 21.5048 28.0215 21.4394C27.9451 21.3453 27.8675 21.2477 27.7887 21.149ZM19.2027 21.1268C19.3496 21.2388 19.4987 21.3533 19.6443 21.4664C19.9909 21.2377 20.3148 21.0215 20.6139 20.8177C20.4825 20.6561 20.351 20.4949 20.2281 20.3433C19.9225 20.5772 19.5754 20.8425 19.2027 21.1268ZM24.1047 19.1671C23.9951 19.2939 23.8599 19.4197 23.6679 19.5917C23.3347 19.8902 22.7778 20.3671 21.9183 20.9921C21.9438 21.0219 21.9682 21.0517 21.9924 21.0797C22.003 21.0919 22.0136 21.1037 22.0238 21.1154C22.4433 20.784 22.8672 20.4724 23.2685 20.1811C23.6614 19.896 24.0279 19.6313 24.3567 19.3798C24.2791 19.2908 24.2057 19.2058 24.1374 19.1265C24.1266 19.1397 24.1163 19.1537 24.1047 19.1671ZM10.5443 17.9903C10.5425 17.9906 10.5407 17.9909 10.5391 17.9912C10.4306 18.0876 10.3315 18.1824 10.2583 18.2794C10.1775 18.3864 10.1661 18.4473 10.1668 18.4717C10.1758 18.7803 10.1877 18.9646 10.2291 19.1304C10.2675 19.2841 10.3374 19.4426 10.4959 19.6693C10.8985 20.2449 11.2104 20.6454 11.418 20.8142C11.4511 20.8411 11.4865 20.8691 11.5723 20.9227C11.9083 20.6459 12.4069 20.2469 13.2186 19.7216C13.1285 19.636 13.043 19.5542 12.9613 19.4775C12.4057 18.9554 12.054 18.6337 11.8126 18.4324C11.5652 18.2263 11.4723 18.1805 11.4306 18.166C11.1556 18.0711 10.9137 18.0118 10.7314 17.9925C10.6403 17.9829 10.5795 17.9848 10.5443 17.9903ZM15.2881 20.4689C15.4221 20.5975 15.5591 20.7296 15.6997 20.8639C16.0484 20.6625 16.4276 20.4492 16.8136 20.2335C16.7293 20.1156 16.6458 19.9875 16.555 19.8406C16.5304 19.8007 16.5068 19.7603 16.4835 19.7203C16.0861 19.9689 15.6838 20.22 15.2881 20.4689ZM28.9775 20.1894C28.8284 20.3094 28.6617 20.4439 28.4832 20.5883C28.5573 20.6811 28.6297 20.7716 28.7003 20.8587C29.0376 20.5641 29.2759 20.3452 29.4475 20.1777C29.3888 20.1055 29.3276 20.0327 29.2648 19.9605C29.1759 20.0315 29.0797 20.1072 28.9775 20.1894ZM26.6769 19.7905C26.5516 19.9015 26.4134 20.0224 26.261 20.1545C26.2738 20.168 26.2867 20.1817 26.2994 20.1951C26.4853 20.3903 26.668 20.5755 26.8491 20.7579C26.9771 20.6554 27.1049 20.5537 27.2302 20.4528C27.0632 20.2461 26.9002 20.0473 26.7463 19.8694C26.723 19.8425 26.6996 19.8164 26.6769 19.7905ZM19.6591 19.6549C19.2504 19.8936 18.7761 20.1596 18.2858 20.4331C18.341 20.4748 18.4008 20.5197 18.4641 20.5674C18.9017 20.2334 19.3085 19.9232 19.6591 19.6549ZM23.3566 18.0915C23.0369 18.2808 22.685 18.4966 22.4009 18.6883C21.9927 18.964 21.7356 19.1763 20.9348 19.7975C21.0679 19.9617 21.2086 20.1339 21.3472 20.3041C22.2053 19.6828 22.7523 19.2132 23.0719 18.9268C23.2667 18.7523 23.3618 18.6614 23.4294 18.5833C23.471 18.5351 23.5037 18.487 23.5475 18.4172C23.4732 18.3184 23.4343 18.2557 23.4028 18.1948C23.3913 18.1725 23.3732 18.1366 23.3566 18.0915ZM27.9657 18.5401C27.8403 18.6859 27.677 18.8666 27.337 19.1889C27.3648 19.2206 27.3933 19.2525 27.4216 19.2852C27.5838 19.4726 27.7538 19.6802 27.9247 19.8917C28.1018 19.7484 28.2681 19.6143 28.4182 19.4936C28.504 19.4246 28.5855 19.36 28.6623 19.2987C28.6207 19.2537 28.5803 19.2105 28.5424 19.1688C28.3155 18.9186 28.1469 18.6835 28.0219 18.473C28.0036 18.4946 27.9853 18.5173 27.9657 18.5401ZM18.455 18.4978C18.0716 18.7325 17.6624 18.9847 17.2408 19.2468C17.2645 19.2883 17.289 19.3298 17.3145 19.3711C17.4195 19.541 17.5073 19.6752 17.5987 19.7944C18.1016 19.5143 18.5899 19.2416 19.0169 18.9953C18.9916 18.9721 18.9662 18.9475 18.9389 18.9229C18.7957 18.7937 18.6273 18.6468 18.455 18.4978ZM26.0491 19.1195C25.927 19.2333 25.792 19.3553 25.6437 19.484C25.6477 19.4885 25.6518 19.493 25.6559 19.4975C25.8074 19.3663 25.9443 19.2468 26.0679 19.1374C26.0616 19.1314 26.0553 19.1255 26.0491 19.1195ZM30.1176 19.2939C30.0735 19.3272 30.0234 19.365 29.9672 19.4082C29.9857 19.4296 30.0039 19.4512 30.0221 19.4727C30.0661 19.399 30.0968 19.3409 30.1176 19.2939ZM24.6309 18.3308C24.7471 18.4675 24.8906 18.6336 25.0503 18.8165C25.1491 18.7309 25.2417 18.6481 25.3285 18.5689C25.1476 18.4548 25.0021 18.37 24.8825 18.3099C24.7966 18.2668 24.7337 18.2415 24.6889 18.2266C24.67 18.2608 24.6507 18.2956 24.6309 18.3308ZM28.9623 17.5696C28.804 17.5569 28.6857 17.5766 28.6039 17.615C28.619 17.6642 28.6424 17.7309 28.6802 17.8125C28.7668 17.9992 28.924 18.2605 29.2038 18.5689C29.2512 18.6212 29.3062 18.6802 29.366 18.7446C29.5244 18.6224 29.6421 18.5338 29.7283 18.4704C29.7003 18.4168 29.6733 18.3637 29.6463 18.3117C29.5889 18.2008 29.538 18.0974 29.4933 18.0065C29.4476 17.9136 29.4098 17.8371 29.3751 17.7715C29.3421 17.7089 29.3168 17.6673 29.298 17.6398C29.2818 17.6342 29.262 17.627 29.2383 17.6202C29.163 17.5987 29.0652 17.5779 28.9623 17.5696ZM27.02 18.2493C26.9166 18.3073 26.8067 18.387 26.6904 18.4978C26.7032 18.5102 26.716 18.5227 26.7288 18.5353C26.8489 18.4214 26.9433 18.3278 27.02 18.2493ZM22.0914 16.416C21.5656 16.6771 20.7113 17.1378 19.2567 18.0117C19.3558 18.0986 19.4509 18.1825 19.5371 18.2602C19.6413 18.3542 19.7324 18.4389 19.8165 18.5196C20.5905 18.0412 20.9843 17.7354 21.2469 17.5169C21.5795 17.2402 21.6898 17.1274 21.7636 17.0229C21.8628 16.8823 21.9817 16.6704 22.0914 16.416ZM16.8602 17.5038C16.771 17.5063 16.716 17.5217 16.6797 17.5409C16.6811 17.5602 16.6829 17.5832 16.6858 17.611C16.6889 17.6398 16.6934 17.6704 16.698 17.7026C16.824 17.6348 16.9425 17.5714 17.0516 17.5138C16.9839 17.5067 16.9204 17.5021 16.8602 17.5038Z" fill="black"/>
</svg>
