<svg width="40" height="40" viewBox="0 0 40 40" fill="none" xmlns="http://www.w3.org/2000/svg">
<path d="M18.3384 13.6132C19.7443 13.5292 21.2664 13.5125 22.8314 13.8184C23.2468 13.8996 23.64 14.011 23.989 14.1141C24.3549 14.2221 24.6578 14.3162 24.978 14.3975C25.5891 14.5527 26.138 14.6262 26.7453 14.5345C26.9858 14.4981 27.2514 14.4329 27.5797 14.346C27.884 14.2654 28.2663 14.1592 28.6375 14.0838C29.3526 13.9385 30.4281 13.8127 31.4128 14.4413C31.905 14.7556 32.0905 15.2041 32.1658 15.4159C32.1844 15.4681 32.1993 15.516 32.2088 15.5461C32.2175 15.5737 32.2218 15.5874 32.2255 15.599C32.8672 16.8254 33.3989 19.1258 32.0944 21.8814C31.4758 23.1882 31.5723 24.3496 31.8377 25.5479C31.8377 25.5478 31.8419 25.5658 31.8558 25.6062C31.8697 25.6467 31.8897 25.6993 31.9172 25.7662C31.9742 25.9044 32.0469 26.0638 32.1396 26.2661C32.3137 26.6462 32.551 27.1591 32.7254 27.6928C32.897 28.2177 33.0524 28.8892 32.9731 29.59C32.8868 30.3522 32.5268 31.0879 31.7979 31.6327C31.6129 31.771 30.1961 33.1996 28.2596 32.9775C27.8745 32.9333 27.5522 32.7861 27.3533 32.6873C27.1761 32.5992 26.9069 32.4474 26.7788 32.379C26.441 32.1988 26.1169 32.0559 25.7084 31.9993C23.9166 31.751 21.5338 31.5949 20.0009 31.7593C18.5286 31.9172 16.5035 32.1497 14.6875 32.3306C12.921 32.5067 11.178 32.6537 10.3288 32.6064C10.03 32.5897 9.68771 32.5097 9.38134 32.346C9.23121 32.2658 8.99847 32.1173 8.80548 31.861C8.5895 31.5741 8.40647 31.1153 8.53744 30.5795L8.64773 30.1604C8.77145 29.6633 8.89617 28.9396 8.66174 28.0526C8.54412 27.6075 8.45686 26.8591 8.38557 26.0659C8.31034 25.2289 8.24304 24.2119 8.18623 23.1521C8.07274 21.0349 8 18.7001 8 17.2137C8 16.9875 8.05549 16.7745 8.15142 16.5858C8.00967 16.0804 8.16013 15.5162 8.58581 15.1533C8.68572 15.0681 8.75864 14.9966 8.86786 14.8916C8.96734 14.7959 9.11899 14.6506 9.31038 14.5132L9.45095 14.4124L9.61142 14.3491C10.946 13.824 12.7337 13.7248 14.4389 13.8623C15.6957 13.8427 16.8825 13.7002 18.3384 13.6132ZM22.2985 16.5442C21.0752 16.3051 19.8264 16.307 18.5038 16.386C17.2516 16.4608 15.7646 16.6229 14.4213 16.64L14.3535 16.6409L14.2857 16.6355C12.8504 16.5131 11.6136 16.611 10.8224 16.8652C10.8134 16.8737 10.8036 16.883 10.793 16.8932C10.7797 16.9059 10.7649 16.9196 10.7491 16.9348C10.7675 17.0248 10.7772 17.1182 10.7772 17.2137C10.7772 18.6353 10.8475 20.9178 10.9593 23.0033C11.0151 24.0448 11.0807 25.0257 11.1519 25.8173C11.2269 26.6524 11.2993 27.1634 11.3467 27.3429C11.5943 28.2799 11.5977 29.1366 11.5266 29.8096C12.2659 29.7672 13.2703 29.6807 14.4122 29.5669C16.217 29.3871 18.1991 29.1593 19.7048 28.9978C21.5703 28.7977 24.214 28.9882 26.0899 29.2482C26.9663 29.3697 27.6243 29.6822 28.086 29.9285C28.3577 30.0735 28.4428 30.1275 28.5891 30.2002C28.6086 30.2099 28.6248 30.2164 28.637 30.2219C28.8518 30.2328 29.0611 30.1713 29.2987 30.0343C29.4317 29.9577 29.5618 29.864 29.6983 29.7568C29.7676 29.7024 29.8312 29.6502 29.9035 29.5913C29.969 29.538 30.0531 29.4698 30.1354 29.4082C30.2009 29.3593 30.2063 29.3422 30.2136 29.2776C30.2279 29.1515 30.2054 28.9219 30.0857 28.5557C29.9688 28.1981 29.801 27.8296 29.6147 27.4229C29.462 27.0896 29.223 26.5843 29.1265 26.1486C28.8024 24.6852 28.5848 22.8048 29.5844 20.693C30.4813 18.7984 30.0441 17.4068 29.7553 16.8683C29.7322 16.8253 29.712 16.7831 29.6938 16.7431C29.5842 16.7433 29.424 16.7581 29.1907 16.8055C28.9213 16.8602 28.6453 16.9367 28.2903 17.0306C27.9595 17.1182 27.5647 17.2195 27.1603 17.2806C26.0499 17.4483 25.0998 17.294 24.2941 17.0894C23.906 16.9908 23.521 16.872 23.2025 16.7779C22.8668 16.6788 22.5782 16.5989 22.2985 16.5442Z" fill="black"/>
<path d="M18.7605 7.6037C19.8058 7.52079 21.0009 7.58209 21.9631 7.7947C23.2455 8.07812 23.8997 9.07907 24.259 9.79237C24.4465 10.1645 24.6066 10.5654 24.7444 10.9133C24.8902 11.2812 25.0177 11.6064 25.1635 11.9196L25.2185 12.0377L25.2512 12.1621C25.4484 12.9148 25.6681 14.0682 25.8721 15.2569C26.0785 16.4602 26.271 17.7173 26.4668 18.9968C26.5827 19.7539 26.0566 20.4223 25.2919 20.4897C24.5271 20.557 23.8132 19.9977 23.6973 19.2404C23.5007 17.9558 23.312 16.7242 23.1106 15.5501C22.9176 14.4257 22.7247 13.4291 22.5664 12.7974C22.4038 12.4357 22.2623 12.076 22.1417 11.7717C21.9979 11.4088 21.8831 11.1264 21.7634 10.889C21.6433 10.6505 21.5563 10.5367 21.5071 10.4869C21.5027 10.4825 21.4991 10.479 21.4961 10.4763C20.8626 10.3385 19.9658 10.2838 19.1563 10.348C18.7529 10.38 18.4164 10.4382 18.173 10.5094C18.0268 10.5521 17.9553 10.5874 17.9313 10.5997C17.6052 10.9614 17.4917 11.1198 17.4496 11.2784C17.1554 12.3861 17.0752 13.6107 16.9994 14.9498C16.9538 15.7544 17.1679 17.2946 17.2759 17.9334C17.4037 18.6895 16.8891 19.3667 16.1263 19.446C15.3634 19.5251 14.6412 18.9761 14.5133 18.22C14.4098 17.6084 14.1373 15.7789 14.2024 14.6284C14.2761 13.3267 14.3631 11.8365 14.7363 10.4315C14.9643 9.57291 15.5396 8.97381 15.8246 8.65967C16.2244 8.21892 16.7883 7.99398 17.2239 7.86654C17.6992 7.7275 18.2335 7.64552 18.7605 7.6037Z" fill="black"/>
</svg>
