<svg width="39" height="40" viewBox="0 0 39 40" fill="none" xmlns="http://www.w3.org/2000/svg">
<path d="M18.3384 13.6152C19.7443 13.5312 21.2664 13.5145 22.8314 13.8204C23.2468 13.9016 23.64 14.013 23.989 14.116C24.3549 14.2241 24.6578 14.3181 24.978 14.3994C25.5891 14.5547 26.138 14.6281 26.7453 14.5364C26.9858 14.5001 27.2514 14.4348 27.5797 14.3479C27.884 14.2674 28.2663 14.1612 28.6375 14.0857C29.3526 13.9404 30.4281 13.8146 31.4128 14.4433C31.905 14.7576 32.0905 15.206 32.1658 15.4179C32.1844 15.4701 32.1993 15.518 32.2088 15.5481C32.2175 15.5756 32.2218 15.5894 32.2255 15.601C32.8672 16.8273 33.3989 19.1278 32.0944 21.8833C31.4758 23.1902 31.5723 24.3515 31.8377 25.5498C31.8377 25.5498 31.8419 25.5677 31.8558 25.6081C31.8697 25.6487 31.8897 25.7012 31.9172 25.7681C31.9742 25.9064 32.0469 26.0658 32.1396 26.2681C32.3137 26.6482 32.551 27.161 32.7254 27.6947C32.897 28.2197 33.0524 28.8912 32.9731 29.5919C32.8868 30.3542 32.5268 31.0899 31.7979 31.6347C31.6129 31.773 30.1961 33.2015 28.2596 32.9795C27.8745 32.9353 27.5522 32.7881 27.3533 32.6893C27.1761 32.6012 26.9069 32.4493 26.7788 32.381C26.441 32.2007 26.1169 32.0579 25.7084 32.0013C23.9166 31.7529 21.5338 31.5968 20.0009 31.7612C18.5286 31.9191 16.5035 32.1516 14.6875 32.3326C12.921 32.5086 11.178 32.6557 10.3288 32.6083C10.03 32.5917 9.68771 32.5117 9.38134 32.348C9.23121 32.2677 8.99847 32.1192 8.80548 31.8629C8.5895 31.576 8.40647 31.1173 8.53744 30.5814L8.64773 30.1624C8.77145 29.6653 8.89617 28.9415 8.66174 28.0545C8.54412 27.6094 8.45686 26.861 8.38557 26.0678C8.31034 25.2309 8.24304 24.2139 8.18623 23.154C8.07274 21.0368 8 18.702 8 17.2156C8 16.9894 8.05549 16.7765 8.15142 16.5878C8.00967 16.0823 8.16013 15.5181 8.58581 15.1553C8.68572 15.0701 8.75864 14.9986 8.86786 14.8935C8.96734 14.7978 9.11899 14.6526 9.31038 14.5152L9.45095 14.4144L9.61142 14.3511C10.946 13.8259 12.7337 13.7267 14.4389 13.8642C15.6957 13.8447 16.8825 13.7022 18.3384 13.6152ZM22.2985 16.5462C21.0752 16.3071 19.8264 16.3089 18.5038 16.388C17.2516 16.4628 15.7646 16.6248 14.4213 16.642L14.3535 16.6429L14.2857 16.6375C12.8504 16.5151 11.6136 16.613 10.8224 16.8671C10.8134 16.8756 10.8036 16.885 10.793 16.8951C10.7797 16.9079 10.7649 16.9215 10.7491 16.9367C10.7675 17.0268 10.7772 17.1201 10.7772 17.2156C10.7772 18.6373 10.8475 20.9198 10.9593 23.0053C11.0151 24.0468 11.0807 25.0277 11.1519 25.8192C11.2269 26.6543 11.2993 27.1653 11.3467 27.3448C11.5943 28.2818 11.5977 29.1385 11.5266 29.8116C12.2659 29.7692 13.2703 29.6826 14.4122 29.5689C16.217 29.389 18.1991 29.1612 19.7048 28.9997C21.5703 28.7997 24.214 28.9902 26.0899 29.2502C26.9663 29.3717 27.6243 29.6842 28.086 29.9305C28.3577 30.0754 28.4428 30.1295 28.5891 30.2022C28.6086 30.2119 28.6248 30.2183 28.637 30.2239C28.8518 30.2347 29.0611 30.1733 29.2987 30.0363C29.4317 29.9596 29.5618 29.8659 29.6983 29.7587C29.7676 29.7043 29.8312 29.6522 29.9035 29.5933C29.969 29.5399 30.0531 29.4717 30.1354 29.4102C30.2009 29.3612 30.2063 29.3442 30.2136 29.2795C30.2279 29.1535 30.2054 28.9238 30.0857 28.5576C29.9688 28.2001 29.801 27.8315 29.6147 27.4248C29.462 27.0916 29.223 26.5863 29.1265 26.1506C28.8024 24.6872 28.5848 22.8067 29.5844 20.6949C30.4813 18.8003 30.0441 17.4087 29.7553 16.8703C29.7322 16.8272 29.712 16.7851 29.6938 16.7451C29.5842 16.7452 29.424 16.7601 29.1907 16.8074C28.9213 16.8622 28.6453 16.9386 28.2903 17.0326C27.9595 17.1201 27.5647 17.2214 27.1603 17.2825C26.0499 17.4503 25.0998 17.296 24.2941 17.0913C23.906 16.9927 23.521 16.8739 23.2025 16.7799C22.8668 16.6808 22.5782 16.6009 22.2985 16.5462Z" fill="white"/>
<path d="M18.7615 7.60566C19.8067 7.52275 21.0019 7.58404 21.9641 7.79665C23.2465 8.08007 23.9007 9.08103 24.26 9.79432C24.4475 10.1664 24.6075 10.5674 24.7454 10.9152C24.8912 11.2832 25.0187 11.6084 25.1645 11.9216L25.2194 12.0396L25.2522 12.1641C25.4494 12.9168 25.6691 14.0701 25.873 15.2589C26.0795 16.4621 26.272 17.7192 26.4678 18.9987C26.5837 19.7559 26.0576 20.4243 25.2929 20.4917C24.5281 20.559 23.8142 19.9997 23.6983 19.2424C23.5017 17.9578 23.313 16.7261 23.1115 15.5521C22.9186 14.4277 22.7257 13.431 22.5674 12.7994C22.4048 12.4377 22.2633 12.078 22.1427 11.7736C21.9989 11.4108 21.884 11.1284 21.7644 10.8909C21.6443 10.6525 21.5573 10.5387 21.5081 10.4889C21.5037 10.4845 21.5001 10.481 21.4971 10.4782C20.8636 10.3405 19.9668 10.2857 19.1573 10.35C18.7539 10.382 18.4173 10.4402 18.174 10.5113C18.0278 10.5541 17.9562 10.5893 17.9323 10.6017C17.6062 10.9634 17.4927 11.1218 17.4506 11.2803C17.1564 12.3881 17.0762 13.6127 17.0004 14.9517C16.9548 15.7563 17.1688 17.2966 17.2769 17.9354C17.4047 18.6914 16.8901 19.3687 16.1273 19.4479C15.3644 19.5271 14.6421 18.978 14.5142 18.2219C14.4108 17.6103 14.1382 15.7808 14.2034 14.6304C14.2771 13.3287 14.3641 11.8385 14.7372 10.4335C14.9653 9.57486 15.5406 8.97576 15.8256 8.66162C16.2254 8.22087 16.7893 7.99593 17.2249 7.86849C17.7002 7.72946 18.2344 7.64747 18.7615 7.60566Z" fill="white"/>
</svg>
