<svg width="40" height="40" viewBox="0 0 40 40" fill="none" xmlns="http://www.w3.org/2000/svg">
<path d="M23.4377 20.179C24.1264 20.5347 24.6212 21.1199 24.8813 21.4454C25.1574 21.7909 25.5319 22.3385 25.5879 22.4143C25.7351 22.6136 25.9574 22.8667 26.258 23.197L27.3984 24.4445L27.4505 24.5032L27.4992 24.5653C27.7511 24.8937 27.9335 25.1436 28.2782 25.5322C28.5217 25.7897 28.8974 26.1648 29.3869 26.6265C30.1731 27.3682 30.2079 28.6048 29.464 29.3888C28.72 30.1726 27.4795 30.2072 26.6932 29.4657C26.1601 28.9628 25.7219 28.5268 25.4106 28.1966L25.374 28.1574C24.9361 27.6665 24.6679 27.3079 24.4434 27.0138C23.7185 26.213 22.8685 25.3242 22.4299 24.7299C22.3306 24.5954 22.1983 24.4046 22.1111 24.2812C22.0071 24.134 21.9103 24.0001 21.8147 23.8805C21.7353 23.7811 21.6706 23.7103 21.6225 23.6619C21.6141 23.6595 21.6048 23.6573 21.5947 23.6544C21.4335 23.6086 21.1482 23.5245 20.8279 23.3609C20.165 23.0224 19.4751 22.528 18.5944 21.7794C18.3269 21.552 18.1381 21.4205 17.7748 21.131C17.4883 20.9028 17.0718 20.5585 16.7407 20.1163C16.6798 20.035 16.5762 19.9261 16.275 19.6426C16.0007 19.3845 15.6191 19.0303 15.184 18.559C14.8145 18.1588 14.4429 17.6507 14.1539 17.2569C13.8281 16.8129 13.5759 16.4706 13.3546 16.2212C13.1379 15.977 12.9404 15.7385 12.7671 15.5289C12.5867 15.3107 12.441 15.1339 12.2987 14.9703C12.0612 14.6969 11.9154 14.5614 11.8257 14.4932C11.7878 14.4806 11.7572 14.4723 11.6375 14.4325C11.5636 14.4079 11.303 14.3241 11.0494 14.1755C10.9179 14.0984 10.6662 13.9354 10.4402 13.6492C10.184 13.3245 9.95883 12.8314 10.0064 12.2289C10.0395 11.8095 10.1848 11.4693 10.3401 11.2229C10.4163 11.1021 10.4946 11.0039 10.5634 10.9274C10.5863 10.9019 10.623 10.8644 10.6487 10.8383C11.4142 10.0752 12.6554 10.0753 13.4209 10.8383C13.4656 10.883 13.5073 10.9297 13.5468 10.9773C13.6313 11.0177 13.7225 11.0639 13.8141 11.1197C14.4325 11.4967 14.9108 12.0062 15.2632 12.4118C15.4451 12.6212 15.6291 12.8457 15.7924 13.0433C15.9629 13.2494 16.1233 13.4431 16.2913 13.6323C16.6593 14.0472 17.0296 14.5557 17.318 14.9487C17.6432 15.3919 17.8782 15.7066 18.0686 15.9128C18.3956 16.2671 18.6777 16.5294 18.966 16.8007C19.2273 17.0467 19.5855 17.381 19.8831 17.7784C19.8878 17.784 19.909 17.8086 19.9575 17.854C20.0194 17.9119 20.1036 17.9828 20.2222 18.0773C20.4059 18.2237 20.8245 18.539 21.1379 18.8053C21.907 19.4591 22.3303 19.7345 22.6025 19.8754C22.6122 19.8786 22.6333 19.8856 22.6709 19.8963C22.699 19.9043 22.8095 19.9351 22.8942 19.9611C22.9949 19.992 23.1382 20.0398 23.2969 20.1115L23.4377 20.179ZM13.4209 13.602C13.3347 13.6879 13.4441 13.5792 13.4825 13.5365C13.4918 13.5261 13.5006 13.5147 13.5102 13.5034C13.4813 13.5365 13.4525 13.5705 13.4209 13.602Z" fill="black"/>
<path d="M19.9907 23.396C19.6339 24.0825 19.0469 24.5758 18.7203 24.8351C18.3738 25.1103 17.8245 25.4837 17.7484 25.5395C17.5485 25.6862 17.2946 25.9078 16.9633 26.2075L15.7119 27.3444L15.653 27.3963L15.5908 27.4449C15.2613 27.696 15.0106 27.8778 14.6209 28.2215C14.3625 28.4642 13.9862 28.8387 13.5231 29.3267C12.7791 30.1105 11.5386 30.1451 10.7522 29.4036C9.96597 28.6619 9.93129 27.4253 10.6751 26.6413C11.1795 26.1099 11.6169 25.6731 11.9482 25.3627L11.9874 25.3263C12.4799 24.8897 12.8396 24.6224 13.1346 24.3986C13.9379 23.6759 14.8295 22.8286 15.4256 22.3913C15.5606 22.2923 15.7519 22.1604 15.8757 22.0735C16.0234 21.9698 16.1577 21.8733 16.2777 21.778C16.3774 21.6989 16.4484 21.6344 16.497 21.5864C16.4994 21.5781 16.5016 21.5687 16.5044 21.5587C16.5504 21.398 16.6348 21.1136 16.7989 20.7943C17.1384 20.1335 17.6344 19.4457 18.3853 18.5677C18.6134 18.301 18.7454 18.1129 19.0357 17.7507C19.2647 17.4651 19.61 17.0498 20.0536 16.7197C20.1352 16.659 20.2444 16.5558 20.5288 16.2555C20.7877 15.9821 21.143 15.6016 21.6157 15.1679C22.0172 14.7995 22.5269 14.4291 22.922 14.141C23.3673 13.8162 23.7106 13.5648 23.9609 13.3442C24.2058 13.1281 24.445 12.9312 24.6553 12.7585C24.8742 12.5787 25.0515 12.4334 25.2157 12.2916C25.4899 12.0548 25.6258 11.9095 25.6942 11.82C25.7068 11.7822 25.7152 11.7517 25.7551 11.6324C25.7798 11.5587 25.8638 11.299 26.013 11.0461C26.0902 10.915 26.2538 10.6641 26.5409 10.4389C26.8666 10.1834 27.3612 9.95896 27.9656 10.0064C28.3863 10.0394 28.7276 10.1842 28.9747 10.339C29.0959 10.415 29.1944 10.4931 29.2711 10.5617C29.2967 10.5845 29.3343 10.6211 29.3605 10.6467C30.126 11.4098 30.1259 12.6471 29.3605 13.4103C29.3157 13.4549 29.2688 13.4964 29.221 13.5358C29.1806 13.6201 29.1342 13.711 29.0782 13.8023C28.7001 14.4188 28.189 14.8955 27.7821 15.2468C27.572 15.4282 27.3469 15.6116 27.1486 15.7745C26.9419 15.9443 26.7476 16.1043 26.5578 16.2717C26.1417 16.6386 25.6315 17.0078 25.2373 17.2952C24.7928 17.6195 24.477 17.8537 24.2702 18.0435C23.9148 18.3695 23.6517 18.6507 23.3795 18.9382C23.1328 19.1987 22.7975 19.5557 22.3988 19.8524C22.3932 19.8571 22.3685 19.8782 22.323 19.9266C22.2649 19.9883 22.1937 20.0722 22.099 20.1904C21.9521 20.3736 21.6358 20.7909 21.3687 21.1033C20.7129 21.87 20.4366 22.292 20.2953 22.5634C20.2921 22.573 20.285 22.5941 20.2743 22.6315C20.2663 22.6596 20.2354 22.7698 20.2093 22.8542C20.1783 22.9546 20.1303 23.0974 20.0584 23.2556L19.9907 23.396ZM26.5882 13.4103C26.502 13.3243 26.6111 13.4334 26.6539 13.4717C26.6643 13.481 26.6758 13.4897 26.6871 13.4993C26.654 13.4705 26.6198 13.4417 26.5882 13.4103Z" fill="black"/>
</svg>
