<svg width="42" height="60" viewBox="0 0 42 60" fill="none" xmlns="http://www.w3.org/2000/svg">
<path d="M3.58584 3.50396C3.5818 3.50988 3.50569 3.59453 3.54787 3.84836C3.61544 4.255 4.55504 4.80532 5.16398 5.49885C6.5691 7.09913 7.97 9.63448 9.73036 12.3832C11.079 14.4891 12.7356 17.5716 14.0035 19.511C15.729 22.1506 16.8986 23.5993 17.7586 25.065C18.5721 26.4515 19.8542 27.9336 21.0972 29.6102C22.8754 32.0087 24.0193 33.395 24.9344 34.3508C25.5069 34.9487 25.9494 35.2014 26.3692 35.6154C27.5268 36.7568 29.024 39.5807 29.8311 40.9663C30.7242 42.4994 32.3702 44.9612 34.2531 47.8747C34.8421 48.8662 35.4004 49.8261 36.3568 51.3154C36.9812 52.2601 37.8879 53.5885 39.0156 55.194" stroke="black" stroke-width="6" stroke-linecap="round"/>
<path d="M2.39211 55.5937C2.55042 55.2607 2.83033 54.6934 3.27737 53.9722C3.79538 53.1365 4.43499 52.7983 5.16748 51.8734C6.12244 50.6676 6.91677 49.2018 7.59362 47.9194C8.52875 46.1476 11.8113 40.9839 16.7102 33.8752C21.2304 27.3159 22.504 26.0218 23.732 24.2092C25.0419 22.2758 26.6645 19.6293 27.6827 18.0733C29.0361 16.0052 32.4388 10.8739 35.0697 6.95163C35.5372 6.34254 35.9482 5.88244 36.3765 5.36367C36.8047 4.8449 37.2377 4.28139 37.6838 3.70081" stroke="black" stroke-width="6" stroke-linecap="round"/>
</svg>
