<svg width="1440" height="18" viewBox="0 0 1440 18" fill="none" xmlns="http://www.w3.org/2000/svg">
  <path
    d="M-10 9.2
       C-2 7.1, 8 10.8, 19 8.2
       C30 5.7, 40 12.1, 52 8.8
       C65 6.1, 73 10.9, 88 7.4
       C102 4.9, 113 12.4, 128 8.7
       C145 5.8, 158 11.6, 174 7.5
       C190 4.7, 204 12.7, 222 9.1
       C237 6.2, 251 10.3, 269 7.2
       C286 5.0, 299 12.2, 318 8.4
       C334 5.5, 352 11.8, 371 7.8
       C389 4.6, 405 12.6, 424 9.0
       C442 6.0, 458 10.5, 479 7.0
       C498 4.9, 513 12.4, 536 8.6
       C555 5.8, 573 11.3, 593 7.5
       C613 4.8, 631 12.8, 652 9.3
       C672 6.3, 690 10.7, 711 7.1
       C734 4.7, 750 12.2, 773 8.5
       C794 5.4, 813 11.9, 836 7.6
       C858 4.5, 878 12.7, 901 9.0
       C923 5.9, 944 10.4, 969 7.2
       C991 4.8, 1011 12.6, 1035 8.3
       C1058 5.3, 1078 11.5, 1104 7.7
       C1127 4.6, 1149 12.9, 1174 9.1
       C1198 5.7, 1219 10.8, 1246 7.0
       C1269 4.9, 1292 12.3, 1318 8.6
       C1342 5.2, 1364 11.8, 1390 7.5
       C1412 4.8, 1428 12.0, 1450 8.2"
    stroke="black"
    stroke-width="1.25"
    fill="none"
    stroke-linecap="round"
    stroke-linejoin="round"
    vector-effect="non-scaling-stroke"
  />
</svg>
