<svg width="20" height="20" viewBox="0 0 20 20" fill="none" xmlns="http://www.w3.org/2000/svg">
<path d="M13.4377 10.179C14.1264 10.5347 14.6212 11.1199 14.8813 11.4454C15.1574 11.7909 15.5319 12.3385 15.5879 12.4143C15.7351 12.6136 15.9574 12.8667 16.258 13.197L17.3984 14.4445L17.4505 14.5032L17.4992 14.5653C17.7511 14.8937 17.9335 15.1436 18.2782 15.5322C18.5217 15.7897 18.8974 16.1648 19.3869 16.6265C20.1731 17.3682 20.2079 18.6048 19.464 19.3888C18.72 20.1726 17.4795 20.2072 16.6932 19.4657C16.1601 18.9628 15.7219 18.5268 15.4106 18.1966L15.374 18.1574C14.9361 17.6665 14.6679 17.3079 14.4434 17.0138C13.7185 16.213 12.8685 15.3242 12.4299 14.7299C12.3306 14.5954 12.1983 14.4046 12.1111 14.2812C12.0071 14.134 11.9103 14.0001 11.8147 13.8805C11.7353 13.7811 11.6706 13.7103 11.6225 13.6619C11.6141 13.6595 11.6048 13.6573 11.5947 13.6544C11.4335 13.6086 11.1482 13.5245 10.8279 13.3609C10.165 13.0224 9.47514 12.528 8.59444 11.7794C8.32688 11.552 8.13815 11.4205 7.77482 11.131C7.48834 10.9028 7.0718 10.5585 6.74065 10.1163C6.67979 10.035 6.57624 9.92611 6.27501 9.64262C6.00068 9.38446 5.61905 9.03033 5.18399 8.55904C4.81449 8.15877 4.44287 7.65066 4.15388 7.25685C3.82811 6.81291 3.57592 6.47064 3.35457 6.22117C3.13789 5.97696 2.94037 5.73852 2.7671 5.52892C2.58672 5.31072 2.44095 5.13394 2.29875 4.97026C2.06118 4.69686 1.91543 4.56138 1.82566 4.49324C1.7878 4.48062 1.7572 4.47233 1.6375 4.43252C1.5636 4.40794 1.30305 4.32411 1.04936 4.17546C0.917895 4.09843 0.666182 3.93537 0.440226 3.64918C0.183977 3.3245 -0.0411657 2.83144 0.00639019 2.22892C0.0395073 1.80952 0.184803 1.46928 0.340058 1.22293C0.416271 1.10205 0.49462 1.0039 0.563405 0.92741C0.586309 0.901949 0.623014 0.864395 0.648683 0.838348C1.41418 0.0752283 2.65537 0.0752865 3.4209 0.838348C3.46564 0.88295 3.50727 0.929686 3.54679 0.977338C3.63135 1.01767 3.72251 1.06387 3.81413 1.1197C4.43253 1.49669 4.9108 2.0062 5.26318 2.41177C5.44515 2.62122 5.62908 2.84569 5.79244 3.0433C5.96286 3.24944 6.12334 3.44308 6.29125 3.63232C6.65929 4.04716 7.02961 4.55572 7.31797 4.94867C7.64319 5.39185 7.87818 5.70661 8.06856 5.91283C8.39558 6.26709 8.67768 6.52941 8.96601 6.80075C9.22731 7.04667 9.58551 7.38097 9.88308 7.7784C9.8878 7.78398 9.90901 7.80855 9.95753 7.85397C10.0194 7.91187 10.1036 7.98281 10.2222 8.0773C10.4059 8.22369 10.8245 8.53898 11.1379 8.80531C11.907 9.45906 12.3303 9.73454 12.6025 9.8754C12.6122 9.87859 12.6333 9.88563 12.6709 9.89631C12.699 9.90431 12.8095 9.93507 12.8942 9.96108C12.9949 9.99204 13.1382 10.0398 13.2969 10.1115L13.4377 10.179ZM3.4209 3.60195C3.33467 3.68792 3.4441 3.57919 3.48249 3.53651C3.49183 3.52612 3.50061 3.5147 3.51024 3.50345C3.48128 3.53646 3.45246 3.57049 3.4209 3.60195Z" fill="black"/>
<path d="M9.9907 13.396C9.6339 14.0825 9.04688 14.5758 8.72032 14.8351C8.37376 15.1103 7.82453 15.4837 7.74842 15.5395C7.5485 15.6862 7.29462 15.9078 6.96332 16.2075L5.7119 17.3444L5.65302 17.3963L5.59075 17.4449C5.26131 17.696 5.01061 17.8778 4.62088 18.2215C4.36251 18.4642 3.98625 18.8387 3.5231 19.3267C2.77908 20.1105 1.53862 20.1451 0.752235 19.4036C-0.0340327 18.6619 -0.0687106 17.4253 0.675079 16.6413C1.17952 16.1099 1.61693 15.6731 1.94816 15.3627L1.98741 15.3263C2.47989 14.8897 2.83959 14.6224 3.13461 14.3986C3.93793 13.6759 4.82951 12.8286 5.42561 12.3913C5.56058 12.2923 5.7519 12.1604 5.87569 12.0735C6.02343 11.9698 6.15775 11.8733 6.27772 11.778C6.37741 11.6989 6.44838 11.6344 6.497 11.5864C6.49937 11.5781 6.50159 11.5687 6.50445 11.5587C6.55045 11.398 6.63481 11.1136 6.79886 10.7943C7.13843 10.1335 7.63435 9.44572 8.3853 8.56775C8.61344 8.30102 8.74537 8.11287 9.03572 7.75068C9.26466 7.46508 9.60999 7.04984 10.0536 6.71972C10.1352 6.65904 10.2444 6.55582 10.5288 6.25552C10.7877 5.98205 11.143 5.6016 11.6157 5.16789C12.0172 4.79954 12.5269 4.42908 12.922 4.14099C13.3673 3.81622 13.7106 3.56482 13.9609 3.34415C14.2058 3.12814 14.445 2.93124 14.6553 2.75851C14.8742 2.57869 15.0515 2.43337 15.2157 2.29161C15.4899 2.05478 15.6258 1.90948 15.6942 1.81999C15.7068 1.78225 15.7152 1.75174 15.7551 1.63242C15.7798 1.55874 15.8638 1.299 16.013 1.0461C16.0902 0.915045 16.2538 0.664114 16.5409 0.438859C16.8666 0.183406 17.3612 -0.0410379 17.9656 0.00637035C18.3863 0.0393846 18.7276 0.184229 18.9747 0.339002C19.0959 0.414978 19.1944 0.493084 19.2711 0.561655C19.2967 0.584488 19.3343 0.621079 19.3605 0.646669C20.126 1.40979 20.1259 2.64712 19.3605 3.41028C19.3157 3.45488 19.2688 3.49638 19.221 3.53577C19.1806 3.62007 19.1342 3.71095 19.0782 3.80228C18.7001 4.41876 18.189 4.89555 17.7821 5.24683C17.572 5.42824 17.3469 5.6116 17.1486 5.77445C16.9419 5.94434 16.7476 6.10432 16.5578 6.27172C16.1417 6.63861 15.6315 7.00778 15.2373 7.29525C14.7928 7.61946 14.477 7.85372 14.2702 8.0435C13.9148 8.36951 13.6517 8.65073 13.3795 8.93816C13.1328 9.19866 12.7975 9.55575 12.3988 9.85239C12.3932 9.8571 12.3685 9.87824 12.323 9.92661C12.2649 9.9883 12.1937 10.0722 12.099 10.1904C11.9521 10.3736 11.6358 10.7909 11.3687 11.1033C10.7129 11.87 10.4366 12.292 10.2953 12.5634C10.2921 12.573 10.285 12.5941 10.2743 12.6315C10.2663 12.6596 10.2354 12.7698 10.2093 12.8542C10.1783 12.9546 10.1303 13.0974 10.0584 13.2556L9.9907 13.396ZM16.5882 3.41028C16.502 3.32432 16.6111 3.4334 16.6539 3.47167C16.6643 3.48099 16.6758 3.48974 16.6871 3.49934C16.6539 3.47047 16.6198 3.44174 16.5882 3.41028Z" fill="black"/>
</svg>
