<svg width="27" height="5" viewBox="0 0 27 5" fill="none" xmlns="http://www.w3.org/2000/svg">
<path d="M15.9863 0.171432C16.7406 -0.0680048 17.5211 -0.00151317 17.9443 0.0464317C18.3935 0.0973187 19.06 0.223334 19.1553 0.237838C19.4057 0.275907 19.7492 0.298704 20.2051 0.320846L21.9307 0.400924L22.0107 0.405807L22.0908 0.415572C22.5102 0.471522 22.8227 0.520827 23.3525 0.553268C23.7146 0.563995 24.2571 0.564433 24.9443 0.545455C26.0484 0.514959 26.9683 1.38484 26.999 2.48881C27.0295 3.59282 26.1596 4.51277 25.0557 4.5435C24.3071 4.56418 23.6755 4.5647 23.2119 4.55034L23.1572 4.54838C22.486 4.50905 22.033 4.44303 21.6582 4.39213C20.5557 4.33557 19.2992 4.30555 18.5527 4.19194C18.3837 4.16621 18.1502 4.12362 17.998 4.09721C17.8164 4.06569 17.6496 4.03866 17.4941 4.02104C17.3649 4.0064 17.2671 4.00186 17.1973 4.00151C17.1895 4.00583 17.1812 4.01099 17.1719 4.01616C17.0224 4.09929 16.7557 4.24428 16.4062 4.35698C15.683 4.59024 14.8275 4.73017 13.6504 4.82378C13.2928 4.85221 13.0614 4.8932 12.5898 4.94585C12.218 4.98736 11.6684 5.03873 11.1094 4.95756C11.0066 4.94264 10.8531 4.93857 10.4307 4.95073C10.0459 4.9618 9.51432 4.98086 8.85938 4.95366C8.30313 4.93056 7.66732 4.83095 7.17383 4.75444C6.61752 4.66819 6.18788 4.60243 5.84766 4.58159C5.5146 4.56118 5.19954 4.53112 4.92285 4.50444C4.63481 4.47666 4.4017 4.45389 4.18066 4.43803C3.81141 4.41157 3.60822 4.41867 3.49414 4.43413C3.4577 4.4523 3.42962 4.46838 3.31445 4.52592C3.24334 4.56145 2.9947 4.68876 2.7041 4.7642C2.55351 4.8033 2.25391 4.86689 1.88379 4.8228C1.46395 4.7727 0.944698 4.5783 0.542969 4.10795C0.263342 3.78054 0.121934 3.42949 0.0556641 3.13921C0.0231685 2.99674 0.00866102 2.86919 0.00292969 2.76421C0.00102808 2.72926 0.000330886 2.6756 0 2.63823C0 1.5337 0.895489 0.638297 2 0.638229C2.06456 0.638229 2.12842 0.642014 2.19141 0.647994C2.2816 0.616176 2.38081 0.583838 2.4873 0.55815C3.20627 0.384832 3.92004 0.408512 4.46777 0.447799C4.75064 0.468096 5.04578 0.49784 5.30664 0.522994C5.57877 0.549234 5.83468 0.573588 6.09277 0.5894C6.65851 0.624096 7.29372 0.724973 7.78613 0.801315C8.34148 0.887412 8.7388 0.945664 9.02539 0.957565C9.51769 0.978007 9.91105 0.964324 10.3154 0.952682C10.6819 0.94213 11.1823 0.92564 11.6846 0.99858C11.692 0.999209 11.7251 1.0017 11.793 0.999557C11.8795 0.996818 11.9916 0.987439 12.1455 0.97026C12.384 0.943633 12.9142 0.86979 13.333 0.836471C14.361 0.754724 14.8657 0.648721 15.1641 0.554244C15.1734 0.549573 15.1937 0.539425 15.2285 0.520065C15.2546 0.505531 15.3566 0.448067 15.4365 0.405807C15.5316 0.355548 15.6695 0.286756 15.8359 0.224166L15.9863 0.171432ZM4 2.63823C4 2.76265 4.00026 2.60501 3.99707 2.54643C3.99629 2.53217 3.99436 2.51757 3.99316 2.50249C3.99616 2.54727 4 2.59269 4 2.63823Z" fill="black"/>
</svg>
