<svg width="40" height="30" viewBox="0 0 40 30" fill="none" xmlns="http://www.w3.org/2000/svg">
  <path
    d="
    M14.5 3.4
    C13.2 3.8 11.5 3.6 9.8 4.5
    C8.2 5.3 6.6 6.8 5.6 8.7
    C4.7 10.3 3.8 12.7 3.9 14.6
    C4.0 16.4 4.5 18.1 5.1 19.7
    C5.9 21.8 7.2 23.6 9.0 24.7
    C10.7 25.7 12.6 26.6 14.9 26.2

    C16.2 26.0 17.6 26.5 19.0 26.4
    C20.3 26.3 21.5 26.0 22.9 26.6
    C24.2 27.1 25.8 26.4 27.2 26.0

    C29.1 25.4 30.9 24.8 32.3 23.5
    C33.7 22.2 35.1 20.6 35.8 18.7
    C36.6 16.8 37.0 14.9 36.6 12.9
    C36.2 11.1 35.3 9.0 34.3 7.6
    C33.1 5.9 31.6 4.8 29.7 4.1
    C27.9 3.5 25.9 3.2 23.8 3.4

    C22.4 3.5 21.0 3.1 19.5 3.2
    C18.0 3.3 16.3 3.0 14.5 3.4
    Z"
    stroke="black"
    stroke-width="0.706038"
    fill="none"
    stroke-linecap="round"
    stroke-linejoin="round"
  />
</svg>