<svg width="273" height="456" viewBox="-4 -18 281 495" fill="none" xmlns="http://www.w3.org/2000/svg">
  <path
    d="M39 -14
       C22 -12, 8 -6, 3 12
       C-1 31, 4 48, 2 67
       C0 93, 6 111, 4 139
       C2 168, 1 196, 4 224
       C7 255, 2 282, 6 309
       C9 334, 4 363, 8 389
       C11 420, 7 440, 17 456
       C27 472, 43 475, 62 473
       C92 471, 116 476, 148 474
       C181 472, 208 477, 239 472
       C257 469, 267 455, 269 434
       C272 407, 266 387, 268 357
       C270 329, 264 300, 267 270
       C270 236, 264 210, 266 180
       C268 160, 267 146, 269 139
       C267 111, 273 93, 271 67
       C269 48, 274 31, 270 12
       C265 -6, 251 -12, 234 -14
       C198 -18, 160 -12, 122 -13
       C91 -16, 66 -18, 39 -14Z"
    stroke="black"
    stroke-width="1.2"
    fill="none"
    stroke-linecap="round"
    stroke-linejoin="round"
    vector-effect="non-scaling-stroke"
  />
</svg>
