<svg width="35" height="33" viewBox="0 0 35 33" fill="none" xmlns="http://www.w3.org/2000/svg">
<path d="M5.75169 3.06643C5.74886 3.06939 5.69559 3.11172 5.72511 3.23863C5.77241 3.44196 6.43013 3.71711 6.85639 4.06388C7.83997 4.86402 8.8206 6.13169 10.0529 7.50608C10.9969 8.55899 12.1566 10.1003 13.044 11.07C14.2519 12.3898 15.0706 13.1141 15.6726 13.8469C16.2421 14.5402 17.1395 15.2813 18.0096 16.1195C19.2544 17.3188 20.0551 18.012 20.6957 18.4899C21.0964 18.7888 21.4062 18.9152 21.7 19.1221C22.5104 19.6929 23.5584 21.1048 24.1234 21.7976C24.7485 22.5642 25.9008 23.7951 27.2188 25.2518C27.6311 25.7476 28.0219 26.2275 28.6914 26.9722C29.1284 27.4445 29.7631 28.1087 30.5525 28.9115" stroke="black" stroke-width="6" stroke-linecap="round"/>
<path d="M4.91603 29.1113C5.02685 28.9448 5.22279 28.6612 5.53571 28.3006C5.89832 27.8827 6.34605 27.7136 6.85879 27.2512C7.52726 26.6483 8.0833 25.9154 8.55709 25.2741C9.21168 24.3882 11.5095 21.8064 14.9387 18.2521C18.1029 14.9724 18.9944 14.3253 19.854 13.419C20.7709 12.4523 21.9067 11.1291 22.6195 10.3511C23.5668 9.31704 25.9487 6.75138 27.7904 4.79027C28.1176 4.48572 28.4053 4.25567 28.7051 3.99629C29.0048 3.7369 29.3079 3.45515 29.6202 3.16486" stroke="black" stroke-width="6" stroke-linecap="round"/>
<mask id="mask0_78_437" style="mask-type:alpha" maskUnits="userSpaceOnUse" x="1" y="0" width="32" height="33">
<path d="M4.8558 4.00348C4.84586 4.01388 4.67484 4.17943 4.5891 4.42697C4.45174 4.82354 5.60545 4.57964 6.15094 4.80162C7.40966 5.31384 8.10045 6.88482 9.23088 8.36577C10.0969 9.50032 10.8632 11.4532 11.7015 12.4744C12.8424 13.8643 13.8202 14.4222 14.2987 15.2842C14.7514 16.0997 15.8867 16.5919 16.8435 17.3393C18.2124 18.4087 19.1871 18.9199 20.0587 19.156C20.604 19.3037 21.1512 19.1815 21.5658 19.2621C22.709 19.4845 23.3787 21.2923 23.8218 22.1127C24.312 23.0204 25.4342 24.2828 26.6592 25.8368C26.9944 26.4134 27.3 26.9824 27.9166 27.7824C28.3357 28.2736 28.9704 28.9377 29.7879 29.7111" stroke="black" stroke-width="6" stroke-linecap="round"/>
<path d="M5.2456 29.4567C5.31284 29.2446 5.44103 28.8901 5.7254 28.4996C6.05491 28.0471 6.76085 28.1482 7.33753 27.7527C8.08937 27.237 8.51517 26.3678 8.86359 25.5954C9.34498 24.5282 11.49 21.7865 14.9488 18.2632C18.1404 15.0122 19.2784 14.6231 20.1322 13.7107C21.043 12.7376 22.0627 11.2929 22.7478 10.4859C23.6584 9.41339 25.9774 6.7819 27.7899 4.79027C28.1498 4.51994 28.4988 4.35399 28.8454 4.14362C29.192 3.93325 29.5256 3.68349 29.8694 3.42616" stroke="black" stroke-width="6" stroke-linecap="round"/>
</mask>
<g mask="url(#mask0_78_437)">
</g>
</svg>
