<svg width="27" height="27" viewBox="0 0 27 27" fill="none" xmlns="http://www.w3.org/2000/svg">
<path d="M15.9863 11.1714C16.7406 10.932 17.5211 10.9985 17.9443 11.0464C18.3935 11.0973 19.06 11.2233 19.1553 11.2378C19.4057 11.2759 19.7492 11.2987 20.2051 11.3208L21.9307 11.4009L22.0107 11.4058L22.0908 11.4156C22.5102 11.4715 22.8227 11.5208 23.3525 11.5533C23.7146 11.564 24.2571 11.5644 24.9443 11.5455C26.0484 11.515 26.9683 12.3848 26.999 13.4888C27.0295 14.5928 26.1596 15.5128 25.0557 15.5435C24.3071 15.5642 23.6755 15.5647 23.2119 15.5503L23.1572 15.5484C22.486 15.509 22.033 15.443 21.6582 15.3921C20.5557 15.3356 19.2992 15.3055 18.5527 15.1919C18.3837 15.1662 18.1502 15.1236 17.998 15.0972C17.8164 15.0657 17.6496 15.0387 17.4941 15.021C17.3649 15.0064 17.2671 15.0019 17.1973 15.0015C17.1895 15.0058 17.1812 15.011 17.1719 15.0162C17.0224 15.0993 16.7557 15.2443 16.4062 15.357C15.683 15.5902 14.8275 15.7302 13.6504 15.8238C13.2928 15.8522 13.0614 15.8932 12.5898 15.9458C12.218 15.9874 11.6684 16.0387 11.1094 15.9576C11.0066 15.9426 10.8531 15.9386 10.4307 15.9507C10.0459 15.9618 9.51432 15.9809 8.85938 15.9537C8.30313 15.9306 7.66732 15.8309 7.17383 15.7544C6.61752 15.6682 6.18788 15.6024 5.84766 15.5816C5.5146 15.5612 5.19954 15.5311 4.92285 15.5044C4.63481 15.4767 4.4017 15.4539 4.18066 15.438C3.81141 15.4116 3.60822 15.4187 3.49414 15.4341C3.4577 15.4523 3.42962 15.4684 3.31445 15.5259C3.24334 15.5615 2.9947 15.6888 2.7041 15.7642C2.55351 15.8033 2.25391 15.8669 1.88379 15.8228C1.46395 15.7727 0.944698 15.5783 0.542969 15.108C0.263342 14.7805 0.121934 14.4295 0.0556641 14.1392C0.0231685 13.9967 0.00866102 13.8692 0.00292969 13.7642C0.00102808 13.7293 0.000330886 13.6756 0 13.6382C0 12.5337 0.895489 11.6383 2 11.6382C2.06456 11.6382 2.12842 11.642 2.19141 11.648C2.2816 11.6162 2.38081 11.5838 2.4873 11.5582C3.20627 11.3848 3.92004 11.4085 4.46777 11.4478C4.75064 11.4681 5.04578 11.4978 5.30664 11.523C5.57877 11.5492 5.83468 11.5736 6.09277 11.5894C6.65851 11.6241 7.29372 11.725 7.78613 11.8013C8.34148 11.8874 8.7388 11.9457 9.02539 11.9576C9.51769 11.978 9.91105 11.9643 10.3154 11.9527C10.6819 11.9421 11.1823 11.9256 11.6846 11.9986C11.692 11.9992 11.7251 12.0017 11.793 11.9996C11.8795 11.9968 11.9916 11.9874 12.1455 11.9703C12.384 11.9436 12.9142 11.8698 13.333 11.8365C14.361 11.7547 14.8657 11.6487 15.1641 11.5542C15.1734 11.5496 15.1937 11.5394 15.2285 11.5201C15.2546 11.5055 15.3566 11.4481 15.4365 11.4058C15.5316 11.3555 15.6695 11.2868 15.8359 11.2242L15.9863 11.1714ZM4 13.6382C4 13.7626 4.00026 13.605 3.99707 13.5464C3.99629 13.5322 3.99436 13.5176 3.99316 13.5025C3.99616 13.5473 4 13.5927 4 13.6382Z" fill="black"/>
<path d="M15.8276 15.9863C16.067 16.7406 16.0005 17.5211 15.9526 17.9443C15.9017 18.3935 15.7757 19.06 15.7612 19.1553C15.7231 19.4057 15.7003 19.7492 15.6782 20.2051L15.5981 21.9307L15.5932 22.0107L15.5835 22.0908C15.5275 22.5102 15.4782 22.8227 15.4458 23.3525C15.435 23.7146 15.4346 24.2571 15.4536 24.9443C15.4841 26.0484 14.6142 26.9683 13.5102 26.999C12.4062 27.0295 11.4863 26.1596 11.4555 25.0557C11.4348 24.3071 11.4343 23.6755 11.4487 23.2119L11.4506 23.1572C11.49 22.486 11.556 22.033 11.6069 21.6582C11.6635 20.5557 11.6935 19.2992 11.8071 18.5527C11.8328 18.3837 11.8754 18.1502 11.9018 17.998C11.9333 17.8164 11.9604 17.6496 11.978 17.4941C11.9926 17.3649 11.9972 17.2671 11.9975 17.1973C11.9932 17.1895 11.988 17.1812 11.9829 17.1719C11.8997 17.0224 11.7547 16.7557 11.642 16.4062C11.4088 15.683 11.2689 14.8275 11.1752 13.6504C11.1468 13.2928 11.1058 13.0614 11.0532 12.5898C11.0117 12.218 10.9603 11.6684 11.0415 11.1094C11.0564 11.0066 11.0605 10.8531 11.0483 10.4307C11.0372 10.0459 11.0182 9.51432 11.0454 8.85938C11.0685 8.30313 11.1681 7.66732 11.2446 7.17383C11.3308 6.61752 11.3966 6.18788 11.4174 5.84766C11.4378 5.5146 11.4679 5.19954 11.4946 4.92285C11.5224 4.63481 11.5451 4.4017 11.561 4.18066C11.5875 3.81141 11.5804 3.60822 11.5649 3.49414C11.5467 3.4577 11.5306 3.42962 11.4731 3.31445C11.4376 3.24334 11.3103 2.9947 11.2348 2.7041C11.1957 2.55351 11.1321 2.25391 11.1762 1.88379C11.2263 1.46395 11.4207 0.944698 11.8911 0.542969C12.2185 0.263342 12.5695 0.121934 12.8598 0.0556641C13.0023 0.0231685 13.1298 0.00866102 13.2348 0.00292969C13.2698 0.00102808 13.3234 0.000330886 13.3608 0C14.4653 0 15.3607 0.895489 15.3608 2C15.3608 2.06456 15.357 2.12842 15.351 2.19141C15.3828 2.2816 15.4152 2.38081 15.4409 2.4873C15.6142 3.20627 15.5905 3.92004 15.5512 4.46777C15.5309 4.75064 15.5012 5.04578 15.476 5.30664C15.4498 5.57877 15.4254 5.83468 15.4096 6.09277C15.3749 6.65851 15.2741 7.29372 15.1977 7.78613C15.1116 8.34148 15.0534 8.7388 15.0415 9.02539C15.021 9.51769 15.0347 9.91105 15.0463 10.3154C15.0569 10.6819 15.0734 11.1823 15.0004 11.6846C14.9998 11.692 14.9973 11.7251 14.9995 11.793C15.0022 11.8795 15.0116 11.9916 15.0288 12.1455C15.0554 12.384 15.1292 12.9142 15.1626 13.333C15.2443 14.361 15.3503 14.8657 15.4448 15.1641C15.4495 15.1734 15.4596 15.1937 15.479 15.2285C15.4935 15.2546 15.551 15.3566 15.5932 15.4365C15.6435 15.5316 15.7123 15.6695 15.7749 15.8359L15.8276 15.9863ZM13.3608 4C13.2364 4 13.394 4.00026 13.4526 3.99707C13.4668 3.99629 13.4815 3.99436 13.4965 3.99316C13.4518 3.99616 13.4063 4 13.3608 4Z" fill="black"/>
</svg>
