<svg width="700" height="300" viewBox="0 0 700 300" preserveAspectRatio="none" fill="none" xmlns="http://www.w3.org/2000/svg">
  <path
    d="M30 4 C16 5 8 13 4 29 C2 75 5 121 4 168 C3 216 6 270 19 290 C30 304 54 296 79 298 C154 300 225 296 300 298 C378 300 448 296 526 298 C589 300 647 297 676 291 C694 284 698 267 696 246 C693 197 698 150 696 101 C694 58 701 27 688 13 C676 2 656 6 632 4 C560 7 493 2 421 6 C349 8 278 2 207 6 C135 8 72 2 30 4Z"
    stroke="black"
    stroke-width="2.2"
    stroke-linecap="round"
    stroke-linejoin="round"
  />
</svg>
