<svg width="311" height="173" viewBox="0 0 311 173" fill="none" xmlns="http://www.w3.org/2000/svg">
<path d="M1.02307 83.1953C4.08898 83.8266 7.1549 84.4578 11.9747 85.3566C16.7945 86.2553 23.2752 87.4025 30.9667 88.0715C38.6581 88.7405 47.3639 88.8966 56.3335 89.0575" stroke="black" stroke-opacity="0.65" stroke-width="2" stroke-linecap="round"/>
<path d="M56.6508 89.3483C56.6561 89.3494 56.6093 89.4369 56.5014 89.597C56.3771 89.7268 56.1574 89.8725 55.023 90.3204C54.0404 90.6811 52.2318 91.3124 50.2946 91.9688" stroke="black" stroke-opacity="0.65" stroke-width="2" stroke-linecap="round"/>
<path d="M56.6359 88.8728C56.6332 88.8723 56.6305 88.8717 55.8082 88.6933C54.9859 88.5148 53.344 88.1586 52.0935 87.773C50.843 87.3875 50.0337 86.9835 49.1439 86.5088" stroke="black" stroke-opacity="0.65" stroke-width="2" stroke-linecap="round"/>
<path d="M309.875 82.1953C306.809 82.8266 303.743 83.4578 298.923 84.3566C294.103 85.2553 287.623 86.4025 279.931 87.0715C272.24 87.7405 263.534 87.8966 254.564 88.0575" stroke="black" stroke-opacity="0.65" stroke-width="2" stroke-linecap="round"/>
<path d="M254.247 88.3483C254.242 88.3494 254.288 88.4369 254.396 88.597C254.521 88.7268 254.74 88.8725 255.875 89.3204C256.857 89.6811 258.666 90.3124 260.603 90.9688" stroke="black" stroke-opacity="0.65" stroke-width="2" stroke-linecap="round"/>
<path d="M254.262 87.8728C254.264 87.8723 254.267 87.8717 255.089 87.6933C255.912 87.5148 257.554 87.1586 258.804 86.773C260.055 86.3875 260.864 85.9835 261.754 85.5088" stroke="black" stroke-opacity="0.65" stroke-width="2" stroke-linecap="round"/>
<path d="M261.282 170.432C261.275 170.424 261.178 170.369 260.255 168.876C259.379 167.461 257.859 164.602 257.025 163.054C255.934 161.031 255.991 160.217 256.085 159.459C256.135 159.289 256.211 159.144 256.311 159.02C256.41 158.896 256.531 158.797 256.656 158.695" stroke="black" stroke-width="2" stroke-linecap="round"/>
<path d="M260.55 171.017C260.404 171.001 259.572 170.667 257.403 169.073C256.648 168.518 255.936 168.158 253.975 167.148C252.103 166.184 250.242 166.681 249.634 166.862C249.498 166.923 249.382 166.994 249.282 167.065C249.183 167.136 249.104 167.206 249.023 167.279" stroke="black" stroke-width="2" stroke-linecap="round"/>
<path d="M59.0231 168.982C59.0317 168.975 59.1425 168.919 60.1991 167.392C61.2007 165.945 62.9398 163.022 63.8949 161.439C65.1433 159.37 65.0773 158.538 64.9703 157.763C64.9131 157.589 64.826 157.441 64.7118 157.314C64.5977 157.187 64.4592 157.086 64.3166 156.982" stroke="black" stroke-width="2" stroke-linecap="round"/>
<path d="M59.0231 168.982C59.1748 168.968 60.0404 168.668 62.2992 167.233C63.0847 166.734 63.8257 166.41 65.8676 165.501C67.8168 164.633 69.7546 165.081 70.3869 165.243C70.5287 165.298 70.6498 165.362 70.7532 165.426C70.8565 165.49 70.9386 165.553 71.0231 165.618" stroke="black" stroke-width="2" stroke-linecap="round"/>
<path d="M259.282 3.584C259.275 3.5915 259.178 3.64624 258.255 5.1394C257.379 6.55483 255.859 9.4138 255.025 10.9618C253.934 12.9851 253.991 13.7987 254.085 14.5566C254.135 14.7266 254.211 14.8719 254.311 14.996C254.41 15.1201 254.531 15.2187 254.656 15.3203" stroke="black" stroke-width="2" stroke-linecap="round"/>
<path d="M258.55 3.00054C258.404 3.01619 257.572 3.35026 255.403 4.94467C254.648 5.49916 253.936 5.85951 251.975 6.86944C250.103 7.83352 248.242 7.33621 247.634 7.15598C247.498 7.09431 247.382 7.02397 247.282 6.95263C247.183 6.8813 247.104 6.8111 247.023 6.73878" stroke="black" stroke-width="2" stroke-linecap="round"/>
<path d="M57.0231 1C57.0317 1.00767 57.1425 1.06364 58.1991 2.59034C59.2007 4.03758 60.9398 6.96078 61.8949 8.54353C63.1433 10.6123 63.0773 11.4442 62.9703 12.2191C62.9131 12.393 62.826 12.5415 62.7118 12.6684C62.5977 12.7953 62.4592 12.8961 62.3166 13" stroke="black" stroke-width="2" stroke-linecap="round"/>
<path d="M57.0231 1C57.1748 1.01409 58.0404 1.31473 60.2992 2.74959C61.0847 3.24859 61.8257 3.57288 63.8676 4.48176C65.8168 5.34936 67.7546 4.90182 68.3869 4.73962C68.5287 4.68412 68.6498 4.62082 68.7532 4.55662C68.8565 4.49242 68.9386 4.42925 69.0231 4.36417" stroke="black" stroke-width="2" stroke-linecap="round"/>
</svg>
