<svg width="34" height="49" viewBox="0 0 34 49" fill="none" xmlns="http://www.w3.org/2000/svg">
<path d="M1.00195 45.7976C2.55047 43.1833 4.09898 40.569 6.59287 36.5254C9.08676 32.4818 12.4791 27.0881 16.9456 21.1763C21.4121 15.2646 26.8499 8.99825 32.4525 2.54202" stroke="black" stroke-opacity="0.65" stroke-width="2" stroke-linecap="round"/>
<path d="M32.4672 2.11406C32.4699 2.10949 32.3845 2.08069 32.214 2.04385C32.0524 2.03991 31.82 2.09223 30.8136 2.57765C29.9593 3.01741 28.4074 3.84989 26.7578 4.75562" stroke="black" stroke-opacity="0.65" stroke-width="2" stroke-linecap="round"/>
<path d="M32.7597 2.46138C32.7584 2.46367 32.757 2.46596 32.3475 3.1736C31.9379 3.88124 31.1203 5.29416 30.5701 6.45101C30.02 7.60786 29.7622 8.46583 29.4982 9.43063" stroke="black" stroke-opacity="0.65" stroke-width="2" stroke-linecap="round"/>
</svg>
