<svg width="38" height="49" viewBox="0 0 38 49" fill="none" xmlns="http://www.w3.org/2000/svg">
<path d="M36.3477 45.7976C34.6261 43.1833 32.9045 40.569 30.1319 36.5254C27.3594 32.4818 23.5879 27.0881 18.6223 21.1763C13.6567 15.2646 7.61115 8.99825 1.38242 2.54202" stroke="black" stroke-opacity="0.65" stroke-width="2" stroke-linecap="round"/>
<path d="M1.36542 2.11406C1.36241 2.10949 1.45737 2.08069 1.64691 2.04385C1.82658 2.03991 2.08496 2.09223 3.20386 2.57765C4.15364 3.01741 5.87894 3.84989 7.71289 4.75562" stroke="black" stroke-opacity="0.65" stroke-width="2" stroke-linecap="round"/>
<path d="M1.04032 2.46138C1.04182 2.46367 1.04333 2.46596 1.49863 3.1736C1.95393 3.88124 2.86298 5.29416 3.4746 6.45101C4.08621 7.60786 4.37285 8.46583 4.6663 9.43063" stroke="black" stroke-opacity="0.65" stroke-width="2" stroke-linecap="round"/>
</svg>
