<svg width="236" height="131" viewBox="0 0 236 131" fill="none" xmlns="http://www.w3.org/2000/svg">
<path d="M0.551813 63.7583C0.141974 63.6739 -0.0904807 63.2811 0.0327521 62.8813C0.155985 62.4814 0.588338 62.2255 0.998177 62.3099C3.31979 62.7879 5.63727 63.2654 9.28179 63.945C12.9264 64.6246 17.8068 65.4884 23.5955 65.9919C29.3904 66.496 35.9572 66.6141 42.76 66.7361C43.1857 66.7437 43.4952 67.0811 43.4513 67.4898C43.4072 67.8982 43.0268 68.2225 42.6012 68.2149C35.8126 68.0932 29.1875 67.9749 23.3277 67.4652C17.4618 66.9549 12.5221 66.0804 8.86345 65.3982C5.2046 64.7159 2.87595 64.2368 0.551813 63.7583Z" fill="black"/>
<path d="M42.5752 68.3831C42.5824 68.3859 42.5895 68.3889 42.597 68.3915C42.5896 68.3889 42.5824 68.3859 42.5752 68.3831ZM42.4328 68.3071C42.4624 68.3277 42.495 68.3462 42.5305 68.363C42.496 68.3466 42.4632 68.3282 42.4328 68.3071ZM42.3257 68.2156C42.3538 68.2459 42.3865 68.2746 42.4234 68.3012C42.3877 68.2757 42.3551 68.2469 42.3257 68.2156ZM42.2524 68.1201C42.2693 68.1465 42.289 68.1729 42.3115 68.1988C42.2898 68.174 42.2701 68.1477 42.2524 68.1201ZM42.1537 67.8527C42.1586 67.8877 42.1655 67.9266 42.1785 67.967C42.1793 67.9695 42.1804 67.9719 42.1813 67.9745C42.1681 67.9353 42.1596 67.8944 42.1537 67.8527ZM42.1491 67.7058C42.1472 67.7314 42.1459 67.7704 42.1501 67.8182C42.1469 67.7813 42.1463 67.7439 42.1491 67.7058ZM42.1498 67.6871L42.1492 67.689C42.1495 67.6864 42.1503 67.6839 42.1506 67.6813C42.1504 67.6833 42.15 67.6852 42.1498 67.6871ZM42.1744 67.5612C42.1722 67.5691 42.1696 67.5779 42.1673 67.5875C42.1694 67.5787 42.1719 67.57 42.1744 67.5612ZM43.1443 66.9719C43.4686 67.0387 43.6146 67.2727 43.6638 67.4252C43.7056 67.555 43.6964 67.6659 43.6925 67.705C43.6835 67.7936 43.6598 67.8625 43.6545 67.8778C43.638 67.9251 43.6194 67.9625 43.6135 67.9746C43.5972 68.0077 43.5798 68.0388 43.5662 68.0621C43.5365 68.1129 43.4974 68.1752 43.4493 68.2465L43.4097 68.3058L43.359 68.3579C43.2229 68.5 43.0667 68.6051 42.8548 68.7136C42.6546 68.816 42.3657 68.9414 41.9312 69.1129L41.9208 69.1168L41.9117 69.1199C41.1571 69.3968 39.7783 69.8777 38.3083 70.3758C37.8954 70.5156 37.4703 70.3179 37.3581 69.934C37.246 69.5501 37.4895 69.126 37.9025 68.9861C39.3549 68.494 40.7057 68.022 41.4445 67.7513L41.9437 67.5474C42.0679 67.4937 42.1546 67.4528 42.2153 67.4217C42.2218 67.4184 42.2272 67.4143 42.2328 67.4114C42.4006 67.0887 42.7814 66.8971 43.1443 66.9719Z" fill="black"/>
<path d="M36.8143 66.1975C36.4548 66.0056 36.3515 65.558 36.5835 65.1972C36.8155 64.8364 37.2948 64.6989 37.6545 64.8907C38.3109 65.241 38.8782 65.5236 39.7618 65.796C40.6732 66.077 41.8853 66.3404 42.515 66.477C42.8262 66.5445 42.9828 66.5784 43.0613 66.5955C43.1003 66.6039 43.1199 66.6084 43.1299 66.6106L43.1376 66.6121L43.2082 66.6307C43.5711 66.7447 43.7684 67.1134 43.6528 67.4884C43.5372 67.8634 43.1498 68.1117 42.7641 68.0716L42.6874 68.0598C42.6801 68.0583 42.6703 68.0562 42.0524 67.9221C41.436 67.7883 40.1593 67.5119 39.1759 67.2087C38.1647 66.897 37.506 66.5665 36.8143 66.1975Z" fill="black"/>
<path d="M234.999 63.0005C235.409 62.9161 235.641 62.5233 235.518 62.1235C235.395 61.7236 234.962 61.4677 234.553 61.5521C232.231 62.0301 229.914 62.5076 226.269 63.1872C222.624 63.8668 217.744 64.7306 211.955 65.2341C206.16 65.7381 199.594 65.8562 192.791 65.9782C192.365 65.9859 192.056 66.3233 192.099 66.7319C192.144 67.1404 192.524 67.4647 192.95 67.4571C199.738 67.3353 206.363 67.217 212.223 66.7073C218.089 66.1971 223.029 65.3226 226.687 64.6403C230.346 63.9581 232.675 63.479 234.999 63.0005Z" fill="black"/>
<path d="M192.976 67.6253C192.968 67.6281 192.961 67.6311 192.954 67.6337C192.961 67.6311 192.968 67.6281 192.976 67.6253ZM193.118 67.5493C193.088 67.5699 193.056 67.5884 193.02 67.6052C193.055 67.5888 193.088 67.5704 193.118 67.5493ZM193.225 67.4578C193.197 67.4881 193.164 67.5168 193.127 67.5434C193.163 67.5178 193.196 67.4891 193.225 67.4578ZM193.298 67.3623C193.281 67.3887 193.262 67.4151 193.239 67.441C193.261 67.4162 193.281 67.3899 193.298 67.3623ZM193.397 67.0949C193.392 67.1299 193.385 67.1688 193.372 67.2091C193.371 67.2117 193.37 67.2141 193.369 67.2167C193.383 67.1775 193.391 67.1366 193.397 67.0949ZM193.402 66.948C193.404 66.9736 193.405 67.0126 193.401 67.0604C193.404 67.0235 193.404 66.9861 193.402 66.948ZM193.401 66.9293L193.402 66.9312C193.401 66.9286 193.4 66.9261 193.4 66.9235C193.4 66.9254 193.401 66.9274 193.401 66.9293ZM193.376 66.8034C193.379 66.8113 193.381 66.82 193.383 66.8297C193.381 66.8209 193.379 66.8122 193.376 66.8034ZM192.406 66.2141C192.082 66.2809 191.936 66.5149 191.887 66.6674C191.845 66.7972 191.854 66.9081 191.858 66.9472C191.867 67.0358 191.891 67.1047 191.896 67.12C191.913 67.1672 191.931 67.2047 191.937 67.2168C191.954 67.2498 191.971 67.281 191.985 67.3043C192.014 67.3551 192.053 67.4174 192.101 67.4887L192.141 67.548L192.192 67.6001C192.328 67.7422 192.484 67.8473 192.696 67.9558C192.896 68.0582 193.185 68.1835 193.62 68.3551L193.63 68.359L193.639 68.362C194.394 68.639 195.772 69.1199 197.242 69.618C197.655 69.7578 198.08 69.5601 198.193 69.1762C198.305 68.7922 198.061 68.3682 197.648 68.2283C196.196 67.7362 194.845 67.2642 194.106 66.9935L193.607 66.7896C193.483 66.7359 193.396 66.695 193.335 66.6639C193.329 66.6606 193.324 66.6565 193.318 66.6536C193.15 66.3309 192.769 66.1393 192.406 66.2141Z" fill="black"/>
<path d="M198.736 65.4397C199.096 65.2478 199.199 64.8002 198.967 64.4394C198.735 64.0786 198.256 63.9411 197.896 64.1329C197.24 64.4832 196.673 64.7658 195.789 65.0382C194.878 65.3192 193.665 65.5826 193.036 65.7192C192.725 65.7867 192.568 65.8206 192.489 65.8376C192.45 65.8461 192.431 65.8506 192.421 65.8528L192.413 65.8543L192.343 65.8728C191.98 65.9869 191.782 66.3556 191.898 66.7306C192.014 67.1056 192.401 67.3539 192.787 67.3138L192.863 67.302C192.871 67.3005 192.88 67.2984 193.498 67.1643C194.115 67.0305 195.391 66.7541 196.375 66.4509C197.386 66.1392 198.045 65.8087 198.736 65.4397Z" fill="black"/>
<path d="M193.976 119.649C194.301 119.385 194.777 119.433 195.042 119.757C195.306 120.082 195.258 120.558 194.933 120.823C194.829 120.908 194.801 120.935 194.784 120.957C194.778 120.964 194.772 120.972 194.765 120.985C194.74 121.208 194.73 121.399 194.784 121.668C194.847 121.986 195.008 122.45 195.401 123.178C196.042 124.367 197.178 126.504 197.826 127.551C198.173 128.113 198.357 128.392 198.452 128.527C198.488 128.578 198.506 128.603 198.513 128.612C198.791 128.909 198.785 129.374 198.496 129.664C198.2 129.959 197.72 129.959 197.424 129.664C197.447 129.686 197.503 129.735 197.46 129.697C197.447 129.686 197.433 129.673 197.42 129.66C197.394 129.634 197.372 129.609 197.352 129.585C197.314 129.54 197.268 129.479 197.21 129.395C197.091 129.225 196.889 128.918 196.537 128.348C195.858 127.251 194.691 125.055 194.067 123.898C193.633 123.094 193.402 122.483 193.299 121.965C193.191 121.43 193.231 121.038 193.27 120.722L193.278 120.661L193.295 120.601C193.359 120.382 193.462 120.182 193.602 120.007C193.736 119.841 193.892 119.718 193.976 119.649ZM198.463 128.561C198.461 128.559 198.459 128.557 198.457 128.555C198.455 128.554 198.453 128.552 198.452 128.551C198.453 128.552 198.457 128.556 198.463 128.561Z" fill="black"/>
<path d="M188.919 125.698C189.412 125.551 191.074 125.094 192.77 125.967C194.232 126.72 194.837 127.025 195.469 127.489C196.276 128.082 196.819 128.429 197.164 128.627C197.336 128.725 197.452 128.783 197.522 128.814C197.542 128.823 197.557 128.828 197.567 128.832C197.94 128.913 198.199 129.265 198.158 129.653C198.113 130.069 197.74 130.37 197.324 130.326C197.168 130.309 197.012 130.245 196.911 130.2C196.78 130.142 196.615 130.059 196.411 129.942C196.002 129.708 195.409 129.325 194.572 128.71C194.061 128.334 193.586 128.093 192.077 127.315C190.982 126.751 189.871 127.001 189.406 127.134C189.37 127.153 189.339 127.173 189.31 127.193C189.271 127.221 189.239 127.249 189.175 127.305C188.863 127.584 188.384 127.556 188.106 127.244C187.828 126.931 187.855 126.453 188.168 126.174C188.227 126.121 188.315 126.043 188.426 125.963C188.538 125.883 188.669 125.803 188.822 125.734L188.87 125.713L188.919 125.698Z" fill="black"/>
<path d="M49.176 118.327C48.8378 118.081 48.3638 118.155 48.1174 118.493C47.8711 118.831 47.9453 119.305 48.2834 119.552C48.4031 119.639 48.4417 119.67 48.466 119.697C48.473 119.705 48.4795 119.713 48.4855 119.723C48.5131 119.943 48.5216 120.129 48.4631 120.39C48.3919 120.708 48.2107 121.179 47.7609 121.925C47.0273 123.14 45.7277 125.324 44.9865 126.395C44.5893 126.969 44.3781 127.255 44.2697 127.393C44.2432 127.427 44.224 127.451 44.2111 127.467C44.2002 127.48 44.1944 127.485 44.1935 127.486C43.9016 127.767 43.8813 128.231 44.1535 128.536C44.4294 128.845 44.9018 128.874 45.2141 128.604C45.2188 128.6 45.2237 128.596 45.2287 128.592C45.2561 128.567 45.281 128.543 45.3029 128.519C45.3454 128.474 45.397 128.413 45.4641 128.327C45.5994 128.154 45.8298 127.84 46.2326 127.258C47.009 126.136 48.3451 123.89 49.0588 122.707C49.5545 121.885 49.8215 121.258 49.9416 120.721C50.0665 120.164 50.0207 119.754 49.9758 119.428L49.966 119.359L49.9445 119.294C49.8686 119.063 49.7492 118.858 49.592 118.683C49.4436 118.519 49.2723 118.397 49.176 118.327Z" fill="black"/>
<path d="M53.5167 124.464C53.0082 124.333 51.3218 123.932 49.5967 124.7C48.0734 125.378 47.4488 125.65 46.795 126.065C45.9546 126.599 45.3868 126.914 45.0255 127.092C44.8448 127.182 44.7209 127.234 44.6446 127.263C44.6104 127.276 44.5896 127.282 44.5811 127.285C44.1995 127.355 43.9283 127.706 43.9649 128.1C44.0036 128.517 44.3725 128.824 44.7891 128.785C44.9303 128.772 45.0776 128.72 45.1846 128.679C45.3172 128.629 45.486 128.554 45.6973 128.45C46.1204 128.24 46.7367 127.898 47.6075 127.344C48.1438 127.004 48.6424 126.784 50.213 126.085C51.3989 125.557 52.6044 125.798 53.0909 125.919C53.1351 125.938 53.1731 125.959 53.2061 125.979C53.248 126.005 53.2831 126.031 53.3487 126.082C53.6802 126.337 54.1559 126.275 54.4112 125.944C54.6665 125.612 54.604 125.137 54.2725 124.881C54.2101 124.833 54.1206 124.763 54.0059 124.692C53.8915 124.621 53.7583 124.552 53.6046 124.492L53.5616 124.474L53.5167 124.464Z" fill="black"/>
<path d="M192.461 12.1948C192.785 12.4591 193.262 12.4107 193.526 12.0864C193.79 11.7621 193.742 11.2854 193.418 11.021C193.313 10.9357 193.286 10.9087 193.268 10.8872C193.263 10.8802 193.256 10.8715 193.25 10.8589C193.224 10.6359 193.214 10.4443 193.268 10.1753C193.332 9.85747 193.493 9.39383 193.885 8.66552C194.527 7.47661 195.662 5.33992 196.31 4.29247C196.657 3.73108 196.842 3.45199 196.936 3.31689C196.972 3.2658 196.991 3.24083 196.998 3.23193C197.275 2.93491 197.27 2.46979 196.98 2.18017C196.684 1.88431 196.205 1.88444 195.909 2.18017C195.931 2.15786 195.988 2.10893 195.944 2.14696C195.932 2.15781 195.918 2.17029 195.904 2.18407C195.878 2.20943 195.856 2.23482 195.837 2.25829C195.799 2.30405 195.753 2.3648 195.694 2.44872C195.575 2.61854 195.373 2.92613 195.021 3.4956C194.343 4.59288 193.175 6.78902 192.551 7.94579C192.118 8.75015 191.886 9.36124 191.783 9.87841C191.676 10.4135 191.716 10.8054 191.755 11.1216L191.762 11.1831L191.779 11.2427C191.843 11.4619 191.946 11.6617 192.087 11.8364C192.22 12.0029 192.376 12.1261 192.461 12.1948ZM196.947 3.28271C196.945 3.28454 196.943 3.28677 196.941 3.28857C196.939 3.28996 196.937 3.2914 196.936 3.29247C196.937 3.29157 196.941 3.28755 196.947 3.28271Z" fill="black"/>
<path d="M187.403 6.14972C187.897 6.29621 189.559 6.75329 191.255 5.88019C192.717 5.12738 193.322 4.82307 193.954 4.35871C194.76 3.76614 195.304 3.4183 195.648 3.22101C195.82 3.1224 195.937 3.06437 196.006 3.03351C196.026 3.02468 196.042 3.01966 196.051 3.01593C196.424 2.93456 196.684 2.5829 196.642 2.19464C196.598 1.7787 196.224 1.47727 195.808 1.52179C195.652 1.53856 195.496 1.60304 195.395 1.64777C195.264 1.70549 195.099 1.78859 194.895 1.90558C194.486 2.13982 193.893 2.52292 193.056 3.138C192.545 3.51382 192.071 3.75515 190.561 4.53254C189.466 5.09632 188.356 4.84628 187.89 4.7132C187.855 4.69458 187.823 4.67494 187.795 4.65461C187.756 4.62678 187.723 4.59869 187.66 4.5423C187.347 4.26394 186.869 4.29141 186.59 4.60382C186.312 4.91624 186.34 5.39481 186.652 5.67316C186.712 5.72628 186.799 5.80483 186.911 5.88507C187.022 5.9651 187.153 6.04429 187.306 6.11359L187.354 6.13507L187.403 6.14972Z" fill="black"/>
<path d="M47.6603 10.4641C47.3222 10.7103 46.8481 10.6361 46.6017 10.2981C46.3555 9.95988 46.4297 9.48584 46.7678 9.23947C46.8875 9.15226 46.9261 9.121 46.9504 9.09397C46.9574 9.08613 46.9639 9.07755 46.9699 9.0676C46.9974 8.84784 47.006 8.66199 46.9475 8.40061C46.8763 8.08301 46.6951 7.61177 46.2453 6.86643C45.5117 5.65074 44.2121 3.46668 43.4709 2.39572C43.0737 1.82183 42.8624 1.53628 42.7541 1.39768C42.7275 1.36371 42.7084 1.33986 42.6955 1.32443C42.6845 1.31134 42.6787 1.30582 42.6779 1.3049C42.386 1.02377 42.3657 0.559955 42.6379 0.255098C42.9138 -0.0538375 43.3862 -0.0830801 43.6984 0.186739C43.7032 0.190778 43.7081 0.195025 43.7131 0.199434C43.7405 0.223741 43.7654 0.248166 43.7873 0.2717C43.8298 0.317312 43.8814 0.378276 43.9484 0.464083C44.0838 0.637261 44.3142 0.951362 44.717 1.53342C45.4934 2.65529 46.8294 4.90146 47.5432 6.0842C48.0389 6.90574 48.3059 7.53349 48.426 8.06955C48.5509 8.62734 48.5051 9.03746 48.4601 9.3635L48.4504 9.43186L48.4289 9.49729C48.353 9.72784 48.2336 9.93277 48.0764 10.1076C47.928 10.2725 47.7567 10.3939 47.6603 10.4641Z" fill="black"/>
<path d="M52.001 4.32553C51.4926 4.45595 49.8062 4.85692 48.0811 4.0892C46.5578 3.41115 45.9332 3.1393 45.2794 2.72397C44.439 2.19011 43.8712 1.87552 43.5098 1.69663C43.3292 1.60721 43.2053 1.55486 43.129 1.52573C43.0947 1.51266 43.074 1.50686 43.0655 1.50424C42.6839 1.43418 42.4127 1.08257 42.4493 0.688813C42.488 0.27217 42.8569 -0.0344448 43.2735 0.00424337C43.4147 0.0173859 43.562 0.0688737 43.669 0.109712C43.8015 0.160291 43.9703 0.234571 44.1817 0.339204C44.6048 0.548656 45.221 0.891491 46.0919 1.44467C46.6282 1.78537 47.1268 2.00539 48.6973 2.70444C49.8833 3.23224 51.0887 2.99152 51.5753 2.87045C51.6194 2.851 51.6575 2.83038 51.6905 2.80991C51.7324 2.78391 51.7675 2.75789 51.8331 2.70737C52.1646 2.45229 52.6403 2.51366 52.8956 2.84506C53.1509 3.17657 53.0884 3.65224 52.7569 3.90756C52.6945 3.95564 52.605 4.0258 52.4903 4.09702C52.3759 4.16804 52.2427 4.23704 52.0889 4.29721L52.046 4.31479L52.001 4.32553Z" fill="black"/>
</svg>
