<svg width="988" height="171" viewBox="0 0 988 171" fill="none" xmlns="http://www.w3.org/2000/svg">
<path d="M986.494 168.432C986.486 168.424 986.389 168.369 985.466 166.876C984.591 165.461 983.071 162.602 982.236 161.054C981.145 159.031 981.203 158.217 981.296 157.459C981.346 157.289 981.422 157.144 981.522 157.02C981.622 156.896 981.743 156.797 981.868 156.695" stroke="black" stroke-width="2" stroke-linecap="round"/>
<path d="M985.761 169.017C985.615 169.001 984.784 168.667 982.614 167.073C981.86 166.518 981.148 166.158 979.187 165.148C977.314 164.184 975.453 164.681 974.846 164.862C974.709 164.923 974.593 164.994 974.494 165.065C974.394 165.136 974.316 165.206 974.234 165.279" stroke="black" stroke-width="2" stroke-linecap="round"/>
<path d="M3.00012 169C3.00871 168.992 3.11959 168.936 4.17618 167.41C5.17777 165.962 6.91687 163.039 7.87198 161.456C9.12036 159.388 9.05432 158.556 8.9474 157.781C8.89017 157.607 8.803 157.459 8.68887 157.332C8.57474 157.205 8.43629 157.104 8.29364 157" stroke="black" stroke-width="2" stroke-linecap="round"/>
<path d="M3.00012 169C3.15182 168.986 4.01746 168.685 6.27623 167.25C7.06176 166.751 7.80278 166.427 9.84468 165.518C11.7939 164.651 13.7316 165.098 14.3639 165.26C14.5057 165.316 14.6268 165.379 14.7302 165.443C14.8336 165.508 14.9156 165.571 15.0001 165.636" stroke="black" stroke-width="2" stroke-linecap="round"/>
<path d="M984.494 1.58595C984.486 1.59345 984.389 1.6482 983.466 3.14135C982.591 4.55678 981.071 7.41575 980.236 8.96372C979.145 10.987 979.203 11.8006 979.296 12.5586C979.346 12.7286 979.422 12.8738 979.522 12.9979C979.622 13.1221 979.743 13.2207 979.868 13.3223" stroke="black" stroke-width="2" stroke-linecap="round"/>
<path d="M983.761 1.00054C983.615 1.01619 982.784 1.35026 980.614 2.94467C979.86 3.49916 979.148 3.85951 977.187 4.86944C975.314 5.83352 973.453 5.33621 972.846 5.15598C972.709 5.09431 972.593 5.02397 972.494 4.95263C972.394 4.8813 972.316 4.8111 972.234 4.73878" stroke="black" stroke-width="2" stroke-linecap="round"/>
<path d="M1.00012 1.01758C1.00871 1.02525 1.11959 1.08122 2.17618 2.60792C3.17777 4.05515 4.91687 6.97836 5.87198 8.56111C7.12036 10.6299 7.05432 11.4617 6.9474 12.2367C6.89017 12.4106 6.803 12.5591 6.68887 12.686C6.57474 12.8129 6.43629 12.9137 6.29364 13.0176" stroke="black" stroke-width="2" stroke-linecap="round"/>
<path d="M1.00012 1.01758C1.15182 1.03166 2.01746 1.3323 4.27623 2.76717C5.06176 3.26617 5.80278 3.59046 7.84468 4.49934C9.79386 5.36694 11.7316 4.9194 12.3639 4.7572C12.5057 4.7017 12.6268 4.63839 12.7302 4.5742C12.8336 4.51 12.9156 4.44683 13.0001 4.38175" stroke="black" stroke-width="2" stroke-linecap="round"/>
</svg>
