<svg width="189" height="50" viewBox="0 0 189 50" fill="none" xmlns="http://www.w3.org/2000/svg">
<path d="M2.47807 27.8083V22.2056H20.4237V27.8083H2.47807ZM0 35.512V14.5019H5.01061V35.512H0Z" fill="white"/>
<path d="M33.7153 35.756V30.1802H54.1389V35.756H33.7153ZM33.7153 19.8637V14.261H54.1389V19.8637H33.7153ZM41.2584 32.6314V17.5472H46.269V32.6314H41.2584Z" fill="white"/>
<path d="M75.6 16.3856H79.6847V31.1735H75.6V16.3856ZM77.6424 27.3755L85.8391 28.6954L83.2793 30.958V15.4967H87.8542V34.2711L77.6424 32.7358L67.4305 34.2711V15.6314H72.0054V30.958L69.4457 28.6954L77.6424 27.3755Z" fill="white"/>
<path d="M122.005 25.0135C122.005 27.4018 121.56 29.5028 120.671 31.3165C119.781 33.1122 118.538 34.5129 116.94 35.5185C115.343 36.5062 113.482 37 111.358 37C109.234 37 107.373 36.5062 105.775 35.5185C104.178 34.5129 102.934 33.1122 102.044 31.3165C101.155 29.5028 100.71 27.4018 100.71 25.0135C100.71 22.6072 101.155 20.5062 102.044 18.7104C102.934 16.9147 104.178 15.514 105.775 14.5084C107.373 13.5028 109.234 13 111.358 13C113.482 13 115.343 13.5028 116.94 14.5084C118.538 15.514 119.781 16.9147 120.671 18.7104C121.56 20.5062 122.005 22.6072 122.005 25.0135ZM116.967 25.0135C116.967 23.7026 116.74 22.5713 116.287 21.6195C115.833 20.6678 115.188 19.9405 114.353 19.4377C113.518 18.9169 112.52 18.6566 111.358 18.6566C110.196 18.6566 109.197 18.9169 108.362 19.4377C107.527 19.9405 106.883 20.6678 106.429 21.6195C105.975 22.5713 105.748 23.7026 105.748 25.0135C105.748 26.3064 105.975 27.4287 106.429 28.3805C106.883 29.3322 107.527 30.0685 108.362 30.5892C109.197 31.11 110.196 31.3704 111.358 31.3704C112.52 31.3704 113.518 31.11 114.353 30.5892C115.188 30.0685 115.833 29.3322 116.287 28.3805C116.74 27.4287 116.967 26.3064 116.967 25.0135Z" fill="white"/>
<path d="M148.586 35.3829V29.6994C149.149 29.6096 149.639 29.3492 150.056 28.9182C150.474 28.4873 150.801 27.9126 151.037 27.1943C151.254 26.4581 151.363 25.5961 151.363 24.6085C151.363 23.2437 151.191 22.1663 150.846 21.3762C150.483 20.586 149.956 20.191 149.267 20.191C148.74 20.191 148.332 20.4154 148.041 20.8644C147.751 21.3133 147.542 22.1753 147.415 23.4502L147.061 27.2213C146.807 30.0047 146.171 32.0249 145.155 33.2819C144.12 34.5389 142.731 35.1674 140.988 35.1674C139.572 35.1674 138.374 34.7634 137.394 33.9553C136.413 33.1292 135.678 31.98 135.188 30.5075C134.68 29.017 134.425 27.2841 134.425 25.3088C134.425 23.3694 134.707 21.6455 135.27 20.1371C135.814 18.6287 136.595 17.4345 137.611 16.5546C138.628 15.6567 139.808 15.1719 141.152 15.1001V20.7566C140.661 20.8285 140.244 21.0619 139.899 21.457C139.536 21.8341 139.264 22.3548 139.082 23.0193C138.882 23.6837 138.782 24.4828 138.782 25.4166C138.782 26.6736 138.955 27.6702 139.3 28.4065C139.627 29.1427 140.117 29.5108 140.77 29.5108C141.242 29.5108 141.624 29.2953 141.914 28.8644C142.205 28.4154 142.404 27.6163 142.513 26.4671L142.922 22.4536C143.103 20.5322 143.421 18.9968 143.875 17.8475C144.31 16.6983 144.919 15.8633 145.699 15.3425C146.48 14.8217 147.451 14.5613 148.613 14.5613C150.047 14.5613 151.3 14.9833 152.371 15.8273C153.424 16.6713 154.25 17.8565 154.849 19.3829C155.43 20.9093 155.72 22.687 155.72 24.7162C155.72 26.7993 155.43 28.6399 154.849 30.2381C154.25 31.8184 153.415 33.0574 152.344 33.9553C151.254 34.8531 150.002 35.329 148.586 35.3829Z" fill="white"/>
<path d="M189 34.8353H168.576V29.2865H184.507L183.336 30.768L168.576 19.3202V13.4212L189 29.7983V34.8353ZM179.251 25.1922L175.82 21.098L189 13.1518V19.4818L179.251 25.1922Z" fill="white"/>
</svg>
