<svg xmlns="http://www.w3.org/2000/svg" version="1.1" viewBox="-5.0 -10.0 110.0 135.0">
 <path d="m92.172 93.5h-84.344c-0.55078 0.074219-1.0586-0.3125-1.1328-0.86328-0.074218-0.55469 0.3125-1.0625 0.86328-1.1367 4.5039-1.3203 8.7539-3.3789 12.582-6.0898 1.9102-1.3281 3.7227-2.7891 5.4297-4.3711 0.19141-0.17969 0.37891-0.35156 0.55859-0.53906 2.1016-1.9922 4.0625-4.1289 5.8711-6.3906 1.6562-2.1016 3.1992-4.293 4.6211-6.5586 2.043-3.2031 3.8125-6.5742 5.2773-10.082 0.14844-0.38281 0.51953-0.63672 0.92969-0.64062h14.344c0.41016 0.003906 0.78125 0.25781 0.92969 0.64062 1.0508 2.5625 2.2812 5.0508 3.6797 7.4414 0.46094 0.80859 1 1.6719 1.5898 2.6406 1.3203 2.1133 2.7539 4.1602 4.2891 6.1289 2.1758 2.8047 4.5938 5.4141 7.2188 7.8008 5.0078 4.6484 11.016 8.0898 17.562 10.059 0.55078 0.074219 0.9375 0.58203 0.86328 1.1367-0.074219 0.55078-0.58203 0.9375-1.1328 0.86328zm-78.672-2h73c-4.7617-2.1328-9.1523-5.0156-13-8.5391-2.7109-2.4492-5.207-5.125-7.4609-8-1.5703-2.0234-3.0391-4.1211-4.3984-6.2891-0.62891-1-1.1602-1.8906-1.6289-2.7188v-0.003906c-1.3281-2.2812-2.5156-4.6406-3.5508-7.0703h-13c-1.4688 3.3945-3.1992 6.668-5.1797 9.793-1.4609 2.332-3.0469 4.582-4.75 6.7383-1.8477 2.3398-3.8516 4.5508-6 6.6211l-0.60156 0.55859c-1.7695 1.6484-3.6562 3.168-5.6406 4.5508-2.4492 1.7031-5.0547 3.1641-7.7891 4.3594z"/>
 <path d="m71.379 83.621c-1.6055 0.003906-3.1602-0.57031-4.3789-1.6211l-9.5703-8.4414c-0.625-0.58203-1.5938-0.58203-2.2188 0l-5.2109 4.793c-1.2812 1.168-3.2422 1.168-4.5195 0l-2.8711-2.6484v-0.003906c-0.67578-0.61328-1.7031-0.61328-2.3789 0l-6.2305 5.8594c-1.5898 1.5352-3.8828 2.0977-6 1.4727-0.72266-0.19922-1.3867-0.57422-1.9297-1.0898-0.33594-0.40234-0.30469-0.99609 0.070313-1.3594s0.96875-0.37891 1.3594-0.03125c0.31641 0.26562 0.69141 0.45703 1.0898 0.55859 1.418 0.40234 2.9375 0.019531 4-1l6.2188-5.8281c1.4414-1.332 3.6602-1.332 5.1016 0l2.8789 2.6484c0.50781 0.46484 1.2852 0.46484 1.7891 0l5.1719-4.8086c1.3711-1.3359 3.5391-1.3906 4.9688-0.12109l9.5703 8.4414c1.0625 0.94141 2.5 1.3477 3.9023 1.0977l1.8086-0.30078c0.55078-0.09375 1.0742 0.28125 1.1719 0.83203 0.09375 0.55078-0.28125 1.0742-0.83203 1.168l-1.8594 0.32031c-0.36328 0.050781-0.73438 0.070312-1.1016 0.0625z"/>
 <path d="m20.719 87.27h-8.418c-2.6719-0.003906-4.9492-1.9375-5.3828-4.5742-0.43359-2.6328 1.1016-5.1953 3.6328-6.0547-0.0625-0.33203-0.09375-0.66406-0.089843-1 0.003906-2.0078 1.1055-3.8477 2.8711-4.7969 1.7695-0.94922 3.9141-0.85547 5.5898 0.24609 1.7148-3.1445 5.332-4.7461 8.8125-3.9023 3.4844 0.83984 5.9688 3.918 6.0547 7.5039 0 0.26562-0.10547 0.51953-0.29297 0.70703s-0.44141 0.29297-0.70703 0.29297c-0.55078 0-1-0.44922-1-1-0.078124-2.875-2.2148-5.2773-5.0586-5.6953-2.8477-0.41797-5.5781 1.2734-6.4805 4.0039-0.11328 0.34375-0.40234 0.60156-0.75391 0.67188-0.35547 0.070313-0.72266-0.058594-0.95703-0.33203-0.94141-1.0938-2.4648-1.4844-3.8203-0.98438s-2.2539 1.7891-2.2578 3.2344c-0.015626 0.48438 0.078124 0.96484 0.26953 1.4102 0.125 0.29297 0.10547 0.62891-0.058594 0.90234-0.16016 0.27344-0.44531 0.45703-0.76172 0.48828-1.7969 0.23438-3.1055 1.8164-3.0039 3.625s1.582 3.2344 3.3945 3.2656h8.4219-0.003906c0.55469 0 1 0.44531 1 1 0 0.55078-0.44531 1-1 1z"/>
 <path d="m84.25 75.301h-17.379c-0.55469 0-1-0.44922-1-1 0-0.55469 0.44531-1 1-1h17.379c1.8438 0.007813 3.3711-1.4258 3.4727-3.2656 0.10547-1.8398-1.25-3.4375-3.082-3.6367-0.54688-0.0625-0.9375-0.55078-0.87891-1.0977 0.027343-0.26562 0.15625-0.50781 0.36328-0.67188 0.20703-0.16797 0.47266-0.24609 0.73438-0.21875 2.7656 0.30859 4.8594 2.6484 4.8594 5.4297-0.003906 3.0156-2.4531 5.4609-5.4688 5.4609z"/>
 <path d="m60.922 66.41c-0.55469 0.085938-1.0703-0.29297-1.1562-0.84375-0.085937-0.55469 0.29297-1.0703 0.84375-1.1562 0.75781-0.25781 1.418-0.73438 1.9023-1.3711 0.12891-1.9453 1.293-3.6719 3.0508-4.5195 1.7539-0.85156 3.832-0.6875 5.4375 0.42188 1.2109-1.8125 3.0938-3.0664 5.2305-3.4922 0.52344-0.10547 1.0547-0.16016 1.5898-0.16016 4.5195 0.023438 8.1758 3.6914 8.1797 8.2109 0 0.73438-0.097656 1.4609-0.28906 2.1719-0.12109 0.44922-0.53516 0.75391-1 0.73828-0.55469 0-1-0.44922-1-1-0.003907-0.12109 0.019531-0.23828 0.058593-0.35156 0.14062-0.50781 0.21875-1.0312 0.23047-1.5586-0.003906-3.4297-2.7891-6.2109-6.2188-6.2109-0.40234 0-0.80469 0.042969-1.2031 0.12109-1.9609 0.38672-3.6133 1.6953-4.4375 3.5195-0.14453 0.30859-0.43359 0.52344-0.76953 0.57031-0.33984 0.046875-0.67969-0.082031-0.90234-0.33984-0.625-0.71484-1.5156-1.1367-2.4648-1.168-0.94531-0.03125-1.8633 0.33594-2.5352 1.0078-0.64062 0.64062-1 1.5117-1 2.4219 0 0.18359-0.050781 0.36328-0.14844 0.51953-0.75 1.125-1.8516 1.9766-3.1289 2.418-0.089844 0.027344-0.17969 0.046875-0.26953 0.050781z"/>
 <path d="m37.48 69.078c-0.13672 0.003906-0.27344-0.023437-0.40234-0.078125-8.2305-3.5586-14.629-10.355-17.691-18.785-3.0625-8.4297-2.5117-17.746 1.5195-25.758 4.0273-8.0117 11.184-14.008 19.773-16.578 8.5938-2.5664 17.863-1.4805 25.629 3.0078 7.7656 4.4844 13.34 11.977 15.406 20.703 2.0664 8.7266 0.44531 17.918-4.4844 25.41-0.14453 0.22266-0.375 0.37891-0.63672 0.43359-0.25781 0.054687-0.53125 0.003906-0.75391-0.14453-0.22266-0.14453-0.375-0.375-0.42969-0.63672-0.050781-0.26172 0-0.53125 0.14844-0.75391 4.625-7.0312 6.1445-15.66 4.2031-23.852-1.9414-8.1875-7.1719-15.215-14.461-19.426-7.2891-4.2109-15.988-5.2305-24.055-2.8164-8.0625 2.4102-14.777 8.0391-18.559 15.559s-4.2969 16.266-1.4219 24.176c2.8711 7.9141 8.8789 14.289 16.605 17.633 0.42188 0.19141 0.65625 0.65234 0.56641 1.1094-0.09375 0.45703-0.49219 0.78906-0.95703 0.79688z"/>
</svg>