<svg xmlns="http://www.w3.org/2000/svg" data-name="Layer 1" viewBox="0 0 100 125" x="0px" y="0px"><title>Global warming RTE</title><path d="M76,67.5H24a.5.5,0,0,0,0,1H76a.5.5,0,0,0,0-1Z"/><path d="M76,61.5H24a.5.5,0,0,0,0,1H76a.5.5,0,0,0,0-1Z"/><path d="M76,55.5H24a.5.5,0,0,0,0,1H76a.5.5,0,0,0,0-1Z"/><path d="M76,49.5H50a.5.5,0,0,0,0,1H76a.5.5,0,0,0,0-1Z"/><path d="M26,50.5a.49483.49483,0,0,0,.34961-.8501.50083.50083,0,0,0-.69971,0A.5003.5003,0,0,0,26,50.5Z"/><path d="M30,50.5a.49483.49483,0,0,0,.34961-.8501.50083.50083,0,0,0-.69971,0A.5003.5003,0,0,0,30,50.5Z"/><path d="M33.81006,49.54l-.16016.10986a.48322.48322,0,0,0,0,.69971l.16016.11035L34,50.5a.49483.49483,0,0,0,.34961-.8501A.49357.49357,0,0,0,33.81006,49.54Z"/><path d="M37.6499,49.6499a.5003.5003,0,1,0,.69971,0A.50083.50083,0,0,0,37.6499,49.6499Z"/><path d="M42.18994,49.54a.49436.49436,0,0,0-.54.10986A.5003.5003,0,0,0,42,50.5l.18994-.04.15967-.11035a.48213.48213,0,0,0,0-.69971Z"/><path d="M45.81006,49.54l-.16016.10986a.48322.48322,0,0,0,0,.69971l.16016.11035L46,50.5a.49483.49483,0,0,0,.34961-.8501A.49357.49357,0,0,0,45.81006,49.54Z"/><path d="M26,44.49951a.49483.49483,0,0,0,.34961-.8501.50083.50083,0,0,0-.69971,0,.5003.5003,0,0,0,.3501.8501Z"/><path d="M30,44.49951a.49483.49483,0,0,0,.34961-.8501.50083.50083,0,0,0-.69971,0,.5003.5003,0,0,0,.3501.8501Z"/><path d="M34.34961,43.64941a.49357.49357,0,0,0-.53955-.10986l-.16016.10986a.48322.48322,0,0,0,0,.69971l.16016.11035.18994.04a.49483.49483,0,0,0,.34961-.8501Z"/><path d="M38.34961,43.64941a.50083.50083,0,0,0-.69971,0,.5003.5003,0,1,0,.69971,0Z"/><path d="M42.34961,43.64941l-.15967-.10986a.49436.49436,0,0,0-.54.10986.5003.5003,0,0,0,.3501.8501l.18994-.04.15967-.11035a.48213.48213,0,0,0,0-.69971Z"/><path d="M46.34961,43.64941a.49357.49357,0,0,0-.53955-.10986l-.16016.10986a.48322.48322,0,0,0,0,.69971l.16016.11035.18994.04a.49483.49483,0,0,0,.34961-.8501Z"/><path d="M26,38.499a.49482.49482,0,0,0,.34961-.85009.50081.50081,0,0,0-.69971,0A.5003.5003,0,0,0,26,38.499Z"/><path d="M30,38.499a.49482.49482,0,0,0,.34961-.85009.50081.50081,0,0,0-.69971,0A.5003.5003,0,0,0,30,38.499Z"/><path d="M34.34961,37.64893a.49355.49355,0,0,0-.53955-.10987l-.16016.10987a.48321.48321,0,0,0,0,.6997l.16016.11035L34,38.499a.49482.49482,0,0,0,.34961-.85009Z"/><path d="M38.34961,37.64893a.50081.50081,0,0,0-.69971,0,.5003.5003,0,1,0,.69971,0Z"/><path d="M42.34961,37.64893l-.15967-.10987a.49434.49434,0,0,0-.54.10987A.5003.5003,0,0,0,42,38.499l.18994-.04.15967-.11035a.48212.48212,0,0,0,0-.6997Z"/><path d="M46.34961,37.64893a.49355.49355,0,0,0-.53955-.10987l-.16016.10987a.48321.48321,0,0,0,0,.6997l.16016.11035L46,38.499a.49482.49482,0,0,0,.34961-.85009Z"/><path d="M23.81006,41.45947l.18994.04a.49483.49483,0,0,0,.34961-.8501.49357.49357,0,0,0-.53955-.10986l-.16016.10986a.48322.48322,0,0,0,0,.69971Z"/><path d="M28,41.49951l.18994-.04.15967-.11035a.48213.48213,0,0,0,0-.69971l-.15967-.10986a.49436.49436,0,0,0-.54.10986.5003.5003,0,0,0,.3501.8501Z"/><path d="M31.81006,41.45947l.18994.04a.49483.49483,0,0,0,.34961-.8501.49357.49357,0,0,0-.53955-.10986l-.16016.10986a.48322.48322,0,0,0,0,.69971Z"/><path d="M36.34961,40.64941a.50083.50083,0,0,0-.69971,0,.5003.5003,0,1,0,.69971,0Z"/><path d="M40.34961,40.64941l-.15967-.10986a.49436.49436,0,0,0-.54.10986.5003.5003,0,0,0,.3501.8501l.18994-.04.15967-.11035a.48213.48213,0,0,0,0-.69971Z"/><path d="M44.34961,40.64941a.49357.49357,0,0,0-.53955-.10986l-.16016.10986a.48322.48322,0,0,0,0,.69971l.16016.11035.18994.04a.49483.49483,0,0,0,.34961-.8501Z"/><path d="M23.81006,47.46,24,47.5a.49483.49483,0,0,0,.34961-.8501.49357.49357,0,0,0-.53955-.10986l-.16016.10986a.48322.48322,0,0,0,0,.69971Z"/><path d="M28,47.5l.18994-.04.15967-.11035a.48213.48213,0,0,0,0-.69971L28.18994,46.54a.49436.49436,0,0,0-.54.10986A.5003.5003,0,0,0,28,47.5Z"/><path d="M31.81006,47.46,32,47.5a.49483.49483,0,0,0,.34961-.8501.49357.49357,0,0,0-.53955-.10986l-.16016.10986a.48322.48322,0,0,0,0,.69971Z"/><path d="M35.6499,46.6499a.5003.5003,0,1,0,.69971,0A.50083.50083,0,0,0,35.6499,46.6499Z"/><path d="M40.18994,46.54a.49436.49436,0,0,0-.54.10986A.5003.5003,0,0,0,40,47.5l.18994-.04.15967-.11035a.48213.48213,0,0,0,0-.69971Z"/><path d="M43.81006,46.54l-.16016.10986a.48322.48322,0,0,0,0,.69971l.16016.11035L44,47.5a.49483.49483,0,0,0,.34961-.8501A.49357.49357,0,0,0,43.81006,46.54Z"/><path d="M76,43.5H50a.5.5,0,0,0,0,1H76a.5.5,0,0,0,0-1Z"/><path d="M76,37.5H50a.5.5,0,0,0,0,1H76a.5.5,0,0,0,0-1Z"/></svg>