<svg xmlns="http://www.w3.org/2000/svg" xmlns:xlink="http://www.w3.org/1999/xlink" version="1.1" x="0px" y="0px" viewBox="0 0 60 75" style="enable-background:new 0 0 60 60;" xml:space="preserve"><path d="M51,50V37.72C50.37,37.9,49.69,38,49,38H11c-0.69,0-1.37-0.1-2-0.28V50h12v-1.25c0-4.96,4.04-9,9-9s9,4.04,9,9V50H51z"/><path d="M30.79,6.39C30.6,6.14,30.31,6,30,6s-0.6,0.14-0.79,0.39c-0.07,0.09-7.42,9.43-20.2,11.71c-0.47,0.09-0.82,0.51-0.82,0.99  c0,1.16,0.49,2.25,1.38,3.06c0.86,0.8,2.01,1.24,3.23,1.24h34.4c2.54,0,4.61-1.93,4.61-4.3c0-0.49-0.35-0.9-0.82-0.99  C38.25,15.83,30.86,6.48,30.79,6.39z"/><path d="M53.36,30.42c-2.75-1.07-4.32-2.55-4.84-3.11v-2.05c-0.43,0.09-0.87,0.13-1.32,0.13H12.8c-0.45,0-0.89-0.04-1.32-0.13v2.05  c-0.52,0.56-2.09,2.04-4.84,3.11C6.25,30.57,6,30.94,6,31.35C6,33.91,8.24,36,11,36h38c2.76,0,5-2.09,5-4.65  C54,30.94,53.75,30.57,53.36,30.42z"/><path d="M53,52H7c-0.55,0-1,0.45-1,1s0.45,1,1,1h46c0.55,0,1-0.45,1-1S53.55,52,53,52z"/></svg>