<svg width="121" height="111" viewBox="0 0 121 111" fill="none" xmlns="http://www.w3.org/2000/svg">
<path d="M65.5039 45.7976C67.0524 43.1833 68.6009 40.569 71.0948 36.5254C73.5887 32.4818 76.981 27.0881 81.4475 21.1763C85.914 15.2646 91.3519 8.99825 96.9545 2.54202" stroke="black" stroke-opacity="0.65" stroke-width="2" stroke-linecap="round"/>
<path d="M96.9692 2.11406C96.9719 2.10949 96.8865 2.08069 96.716 2.04385C96.5544 2.03991 96.322 2.09223 95.3156 2.57765C94.4612 3.01741 92.9094 3.84989 91.2598 4.75562" stroke="black" stroke-opacity="0.65" stroke-width="2" stroke-linecap="round"/>
<path d="M97.2617 2.46138C97.2603 2.46367 97.2589 2.46596 96.8494 3.1736C96.4399 3.88124 95.6222 5.29416 95.0721 6.45101C94.5219 7.60786 94.2641 8.46583 94.0002 9.43063" stroke="black" stroke-opacity="0.65" stroke-width="2" stroke-linecap="round"/>
<path d="M30.0758 52.6341L29.706 54.3015C29.4229 55.304 29.0176 55.8302 28.4903 55.8801C28.3814 55.8833 28.2593 55.8614 28.124 55.8142C27.9888 55.7669 27.8379 55.6798 27.6712 55.5528L29.6753 48.5296C29.962 47.5146 30.1872 46.4782 30.351 45.4203C30.5306 44.3542 30.7638 43.3136 31.0505 42.2987C31.1638 41.8977 31.4294 41.7702 31.8473 41.9161L31.9949 41.9676C32.0809 41.9976 32.1345 42.0232 32.1555 42.0443C32.1204 42.8856 31.9779 43.8683 31.7279 44.9925C31.1729 47.4831 30.8321 49.1675 30.7056 50.0457C30.9465 50.0059 31.5039 49.8495 32.3778 49.5764C33.2518 49.3034 33.9543 49.0875 34.4853 48.9287C35.0199 48.7574 35.5228 48.6026 35.9941 48.4643C37.0895 48.1722 37.754 48.0669 37.9876 48.1485C38.1842 48.2172 38.3043 48.3898 38.3477 48.6666C37.51 49.2414 36.2727 49.773 34.6356 50.2614C33.9727 50.4567 33.3097 50.6521 32.6468 50.8474C31.9997 51.0344 31.3904 51.2553 30.8187 51.51C31.5786 52.0231 32.292 52.5337 32.9588 53.0419C33.6291 53.5375 34.2802 54.0057 34.912 54.4465C36.3633 55.4764 37.6517 56.2222 38.7773 56.684C38.6817 57.0223 38.589 57.2309 38.4993 57.3097C38.3391 57.4465 38.0833 57.4673 37.732 57.3722L37.5845 57.3207C36.8948 56.8458 35.9663 56.2601 34.799 55.5635C32.4978 54.1956 30.9234 53.2192 30.0758 52.6341ZM40.3523 56.0569C40.7699 54.5783 41.7331 53.6068 43.2419 53.1423C44.4394 52.7758 45.7601 52.7619 47.204 53.1008C47.2777 53.1266 47.4498 53.1867 47.7203 53.2811C47.9907 53.3755 48.3304 53.5836 48.7392 53.9053C49.6481 54.6081 50.1613 55.4687 50.2788 56.4871C50.3272 56.8895 50.316 57.216 50.2452 57.4666C50.178 57.7047 50.1241 57.8717 50.0834 57.9676C49.641 59.5339 48.7084 60.5643 47.2857 61.0588C45.9703 61.5081 44.5013 61.4495 42.8786 60.8829C41.7107 60.4752 40.9035 59.8905 40.4569 59.1289C40.0226 58.3715 39.9877 57.3475 40.3523 56.0569ZM41.4972 56.9522C41.2777 57.7291 41.3319 58.3262 41.6597 58.7435C41.9104 59.0513 42.3984 59.3318 43.1237 59.585C43.849 59.8382 44.5041 60.005 45.0892 60.0854C45.6742 60.1658 46.2208 60.1432 46.7289 60.0178C47.8208 59.7382 48.5455 58.9656 48.903 57.7C49.1154 56.9482 49.0921 56.2655 48.8333 55.652C48.5481 54.9881 48.0552 54.5338 47.3545 54.2891C46.8503 54.2094 46.3382 54.1339 45.8181 54.0625C45.3104 53.9953 44.8007 54.0307 44.289 54.1687C43.1813 54.4565 42.2507 55.3843 41.4972 56.9522ZM60.4955 59.476C60.0854 58.9198 59.4747 58.5001 58.6633 58.2168C57.9012 57.9507 57.1536 57.848 56.4207 57.9088C55.0427 58.0058 54.0095 58.3885 53.321 59.0567C53.0181 59.3639 52.8065 59.7306 52.6862 60.1566C52.6649 60.2318 52.6048 60.4448 52.5057 60.7957C52.4101 61.134 52.3406 61.6191 52.2972 62.2509C52.2573 62.8703 52.1524 63.4806 51.9825 64.0821C51.7208 64.0045 51.5029 63.9629 51.329 63.9572C51.155 63.9515 51.0127 63.9294 50.9021 63.8907C50.7914 63.8521 50.7072 63.7677 50.6495 63.6374C50.6041 63.5114 50.5729 63.2871 50.5559 62.9646C50.5649 62.8851 50.6005 62.6635 50.6627 62.2998C50.7249 61.936 50.7961 61.4928 50.8762 60.9701C50.9686 60.4518 51.0611 59.8852 51.1537 59.2705C51.2622 58.6476 51.3671 58.0372 51.4684 57.4394C51.6872 56.1391 51.8428 55.1816 51.9354 54.5669C52.0204 54.2662 52.278 54.1909 52.7082 54.3412C52.9664 54.4313 53.1374 54.6149 53.2212 54.8919C53.3085 55.1565 53.3545 55.4479 53.3592 55.7661C53.3673 56.0718 53.3448 56.3668 53.2915 56.6511C53.2505 56.9396 53.2264 57.1446 53.2191 57.2659C55.2595 56.3539 57.4844 56.3184 59.8938 57.1597C60.1643 57.2541 60.4453 57.3591 60.7367 57.4746C60.814 57.4878 60.908 57.5138 61.0187 57.5524C61.1293 57.591 61.2187 57.7048 61.2869 57.8938C61.3725 58.1165 61.38 58.3531 61.3092 58.6037C61.1322 59.2302 60.861 59.521 60.4955 59.476ZM61.9477 67.6027C60.7184 67.1735 60.1816 66.6832 60.3374 66.1319C60.4365 65.781 60.8361 65.4181 61.5363 65.043C62.2365 64.668 62.839 64.3759 63.3437 64.1667C63.8521 63.9449 64.3384 63.7293 64.8028 63.5197C65.9056 63.01 66.831 62.5071 67.5789 62.011C67.4682 61.9724 67.3023 61.9145 67.081 61.8372C66.8597 61.7599 66.5287 61.665 66.0878 61.5524C65.6627 61.4315 65.2096 61.3146 64.7283 61.2016C63.4231 60.8974 62.5739 60.6766 62.1805 60.5392C61.7871 60.4019 61.6152 60.2455 61.6648 60.0701C61.7249 59.8571 61.8966 59.7036 62.1797 59.6097C62.4751 59.5201 62.672 59.4925 62.7704 59.5269C62.881 59.5655 62.9627 59.5871 63.0154 59.5917C63.0804 59.6007 63.1823 59.6225 63.321 59.6572C63.4633 59.6793 63.661 59.7208 63.9139 59.7816C64.1827 59.8341 64.5375 59.9167 64.9784 60.0293C65.8514 60.2377 67.2127 60.5822 69.0622 61.0628C69.6311 61.344 69.8642 61.6663 69.7615 62.0297C69.6305 62.4933 69.0091 63.0197 67.8973 63.609C66.9157 64.1197 65.877 64.6175 64.7812 65.1022C63.6977 65.5912 62.9307 65.9635 62.4803 66.2193C62.9491 66.4242 63.3618 66.589 63.7183 66.7134L66.7796 67.6377C67.2467 67.8008 67.6637 67.9739 68.0307 68.1571C68.4011 68.3277 68.6241 68.4469 68.6995 68.5145C68.8643 68.696 68.9025 68.9433 68.814 69.2566C68.7786 69.3819 68.7151 69.5111 68.6235 69.6443C68.3268 69.4994 68.0124 69.3691 67.6805 69.2532C67.3486 69.1373 66.9069 69.0037 66.3554 68.8525C65.8039 68.7012 65.1382 68.5238 64.3583 68.3204C63.2921 68.0308 62.4886 67.7915 61.9477 67.6027ZM73.426 61.8224C72.924 64.2214 72.2929 66.9814 71.5328 70.1026C71.3493 70.4652 70.9994 70.5565 70.4831 70.3762C70.3478 70.329 70.2136 70.2546 70.0802 70.1529C69.9627 70.0431 69.8996 69.9316 69.8911 69.8185L72.2643 61.4168L73.426 61.8224ZM72.4332 58.6674C72.5571 58.2288 72.8711 58.0975 73.3751 58.2735C73.707 58.3894 73.9562 58.559 74.1227 58.7823C74.1207 58.933 74.1002 59.0773 74.0612 59.2151C74.0258 59.3404 73.9413 59.4486 73.8075 59.5396C73.6738 59.6305 73.5086 59.6417 73.3119 59.573C73.1152 59.5043 72.9309 59.3918 72.759 59.2354C72.5906 59.0665 72.482 58.8772 72.4332 58.6674ZM80.4834 69.4694C80.9047 67.9783 81.1345 66.8539 81.1729 66.0964C81.3243 65.9428 81.2033 65.7973 80.81 65.66C80.392 65.5141 79.821 65.4317 79.097 65.413C78.373 65.3942 77.7719 65.4184 77.2938 65.4855C76.16 65.6265 75.4723 65.9095 75.2307 66.3345L73.7866 71.447L72.5511 71.0156C72.5116 70.5338 72.7698 69.3092 73.3255 67.3419C73.821 65.5877 74.2163 64.3078 74.5114 63.5022C74.8188 62.7009 75.0068 62.2504 75.0756 62.1505C75.4554 62.049 75.7436 62.0327 75.9403 62.1013C76.2476 62.2086 76.2969 62.6319 76.088 63.3712C76.0066 63.6594 75.9085 63.9349 75.7938 64.1977C75.6949 64.4523 75.6313 64.6297 75.6029 64.7299C78.0156 63.9341 79.769 63.7272 80.8631 64.1092C82.1047 64.5427 82.5231 65.8107 82.1183 67.9133C81.9903 68.6533 81.7475 69.656 81.39 70.9216L80.9521 72.4C80.7964 72.9514 80.6583 73.4882 80.5377 74.0106C80.3935 74.0428 80.2846 74.0461 80.2108 74.0203C80.1775 73.9949 80.1029 73.9482 79.987 73.8802C79.8712 73.8123 79.7167 73.7377 79.5235 73.6565C79.5422 73.1123 79.6179 72.5812 79.7508 72.0632C79.8871 71.5326 80.0173 71.0481 80.1411 70.6095L80.4834 69.4694ZM89.6985 73.7811C88.3588 74.9378 86.8711 75.4234 85.2354 75.2377C84.8576 75.1884 84.5213 75.1123 84.2262 75.0093C83.9435 74.9106 83.7038 74.8269 83.5071 74.7582C83.3262 74.6813 83.1261 74.577 82.9067 74.4453C82.6873 74.3136 82.4951 74.1571 82.3303 73.9756C81.9498 73.5537 81.8268 73.1046 81.9613 72.6285C81.9758 72.3858 82.022 72.1266 82.0999 71.8509C82.1813 71.5627 82.349 71.2082 82.6029 70.7875C82.8568 70.3668 83.2196 69.9429 83.6914 69.5156C84.1756 69.0927 84.7149 68.7373 85.3095 68.4493C86.5496 67.836 87.7741 67.589 88.983 67.7082C89.3361 67.7489 89.6479 67.8164 89.9184 67.9109C90.2011 68.0096 90.4478 68.1164 90.6585 68.2312C91.3715 68.4801 91.7111 69.1425 91.6773 70.2182C91.6602 70.9005 91.5046 71.8099 91.2106 72.9462C90.9325 74.0743 90.719 74.9496 90.5701 75.5722C90.4371 76.1865 90.3613 76.7658 90.3426 77.3099L89.2547 76.9301C89.3011 76.5746 89.3491 76.261 89.3989 75.9893C89.4486 75.7175 89.4931 75.4646 89.5322 75.2305C89.6194 74.6827 89.6748 74.1996 89.6985 73.7811ZM90.4477 70.842C90.653 70.1153 90.4053 69.6296 89.7046 69.3849C89.622 69.3423 89.5378 69.306 89.4517 69.276C88.5543 68.9627 87.4839 69.0708 86.2403 69.6002C85.6599 69.8381 85.133 70.1497 84.6595 70.5351C83.966 71.0776 83.5396 71.6308 83.3804 72.1947C83.1715 72.934 83.4656 73.5185 84.2626 73.9482C85.3761 74.3094 86.5784 74.1648 87.8696 73.5143C88.4237 73.2259 88.9147 72.8742 89.3426 72.4592C89.9307 71.9074 90.299 71.3683 90.4477 70.842Z" fill="black" fill-opacity="0.65"/>
</svg>
