<svg width="986" height="130" viewBox="0 0 986 130" fill="none" xmlns="http://www.w3.org/2000/svg">
<path d="M320.617 1C320.617 9.45296 320.55 37.1528 320.553 73.5619C320.622 86.6257 320.829 88.7006 321.182 90.6256C321.534 92.5507 322.026 94.2631 322.533 96.0273" stroke="black" stroke-width="2" stroke-linecap="round"/>
<path d="M587.289 12.698C587.289 17.0999 587.289 21.5018 587.412 28.3829C587.535 35.2639 587.781 44.4908 588.981 55.1533C590.181 65.8158 592.329 77.6344 594.542 89.8111" stroke="black" stroke-width="2" stroke-linecap="round"/>
<path d="M771.912 5.92529C775.027 6.17944 788.792 8.82258 827.147 28.8462C858.454 46.7426 913.806 80.344 944.497 99.8165C975.189 119.289 979.544 123.614 984.031 128.071" stroke="black" stroke-width="2" stroke-linecap="round"/>
<path d="M771.912 5.92529C775.027 6.17944 788.792 8.82258 827.147 28.8462C858.454 46.7426 913.806 80.344 944.497 99.8165C975.189 119.289 979.544 123.614 984.031 128.071" stroke="black" stroke-width="2" stroke-linecap="round"/>
<path d="M322.232 96.8114C322.232 96.8036 322.231 96.7959 321.507 95.4792C320.782 94.1624 319.334 91.537 318.54 90.1119C317.648 88.5416 317.515 88.2713 317.464 88.0086C317.447 87.8666 317.447 87.707 317.447 87.5425" stroke="black" stroke-width="2" stroke-linecap="round"/>
<path d="M322.57 96.9337C322.57 96.6434 322.57 96.3531 322.584 95.1778C322.598 94.0024 322.626 91.9508 322.768 90.2669C322.91 88.5829 323.166 87.3286 323.492 85.9102" stroke="black" stroke-width="2" stroke-linecap="round"/>
<path d="M594.245 90.3566C594.245 90.3643 594.117 90.3376 593.878 90.2584C593.674 90.1447 593.424 89.9087 592.529 88.5635C591.79 87.387 590.473 85.2078 589.088 82.8655" stroke="black" stroke-width="2" stroke-linecap="round"/>
<path d="M594.865 90.1377C594.865 90.1339 594.865 90.13 594.877 88.9456C594.889 87.7611 594.913 85.3962 595.081 83.5475C595.249 81.6988 595.561 80.438 595.943 79.0393" stroke="black" stroke-width="2" stroke-linecap="round"/>
<path d="M984.494 127.807C984.486 127.8 984.389 127.745 983.466 126.252C982.591 124.836 981.071 121.977 980.236 120.429C979.145 118.406 979.203 117.593 979.296 116.835C979.346 116.665 979.422 116.519 979.522 116.395C979.622 116.271 979.743 116.173 979.867 116.071" stroke="black" stroke-width="2" stroke-linecap="round"/>
<path d="M983.761 128.393C983.615 128.377 982.784 128.043 980.614 126.449C979.859 125.894 979.148 125.534 977.186 124.524C975.314 123.56 973.453 124.057 972.845 124.238C972.709 124.299 972.593 124.37 972.494 124.441C972.394 124.512 972.316 124.582 972.234 124.655" stroke="black" stroke-width="2" stroke-linecap="round"/>
<path d="M213 6.37598C209.887 6.62982 196.129 9.2698 157.796 29.2695C126.506 47.1446 71.1862 80.7059 40.5116 100.155C9.83694 119.604 5.48442 123.925 1 128.376" stroke="black" stroke-width="2" stroke-linecap="round"/>
<path d="M213 6.37598C209.887 6.62982 196.129 9.2698 157.796 29.2695C126.506 47.1446 71.1862 80.7059 40.5116 100.155C9.83694 119.604 5.48442 123.925 1 128.376" stroke="black" stroke-width="2" stroke-linecap="round"/>
<path d="M1 128.376C1.00859 128.368 1.11947 128.312 2.17606 126.786C3.17764 125.338 4.91675 122.415 5.87186 120.832C7.12024 118.764 7.05419 117.932 6.94728 117.157C6.89005 116.983 6.80288 116.835 6.68875 116.708C6.57462 116.581 6.43617 116.48 6.29352 116.376" stroke="black" stroke-width="2" stroke-linecap="round"/>
<path d="M0.999999 128.376C1.1517 128.362 2.01734 128.061 4.27611 126.626C5.06164 126.127 5.80266 125.803 7.84456 124.894C9.79374 124.027 11.7315 124.474 12.3638 124.636C12.5056 124.692 12.6267 124.755 12.7301 124.819C12.8335 124.884 12.9155 124.947 13 125.012" stroke="black" stroke-width="2" stroke-linecap="round"/>
</svg>
