<svg width="117" height="113" viewBox="0 0 117 113" fill="none" xmlns="http://www.w3.org/2000/svg">
<path d="M45.0215 45.7976C43.2999 43.1833 41.5784 40.569 38.8058 36.5254C36.0332 32.4818 32.2618 27.0881 27.2961 21.1763C22.3305 15.2646 16.285 8.99825 10.0562 2.54202" stroke="black" stroke-opacity="0.65" stroke-width="2" stroke-linecap="round"/>
<path d="M10.0393 2.11406C10.0362 2.10949 10.1312 2.08069 10.3207 2.04385C10.5004 2.03991 10.7588 2.09223 11.8777 2.57765C12.8275 3.01741 14.5528 3.84989 16.3867 4.75562" stroke="black" stroke-opacity="0.65" stroke-width="2" stroke-linecap="round"/>
<path d="M9.71414 2.46138C9.71565 2.46367 9.71716 2.46596 10.1725 3.1736C10.6278 3.88124 11.5368 5.29416 12.1484 6.45101C12.76 7.60786 13.0467 8.46583 13.3401 9.43063" stroke="black" stroke-opacity="0.65" stroke-width="2" stroke-linecap="round"/>
<path d="M39.9184 76.3237C39.4754 76.6948 39.1669 76.9077 38.993 76.9623C38.8315 77.013 38.7139 77.0295 38.64 77.0117C38.5662 76.994 38.4706 76.9285 38.3531 76.8152C38.2244 76.4053 38.0749 75.8858 37.9047 75.2569C37.7469 74.6241 37.5693 73.9497 37.3717 73.2338C37.1742 72.5179 36.9623 71.7997 36.736 71.0792C36.5098 70.3587 36.2657 69.712 36.0039 69.1391C35.8791 68.7416 36.0837 68.4589 36.6179 68.2912C36.7421 68.2522 36.9055 68.4465 37.1081 68.8742C37.3231 69.298 37.482 69.6303 37.5849 69.8709C37.7002 70.1077 37.7878 70.278 37.8478 70.382C37.9874 69.6967 38.4828 69.0362 39.334 68.4004C39.7926 68.0789 40.2455 67.848 40.6928 67.7075C41.14 67.5671 41.5488 67.5001 41.9194 67.5066C42.2984 67.4967 42.6508 67.5976 42.9766 67.8092C43.3108 68.0045 43.5502 68.3319 43.6945 68.7916C43.8263 68.0814 44.3814 67.3066 45.3597 66.4671C46.2465 65.6837 47.0998 65.1632 47.9197 64.9057C49.0998 64.5351 49.8179 64.8009 50.074 65.7031L52.6422 72.5121C52.6617 72.5742 52.4952 72.6742 52.1427 72.8122C51.4627 73.0804 51.0953 73.1275 51.0407 72.9536C50.9503 72.709 50.866 72.4625 50.788 72.2141L49.939 69.1847C49.4982 67.781 49.0124 66.7121 48.4816 65.978C47.6812 66.2976 47.0906 66.6332 46.7097 66.9848C46.3373 67.3202 46.0322 67.6958 45.7943 68.1117C45.5525 68.5151 45.3812 69.0125 45.2802 69.6038C45.0553 70.93 45.2393 72.5372 45.8323 74.4255C45.8397 74.7098 45.6384 74.9163 45.2285 75.045C44.9552 75.1309 44.7179 75.1576 44.5167 75.1253C44.3116 75.0805 44.2159 75.015 44.2298 74.9287C44.0523 73.5378 43.8484 72.4759 43.6183 71.743C43.4349 71.1591 43.1992 70.6258 42.9111 70.1431C42.6315 69.644 42.2975 69.0801 41.909 68.4515C40.1202 69.0133 39.1395 70.106 38.967 71.7297C38.8927 72.4491 38.9247 73.0941 39.0629 73.6648C39.2098 74.2192 39.3456 74.6952 39.4704 75.0927C39.5914 75.4778 39.7407 75.8881 39.9184 76.3237ZM56.7084 69.9454C57.8016 69.6021 59.2915 68.5883 61.1782 66.9039C61.3149 66.861 61.4423 66.8756 61.5605 66.9477C61.6747 67.0073 61.7514 67.0992 61.7904 67.2235C61.5588 68.2243 60.8152 69.1811 59.5597 70.094C58.3042 71.0069 57.0189 71.4992 55.704 71.571C54.2119 71.6438 53.1296 71.1307 52.4569 70.0318C52.358 69.8035 52.246 69.4907 52.1212 69.0931C51.9964 68.6956 51.9319 68.1426 51.9278 67.4342C51.9322 66.7095 52.0912 65.9772 52.4047 65.2373C52.7183 64.4974 53.1578 63.8544 53.7233 63.3083C54.2888 62.7622 54.9504 62.3702 55.7082 62.1322C56.4287 61.9059 57.3142 61.9008 58.3647 62.1168C58.8612 62.2202 59.2805 62.382 59.6226 62.6021C59.9646 62.8222 60.1845 63.0875 60.282 63.3981C60.3093 63.4851 60.3304 63.574 60.3453 63.6648C60.5584 64.4304 60.3421 65.0238 59.6965 65.4449C59.4132 65.6294 59.0666 65.786 58.6567 65.9148L55.9383 66.6456C55.0438 66.9265 54.421 67.3336 54.0699 67.867C53.8629 68.164 53.7699 68.5413 53.7907 68.9987C54.4563 70.0317 55.4289 70.3472 56.7084 69.9454ZM58.217 63.1459C57.8813 63.0329 57.5507 62.9798 57.2252 62.9865C56.8998 62.9931 56.6377 63.0277 56.4389 63.0901C56.2402 63.1525 55.9386 63.3223 55.5343 63.5994C55.1261 63.864 54.7735 64.1317 54.4763 64.4025C53.744 65.0692 53.4461 65.6199 53.5827 66.0547C54.6038 65.8296 55.3628 65.639 55.8597 65.4829C57.2386 65.0499 58.1333 64.6393 58.5436 64.2511C58.8028 64.0333 58.9031 63.8312 58.8446 63.6448C58.7743 63.4212 58.5651 63.2549 58.217 63.1459ZM69.6256 62.8385C69.1614 61.3602 68.7392 60.2986 68.3593 59.6537C68.4001 59.4361 68.2218 59.3898 67.8243 59.5146C67.4019 59.6472 66.8885 59.9245 66.284 60.3463C65.6795 60.7682 65.1992 61.151 64.8432 61.4949C63.9891 62.2953 63.5783 62.943 63.6108 63.4377L65.2026 68.5062L63.9541 68.8982C63.6599 68.5266 63.2066 67.3656 62.5941 65.4152C62.0479 63.676 61.6772 62.3868 61.4818 61.5474C61.2989 60.7041 61.2085 60.2206 61.2106 60.0971C61.4673 59.7845 61.695 59.597 61.8938 59.5346C62.2043 59.4371 62.4747 59.7548 62.7049 60.4877C62.7946 60.7734 62.8637 61.0588 62.9123 61.3438C62.9694 61.6125 63.0135 61.7965 63.0447 61.8959C64.593 59.7856 65.9199 58.5568 67.0255 58.2096C68.2802 57.8156 69.3124 58.6037 70.1223 60.574C70.4192 61.2587 70.7646 62.2283 71.1587 63.483L71.6023 64.961C71.774 65.5076 71.9522 66.0316 72.137 66.5331C72.0362 66.6467 71.9485 66.7152 71.874 66.7386C71.8328 66.7379 71.7462 66.7446 71.6142 66.7588C71.4822 66.7729 71.3148 66.805 71.1121 66.855C70.8319 66.3971 70.6055 65.9154 70.4332 65.41C70.2569 64.8922 70.1005 64.4158 69.9639 63.9811L69.6256 62.8385ZM72.309 63.7564C72.2466 63.5576 72.1422 63.2902 71.9957 62.954C71.8577 62.6016 71.7099 62.2181 71.5525 61.8035C71.395 61.3889 71.2479 60.9643 71.1114 60.5295C70.9749 60.0947 70.8873 59.6854 70.8487 59.3018C70.7566 58.4436 70.9652 57.9345 71.4745 57.7746C71.8536 57.7647 72.1224 57.8168 72.281 57.9307C72.4521 58.0408 72.5727 58.2076 72.6429 58.4312C72.7093 58.6424 72.7372 58.9271 72.7269 59.2852C72.6563 60.4947 72.7576 61.5342 73.0307 62.4038C73.1204 62.6895 73.2346 62.988 73.3733 63.2993C73.8335 64.0692 74.6474 64.2708 75.8151 63.9041C76.4239 63.7129 76.9684 63.4259 77.4486 63.0431C78.3712 62.3303 78.9369 61.6545 79.1457 61.0157C79.0781 60.4091 78.9779 59.8947 78.8453 59.4723C78.7087 59.0375 78.5692 58.6583 78.4265 58.3346C78.2964 58.0069 78.144 57.6522 77.9695 57.2703C77.8035 56.872 77.6382 56.4326 77.4736 55.952C77.6117 55.8268 77.7553 55.7407 77.9044 55.6939C78.0658 55.6432 78.2527 55.6732 78.4649 55.784C78.6895 55.8909 78.928 56.1504 79.1802 56.5625C79.4449 56.9707 79.6915 57.4733 79.9199 58.0703C80.1444 58.6549 80.3581 59.2702 80.561 59.9161C80.7763 60.5582 80.9795 61.1836 81.1706 61.7923C81.3579 62.3886 81.5447 62.8963 81.7309 63.3155C81.6247 63.499 81.5033 63.6122 81.3667 63.6551C80.8698 63.8111 80.3473 63.4293 79.7991 62.5096C79.6805 62.697 79.4599 62.9505 79.1372 63.2702C78.4578 63.9749 77.5824 64.5774 76.5112 65.0776C76.3078 65.1687 76.0757 65.2553 75.8148 65.3372C75.554 65.4191 75.2092 65.4728 74.7804 65.4983C74.3641 65.5198 73.9255 65.4051 73.4645 65.1541C73.0035 64.9031 72.6184 64.4372 72.309 63.7564Z" fill="black" fill-opacity="0.65"/>
</svg>
