<svg width="224" height="184" viewBox="0 0 224 184" fill="none" xmlns="http://www.w3.org/2000/svg">
<rect x="0.5" y="0.5" width="223" height="183" rx="4.5" stroke="#8A38F5" stroke-dasharray="10 5"/>
<path d="M20 40.8809C20 49.2051 20.8097 67.3168 21.7458 70.8921C22.9371 75.4422 21.6612 79.0553 21.4119 80.0846C21.2969 80.5595 22.1644 80.9332 22.8852 80.9737C26.9475 81.2022 41.2284 79.4796 49.6728 78.5653C54.4912 78.0436 61.6176 78.5402 66.8178 79.2678C70.4615 79.7776 72.3875 81.8738 73.9604 82.0559C77.4879 82.4642 79.9276 79.9225 81.1877 78.9717C85.693 75.5726 80.4587 68.5375 79.8136 65.5979C78.9776 61.7882 78.5322 57.4343 80.8269 52.5411C83.9701 45.8385 82.5563 40.5237 81.2228 38.014C80.8966 37.4001 80.9253 36.6769 80.334 36.2958C77.4693 34.4495 73.463 36.5844 69.8056 37.1421C64.9348 37.8848 61.3061 35.8419 57.3637 35.064C49.4569 33.5037 41.6502 35.1693 34.221 35.2652C29.5586 34.8638 25.0945 35.181 22.0742 36.3808C21.4915 36.8031 21.0662 37.3313 20.2785 38.0092" stroke="black" stroke-width="5.4" stroke-linecap="round"/>
<path d="M39.9795 44.3279C39.7101 42.7559 39.1021 38.5175 39.3092 36.0524C39.589 32.7228 39.8963 29.2998 40.91 26.1234C41.3226 24.8305 42.3312 23.8581 43.2573 22.9621C45.1227 21.1573 52.5398 20.7811 57.0676 21.6209C60.4436 22.247 61.212 26.2364 63.0482 29.8453C63.5266 31.5729 64.072 34.3376 64.5927 37.3269C65.1133 40.3162 65.5926 43.4462 66.0865 46.671" stroke="black" stroke-width="5.4" stroke-linecap="round"/>
<path d="M128 123.881C128 132.205 128.81 150.317 129.746 153.892C130.937 158.442 129.661 162.055 129.412 163.085C129.297 163.56 130.164 163.933 130.885 163.974C134.947 164.202 149.228 162.48 157.673 161.565C162.491 161.044 169.618 161.54 174.818 162.268C178.462 162.778 180.388 164.874 181.96 165.056C185.488 165.464 187.928 162.922 189.188 161.972C193.693 158.573 188.459 151.538 187.814 148.598C186.978 144.788 186.532 140.434 188.827 135.541C191.97 128.839 190.556 123.524 189.223 121.014C188.897 120.4 188.925 119.677 188.334 119.296C185.469 117.449 181.463 119.584 177.806 120.142C172.935 120.885 169.306 118.842 165.364 118.064C157.457 116.504 149.65 118.169 142.221 118.265C137.559 117.864 133.095 118.181 130.074 119.381C129.491 119.803 129.066 120.331 128.278 121.009" stroke="black" stroke-width="5.4" stroke-linecap="round"/>
<path d="M147.98 115.328C147.71 113.756 147.102 109.518 147.309 107.052C147.589 103.723 147.896 100.3 148.91 97.1234C149.323 95.8305 150.331 94.8581 151.257 93.9621C153.123 92.1573 160.54 91.7811 165.068 92.6209C168.444 93.247 169.212 97.2364 171.048 100.845C171.527 102.573 172.072 105.338 172.593 108.327C173.113 111.316 173.593 114.446 174.086 117.671" stroke="black" stroke-width="5.4" stroke-linecap="round"/>
<path d="M133.927 121.153C133.917 121.153 133.563 121.34 132.307 122.34C131.354 123.099 129.946 124.589 129.262 125.249C128.724 125.768 130.646 124.385 133.68 122.432C134.89 121.652 135.501 121.407 134.752 122.899C134.003 124.392 131.891 127.656 133.12 127.655C134.348 127.653 138.981 124.289 141.434 122.555C143.887 120.821 144.021 120.821 144.182 120.781" stroke="black" stroke-width="2" stroke-linecap="round"/>
<path d="M153.573 121.24C153.563 121.24 153.384 121.292 150.766 122.639C148.306 123.904 143.611 126.468 140.383 128.463C137.154 130.458 135.551 131.837 134.532 132.659C133.169 133.759 132.346 134.23 131.683 134.768C131.207 135.154 130.678 136.102 130.202 137.156C130.06 137.471 130.392 137.427 134.936 134.624C139.481 131.821 148.296 126.282 154.23 122.732C160.164 119.181 162.95 117.787 164.431 117.112C165.912 116.437 166.003 116.525 165.861 117.105C165.447 118.788 164.69 120.271 164.095 121.103C163.78 121.542 163.35 121.948 162.412 122.717C161.474 123.486 160.019 124.588 156.872 126.419C153.725 128.249 148.93 130.774 145.598 132.713C142.266 134.651 140.541 135.926 139.181 137.079C137.821 138.233 136.878 139.226 135.928 140.099C134.978 140.972 134.051 141.696 133.189 142.495C131.485 144.075 130.699 145.134 130.573 145.417C130.394 145.817 130.39 146.59 130.655 147.382C130.946 148.254 132.426 147.842 133.11 147.832C133.753 147.822 134.185 147.668 135.93 146.172C137.572 144.763 140.689 141.964 145.136 138.432C149.582 134.899 155.248 130.699 158.585 128.173C161.921 125.648 162.757 124.924 164.158 123.992C165.558 123.06 167.499 121.941 168.601 121.335C169.884 120.629 170.586 120.586 171.291 120.627C171.596 120.644 170.697 122.366 169.393 124.568C168.897 125.405 168.69 125.645 167.598 126.609C166.507 127.574 164.524 129.247 161.262 131.48C157.999 133.712 153.518 136.452 148.686 139.84C143.854 143.229 138.806 147.182 135.728 149.69C132.65 152.197 131.695 153.138 130.966 153.816C129.2 155.459 128.859 155.798 128.82 156.001C128.7 156.629 130.497 156.216 131.405 155.977C131.708 155.897 132.083 155.679 136.277 152.988C140.471 150.298 148.462 145.105 153.781 141.287C159.099 137.47 161.505 135.186 164.121 133.106C166.736 131.027 169.49 129.222 171.614 127.58C173.739 125.938 175.151 124.514 176.004 123.684C177.504 122.223 178.908 122.074 180.142 122.106C180.583 122.117 180.636 122.285 180.565 122.501C180.493 122.718 180.293 123.021 179.614 123.799C178.935 124.577 177.784 125.821 172.388 130.309C166.992 134.796 157.385 142.489 151.982 146.752C146.578 151.015 145.668 151.615 144.216 152.709C142.764 153.803 140.796 155.373 139.392 156.351C137.988 157.329 137.207 157.668 136.341 158.088C133.382 159.52 132.232 160.864 131.846 161.741C131.412 162.726 135.531 162.61 137.361 162.499C138.06 162.456 139.231 161.996 140.013 161.754C140.795 161.512 141.132 161.371 145.724 157.64C150.317 153.909 159.155 146.591 164.678 142.162C170.201 137.733 172.141 136.415 174.746 134.44C177.351 132.465 180.562 129.872 182.636 128.229C185.523 125.939 186.52 125.242 186.755 125.087C186.984 124.936 187.305 125.014 187.573 125.146C187.809 125.262 187.887 125.721 187.979 126.252C188.065 126.743 187.812 127.341 187.09 128.411C186.585 129.159 185.67 130.231 180.85 134.198C176.029 138.165 167.297 144.97 162.321 149.007C157.345 153.043 156.389 154.105 155.53 155.239C153.834 157.474 153.111 158.894 153.002 159.173C152.897 159.442 152.935 159.773 153.048 160.071C153.295 160.714 154.233 160.312 155.67 159.949C156.871 159.645 158.994 158.961 160.216 158.566C161.697 158.088 162.774 157.353 164.222 156.303C164.849 155.849 165.204 155.482 166.552 153.796C167.899 152.11 170.214 149.098 172.151 146.82C174.088 144.541 175.576 143.087 177.144 141.757C178.713 140.427 180.316 139.266 181.237 138.613C182.644 137.617 183.732 137.557 184.872 137.613C185.281 137.633 185.314 137.873 185.305 138.157C185.269 139.377 184.472 140.086 183.137 141.29C182.251 142.089 180.809 143.121 178.832 144.745C176.854 146.369 174.351 148.516 172.177 150.774C170.003 153.032 168.233 155.336 167.317 156.668C166.4 157.999 166.39 158.287 166.463 158.515C166.599 158.946 167.115 159.202 167.64 159.421C168.914 159.953 171.435 159.214 173.509 158.334C174.082 158.091 174.357 157.73 174.684 157.33C175.134 156.779 175.628 154.95 176.155 152.724C176.371 151.809 176.532 151.49 176.755 151.091C176.982 150.684 178.739 149.325 181.157 147.429C182.644 146.265 183.62 145.511 184.412 145.492C184.865 145.482 185.513 145.868 186.18 146.186C186.444 146.312 186.406 146.609 186.382 146.79C186.34 147.097 186.115 147.458 185.808 147.932C185.508 148.395 183.919 149.716 181.786 151.499C181.018 152.141 180.916 152.278 180.361 153.142C179.806 154.006 178.809 155.6 178.063 157.044C176.709 159.666 176.418 161.169 176.559 161.399C176.694 161.62 177.162 161.47 177.611 161.4C178.143 161.316 178.784 160.928 179.946 159.813C180.799 158.994 181.942 157.424 182.837 156.178C184.364 154.051 185.136 152.799 185.647 152.426C186.349 151.913 187.311 152.071 187.727 152.114C187.918 152.134 188.053 152.245 188.176 152.425C189.06 153.72 188.619 155.835 187.963 157.575C187.257 159.448 186.375 160.052 184.995 160.879C183.248 161.926 181.899 162.456 181.703 162.711C180.956 163.681 178.134 162.797 176.334 162.485C175.171 162.284 173.015 161.825 171.433 161.553C169.851 161.281 168.911 161.189 168.333 161.122C167.754 161.055 167.564 161.016 163.19 160.993C158.816 160.97 150.263 160.965 145.771 160.945C141.279 160.924 141.108 160.888 140.071 160.436C139.034 159.985 137.138 159.118 135.481 158.245C132.406 156.624 130.878 155.482 130.529 155.168C129.856 154.564 129.637 153.669 129.654 153.114C129.658 152.986 129.771 152.891 129.937 152.814C130.855 152.385 132.16 152.735 133.762 153.441C134.876 153.932 136.871 155.11 138.269 155.931C139.668 156.753 140.37 157.263 141.063 157.685C141.757 158.107 142.42 158.424 143.893 158.944C145.366 159.464 147.627 160.177 148.981 160.573C150.697 161.076 151.261 161.089 151.685 161.051C152.303 160.994 153.141 160.627 153.91 160.138C154.239 159.929 154.261 159.565 154.252 159.327C154.236 158.918 153.485 158.128 152.537 157.11C152.058 156.595 151.512 156.309 148.938 155.368C146.763 154.574 142.748 153.347 139.479 152.198C136.211 151.048 133.791 150.067 132.421 149.483C130.071 148.481 128.996 147.12 128.59 146.453C128.391 146.128 128.436 145.738 128.569 145.456C128.766 145.038 129.599 144.962 130.62 144.823C132.056 144.627 133.599 144.845 135.07 145.161C135.872 145.333 136.749 145.68 139.111 146.8C141.474 147.92 145.286 149.841 149.123 152.004C152.96 154.168 156.706 156.515 158.832 157.795C161.308 159.285 162.762 159.527 164.49 159.782C165.204 159.887 165.598 159.88 165.907 159.84C166.215 159.799 166.429 159.711 166.595 159.391C167.014 158.583 166.972 156.972 166.915 155.285C166.878 154.203 166.414 153.244 165.827 152.277C165.578 151.869 165.324 151.695 164.11 151.008C162.895 150.321 160.701 149.142 159.217 148.402C157.733 147.662 157.026 147.395 154.292 146.666C151.558 145.936 146.818 144.752 142.729 143.556C138.641 142.36 135.348 141.188 133.364 140.444C129.809 139.111 129.002 138.315 128.663 137.921C128.575 137.819 128.536 137.668 128.584 137.48C128.699 137.027 129.588 136.586 130.809 136.187C131.858 135.845 133.956 135.729 136.79 135.675C138.057 135.65 138.975 135.877 140.974 136.741C142.973 137.604 146.026 139.161 147.729 140.058C149.715 141.104 150.287 141.669 150.845 142.257C151.238 142.672 151.404 143.038 153.017 144.953C154.53 146.748 157.563 150.122 159.392 152.107C161.221 154.092 161.782 154.561 162.479 155.297C163.176 156.032 163.991 157.021 165.544 158.279C167.097 159.538 169.364 161.037 170.861 161.962C172.974 163.267 174.026 163.564 174.586 163.618C174.819 163.641 174.949 163.559 175.084 163.421C175.857 162.639 176.024 160.138 175.951 158.451C175.939 158.156 175.743 157.917 172.401 155.452C169.059 152.987 162.504 148.315 155.601 144.151C148.698 139.987 141.645 136.473 137.784 134.504C133.924 132.534 133.468 132.217 133.071 131.899C132.322 131.299 131.342 130.028 130.23 128.462C129.205 127.018 129.125 126.15 129.074 124.454C129.046 123.508 129.951 122.671 130.623 122.088C131.182 121.603 132.666 121.835 134.312 122.394C135.009 122.632 135.954 123.412 139.084 126.311C142.214 129.21 147.44 134.341 153.207 139.388C158.974 144.436 165.124 149.246 168.734 151.974C172.344 154.702 173.227 155.202 174.077 155.747C174.926 156.292 175.714 156.867 176.553 157.404C177.391 157.94 178.256 158.421 179.376 158.865C183.303 160.421 183.901 160.156 184.193 160.041C184.841 159.784 184.693 158.845 184.614 158.46C184.566 158.226 184.392 157.942 182.895 156.228C181.397 154.514 178.554 151.386 174.738 148.09C170.922 144.794 166.22 141.424 163.227 139.178C160.235 136.932 159.094 135.911 157.401 134.575C155.708 133.239 153.496 131.618 152.267 130.7C150.841 129.635 150.301 128.953 149.436 127.573C148.142 125.509 147.612 123.376 147.48 122.156C147.425 121.647 147.432 121.356 147.595 121.157C148.43 120.135 150.008 120.573 150.612 120.593C150.872 120.602 151.032 120.669 152.002 121.439C152.972 122.208 154.747 123.694 155.936 124.751C157.125 125.809 157.676 126.394 158.802 127.742C159.928 129.09 161.613 131.184 162.758 132.487C163.904 133.789 164.459 134.238 165.203 134.778C166.841 135.969 168.341 137.024 169.776 138.347C170.7 139.2 171.927 140.518 172.739 141.299C173.552 142.079 173.889 142.307 175.554 142.995C177.219 143.683 180.201 144.825 181.821 145.414C183.441 146.004 183.61 146.007 183.789 145.976C184.16 145.913 184.787 145.573 185.483 145.139C185.86 144.903 185.832 144.358 185.804 143.789C185.782 143.353 185.398 142.431 184.072 140.242C183.156 138.727 181.326 136.665 179.718 134.912C178.11 133.159 176.673 131.848 174.953 130.069C173.234 128.29 171.278 126.084 170.183 124.815C169.089 123.546 168.916 123.28 168.81 123.078C168.703 122.875 168.669 122.743 168.767 122.639C169.023 122.368 170 122.399 171.121 122.439C171.809 122.464 172.798 122.979 174.523 124.098C175.534 124.754 176.636 125.849 178.081 127.494C179.525 129.14 181.232 131.369 182.542 132.89C184.59 135.267 185.74 135.98 186.014 136.068C186.264 136.149 186.683 136.039 187.229 135.887C187.768 135.736 188.113 135.337 188.3 134.95C188.684 134.155 188.305 132.749 187.694 131.26C187.419 130.592 186.751 129.644 185.874 128.556C184.997 127.469 183.853 126.309 183.13 125.523C181.387 123.63 181.07 122.197 181.044 121.848C181.03 121.673 181.063 121.499 181.223 121.336C182.418 120.113 184.777 120.877 185.053 121.061C185.458 121.332 185.81 122.219 186.431 123.402C187.153 124.775 188.084 126.458 188.764 128.148C189.055 128.823 189.236 129.127 189.372 129.359C189.509 129.591 189.594 129.74 189.794 129.962" stroke="black" stroke-width="2" stroke-linecap="round"/>
</svg>
