<svg width="310" height="173" viewBox="0 0 310 173" fill="none" xmlns="http://www.w3.org/2000/svg">
<g clip-path="url(#clip0_850_1044)">
<g filter="url(#filter0_g_850_1044)">
<rect y="20" width="310" height="45" rx="22.5" fill="black"/>
<rect x="0.400363" y="20.4004" width="309.199" height="44.1993" rx="22.0996" stroke="black" stroke-width="0.800726"/>
</g>
<foreignObject x="113.843" y="30.1976" width="84.5013" height="27.14"><div xmlns="http://www.w3.org/1999/xhtml" style="backdrop-filter:blur(3.42px);clip-path:url(#bgblur_1_850_1044_clip_path);height:100%;width:100%"></div></foreignObject><path data-figma-bg-blur-radius="6.84244" d="M126.685 47V38.735H122.725V47H120.685V37.04H128.74V47H126.685ZM132.969 45.53C134.089 45.53 134.649 44.77 134.649 43.25C134.649 42.59 134.494 42.055 134.184 41.645C133.874 41.225 133.474 41.015 132.984 41.015C132.514 41.015 132.119 41.21 131.799 41.6C131.489 41.99 131.334 42.5 131.334 43.13C131.334 44.73 131.879 45.53 132.969 45.53ZM129.489 50.495V39.62H131.364L131.379 40.52C131.829 39.79 132.514 39.425 133.434 39.425C133.894 39.425 134.319 39.515 134.709 39.695C135.109 39.875 135.449 40.135 135.729 40.475C136.009 40.815 136.229 41.23 136.389 41.72C136.549 42.21 136.629 42.765 136.629 43.385C136.629 43.945 136.559 44.46 136.419 44.93C136.289 45.39 136.094 45.79 135.834 46.13C135.574 46.47 135.254 46.735 134.874 46.925C134.504 47.105 134.079 47.195 133.599 47.195C132.689 47.195 131.959 46.81 131.409 46.04V50.495H129.489ZM137.385 47V39.62H139.305V44.42L142.125 39.62H144.15V47H142.245V41.99L139.26 47H137.385ZM151.812 47V41.885L150.222 47H148.347L146.772 41.915V47H145.032V39.62H147.747L149.322 44.87L150.897 39.62H153.552V47H151.812ZM159.236 42.59C159.226 42.32 159.176 42.085 159.086 41.885C159.006 41.675 158.896 41.505 158.756 41.375C158.616 41.235 158.456 41.135 158.276 41.075C158.096 41.005 157.911 40.97 157.721 40.97C157.331 40.97 156.991 41.115 156.701 41.405C156.421 41.685 156.261 42.08 156.221 42.59H159.236ZM156.161 43.82C156.191 44.38 156.351 44.825 156.641 45.155C156.941 45.485 157.331 45.65 157.811 45.65C158.131 45.65 158.411 45.58 158.651 45.44C158.901 45.29 159.061 45.085 159.131 44.825H161.141C160.911 45.585 160.511 46.17 159.941 46.58C159.371 46.99 158.691 47.195 157.901 47.195C155.441 47.195 154.211 45.855 154.211 43.175C154.211 42.605 154.291 42.09 154.451 41.63C154.611 41.17 154.841 40.775 155.141 40.445C155.451 40.115 155.826 39.865 156.266 39.695C156.706 39.515 157.211 39.425 157.781 39.425C158.921 39.425 159.781 39.79 160.361 40.52C160.951 41.25 161.246 42.35 161.246 43.82H156.161ZM161.965 47V39.62H163.87V42.44H166.84V39.62H168.745V47H166.84V43.985H163.87V47H161.965ZM169.612 47V39.62H171.532V44.42L174.352 39.62H176.377V47H174.472V41.99L171.487 47H169.612ZM179.463 47V41.18H176.928V39.62H183.888V41.18H181.368V47H179.463ZM186.341 39.62V41.975H188.801C189.651 41.975 190.311 42.19 190.781 42.62C191.261 43.04 191.501 43.655 191.501 44.465C191.501 45.285 191.261 45.915 190.781 46.355C190.311 46.785 189.651 47 188.801 47H184.436V39.62H186.341ZM186.341 43.37V45.545H188.681C189.041 45.545 189.321 45.455 189.521 45.275C189.721 45.085 189.821 44.815 189.821 44.465C189.821 44.105 189.721 43.835 189.521 43.655C189.321 43.465 189.041 43.37 188.681 43.37H186.341Z" fill="white"/>
<g filter="url(#filter2_g_850_1044)">
<rect x="-0.593778" y="97.9004" width="309.199" height="44.1993" rx="22.0996" stroke="black" stroke-width="0.800726"/>
</g>
<foreignObject x="112.849" y="107.698" width="84.5013" height="27.14"><div xmlns="http://www.w3.org/1999/xhtml" style="backdrop-filter:blur(3.42px);clip-path:url(#bgblur_2_850_1044_clip_path);height:100%;width:100%"></div></foreignObject><path data-figma-bg-blur-radius="6.84244" d="M125.691 124.5V116.235H121.731V124.5H119.691V114.54H127.746V124.5H125.691ZM131.975 123.03C133.095 123.03 133.655 122.27 133.655 120.75C133.655 120.09 133.5 119.555 133.19 119.145C132.88 118.725 132.48 118.515 131.99 118.515C131.52 118.515 131.125 118.71 130.805 119.1C130.495 119.49 130.34 120 130.34 120.63C130.34 122.23 130.885 123.03 131.975 123.03ZM128.495 127.995V117.12H130.37L130.385 118.02C130.835 117.29 131.52 116.925 132.44 116.925C132.9 116.925 133.325 117.015 133.715 117.195C134.115 117.375 134.455 117.635 134.735 117.975C135.015 118.315 135.235 118.73 135.395 119.22C135.555 119.71 135.635 120.265 135.635 120.885C135.635 121.445 135.565 121.96 135.425 122.43C135.295 122.89 135.1 123.29 134.84 123.63C134.58 123.97 134.26 124.235 133.88 124.425C133.51 124.605 133.085 124.695 132.605 124.695C131.695 124.695 130.965 124.31 130.415 123.54V127.995H128.495ZM136.391 124.5V117.12H138.311V121.92L141.131 117.12H143.156V124.5H141.251V119.49L138.266 124.5H136.391ZM150.818 124.5V119.385L149.228 124.5H147.353L145.778 119.415V124.5H144.038V117.12H146.753L148.328 122.37L149.903 117.12H152.558V124.5H150.818ZM158.242 120.09C158.232 119.82 158.182 119.585 158.092 119.385C158.012 119.175 157.902 119.005 157.762 118.875C157.622 118.735 157.462 118.635 157.282 118.575C157.102 118.505 156.917 118.47 156.727 118.47C156.337 118.47 155.997 118.615 155.707 118.905C155.427 119.185 155.267 119.58 155.227 120.09H158.242ZM155.167 121.32C155.197 121.88 155.357 122.325 155.647 122.655C155.947 122.985 156.337 123.15 156.817 123.15C157.137 123.15 157.417 123.08 157.657 122.94C157.907 122.79 158.067 122.585 158.137 122.325H160.147C159.917 123.085 159.517 123.67 158.947 124.08C158.377 124.49 157.697 124.695 156.907 124.695C154.447 124.695 153.217 123.355 153.217 120.675C153.217 120.105 153.297 119.59 153.457 119.13C153.617 118.67 153.847 118.275 154.147 117.945C154.457 117.615 154.832 117.365 155.272 117.195C155.712 117.015 156.217 116.925 156.787 116.925C157.927 116.925 158.787 117.29 159.367 118.02C159.957 118.75 160.252 119.85 160.252 121.32H155.167ZM160.971 124.5V117.12H162.876V119.94H165.846V117.12H167.751V124.5H165.846V121.485H162.876V124.5H160.971ZM168.618 124.5V117.12H170.538V121.92L173.358 117.12H175.383V124.5H173.478V119.49L170.493 124.5H168.618ZM178.469 124.5V118.68H175.934V117.12H182.894V118.68H180.374V124.5H178.469ZM185.347 117.12V119.475H187.807C188.657 119.475 189.317 119.69 189.787 120.12C190.267 120.54 190.507 121.155 190.507 121.965C190.507 122.785 190.267 123.415 189.787 123.855C189.317 124.285 188.657 124.5 187.807 124.5H183.442V117.12H185.347ZM185.347 120.87V123.045H187.687C188.047 123.045 188.327 122.955 188.527 122.775C188.727 122.585 188.827 122.315 188.827 121.965C188.827 121.605 188.727 121.335 188.527 121.155C188.327 120.965 188.047 120.87 187.687 120.87H185.347Z" fill="black"/>
</g>
<rect x="0.5" y="0.5" width="309" height="172" rx="4.5" stroke="#8A38F5" stroke-dasharray="10 5"/>
<defs>
<filter id="filter0_g_850_1044" x="-3.2029" y="16.7971" width="316.406" height="51.4058" filterUnits="userSpaceOnUse" color-interpolation-filters="sRGB">
<feFlood flood-opacity="0" result="BackgroundImageFix"/>
<feBlend mode="normal" in="SourceGraphic" in2="BackgroundImageFix" result="shape"/>
<feTurbulence type="fractalNoise" baseFrequency="0.027508091181516647 0.027508091181516647" numOctaves="3" seed="3084" />
<feDisplacementMap in="shape" scale="6.4058046340942383" xChannelSelector="R" yChannelSelector="G" result="displacedImage" width="100%" height="100%" />
<feMerge result="effect1_texture_850_1044">
<feMergeNode in="displacedImage"/>
</feMerge>
</filter>
<clipPath id="bgblur_1_850_1044_clip_path" transform="translate(-113.843 -30.1976)"><path d="M126.685 47V38.735H122.725V47H120.685V37.04H128.74V47H126.685ZM132.969 45.53C134.089 45.53 134.649 44.77 134.649 43.25C134.649 42.59 134.494 42.055 134.184 41.645C133.874 41.225 133.474 41.015 132.984 41.015C132.514 41.015 132.119 41.21 131.799 41.6C131.489 41.99 131.334 42.5 131.334 43.13C131.334 44.73 131.879 45.53 132.969 45.53ZM129.489 50.495V39.62H131.364L131.379 40.52C131.829 39.79 132.514 39.425 133.434 39.425C133.894 39.425 134.319 39.515 134.709 39.695C135.109 39.875 135.449 40.135 135.729 40.475C136.009 40.815 136.229 41.23 136.389 41.72C136.549 42.21 136.629 42.765 136.629 43.385C136.629 43.945 136.559 44.46 136.419 44.93C136.289 45.39 136.094 45.79 135.834 46.13C135.574 46.47 135.254 46.735 134.874 46.925C134.504 47.105 134.079 47.195 133.599 47.195C132.689 47.195 131.959 46.81 131.409 46.04V50.495H129.489ZM137.385 47V39.62H139.305V44.42L142.125 39.62H144.15V47H142.245V41.99L139.26 47H137.385ZM151.812 47V41.885L150.222 47H148.347L146.772 41.915V47H145.032V39.62H147.747L149.322 44.87L150.897 39.62H153.552V47H151.812ZM159.236 42.59C159.226 42.32 159.176 42.085 159.086 41.885C159.006 41.675 158.896 41.505 158.756 41.375C158.616 41.235 158.456 41.135 158.276 41.075C158.096 41.005 157.911 40.97 157.721 40.97C157.331 40.97 156.991 41.115 156.701 41.405C156.421 41.685 156.261 42.08 156.221 42.59H159.236ZM156.161 43.82C156.191 44.38 156.351 44.825 156.641 45.155C156.941 45.485 157.331 45.65 157.811 45.65C158.131 45.65 158.411 45.58 158.651 45.44C158.901 45.29 159.061 45.085 159.131 44.825H161.141C160.911 45.585 160.511 46.17 159.941 46.58C159.371 46.99 158.691 47.195 157.901 47.195C155.441 47.195 154.211 45.855 154.211 43.175C154.211 42.605 154.291 42.09 154.451 41.63C154.611 41.17 154.841 40.775 155.141 40.445C155.451 40.115 155.826 39.865 156.266 39.695C156.706 39.515 157.211 39.425 157.781 39.425C158.921 39.425 159.781 39.79 160.361 40.52C160.951 41.25 161.246 42.35 161.246 43.82H156.161ZM161.965 47V39.62H163.87V42.44H166.84V39.62H168.745V47H166.84V43.985H163.87V47H161.965ZM169.612 47V39.62H171.532V44.42L174.352 39.62H176.377V47H174.472V41.99L171.487 47H169.612ZM179.463 47V41.18H176.928V39.62H183.888V41.18H181.368V47H179.463ZM186.341 39.62V41.975H188.801C189.651 41.975 190.311 42.19 190.781 42.62C191.261 43.04 191.501 43.655 191.501 44.465C191.501 45.285 191.261 45.915 190.781 46.355C190.311 46.785 189.651 47 188.801 47H184.436V39.62H186.341ZM186.341 43.37V45.545H188.681C189.041 45.545 189.321 45.455 189.521 45.275C189.721 45.085 189.821 44.815 189.821 44.465C189.821 44.105 189.721 43.835 189.521 43.655C189.321 43.465 189.041 43.37 188.681 43.37H186.341Z"/>
</clipPath><filter id="filter2_g_850_1044" x="-4.19704" y="94.2971" width="316.406" height="51.4058" filterUnits="userSpaceOnUse" color-interpolation-filters="sRGB">
<feFlood flood-opacity="0" result="BackgroundImageFix"/>
<feBlend mode="normal" in="SourceGraphic" in2="BackgroundImageFix" result="shape"/>
<feTurbulence type="fractalNoise" baseFrequency="0.027508091181516647 0.027508091181516647" numOctaves="3" seed="3084" />
<feDisplacementMap in="shape" scale="6.4058046340942383" xChannelSelector="R" yChannelSelector="G" result="displacedImage" width="100%" height="100%" />
<feMerge result="effect1_texture_850_1044">
<feMergeNode in="displacedImage"/>
</feMerge>
</filter>
<clipPath id="bgblur_2_850_1044_clip_path" transform="translate(-112.849 -107.698)"><path d="M125.691 124.5V116.235H121.731V124.5H119.691V114.54H127.746V124.5H125.691ZM131.975 123.03C133.095 123.03 133.655 122.27 133.655 120.75C133.655 120.09 133.5 119.555 133.19 119.145C132.88 118.725 132.48 118.515 131.99 118.515C131.52 118.515 131.125 118.71 130.805 119.1C130.495 119.49 130.34 120 130.34 120.63C130.34 122.23 130.885 123.03 131.975 123.03ZM128.495 127.995V117.12H130.37L130.385 118.02C130.835 117.29 131.52 116.925 132.44 116.925C132.9 116.925 133.325 117.015 133.715 117.195C134.115 117.375 134.455 117.635 134.735 117.975C135.015 118.315 135.235 118.73 135.395 119.22C135.555 119.71 135.635 120.265 135.635 120.885C135.635 121.445 135.565 121.96 135.425 122.43C135.295 122.89 135.1 123.29 134.84 123.63C134.58 123.97 134.26 124.235 133.88 124.425C133.51 124.605 133.085 124.695 132.605 124.695C131.695 124.695 130.965 124.31 130.415 123.54V127.995H128.495ZM136.391 124.5V117.12H138.311V121.92L141.131 117.12H143.156V124.5H141.251V119.49L138.266 124.5H136.391ZM150.818 124.5V119.385L149.228 124.5H147.353L145.778 119.415V124.5H144.038V117.12H146.753L148.328 122.37L149.903 117.12H152.558V124.5H150.818ZM158.242 120.09C158.232 119.82 158.182 119.585 158.092 119.385C158.012 119.175 157.902 119.005 157.762 118.875C157.622 118.735 157.462 118.635 157.282 118.575C157.102 118.505 156.917 118.47 156.727 118.47C156.337 118.47 155.997 118.615 155.707 118.905C155.427 119.185 155.267 119.58 155.227 120.09H158.242ZM155.167 121.32C155.197 121.88 155.357 122.325 155.647 122.655C155.947 122.985 156.337 123.15 156.817 123.15C157.137 123.15 157.417 123.08 157.657 122.94C157.907 122.79 158.067 122.585 158.137 122.325H160.147C159.917 123.085 159.517 123.67 158.947 124.08C158.377 124.49 157.697 124.695 156.907 124.695C154.447 124.695 153.217 123.355 153.217 120.675C153.217 120.105 153.297 119.59 153.457 119.13C153.617 118.67 153.847 118.275 154.147 117.945C154.457 117.615 154.832 117.365 155.272 117.195C155.712 117.015 156.217 116.925 156.787 116.925C157.927 116.925 158.787 117.29 159.367 118.02C159.957 118.75 160.252 119.85 160.252 121.32H155.167ZM160.971 124.5V117.12H162.876V119.94H165.846V117.12H167.751V124.5H165.846V121.485H162.876V124.5H160.971ZM168.618 124.5V117.12H170.538V121.92L173.358 117.12H175.383V124.5H173.478V119.49L170.493 124.5H168.618ZM178.469 124.5V118.68H175.934V117.12H182.894V118.68H180.374V124.5H178.469ZM185.347 117.12V119.475H187.807C188.657 119.475 189.317 119.69 189.787 120.12C190.267 120.54 190.507 121.155 190.507 121.965C190.507 122.785 190.267 123.415 189.787 123.855C189.317 124.285 188.657 124.5 187.807 124.5H183.442V117.12H185.347ZM185.347 120.87V123.045H187.687C188.047 123.045 188.327 122.955 188.527 122.775C188.727 122.585 188.827 122.315 188.827 121.965C188.827 121.605 188.727 121.335 188.527 121.155C188.327 120.965 188.047 120.87 187.687 120.87H185.347Z"/>
</clipPath><clipPath id="clip0_850_1044">
<rect width="310" height="173" rx="5" fill="white"/>
</clipPath>
</defs>
</svg>
