<svg width="198" height="83" viewBox="0 0 198 83" fill="none" xmlns="http://www.w3.org/2000/svg">
<rect x="0.5" y="0.5" width="197" height="82" rx="4.5" stroke="#8A38F5" stroke-dasharray="10 5"/>
<path d="M28.7412 20.7117C28.7233 20.7295 28.4155 21.0143 28.2612 21.4401C28.0139 22.1222 30.0906 21.7027 31.0725 22.0845C33.3382 22.9655 34.5816 25.6676 36.6164 28.2148C38.1752 30.1662 39.5546 33.5252 41.0635 35.2817C43.1172 37.6722 44.8772 38.6318 45.7385 40.1145C46.5534 41.5171 48.5969 42.3637 50.3192 43.6493C52.7832 45.4887 54.5375 46.3679 56.1065 46.774C57.0879 47.028 58.0729 46.8178 58.8192 46.9566C60.8769 47.339 62.0825 50.4485 62.88 51.8596C63.7624 53.4208 65.7823 55.5921 67.9874 58.265C68.5907 59.2567 69.1407 60.2355 70.2507 61.6114C71.0051 62.4562 72.1475 63.5986 73.619 64.9288" stroke="black" stroke-width="6" stroke-linecap="round"/>
<path d="M29.4428 64.4899C29.5638 64.1251 29.7946 63.5153 30.3065 62.8437C30.8996 62.0654 32.1703 62.2393 33.2083 61.559C34.5616 60.6721 35.328 59.177 35.9552 57.8485C36.8217 56.013 40.6827 51.2972 46.9086 45.2371C52.6534 39.6453 54.7019 38.9761 56.2388 37.4069C57.878 35.733 59.7136 33.2481 60.9468 31.8602C62.5858 30.0154 66.7601 25.4893 70.0225 22.0636C70.6704 21.5987 71.2985 21.3132 71.9224 20.9514C72.5463 20.5896 73.1469 20.16 73.7657 19.7174" stroke="black" stroke-width="6" stroke-linecap="round"/>
<mask id="mask0_858_579" style="mask-type:alpha" maskUnits="userSpaceOnUse" x="25" y="16" width="52" height="52">
<path d="M28.7412 20.7117C28.7233 20.7295 28.4155 21.0143 28.2612 21.4401C28.0139 22.1222 30.0906 21.7027 31.0725 22.0845C33.3382 22.9655 34.5816 25.6676 36.6164 28.2148C38.1752 30.1662 39.5546 33.5252 41.0635 35.2817C43.1172 37.6722 44.8772 38.6318 45.7385 40.1145C46.5534 41.5171 48.5969 42.3637 50.3192 43.6493C52.7832 45.4887 54.5375 46.3679 56.1065 46.774C57.0879 47.028 58.0729 46.8178 58.8192 46.9566C60.8769 47.339 62.0825 50.4485 62.88 51.8596C63.7624 53.4208 65.7823 55.5921 67.9874 58.265C68.5907 59.2567 69.1407 60.2355 70.2507 61.6114C71.0051 62.4562 72.1475 63.5986 73.619 64.9288" stroke="black" stroke-width="6" stroke-linecap="round"/>
<path d="M29.4428 64.4899C29.5638 64.1251 29.7946 63.5153 30.3065 62.8437C30.8996 62.0654 32.1703 62.2393 33.2083 61.559C34.5616 60.6721 35.328 59.177 35.9552 57.8485C36.8217 56.013 40.6827 51.2972 46.9086 45.2371C52.6534 39.6453 54.7019 38.9761 56.2388 37.4069C57.878 35.733 59.7136 33.2481 60.9468 31.8602C62.5858 30.0154 66.7601 25.4893 70.0225 22.0636C70.6704 21.5987 71.2985 21.3132 71.9224 20.9514C72.5463 20.5896 73.1469 20.16 73.7657 19.7174" stroke="black" stroke-width="6" stroke-linecap="round"/>
</mask>
<g mask="url(#mask0_858_579)">
</g>
<path d="M167.288 21.7415C167.27 21.7236 166.985 21.4157 166.559 21.2614C165.877 21.0142 166.297 23.0908 165.915 24.0727C165.034 26.3384 162.332 27.5818 159.784 29.6166C157.833 31.1755 154.474 32.5548 152.718 34.0637C150.327 36.1174 149.367 37.8774 147.885 38.7388C146.482 39.5536 145.636 41.5971 144.35 43.3194C142.511 45.7834 141.631 47.5377 141.225 49.1067C140.971 50.0882 141.181 51.0732 141.043 51.8194C140.66 53.8772 137.551 55.0827 136.14 55.8803C134.578 56.7627 132.407 58.7826 129.734 60.9877C128.743 61.5909 127.764 62.141 126.388 63.251C125.543 64.0054 124.401 65.1478 123.07 66.6193" stroke="black" stroke-width="6" stroke-linecap="round"/>
<path d="M123.508 22.4431C123.873 22.5641 124.483 22.7948 125.155 23.3067C125.933 23.8998 125.759 25.1705 126.439 26.2085C127.326 27.5618 128.821 28.3283 130.15 28.9554C131.985 29.8219 136.701 33.6829 142.761 39.9088C148.353 45.6536 149.022 47.7021 150.591 49.239C152.265 50.8783 154.75 52.7138 156.138 53.9471C157.983 55.5861 162.509 59.7603 165.935 63.0228C166.4 63.6707 166.685 64.2988 167.047 64.9227C167.409 65.5465 167.838 66.1471 168.281 66.766" stroke="black" stroke-width="6" stroke-linecap="round"/>
<mask id="mask1_858_579" style="mask-type:alpha" maskUnits="userSpaceOnUse" x="120" y="18" width="52" height="52">
<path d="M167.288 21.7398C167.27 21.7219 166.985 21.414 166.559 21.2597C165.877 21.0124 166.297 23.0891 165.915 24.071C165.034 26.3367 162.332 27.5801 159.784 29.6149C157.833 31.1737 154.474 32.5531 152.718 34.062C150.327 36.1157 149.367 37.8757 147.885 38.737C146.482 39.5519 145.636 41.5954 144.35 43.3177C142.511 45.7817 141.631 47.536 141.225 49.105C140.971 50.0865 141.181 51.0714 141.043 51.8177C140.66 53.8754 137.551 55.081 136.14 55.8786C134.578 56.761 132.407 58.7809 129.734 60.986C128.743 61.5892 127.764 62.1393 126.388 63.2493C125.543 64.0037 124.401 65.146 123.07 66.6175" stroke="black" stroke-width="6" stroke-linecap="round"/>
<path d="M123.51 22.4414C123.875 22.5624 124.485 22.7931 125.157 23.305C125.935 23.8981 125.761 25.1688 126.441 26.2068C127.328 27.5601 128.823 28.3266 130.152 28.9537C131.987 29.8202 136.703 33.6812 142.763 39.9071C148.355 45.6519 149.024 47.7004 150.593 49.2373C152.267 50.8766 154.752 52.7121 156.14 53.9454C157.985 55.5844 162.511 59.7586 165.937 63.0211C166.402 63.669 166.687 64.2971 167.049 64.9209C167.411 65.5448 167.84 66.1454 168.283 66.7643" stroke="black" stroke-width="6" stroke-linecap="round"/>
</mask>
<g mask="url(#mask1_858_579)">
<rect x="174" y="16" width="56" height="58" transform="rotate(90 174 16)" fill="white"/>
</g>
</svg>
