<svg width="555" height="337" viewBox="0 0 555 337" fill="none" xmlns="http://www.w3.org/2000/svg">
<g clip-path="url(#clip0_855_930)">
<g filter="url(#filter0_g_855_930)">
<rect y="41" width="497" height="93" rx="46.5" fill="black"/>
<rect x="0.828363" y="41.8284" width="495.343" height="91.3433" rx="45.6716" stroke="black" stroke-width="1.65673"/>
</g>
<foreignObject x="76.7451" y="60.6904" width="346.834" height="58.698"><div xmlns="http://www.w3.org/1999/xhtml" style="backdrop-filter:blur(7.08px);clip-path:url(#bgblur_1_855_930_clip_path);height:100%;width:100%"></div></foreignObject><path data-figma-bg-blur-radius="14.1572" d="M103.317 98V80.8995H95.1234V98H90.9025V77.3925H107.569V98H103.317ZM119.173 88.8756C119.152 88.3169 119.049 87.8307 118.863 87.4169C118.697 86.9824 118.47 86.6307 118.18 86.3617C117.89 86.072 117.559 85.8651 117.187 85.741C116.814 85.5962 116.432 85.5237 116.039 85.5237C115.232 85.5237 114.528 85.8238 113.928 86.4238C113.349 87.0031 113.018 87.8204 112.935 88.8756H119.173ZM112.811 91.4205C112.873 92.5791 113.204 93.4999 113.804 94.1826C114.425 94.8654 115.232 95.2068 116.225 95.2068C116.887 95.2068 117.466 95.062 117.963 94.7723C118.48 94.462 118.811 94.0378 118.956 93.4999H123.115C122.639 95.0723 121.811 96.2827 120.632 97.131C119.452 97.9793 118.046 98.4035 116.411 98.4035C111.321 98.4035 108.776 95.631 108.776 90.086C108.776 88.9066 108.942 87.8411 109.273 86.8893C109.604 85.9376 110.08 85.1203 110.7 84.4375C111.342 83.7547 112.118 83.2375 113.028 82.8857C113.939 82.5133 114.983 82.3271 116.163 82.3271C118.521 82.3271 120.301 83.0823 121.501 84.5927C122.722 86.1031 123.332 88.379 123.332 91.4205H112.811ZM131.927 94.9585C134.244 94.9585 135.403 93.3861 135.403 90.2411C135.403 88.8756 135.082 87.7686 134.44 86.9203C133.799 86.0514 132.971 85.6169 131.958 85.6169C130.985 85.6169 130.168 86.0203 129.506 86.8272C128.864 87.6342 128.544 88.6894 128.544 89.9929C128.544 93.3033 129.671 94.9585 131.927 94.9585ZM124.726 105.231V82.7306H128.606L128.637 84.5927C129.568 83.0823 130.985 82.3271 132.889 82.3271C133.84 82.3271 134.72 82.5133 135.527 82.8857C136.354 83.2582 137.058 83.7961 137.637 84.4996C138.216 85.203 138.672 86.0617 139.003 87.0755C139.334 88.0893 139.499 89.2377 139.499 90.5205C139.499 91.6791 139.354 92.7447 139.065 93.7171C138.796 94.6689 138.392 95.4965 137.854 96.1999C137.316 96.9034 136.654 97.4517 135.868 97.8448C135.103 98.2172 134.223 98.4035 133.23 98.4035C131.347 98.4035 129.837 97.6069 128.699 96.0137V105.231H124.726ZM151.027 88.8756C151.006 88.3169 150.903 87.8307 150.717 87.4169C150.551 86.9824 150.323 86.6307 150.034 86.3617C149.744 86.072 149.413 85.8651 149.041 85.741C148.668 85.5962 148.285 85.5237 147.892 85.5237C147.085 85.5237 146.382 85.8238 145.782 86.4238C145.203 87.0031 144.872 87.8204 144.789 88.8756H151.027ZM144.665 91.4205C144.727 92.5791 145.058 93.4999 145.658 94.1826C146.279 94.8654 147.085 95.2068 148.079 95.2068C148.741 95.2068 149.32 95.062 149.817 94.7723C150.334 94.462 150.665 94.0378 150.81 93.4999H154.968C154.493 95.0723 153.665 96.2827 152.486 97.131C151.306 97.9793 149.899 98.4035 148.265 98.4035C143.175 98.4035 140.63 95.631 140.63 90.086C140.63 88.9066 140.796 87.8411 141.127 86.8893C141.458 85.9376 141.934 85.1203 142.554 84.4375C143.196 83.7547 143.972 83.2375 144.882 82.8857C145.792 82.5133 146.837 82.3271 148.016 82.3271C150.375 82.3271 152.155 83.0823 153.355 84.5927C154.575 86.1031 155.186 88.379 155.186 91.4205H144.665ZM168.746 74.8476C168.746 75.7165 168.601 76.4717 168.311 77.1131C168.043 77.7545 167.67 78.2925 167.194 78.727C166.739 79.1408 166.201 79.4615 165.58 79.6891C164.98 79.896 164.36 79.9994 163.718 79.9994C163.077 79.9994 162.446 79.896 161.825 79.6891C161.225 79.4615 160.687 79.1408 160.211 78.727C159.756 78.2925 159.384 77.7545 159.094 77.1131C158.825 76.4717 158.69 75.7165 158.69 74.8476H161.235C161.277 75.7165 161.504 76.389 161.918 76.8649C162.353 77.32 162.953 77.5476 163.718 77.5476C164.484 77.5476 165.073 77.32 165.487 76.8649C165.922 76.389 166.16 75.7165 166.201 74.8476H168.746ZM156.673 98V82.7306H160.646V92.6619L166.48 82.7306H170.67V98H166.729V87.6342L160.553 98H156.673ZM177.056 98V85.9582H171.811V82.7306H186.212V85.9582H180.998V98H177.056ZM187.345 98V82.7306H191.317V92.6619L197.152 82.7306H201.342V98H197.4V87.6342L191.224 98H187.345ZM219.931 98L216.58 91.1412L214.624 93.1585V98H210.559V82.7306H214.624V88.5342L219.652 82.7306H224.587L219.466 88.348L224.463 98H219.931ZM240.558 95.0206C243.02 95.0206 244.251 93.4688 244.251 90.3653C244.251 87.2824 243.02 85.741 240.558 85.741C238.096 85.741 236.865 87.2824 236.865 90.3653C236.865 93.4688 238.096 95.0206 240.558 95.0206ZM240.558 98.4035C239.316 98.4035 238.21 98.2069 237.237 97.8138C236.265 97.4207 235.437 96.8724 234.754 96.1689C234.092 95.4654 233.585 94.6171 233.234 93.624C232.882 92.6309 232.706 91.5446 232.706 90.3653C232.706 89.1652 232.882 88.0687 233.234 87.0755C233.606 86.0824 234.134 85.2341 234.816 84.5306C235.499 83.8271 236.316 83.2892 237.268 82.9168C238.241 82.5237 239.337 82.3271 240.558 82.3271C241.758 82.3271 242.834 82.5237 243.786 82.9168C244.737 83.2892 245.544 83.8271 246.206 84.5306C246.889 85.2134 247.406 86.0514 247.758 87.0445C248.131 88.0376 248.317 89.1446 248.317 90.3653C248.317 91.586 248.131 92.6929 247.758 93.6861C247.406 94.6585 246.889 95.4965 246.206 96.1999C245.544 96.9034 244.727 97.4517 243.755 97.8448C242.803 98.2172 241.737 98.4035 240.558 98.4035ZM258.188 105.231V98.2793C255.209 98.0517 253.005 97.2345 251.577 95.8275C250.17 94.3999 249.467 92.5791 249.467 90.3653C249.467 88.1514 250.181 86.341 251.608 84.9341C253.036 83.5064 255.229 82.6788 258.188 82.4512V77.1442H262.036V82.4512C264.974 82.6788 267.157 83.5064 268.585 84.9341C270.033 86.341 270.757 88.1514 270.757 90.3653C270.757 92.5998 270.043 94.4206 268.616 95.8275C267.188 97.2345 264.995 98.0517 262.036 98.2793V105.231H258.188ZM253.44 90.3342C253.44 91.7412 253.802 92.8585 254.526 93.6861C255.271 94.493 256.491 94.9792 258.188 95.1447V85.6479C256.512 85.8134 255.302 86.2893 254.557 87.0755C253.812 87.8411 253.44 88.9273 253.44 90.3342ZM266.816 90.3342C266.816 88.9273 266.433 87.8411 265.668 87.0755C264.923 86.2893 263.712 85.8134 262.036 85.6479V95.1447C263.712 94.9792 264.923 94.493 265.668 93.6861C266.433 92.8585 266.816 91.7412 266.816 90.3342ZM279.595 95.0206C282.057 95.0206 283.288 93.4688 283.288 90.3653C283.288 87.2824 282.057 85.741 279.595 85.741C277.133 85.741 275.901 87.2824 275.901 90.3653C275.901 93.4688 277.133 95.0206 279.595 95.0206ZM279.595 98.4035C278.353 98.4035 277.246 98.2069 276.274 97.8138C275.301 97.4207 274.474 96.8724 273.791 96.1689C273.129 95.4654 272.622 94.6171 272.27 93.624C271.919 92.6309 271.743 91.5446 271.743 90.3653C271.743 89.1652 271.919 88.0687 272.27 87.0755C272.643 86.0824 273.17 85.2341 273.853 84.5306C274.536 83.8271 275.353 83.2892 276.305 82.9168C277.277 82.5237 278.374 82.3271 279.595 82.3271C280.795 82.3271 281.871 82.5237 282.822 82.9168C283.774 83.2892 284.581 83.8271 285.243 84.5306C285.926 85.2134 286.443 86.0514 286.795 87.0445C287.167 88.0376 287.354 89.1446 287.354 90.3653C287.354 91.586 287.167 92.6929 286.795 93.6861C286.443 94.6585 285.926 95.4965 285.243 96.1999C284.581 96.9034 283.764 97.4517 282.791 97.8448C281.84 98.2172 280.774 98.4035 279.595 98.4035ZM296.014 94.9585C298.332 94.9585 299.49 93.3861 299.49 90.2411C299.49 88.8756 299.17 87.7686 298.528 86.9203C297.887 86.0514 297.059 85.6169 296.045 85.6169C295.073 85.6169 294.256 86.0203 293.594 86.8272C292.952 87.6342 292.631 88.6894 292.631 89.9929C292.631 93.3033 293.759 94.9585 296.014 94.9585ZM288.814 105.231V82.7306H292.694L292.725 84.5927C293.656 83.0823 295.073 82.3271 296.976 82.3271C297.928 82.3271 298.808 82.5133 299.614 82.8857C300.442 83.2582 301.146 83.7961 301.725 84.4996C302.304 85.203 302.759 86.0617 303.09 87.0755C303.421 88.0893 303.587 89.2377 303.587 90.5205C303.587 91.6791 303.442 92.7447 303.153 93.7171C302.884 94.6689 302.48 95.4965 301.942 96.1999C301.404 96.9034 300.742 97.4517 299.956 97.8448C299.19 98.2172 298.311 98.4035 297.318 98.4035C295.435 98.4035 293.925 97.6069 292.787 96.0137V105.231H288.814ZM319.18 98V87.4169L315.891 98H312.011L308.752 87.479V98H305.152V82.7306H310.77L314.028 93.593L317.287 82.7306H322.78V98H319.18ZM335.287 98V85.9582H331.097L330.942 88.6894C330.818 90.6756 330.621 92.2791 330.352 93.4999C330.104 94.7206 329.732 95.6723 329.235 96.3551C328.759 97.0172 328.139 97.4621 327.373 97.6896C326.628 97.8965 325.718 98 324.642 98H324.021V94.7723H324.425C324.983 94.7723 325.459 94.7102 325.852 94.5861C326.245 94.4413 326.576 94.1516 326.845 93.7171C327.114 93.2826 327.332 92.6516 327.497 91.8239C327.663 90.9963 327.787 89.8791 327.87 88.4721L328.211 82.7306H339.229V98H335.287ZM350.999 88.8756C350.979 88.3169 350.875 87.8307 350.689 87.4169C350.524 86.9824 350.296 86.6307 350.006 86.3617C349.717 86.072 349.386 85.8651 349.013 85.741C348.641 85.5962 348.258 85.5237 347.865 85.5237C347.058 85.5237 346.354 85.8238 345.754 86.4238C345.175 87.0031 344.844 87.8204 344.761 88.8756H350.999ZM344.637 91.4205C344.699 92.5791 345.03 93.4999 345.63 94.1826C346.251 94.8654 347.058 95.2068 348.051 95.2068C348.713 95.2068 349.293 95.062 349.789 94.7723C350.306 94.462 350.637 94.0378 350.782 93.4999H354.941C354.465 95.0723 353.637 96.2827 352.458 97.131C351.279 97.9793 349.872 98.4035 348.237 98.4035C343.147 98.4035 340.603 95.631 340.603 90.086C340.603 88.9066 340.768 87.8411 341.099 86.8893C341.43 85.9376 341.906 85.1203 342.527 84.4375C343.168 83.7547 343.944 83.2375 344.854 82.8857C345.765 82.5133 346.81 82.3271 347.989 82.3271C350.348 82.3271 352.127 83.0823 353.327 84.5927C354.548 86.1031 355.158 88.379 355.158 91.4205H344.637ZM356.646 98V82.7306H360.587V88.5652H366.732V82.7306H370.674V98H366.732V91.7619H360.587V98H356.646ZM372.467 98V82.7306H376.439V92.6619L382.274 82.7306H386.464V98H382.522V87.6342L376.346 98H372.467ZM388.287 98V82.7306H392.322V88.7825H393.936C394.225 86.7962 395.043 85.2237 396.388 84.0651C397.732 82.9064 399.481 82.3271 401.633 82.3271C402.833 82.3271 403.909 82.5237 404.86 82.9168C405.833 83.2892 406.65 83.8271 407.312 84.5306C407.995 85.2134 408.512 86.0514 408.864 87.0445C409.236 88.0376 409.422 89.1342 409.422 90.3342C409.422 91.555 409.236 92.6619 408.864 93.655C408.512 94.6482 407.995 95.4965 407.312 96.1999C406.65 96.9034 405.833 97.4517 404.86 97.8448C403.909 98.2172 402.833 98.4035 401.633 98.4035C400.536 98.4035 399.543 98.2483 398.653 97.9379C397.784 97.6276 397.019 97.1827 396.357 96.6034C395.694 96.0241 395.157 95.331 394.743 94.524C394.329 93.7171 394.05 92.8171 393.905 91.8239H392.322V98H388.287ZM401.664 95.0206C404.126 95.0206 405.357 93.4688 405.357 90.3653C405.357 87.2824 404.126 85.741 401.664 85.741C399.201 85.741 397.97 87.2824 397.97 90.3653C397.97 93.4688 399.201 95.0206 401.664 95.0206Z" fill="white"/>
<g filter="url(#filter2_g_855_930)">
<rect x="-0.765387" y="202.862" width="495.343" height="91.3433" rx="45.6716" stroke="black" stroke-width="1.65673"/>
</g>
<foreignObject x="75.1514" y="221.724" width="346.834" height="58.698"><div xmlns="http://www.w3.org/1999/xhtml" style="backdrop-filter:blur(7.08px);clip-path:url(#bgblur_2_855_930_clip_path);height:100%;width:100%"></div></foreignObject><path data-figma-bg-blur-radius="14.1572" d="M101.723 259.033V241.933H93.5296V259.033H89.3088V238.426H105.975V259.033H101.723ZM117.579 249.909C117.559 249.35 117.455 248.864 117.269 248.45C117.104 248.016 116.876 247.664 116.586 247.395C116.297 247.105 115.966 246.899 115.593 246.774C115.221 246.63 114.838 246.557 114.445 246.557C113.638 246.557 112.934 246.857 112.334 247.457C111.755 248.037 111.424 248.854 111.341 249.909H117.579ZM111.217 252.454C111.279 253.613 111.61 254.533 112.21 255.216C112.831 255.899 113.638 256.24 114.631 256.24C115.293 256.24 115.872 256.095 116.369 255.806C116.886 255.495 117.217 255.071 117.362 254.533H121.521C121.045 256.106 120.217 257.316 119.038 258.164C117.859 259.013 116.452 259.437 114.817 259.437C109.727 259.437 107.183 256.664 107.183 251.119C107.183 249.94 107.348 248.875 107.679 247.923C108.01 246.971 108.486 246.154 109.107 245.471C109.748 244.788 110.524 244.271 111.434 243.919C112.345 243.547 113.39 243.361 114.569 243.361C116.928 243.361 118.707 244.116 119.907 245.626C121.128 247.137 121.738 249.412 121.738 252.454H111.217ZM130.333 255.992C132.65 255.992 133.809 254.42 133.809 251.275C133.809 249.909 133.488 248.802 132.847 247.954C132.205 247.085 131.378 246.65 130.364 246.65C129.391 246.65 128.574 247.054 127.912 247.861C127.271 248.668 126.95 249.723 126.95 251.026C126.95 254.337 128.078 255.992 130.333 255.992ZM123.133 266.265V243.764H127.012L127.043 245.626C127.974 244.116 129.391 243.361 131.295 243.361C132.247 243.361 133.126 243.547 133.933 243.919C134.761 244.292 135.464 244.83 136.043 245.533C136.623 246.236 137.078 247.095 137.409 248.109C137.74 249.123 137.905 250.271 137.905 251.554C137.905 252.713 137.761 253.778 137.471 254.751C137.202 255.702 136.799 256.53 136.261 257.233C135.723 257.937 135.061 258.485 134.274 258.878C133.509 259.251 132.629 259.437 131.636 259.437C129.753 259.437 128.243 258.64 127.105 257.047V266.265H123.133ZM149.433 249.909C149.412 249.35 149.309 248.864 149.123 248.45C148.957 248.016 148.73 247.664 148.44 247.395C148.15 247.105 147.819 246.899 147.447 246.774C147.074 246.63 146.692 246.557 146.299 246.557C145.492 246.557 144.788 246.857 144.188 247.457C143.609 248.037 143.278 248.854 143.195 249.909H149.433ZM143.071 252.454C143.133 253.613 143.464 254.533 144.064 255.216C144.685 255.899 145.492 256.24 146.485 256.24C147.147 256.24 147.726 256.095 148.223 255.806C148.74 255.495 149.071 255.071 149.216 254.533H153.375C152.899 256.106 152.071 257.316 150.892 258.164C149.712 259.013 148.306 259.437 146.671 259.437C141.581 259.437 139.036 256.664 139.036 251.119C139.036 249.94 139.202 248.875 139.533 247.923C139.864 246.971 140.34 246.154 140.96 245.471C141.602 244.788 142.378 244.271 143.288 243.919C144.199 243.547 145.243 243.361 146.423 243.361C148.781 243.361 150.561 244.116 151.761 245.626C152.982 247.137 153.592 249.412 153.592 252.454H143.071ZM167.152 235.881C167.152 236.75 167.007 237.505 166.718 238.147C166.449 238.788 166.076 239.326 165.6 239.76C165.145 240.174 164.607 240.495 163.987 240.723C163.387 240.929 162.766 241.033 162.124 241.033C161.483 241.033 160.852 240.929 160.231 240.723C159.631 240.495 159.093 240.174 158.617 239.76C158.162 239.326 157.79 238.788 157.5 238.147C157.231 237.505 157.097 236.75 157.097 235.881H159.642C159.683 236.75 159.911 237.422 160.324 237.898C160.759 238.353 161.359 238.581 162.124 238.581C162.89 238.581 163.48 238.353 163.894 237.898C164.328 237.422 164.566 236.75 164.607 235.881H167.152ZM155.079 259.033V243.764H159.052V253.695L164.887 243.764H169.076V259.033H165.135V248.668L158.959 259.033H155.079ZM175.462 259.033V246.992H170.217V243.764H184.618V246.992H179.404V259.033H175.462ZM185.751 259.033V243.764H189.724V253.695L195.558 243.764H199.748V259.033H195.807V248.668L189.631 259.033H185.751ZM218.338 259.033L214.986 252.175L213.031 254.192V259.033H208.965V243.764H213.031V249.568L218.058 243.764H222.993L217.872 249.381L222.869 259.033H218.338ZM238.964 256.054C241.426 256.054 242.657 254.502 242.657 251.399C242.657 248.316 241.426 246.774 238.964 246.774C236.502 246.774 235.271 248.316 235.271 251.399C235.271 254.502 236.502 256.054 238.964 256.054ZM238.964 259.437C237.723 259.437 236.616 259.24 235.643 258.847C234.671 258.454 233.843 257.906 233.161 257.202C232.498 256.499 231.992 255.651 231.64 254.657C231.288 253.664 231.112 252.578 231.112 251.399C231.112 250.199 231.288 249.102 231.64 248.109C232.012 247.116 232.54 246.268 233.223 245.564C233.905 244.861 234.723 244.323 235.674 243.95C236.647 243.557 237.743 243.361 238.964 243.361C240.164 243.361 241.24 243.557 242.192 243.95C243.144 244.323 243.95 244.861 244.613 245.564C245.295 246.247 245.813 247.085 246.164 248.078C246.537 249.071 246.723 250.178 246.723 251.399C246.723 252.619 246.537 253.726 246.164 254.72C245.813 255.692 245.295 256.53 244.613 257.233C243.95 257.937 243.133 258.485 242.161 258.878C241.209 259.251 240.143 259.437 238.964 259.437ZM256.594 266.265V259.313C253.615 259.085 251.411 258.268 249.984 256.861C248.577 255.433 247.873 253.613 247.873 251.399C247.873 249.185 248.587 247.374 250.015 245.968C251.442 244.54 253.635 243.712 256.594 243.485V238.178H260.443V243.485C263.381 243.712 265.563 244.54 266.991 245.968C268.439 247.374 269.164 249.185 269.164 251.399C269.164 253.633 268.45 255.454 267.022 256.861C265.594 258.268 263.401 259.085 260.443 259.313V266.265H256.594ZM251.846 251.368C251.846 252.775 252.208 253.892 252.932 254.72C253.677 255.526 254.898 256.013 256.594 256.178V246.681C254.918 246.847 253.708 247.323 252.963 248.109C252.218 248.875 251.846 249.961 251.846 251.368ZM265.222 251.368C265.222 249.961 264.839 248.875 264.074 248.109C263.329 247.323 262.119 246.847 260.443 246.681V256.178C262.119 256.013 263.329 255.526 264.074 254.72C264.839 253.892 265.222 252.775 265.222 251.368ZM278.001 256.054C280.463 256.054 281.694 254.502 281.694 251.399C281.694 248.316 280.463 246.774 278.001 246.774C275.539 246.774 274.308 248.316 274.308 251.399C274.308 254.502 275.539 256.054 278.001 256.054ZM278.001 259.437C276.759 259.437 275.653 259.24 274.68 258.847C273.708 258.454 272.88 257.906 272.197 257.202C271.535 256.499 271.028 255.651 270.677 254.657C270.325 253.664 270.149 252.578 270.149 251.399C270.149 250.199 270.325 249.102 270.677 248.109C271.049 247.116 271.577 246.268 272.259 245.564C272.942 244.861 273.759 244.323 274.711 243.95C275.684 243.557 276.78 243.361 278.001 243.361C279.201 243.361 280.277 243.557 281.229 243.95C282.18 244.323 282.987 244.861 283.649 245.564C284.332 246.247 284.849 247.085 285.201 248.078C285.574 249.071 285.76 250.178 285.76 251.399C285.76 252.619 285.574 253.726 285.201 254.72C284.849 255.692 284.332 256.53 283.649 257.233C282.987 257.937 282.17 258.485 281.198 258.878C280.246 259.251 279.18 259.437 278.001 259.437ZM294.421 255.992C296.738 255.992 297.897 254.42 297.897 251.275C297.897 249.909 297.576 248.802 296.934 247.954C296.293 247.085 295.465 246.65 294.452 246.65C293.479 246.65 292.662 247.054 292 247.861C291.358 248.668 291.038 249.723 291.038 251.026C291.038 254.337 292.165 255.992 294.421 255.992ZM287.22 266.265V243.764H291.1L291.131 245.626C292.062 244.116 293.479 243.361 295.383 243.361C296.334 243.361 297.214 243.547 298.021 243.919C298.848 244.292 299.552 244.83 300.131 245.533C300.71 246.236 301.166 247.095 301.497 248.109C301.828 249.123 301.993 250.271 301.993 251.554C301.993 252.713 301.848 253.778 301.559 254.751C301.29 255.702 300.886 256.53 300.348 257.233C299.81 257.937 299.148 258.485 298.362 258.878C297.597 259.251 296.717 259.437 295.724 259.437C293.841 259.437 292.331 258.64 291.193 257.047V266.265H287.22ZM317.587 259.033V248.45L314.297 259.033H310.417L307.159 248.512V259.033H303.559V243.764H309.176L312.435 254.626L315.693 243.764H321.187V259.033H317.587ZM333.693 259.033V246.992H329.504L329.348 249.723C329.224 251.709 329.028 253.313 328.759 254.533C328.51 255.754 328.138 256.706 327.641 257.389C327.166 258.051 326.545 258.495 325.779 258.723C325.034 258.93 324.124 259.033 323.048 259.033H322.427V255.806H322.831C323.39 255.806 323.865 255.744 324.259 255.62C324.652 255.475 324.983 255.185 325.252 254.751C325.521 254.316 325.738 253.685 325.903 252.857C326.069 252.03 326.193 250.913 326.276 249.506L326.617 243.764H337.635V259.033H333.693ZM349.406 249.909C349.385 249.35 349.282 248.864 349.095 248.45C348.93 248.016 348.702 247.664 348.413 247.395C348.123 247.105 347.792 246.899 347.419 246.774C347.047 246.63 346.664 246.557 346.271 246.557C345.464 246.557 344.761 246.857 344.161 247.457C343.581 248.037 343.25 248.854 343.168 249.909H349.406ZM343.043 252.454C343.106 253.613 343.437 254.533 344.037 255.216C344.657 255.899 345.464 256.24 346.457 256.24C347.119 256.24 347.699 256.095 348.195 255.806C348.713 255.495 349.044 255.071 349.188 254.533H353.347C352.871 256.106 352.044 257.316 350.864 258.164C349.685 259.013 348.278 259.437 346.644 259.437C341.554 259.437 339.009 256.664 339.009 251.119C339.009 249.94 339.174 248.875 339.505 247.923C339.836 246.971 340.312 246.154 340.933 245.471C341.574 244.788 342.35 244.271 343.261 243.919C344.171 243.547 345.216 243.361 346.395 243.361C348.754 243.361 350.533 244.116 351.733 245.626C352.954 247.137 353.564 249.412 353.564 252.454H343.043ZM355.052 259.033V243.764H358.993V249.599H365.138V243.764H369.08V259.033H365.138V252.795H358.993V259.033H355.052ZM370.873 259.033V243.764H374.845V253.695L380.68 243.764H384.87V259.033H380.928V248.668L374.752 259.033H370.873ZM386.694 259.033V243.764H390.728V249.816H392.342C392.632 247.83 393.449 246.257 394.794 245.099C396.139 243.94 397.887 243.361 400.039 243.361C401.239 243.361 402.315 243.557 403.267 243.95C404.239 244.323 405.056 244.861 405.718 245.564C406.401 246.247 406.918 247.085 407.27 248.078C407.643 249.071 407.829 250.168 407.829 251.368C407.829 252.588 407.643 253.695 407.27 254.688C406.918 255.682 406.401 256.53 405.718 257.233C405.056 257.937 404.239 258.485 403.267 258.878C402.315 259.251 401.239 259.437 400.039 259.437C398.942 259.437 397.949 259.282 397.059 258.971C396.19 258.661 395.425 258.216 394.763 257.637C394.101 257.058 393.563 256.364 393.149 255.557C392.735 254.751 392.456 253.851 392.311 252.857H390.728V259.033H386.694ZM400.07 256.054C402.532 256.054 403.763 254.502 403.763 251.399C403.763 248.316 402.532 246.774 400.07 246.774C397.608 246.774 396.377 248.316 396.377 251.399C396.377 254.502 397.608 256.054 400.07 256.054Z" fill="black"/>
</g>
<rect x="1.03451" y="1.03451" width="552.931" height="334.931" rx="9.31063" stroke="#8A38F5" stroke-width="2.06903" stroke-dasharray="20.69 10.35"/>
<defs>
<filter id="filter0_g_855_930" x="-6.6269" y="34.3731" width="510.254" height="106.254" filterUnits="userSpaceOnUse" color-interpolation-filters="sRGB">
<feFlood flood-opacity="0" result="BackgroundImageFix"/>
<feBlend mode="normal" in="SourceGraphic" in2="BackgroundImageFix" result="shape"/>
<feTurbulence type="fractalNoise" baseFrequency="0.013295164331793785 0.013295164331793785" numOctaves="3" seed="3084" />
<feDisplacementMap in="shape" scale="13.253800392150879" xChannelSelector="R" yChannelSelector="G" result="displacedImage" width="100%" height="100%" />
<feMerge result="effect1_texture_855_930">
<feMergeNode in="displacedImage"/>
</feMerge>
</filter>
<clipPath id="bgblur_1_855_930_clip_path" transform="translate(-76.7451 -60.6904)"><path d="M103.317 98V80.8995H95.1234V98H90.9025V77.3925H107.569V98H103.317ZM119.173 88.8756C119.152 88.3169 119.049 87.8307 118.863 87.4169C118.697 86.9824 118.47 86.6307 118.18 86.3617C117.89 86.072 117.559 85.8651 117.187 85.741C116.814 85.5962 116.432 85.5237 116.039 85.5237C115.232 85.5237 114.528 85.8238 113.928 86.4238C113.349 87.0031 113.018 87.8204 112.935 88.8756H119.173ZM112.811 91.4205C112.873 92.5791 113.204 93.4999 113.804 94.1826C114.425 94.8654 115.232 95.2068 116.225 95.2068C116.887 95.2068 117.466 95.062 117.963 94.7723C118.48 94.462 118.811 94.0378 118.956 93.4999H123.115C122.639 95.0723 121.811 96.2827 120.632 97.131C119.452 97.9793 118.046 98.4035 116.411 98.4035C111.321 98.4035 108.776 95.631 108.776 90.086C108.776 88.9066 108.942 87.8411 109.273 86.8893C109.604 85.9376 110.08 85.1203 110.7 84.4375C111.342 83.7547 112.118 83.2375 113.028 82.8857C113.939 82.5133 114.983 82.3271 116.163 82.3271C118.521 82.3271 120.301 83.0823 121.501 84.5927C122.722 86.1031 123.332 88.379 123.332 91.4205H112.811ZM131.927 94.9585C134.244 94.9585 135.403 93.3861 135.403 90.2411C135.403 88.8756 135.082 87.7686 134.44 86.9203C133.799 86.0514 132.971 85.6169 131.958 85.6169C130.985 85.6169 130.168 86.0203 129.506 86.8272C128.864 87.6342 128.544 88.6894 128.544 89.9929C128.544 93.3033 129.671 94.9585 131.927 94.9585ZM124.726 105.231V82.7306H128.606L128.637 84.5927C129.568 83.0823 130.985 82.3271 132.889 82.3271C133.84 82.3271 134.72 82.5133 135.527 82.8857C136.354 83.2582 137.058 83.7961 137.637 84.4996C138.216 85.203 138.672 86.0617 139.003 87.0755C139.334 88.0893 139.499 89.2377 139.499 90.5205C139.499 91.6791 139.354 92.7447 139.065 93.7171C138.796 94.6689 138.392 95.4965 137.854 96.1999C137.316 96.9034 136.654 97.4517 135.868 97.8448C135.103 98.2172 134.223 98.4035 133.23 98.4035C131.347 98.4035 129.837 97.6069 128.699 96.0137V105.231H124.726ZM151.027 88.8756C151.006 88.3169 150.903 87.8307 150.717 87.4169C150.551 86.9824 150.323 86.6307 150.034 86.3617C149.744 86.072 149.413 85.8651 149.041 85.741C148.668 85.5962 148.285 85.5237 147.892 85.5237C147.085 85.5237 146.382 85.8238 145.782 86.4238C145.203 87.0031 144.872 87.8204 144.789 88.8756H151.027ZM144.665 91.4205C144.727 92.5791 145.058 93.4999 145.658 94.1826C146.279 94.8654 147.085 95.2068 148.079 95.2068C148.741 95.2068 149.32 95.062 149.817 94.7723C150.334 94.462 150.665 94.0378 150.81 93.4999H154.968C154.493 95.0723 153.665 96.2827 152.486 97.131C151.306 97.9793 149.899 98.4035 148.265 98.4035C143.175 98.4035 140.63 95.631 140.63 90.086C140.63 88.9066 140.796 87.8411 141.127 86.8893C141.458 85.9376 141.934 85.1203 142.554 84.4375C143.196 83.7547 143.972 83.2375 144.882 82.8857C145.792 82.5133 146.837 82.3271 148.016 82.3271C150.375 82.3271 152.155 83.0823 153.355 84.5927C154.575 86.1031 155.186 88.379 155.186 91.4205H144.665ZM168.746 74.8476C168.746 75.7165 168.601 76.4717 168.311 77.1131C168.043 77.7545 167.67 78.2925 167.194 78.727C166.739 79.1408 166.201 79.4615 165.58 79.6891C164.98 79.896 164.36 79.9994 163.718 79.9994C163.077 79.9994 162.446 79.896 161.825 79.6891C161.225 79.4615 160.687 79.1408 160.211 78.727C159.756 78.2925 159.384 77.7545 159.094 77.1131C158.825 76.4717 158.69 75.7165 158.69 74.8476H161.235C161.277 75.7165 161.504 76.389 161.918 76.8649C162.353 77.32 162.953 77.5476 163.718 77.5476C164.484 77.5476 165.073 77.32 165.487 76.8649C165.922 76.389 166.16 75.7165 166.201 74.8476H168.746ZM156.673 98V82.7306H160.646V92.6619L166.48 82.7306H170.67V98H166.729V87.6342L160.553 98H156.673ZM177.056 98V85.9582H171.811V82.7306H186.212V85.9582H180.998V98H177.056ZM187.345 98V82.7306H191.317V92.6619L197.152 82.7306H201.342V98H197.4V87.6342L191.224 98H187.345ZM219.931 98L216.58 91.1412L214.624 93.1585V98H210.559V82.7306H214.624V88.5342L219.652 82.7306H224.587L219.466 88.348L224.463 98H219.931ZM240.558 95.0206C243.02 95.0206 244.251 93.4688 244.251 90.3653C244.251 87.2824 243.02 85.741 240.558 85.741C238.096 85.741 236.865 87.2824 236.865 90.3653C236.865 93.4688 238.096 95.0206 240.558 95.0206ZM240.558 98.4035C239.316 98.4035 238.21 98.2069 237.237 97.8138C236.265 97.4207 235.437 96.8724 234.754 96.1689C234.092 95.4654 233.585 94.6171 233.234 93.624C232.882 92.6309 232.706 91.5446 232.706 90.3653C232.706 89.1652 232.882 88.0687 233.234 87.0755C233.606 86.0824 234.134 85.2341 234.816 84.5306C235.499 83.8271 236.316 83.2892 237.268 82.9168C238.241 82.5237 239.337 82.3271 240.558 82.3271C241.758 82.3271 242.834 82.5237 243.786 82.9168C244.737 83.2892 245.544 83.8271 246.206 84.5306C246.889 85.2134 247.406 86.0514 247.758 87.0445C248.131 88.0376 248.317 89.1446 248.317 90.3653C248.317 91.586 248.131 92.6929 247.758 93.6861C247.406 94.6585 246.889 95.4965 246.206 96.1999C245.544 96.9034 244.727 97.4517 243.755 97.8448C242.803 98.2172 241.737 98.4035 240.558 98.4035ZM258.188 105.231V98.2793C255.209 98.0517 253.005 97.2345 251.577 95.8275C250.17 94.3999 249.467 92.5791 249.467 90.3653C249.467 88.1514 250.181 86.341 251.608 84.9341C253.036 83.5064 255.229 82.6788 258.188 82.4512V77.1442H262.036V82.4512C264.974 82.6788 267.157 83.5064 268.585 84.9341C270.033 86.341 270.757 88.1514 270.757 90.3653C270.757 92.5998 270.043 94.4206 268.616 95.8275C267.188 97.2345 264.995 98.0517 262.036 98.2793V105.231H258.188ZM253.44 90.3342C253.44 91.7412 253.802 92.8585 254.526 93.6861C255.271 94.493 256.491 94.9792 258.188 95.1447V85.6479C256.512 85.8134 255.302 86.2893 254.557 87.0755C253.812 87.8411 253.44 88.9273 253.44 90.3342ZM266.816 90.3342C266.816 88.9273 266.433 87.8411 265.668 87.0755C264.923 86.2893 263.712 85.8134 262.036 85.6479V95.1447C263.712 94.9792 264.923 94.493 265.668 93.6861C266.433 92.8585 266.816 91.7412 266.816 90.3342ZM279.595 95.0206C282.057 95.0206 283.288 93.4688 283.288 90.3653C283.288 87.2824 282.057 85.741 279.595 85.741C277.133 85.741 275.901 87.2824 275.901 90.3653C275.901 93.4688 277.133 95.0206 279.595 95.0206ZM279.595 98.4035C278.353 98.4035 277.246 98.2069 276.274 97.8138C275.301 97.4207 274.474 96.8724 273.791 96.1689C273.129 95.4654 272.622 94.6171 272.27 93.624C271.919 92.6309 271.743 91.5446 271.743 90.3653C271.743 89.1652 271.919 88.0687 272.27 87.0755C272.643 86.0824 273.17 85.2341 273.853 84.5306C274.536 83.8271 275.353 83.2892 276.305 82.9168C277.277 82.5237 278.374 82.3271 279.595 82.3271C280.795 82.3271 281.871 82.5237 282.822 82.9168C283.774 83.2892 284.581 83.8271 285.243 84.5306C285.926 85.2134 286.443 86.0514 286.795 87.0445C287.167 88.0376 287.354 89.1446 287.354 90.3653C287.354 91.586 287.167 92.6929 286.795 93.6861C286.443 94.6585 285.926 95.4965 285.243 96.1999C284.581 96.9034 283.764 97.4517 282.791 97.8448C281.84 98.2172 280.774 98.4035 279.595 98.4035ZM296.014 94.9585C298.332 94.9585 299.49 93.3861 299.49 90.2411C299.49 88.8756 299.17 87.7686 298.528 86.9203C297.887 86.0514 297.059 85.6169 296.045 85.6169C295.073 85.6169 294.256 86.0203 293.594 86.8272C292.952 87.6342 292.631 88.6894 292.631 89.9929C292.631 93.3033 293.759 94.9585 296.014 94.9585ZM288.814 105.231V82.7306H292.694L292.725 84.5927C293.656 83.0823 295.073 82.3271 296.976 82.3271C297.928 82.3271 298.808 82.5133 299.614 82.8857C300.442 83.2582 301.146 83.7961 301.725 84.4996C302.304 85.203 302.759 86.0617 303.09 87.0755C303.421 88.0893 303.587 89.2377 303.587 90.5205C303.587 91.6791 303.442 92.7447 303.153 93.7171C302.884 94.6689 302.48 95.4965 301.942 96.1999C301.404 96.9034 300.742 97.4517 299.956 97.8448C299.19 98.2172 298.311 98.4035 297.318 98.4035C295.435 98.4035 293.925 97.6069 292.787 96.0137V105.231H288.814ZM319.18 98V87.4169L315.891 98H312.011L308.752 87.479V98H305.152V82.7306H310.77L314.028 93.593L317.287 82.7306H322.78V98H319.18ZM335.287 98V85.9582H331.097L330.942 88.6894C330.818 90.6756 330.621 92.2791 330.352 93.4999C330.104 94.7206 329.732 95.6723 329.235 96.3551C328.759 97.0172 328.139 97.4621 327.373 97.6896C326.628 97.8965 325.718 98 324.642 98H324.021V94.7723H324.425C324.983 94.7723 325.459 94.7102 325.852 94.5861C326.245 94.4413 326.576 94.1516 326.845 93.7171C327.114 93.2826 327.332 92.6516 327.497 91.8239C327.663 90.9963 327.787 89.8791 327.87 88.4721L328.211 82.7306H339.229V98H335.287ZM350.999 88.8756C350.979 88.3169 350.875 87.8307 350.689 87.4169C350.524 86.9824 350.296 86.6307 350.006 86.3617C349.717 86.072 349.386 85.8651 349.013 85.741C348.641 85.5962 348.258 85.5237 347.865 85.5237C347.058 85.5237 346.354 85.8238 345.754 86.4238C345.175 87.0031 344.844 87.8204 344.761 88.8756H350.999ZM344.637 91.4205C344.699 92.5791 345.03 93.4999 345.63 94.1826C346.251 94.8654 347.058 95.2068 348.051 95.2068C348.713 95.2068 349.293 95.062 349.789 94.7723C350.306 94.462 350.637 94.0378 350.782 93.4999H354.941C354.465 95.0723 353.637 96.2827 352.458 97.131C351.279 97.9793 349.872 98.4035 348.237 98.4035C343.147 98.4035 340.603 95.631 340.603 90.086C340.603 88.9066 340.768 87.8411 341.099 86.8893C341.43 85.9376 341.906 85.1203 342.527 84.4375C343.168 83.7547 343.944 83.2375 344.854 82.8857C345.765 82.5133 346.81 82.3271 347.989 82.3271C350.348 82.3271 352.127 83.0823 353.327 84.5927C354.548 86.1031 355.158 88.379 355.158 91.4205H344.637ZM356.646 98V82.7306H360.587V88.5652H366.732V82.7306H370.674V98H366.732V91.7619H360.587V98H356.646ZM372.467 98V82.7306H376.439V92.6619L382.274 82.7306H386.464V98H382.522V87.6342L376.346 98H372.467ZM388.287 98V82.7306H392.322V88.7825H393.936C394.225 86.7962 395.043 85.2237 396.388 84.0651C397.732 82.9064 399.481 82.3271 401.633 82.3271C402.833 82.3271 403.909 82.5237 404.86 82.9168C405.833 83.2892 406.65 83.8271 407.312 84.5306C407.995 85.2134 408.512 86.0514 408.864 87.0445C409.236 88.0376 409.422 89.1342 409.422 90.3342C409.422 91.555 409.236 92.6619 408.864 93.655C408.512 94.6482 407.995 95.4965 407.312 96.1999C406.65 96.9034 405.833 97.4517 404.86 97.8448C403.909 98.2172 402.833 98.4035 401.633 98.4035C400.536 98.4035 399.543 98.2483 398.653 97.9379C397.784 97.6276 397.019 97.1827 396.357 96.6034C395.694 96.0241 395.157 95.331 394.743 94.524C394.329 93.7171 394.05 92.8171 393.905 91.8239H392.322V98H388.287ZM401.664 95.0206C404.126 95.0206 405.357 93.4688 405.357 90.3653C405.357 87.2824 404.126 85.741 401.664 85.741C399.201 85.741 397.97 87.2824 397.97 90.3653C397.97 93.4688 399.201 95.0206 401.664 95.0206Z"/>
</clipPath><filter id="filter2_g_855_930" x="-8.22065" y="195.407" width="510.254" height="106.254" filterUnits="userSpaceOnUse" color-interpolation-filters="sRGB">
<feFlood flood-opacity="0" result="BackgroundImageFix"/>
<feBlend mode="normal" in="SourceGraphic" in2="BackgroundImageFix" result="shape"/>
<feTurbulence type="fractalNoise" baseFrequency="0.013295164331793785 0.013295164331793785" numOctaves="3" seed="3084" />
<feDisplacementMap in="shape" scale="13.253800392150879" xChannelSelector="R" yChannelSelector="G" result="displacedImage" width="100%" height="100%" />
<feMerge result="effect1_texture_855_930">
<feMergeNode in="displacedImage"/>
</feMerge>
</filter>
<clipPath id="bgblur_2_855_930_clip_path" transform="translate(-75.1514 -221.724)"><path d="M101.723 259.033V241.933H93.5296V259.033H89.3088V238.426H105.975V259.033H101.723ZM117.579 249.909C117.559 249.35 117.455 248.864 117.269 248.45C117.104 248.016 116.876 247.664 116.586 247.395C116.297 247.105 115.966 246.899 115.593 246.774C115.221 246.63 114.838 246.557 114.445 246.557C113.638 246.557 112.934 246.857 112.334 247.457C111.755 248.037 111.424 248.854 111.341 249.909H117.579ZM111.217 252.454C111.279 253.613 111.61 254.533 112.21 255.216C112.831 255.899 113.638 256.24 114.631 256.24C115.293 256.24 115.872 256.095 116.369 255.806C116.886 255.495 117.217 255.071 117.362 254.533H121.521C121.045 256.106 120.217 257.316 119.038 258.164C117.859 259.013 116.452 259.437 114.817 259.437C109.727 259.437 107.183 256.664 107.183 251.119C107.183 249.94 107.348 248.875 107.679 247.923C108.01 246.971 108.486 246.154 109.107 245.471C109.748 244.788 110.524 244.271 111.434 243.919C112.345 243.547 113.39 243.361 114.569 243.361C116.928 243.361 118.707 244.116 119.907 245.626C121.128 247.137 121.738 249.412 121.738 252.454H111.217ZM130.333 255.992C132.65 255.992 133.809 254.42 133.809 251.275C133.809 249.909 133.488 248.802 132.847 247.954C132.205 247.085 131.378 246.65 130.364 246.65C129.391 246.65 128.574 247.054 127.912 247.861C127.271 248.668 126.95 249.723 126.95 251.026C126.95 254.337 128.078 255.992 130.333 255.992ZM123.133 266.265V243.764H127.012L127.043 245.626C127.974 244.116 129.391 243.361 131.295 243.361C132.247 243.361 133.126 243.547 133.933 243.919C134.761 244.292 135.464 244.83 136.043 245.533C136.623 246.236 137.078 247.095 137.409 248.109C137.74 249.123 137.905 250.271 137.905 251.554C137.905 252.713 137.761 253.778 137.471 254.751C137.202 255.702 136.799 256.53 136.261 257.233C135.723 257.937 135.061 258.485 134.274 258.878C133.509 259.251 132.629 259.437 131.636 259.437C129.753 259.437 128.243 258.64 127.105 257.047V266.265H123.133ZM149.433 249.909C149.412 249.35 149.309 248.864 149.123 248.45C148.957 248.016 148.73 247.664 148.44 247.395C148.15 247.105 147.819 246.899 147.447 246.774C147.074 246.63 146.692 246.557 146.299 246.557C145.492 246.557 144.788 246.857 144.188 247.457C143.609 248.037 143.278 248.854 143.195 249.909H149.433ZM143.071 252.454C143.133 253.613 143.464 254.533 144.064 255.216C144.685 255.899 145.492 256.24 146.485 256.24C147.147 256.24 147.726 256.095 148.223 255.806C148.74 255.495 149.071 255.071 149.216 254.533H153.375C152.899 256.106 152.071 257.316 150.892 258.164C149.712 259.013 148.306 259.437 146.671 259.437C141.581 259.437 139.036 256.664 139.036 251.119C139.036 249.94 139.202 248.875 139.533 247.923C139.864 246.971 140.34 246.154 140.96 245.471C141.602 244.788 142.378 244.271 143.288 243.919C144.199 243.547 145.243 243.361 146.423 243.361C148.781 243.361 150.561 244.116 151.761 245.626C152.982 247.137 153.592 249.412 153.592 252.454H143.071ZM167.152 235.881C167.152 236.75 167.007 237.505 166.718 238.147C166.449 238.788 166.076 239.326 165.6 239.76C165.145 240.174 164.607 240.495 163.987 240.723C163.387 240.929 162.766 241.033 162.124 241.033C161.483 241.033 160.852 240.929 160.231 240.723C159.631 240.495 159.093 240.174 158.617 239.76C158.162 239.326 157.79 238.788 157.5 238.147C157.231 237.505 157.097 236.75 157.097 235.881H159.642C159.683 236.75 159.911 237.422 160.324 237.898C160.759 238.353 161.359 238.581 162.124 238.581C162.89 238.581 163.48 238.353 163.894 237.898C164.328 237.422 164.566 236.75 164.607 235.881H167.152ZM155.079 259.033V243.764H159.052V253.695L164.887 243.764H169.076V259.033H165.135V248.668L158.959 259.033H155.079ZM175.462 259.033V246.992H170.217V243.764H184.618V246.992H179.404V259.033H175.462ZM185.751 259.033V243.764H189.724V253.695L195.558 243.764H199.748V259.033H195.807V248.668L189.631 259.033H185.751ZM218.338 259.033L214.986 252.175L213.031 254.192V259.033H208.965V243.764H213.031V249.568L218.058 243.764H222.993L217.872 249.381L222.869 259.033H218.338ZM238.964 256.054C241.426 256.054 242.657 254.502 242.657 251.399C242.657 248.316 241.426 246.774 238.964 246.774C236.502 246.774 235.271 248.316 235.271 251.399C235.271 254.502 236.502 256.054 238.964 256.054ZM238.964 259.437C237.723 259.437 236.616 259.24 235.643 258.847C234.671 258.454 233.843 257.906 233.161 257.202C232.498 256.499 231.992 255.651 231.64 254.657C231.288 253.664 231.112 252.578 231.112 251.399C231.112 250.199 231.288 249.102 231.64 248.109C232.012 247.116 232.54 246.268 233.223 245.564C233.905 244.861 234.723 244.323 235.674 243.95C236.647 243.557 237.743 243.361 238.964 243.361C240.164 243.361 241.24 243.557 242.192 243.95C243.144 244.323 243.95 244.861 244.613 245.564C245.295 246.247 245.813 247.085 246.164 248.078C246.537 249.071 246.723 250.178 246.723 251.399C246.723 252.619 246.537 253.726 246.164 254.72C245.813 255.692 245.295 256.53 244.613 257.233C243.95 257.937 243.133 258.485 242.161 258.878C241.209 259.251 240.143 259.437 238.964 259.437ZM256.594 266.265V259.313C253.615 259.085 251.411 258.268 249.984 256.861C248.577 255.433 247.873 253.613 247.873 251.399C247.873 249.185 248.587 247.374 250.015 245.968C251.442 244.54 253.635 243.712 256.594 243.485V238.178H260.443V243.485C263.381 243.712 265.563 244.54 266.991 245.968C268.439 247.374 269.164 249.185 269.164 251.399C269.164 253.633 268.45 255.454 267.022 256.861C265.594 258.268 263.401 259.085 260.443 259.313V266.265H256.594ZM251.846 251.368C251.846 252.775 252.208 253.892 252.932 254.72C253.677 255.526 254.898 256.013 256.594 256.178V246.681C254.918 246.847 253.708 247.323 252.963 248.109C252.218 248.875 251.846 249.961 251.846 251.368ZM265.222 251.368C265.222 249.961 264.839 248.875 264.074 248.109C263.329 247.323 262.119 246.847 260.443 246.681V256.178C262.119 256.013 263.329 255.526 264.074 254.72C264.839 253.892 265.222 252.775 265.222 251.368ZM278.001 256.054C280.463 256.054 281.694 254.502 281.694 251.399C281.694 248.316 280.463 246.774 278.001 246.774C275.539 246.774 274.308 248.316 274.308 251.399C274.308 254.502 275.539 256.054 278.001 256.054ZM278.001 259.437C276.759 259.437 275.653 259.24 274.68 258.847C273.708 258.454 272.88 257.906 272.197 257.202C271.535 256.499 271.028 255.651 270.677 254.657C270.325 253.664 270.149 252.578 270.149 251.399C270.149 250.199 270.325 249.102 270.677 248.109C271.049 247.116 271.577 246.268 272.259 245.564C272.942 244.861 273.759 244.323 274.711 243.95C275.684 243.557 276.78 243.361 278.001 243.361C279.201 243.361 280.277 243.557 281.229 243.95C282.18 244.323 282.987 244.861 283.649 245.564C284.332 246.247 284.849 247.085 285.201 248.078C285.574 249.071 285.76 250.178 285.76 251.399C285.76 252.619 285.574 253.726 285.201 254.72C284.849 255.692 284.332 256.53 283.649 257.233C282.987 257.937 282.17 258.485 281.198 258.878C280.246 259.251 279.18 259.437 278.001 259.437ZM294.421 255.992C296.738 255.992 297.897 254.42 297.897 251.275C297.897 249.909 297.576 248.802 296.934 247.954C296.293 247.085 295.465 246.65 294.452 246.65C293.479 246.65 292.662 247.054 292 247.861C291.358 248.668 291.038 249.723 291.038 251.026C291.038 254.337 292.165 255.992 294.421 255.992ZM287.22 266.265V243.764H291.1L291.131 245.626C292.062 244.116 293.479 243.361 295.383 243.361C296.334 243.361 297.214 243.547 298.021 243.919C298.848 244.292 299.552 244.83 300.131 245.533C300.71 246.236 301.166 247.095 301.497 248.109C301.828 249.123 301.993 250.271 301.993 251.554C301.993 252.713 301.848 253.778 301.559 254.751C301.29 255.702 300.886 256.53 300.348 257.233C299.81 257.937 299.148 258.485 298.362 258.878C297.597 259.251 296.717 259.437 295.724 259.437C293.841 259.437 292.331 258.64 291.193 257.047V266.265H287.22ZM317.587 259.033V248.45L314.297 259.033H310.417L307.159 248.512V259.033H303.559V243.764H309.176L312.435 254.626L315.693 243.764H321.187V259.033H317.587ZM333.693 259.033V246.992H329.504L329.348 249.723C329.224 251.709 329.028 253.313 328.759 254.533C328.51 255.754 328.138 256.706 327.641 257.389C327.166 258.051 326.545 258.495 325.779 258.723C325.034 258.93 324.124 259.033 323.048 259.033H322.427V255.806H322.831C323.39 255.806 323.865 255.744 324.259 255.62C324.652 255.475 324.983 255.185 325.252 254.751C325.521 254.316 325.738 253.685 325.903 252.857C326.069 252.03 326.193 250.913 326.276 249.506L326.617 243.764H337.635V259.033H333.693ZM349.406 249.909C349.385 249.35 349.282 248.864 349.095 248.45C348.93 248.016 348.702 247.664 348.413 247.395C348.123 247.105 347.792 246.899 347.419 246.774C347.047 246.63 346.664 246.557 346.271 246.557C345.464 246.557 344.761 246.857 344.161 247.457C343.581 248.037 343.25 248.854 343.168 249.909H349.406ZM343.043 252.454C343.106 253.613 343.437 254.533 344.037 255.216C344.657 255.899 345.464 256.24 346.457 256.24C347.119 256.24 347.699 256.095 348.195 255.806C348.713 255.495 349.044 255.071 349.188 254.533H353.347C352.871 256.106 352.044 257.316 350.864 258.164C349.685 259.013 348.278 259.437 346.644 259.437C341.554 259.437 339.009 256.664 339.009 251.119C339.009 249.94 339.174 248.875 339.505 247.923C339.836 246.971 340.312 246.154 340.933 245.471C341.574 244.788 342.35 244.271 343.261 243.919C344.171 243.547 345.216 243.361 346.395 243.361C348.754 243.361 350.533 244.116 351.733 245.626C352.954 247.137 353.564 249.412 353.564 252.454H343.043ZM355.052 259.033V243.764H358.993V249.599H365.138V243.764H369.08V259.033H365.138V252.795H358.993V259.033H355.052ZM370.873 259.033V243.764H374.845V253.695L380.68 243.764H384.87V259.033H380.928V248.668L374.752 259.033H370.873ZM386.694 259.033V243.764H390.728V249.816H392.342C392.632 247.83 393.449 246.257 394.794 245.099C396.139 243.94 397.887 243.361 400.039 243.361C401.239 243.361 402.315 243.557 403.267 243.95C404.239 244.323 405.056 244.861 405.718 245.564C406.401 246.247 406.918 247.085 407.27 248.078C407.643 249.071 407.829 250.168 407.829 251.368C407.829 252.588 407.643 253.695 407.27 254.688C406.918 255.682 406.401 256.53 405.718 257.233C405.056 257.937 404.239 258.485 403.267 258.878C402.315 259.251 401.239 259.437 400.039 259.437C398.942 259.437 397.949 259.282 397.059 258.971C396.19 258.661 395.425 258.216 394.763 257.637C394.101 257.058 393.563 256.364 393.149 255.557C392.735 254.751 392.456 253.851 392.311 252.857H390.728V259.033H386.694ZM400.07 256.054C402.532 256.054 403.763 254.502 403.763 251.399C403.763 248.316 402.532 246.774 400.07 246.774C397.608 246.774 396.377 248.316 396.377 251.399C396.377 254.502 397.608 256.054 400.07 256.054Z"/>
</clipPath><clipPath id="clip0_855_930">
<rect width="555" height="337" rx="10.3451" fill="white"/>
</clipPath>
</defs>
</svg>
