<svg width="144" height="82" viewBox="0 0 144 82" fill="none" xmlns="http://www.w3.org/2000/svg">
<rect x="0.5" y="0.5" width="143" height="81" rx="4.5" stroke="#8A38F5" stroke-dasharray="10 5"/>
<path d="M37.5914 20.2197C37.4903 20.284 36.2932 21.376 35.1636 22.3051C35.0202 22.423 34.9545 22.4721 34.357 23.178C33.7595 23.8838 32.6267 25.2378 31.3646 26.5914C30.1025 27.945 28.7455 29.2571 27.7535 30.1728C26.2058 31.6015 25.3419 32.3 24.679 32.9178C23.6632 33.8645 22.6785 34.6568 22.0248 35.2921C20.8149 36.4677 20.4117 36.8655 20.1036 37.48C20.0408 37.6052 19.981 37.6723 20.0057 37.7142C20.2804 38.1799 21.925 37.6725 22.8492 37.59C24.1883 37.4694 25.0185 37.4838 25.2513 37.523C25.3946 37.5468 25.5894 37.5788 25.828 37.6225" stroke="#636363" stroke-width="2" stroke-linecap="round"/>
<path d="M25.8906 37.7869C25.8906 37.7936 25.8906 38.2717 25.9205 40.4455C25.9438 42.1447 26.0099 45.0538 26.0372 46.8176C26.0726 49.1117 26.0963 49.9646 26.1886 50.493C26.2911 51.0793 26.6463 51.3274 27.3513 51.7556C27.8195 52.0399 28.2121 52.1385 28.4712 52.2001C28.8525 52.2907 29.9437 52.2741 31.9305 52.2513C33.0642 52.2382 34.4528 52.2361 35.4926 52.2066C38.1649 52.0174 38.898 51.9087 39.0938 51.9016C39.1958 51.898 39.3033 51.8945 39.432 51.7843" stroke="#636363" stroke-width="2" stroke-linecap="round"/>
<path d="M39.4316 51.7843C39.4376 51.7843 40.4601 51.7863 42.2481 51.8198C43.5068 51.8435 44.4692 52.0635 45.4915 52.1986C47.5329 52.4682 48.2185 52.1861 48.5782 52.029C48.9108 51.8837 49.0017 51.0895 49.1735 49.7858C49.2814 48.9668 49.2713 47.8108 49.2833 46.0604C49.2952 44.31 49.2887 41.9959 49.3081 40.6148C49.3275 39.2338 49.3731 38.8559 49.4296 38.6273C49.4862 38.3988 49.5522 38.3311 49.7234 38.2961C50.5787 38.1212 51.4426 38.5381 52.4807 38.7199C53.7402 38.6968 54.4234 38.517 54.8807 38.3653C54.977 38.3376 55.0629 38.32 55.3869 38.2715" stroke="#636363" stroke-width="2" stroke-linecap="round"/>
<path d="M55.387 38.2714C55.3737 38.1359 54.7014 36.8735 54.0859 36.0296C53.8398 35.6922 53.2349 35.4101 52.4703 34.9007C50.8586 33.5716 50.3986 33.0094 49.9572 32.2839C49.8583 32.1334 49.7996 32.0747 49.5664 31.9834" stroke="#636363" stroke-width="2" stroke-linecap="round"/>
<path d="M51.068 21.4656C51.068 21.4732 51.0629 22.3226 50.8539 25.0604C50.6499 26.9528 50.2471 29.8666 50.0395 31.446C49.832 33.0255 49.832 33.1823 49.832 33.3439" stroke="#636363" stroke-width="2" stroke-linecap="round"/>
<path d="M50.7743 21.1004C50.7461 21.1004 49.6528 21.0954 47.9426 21.0759C46.7331 21.0159 46.0575 21.0403 45.6105 21.0701C45.29 21.0804 44.7791 21.0812 44.0684 20.9978" stroke="#636363" stroke-width="2" stroke-linecap="round"/>
<path d="M43.1891 20.927C43.1891 21.1379 43.1891 21.3487 43.1844 22.1789C43.1798 23.0092 43.1705 24.4524 43.1222 25.8832C43.0739 27.314 42.9868 28.6886 42.8457 30.2616" stroke="#636363" stroke-width="2" stroke-linecap="round"/>
<path d="M42.4492 24.9901C42.4426 24.9967 42.3728 24.9481 42.031 24.5285C41.2134 23.5251 40.3872 22.273 39.6568 21.3601C39.3146 20.9517 39.03 20.6548 38.8305 20.4617C38.631 20.2686 38.5253 20.1883 38.2129 20" stroke="#636363" stroke-width="2" stroke-linecap="round"/>
<path d="M101.422 20.2175C101.322 20.2812 100.137 21.3627 99.0179 22.2828C98.8759 22.3996 98.8108 22.4483 98.219 23.1473C97.6273 23.8464 96.5054 25.1874 95.2554 26.5279C94.0054 27.8685 92.6614 29.1681 91.6789 30.075C90.1461 31.4899 89.2906 32.1817 88.634 32.7936C87.628 33.7311 86.6528 34.5159 86.0053 35.145C84.8071 36.3093 84.4078 36.7033 84.1026 37.3119C84.0404 37.4359 83.9812 37.5024 84.0056 37.5438C84.2777 38.0051 85.9065 37.5025 86.8219 37.4209C88.148 37.3014 88.9703 37.3157 89.2008 37.3545C89.3428 37.3781 89.5357 37.4098 89.772 37.453" stroke="#636363" stroke-width="1.98078" stroke-linecap="round"/>
<path d="M89.834 37.616C89.834 37.6226 89.834 38.0962 89.8635 40.2491C89.8866 41.932 89.9522 44.813 89.9791 46.5599C90.0142 48.8319 90.0376 49.6767 90.1291 50.2C90.2306 50.7806 90.5824 51.0264 91.2806 51.4504C91.7443 51.732 92.1331 51.8297 92.3898 51.8907C92.7674 51.9804 93.8481 51.9639 95.8158 51.9413C96.9386 51.9284 98.3138 51.9263 99.3436 51.8971C101.99 51.7097 102.716 51.6021 102.91 51.595C103.011 51.5915 103.118 51.588 103.245 51.4789" stroke="#636363" stroke-width="1.98078" stroke-linecap="round"/>
<path d="M103.244 51.4789C103.25 51.4789 104.263 51.4808 106.034 51.514C107.28 51.5374 108.233 51.7554 109.246 51.8891C111.268 52.1562 111.947 51.8768 112.303 51.7212C112.632 51.5773 112.722 50.7907 112.892 49.4996C112.999 48.6884 112.989 47.5435 113.001 45.8099C113.013 44.0764 113.006 41.7845 113.026 40.4167C113.045 39.0489 113.09 38.6747 113.146 38.4483C113.202 38.222 113.267 38.1549 113.437 38.1203C114.284 37.9471 115.14 38.36 116.168 38.54C117.415 38.5171 118.092 38.3391 118.545 38.1889C118.64 38.1614 118.725 38.144 119.046 38.0959" stroke="#636363" stroke-width="1.98078" stroke-linecap="round"/>
<path d="M119.046 38.0959C119.033 37.9617 118.367 36.7114 117.757 35.8756C117.514 35.5414 116.914 35.262 116.157 34.7575C114.561 33.4413 114.105 32.8845 113.668 32.1659C113.57 32.0169 113.512 31.9588 113.281 31.8683" stroke="#636363" stroke-width="1.98078" stroke-linecap="round"/>
<path d="M114.769 21.4515C114.769 21.4591 114.764 22.3003 114.557 25.0118C114.355 26.886 113.956 29.7718 113.75 31.3361C113.545 32.9003 113.545 33.0556 113.545 33.2157" stroke="#636363" stroke-width="1.98078" stroke-linecap="round"/>
<path d="M114.479 21.0899C114.451 21.0899 113.369 21.0849 111.675 21.0656C110.477 21.0062 109.808 21.0304 109.365 21.0598C109.048 21.0701 108.542 21.0709 107.838 20.9883" stroke="#636363" stroke-width="1.98078" stroke-linecap="round"/>
<path d="M106.965 20.9181C106.965 21.1269 106.965 21.3357 106.96 22.158C106.956 22.9802 106.947 24.4096 106.899 25.8266C106.851 27.2437 106.765 28.6051 106.625 30.163" stroke="#636363" stroke-width="1.98078" stroke-linecap="round"/>
<path d="M106.235 24.9421C106.228 24.9487 106.159 24.9006 105.82 24.485C105.011 23.4912 104.192 22.2511 103.469 21.347C103.13 20.9426 102.848 20.6485 102.651 20.4573C102.453 20.266 102.348 20.1865 102.039 20" stroke="#636363" stroke-width="1.98078" stroke-linecap="round"/>
<path d="M102.595 21.7327C102.507 21.7962 102.241 21.9861 101.357 22.8148C100.558 23.5648 99.0543 24.9938 98.1653 25.8234C97.2763 26.653 97.0497 26.8426 96.7108 27.1902C96.372 27.5377 95.9278 28.0376 94.5965 29.4445C93.2652 30.8513 91.0603 33.1501 89.9155 34.3648C88.7708 35.5795 88.753 35.6405 88.7942 35.6461C88.8354 35.6516 88.9361 35.5999 91.2884 34.3262C93.6406 33.0526 98.2414 30.5586 101.113 28.9006C103.985 27.2427 104.989 26.4963 105.598 26.0711C106.208 25.6458 106.393 25.5643 106.451 25.5994C106.508 25.6346 106.432 25.7889 105.688 26.5582C104.943 27.3275 103.533 28.7071 100.874 30.8081C98.215 32.9091 94.3507 35.6898 92.3055 37.1723C90.2602 38.6547 90.1512 38.7547 90.0356 38.8883C89.9201 39.0219 89.8012 39.1861 90.2763 38.8711C90.7514 38.5561 91.824 37.7569 94.3102 36.126C96.7963 34.4951 100.663 32.0567 103.638 29.9868C106.613 27.9169 108.579 26.2893 110.133 25.1158C111.688 23.9424 112.772 23.2723 113.335 22.9592C113.899 22.6461 113.909 22.7104 113.817 22.8822C113.726 23.054 113.532 23.3314 112.666 24.3507C111.799 25.3699 110.266 27.1226 109.277 28.1757C108.287 29.2288 107.889 29.5294 107.583 29.7435C107.278 29.9577 107.077 30.0764 107.809 29.9567C108.54 29.8371 110.211 29.4755 111.106 29.285C112.071 29.0799 112.228 29.0776 112.323 29.1145C112.359 29.1285 112.269 29.2253 109.689 30.9921C107.109 32.759 102.015 36.2166 98.4967 38.4142C94.9782 40.6118 93.1894 41.4447 92.1191 41.9257C91.0487 42.4066 90.751 42.5104 90.658 42.5556C90.5651 42.6008 90.686 42.5844 93.7993 41.2562C96.9125 39.9279 103.014 37.2883 106.636 35.7865C110.257 34.2847 111.213 34.0008 111.872 33.8183C112.86 33.5448 113.356 33.4482 113.52 33.4368C113.554 33.4345 113.416 33.5662 110.63 34.9651C107.844 36.3639 102.396 39.0584 99.2644 40.6887C96.1324 42.3191 95.481 42.8036 94.9731 43.2222C94.0935 43.9471 93.6792 44.3911 93.3688 44.5949C92.3256 45.2801 92.0173 45.5016 92.0164 45.5876C92.0157 45.6571 92.2973 45.509 94.0658 44.8412C95.8342 44.1734 99.1534 42.9215 101.045 42.2349C102.937 41.5483 103.3 41.4651 104.283 41.1112C105.266 40.7574 106.857 40.1354 107.807 39.7866C109.624 39.1193 110.62 39.182 110.836 39.2171C110.906 39.2283 110.858 39.3223 110.776 39.4063C110.694 39.4903 110.571 39.586 108.744 40.7526C106.918 41.9191 103.393 44.1536 101.448 45.4075C99.5026 46.6614 99.2436 46.867 99.0402 47.0119C98.7065 47.2496 98.0042 47.496 97.0551 47.7943C96.425 47.9924 96.0766 48.0193 96.0053 48.0213C95.8362 48.0258 96.5174 47.9432 97.1066 47.74C97.5075 47.6016 98.0897 47.3229 99.0528 46.7667C100.016 46.2104 101.336 45.3674 102.232 44.8424C103.129 44.3174 103.563 44.1359 104.527 43.8392C105.49 43.5424 106.97 43.1358 107.773 42.9226C108.99 42.5995 109.732 42.6052 110.499 42.5248C110.835 42.4896 111.055 42.5376 111.173 42.6158C111.23 42.6532 111.243 42.7309 111.223 42.8037C111.177 42.969 110.488 43.4313 109.288 44.3099C108.658 44.7709 108.044 45.3391 107.494 45.759C106.03 46.8773 105.691 46.846 105.487 46.9114C104.831 47.1221 104.398 48.168 104.075 48.8182C103.994 48.972 103.923 49.0819 103.854 49.1733C103.784 49.2647 103.718 49.3341 103.586 49.491" stroke="#636363" stroke-width="1.98078" stroke-linecap="round"/>
<path d="M90.7817 45.5315C90.7817 45.5459 91.0714 45.897 91.6771 46.584C92.6928 47.736 93.1164 48.1033 93.6249 48.4616C94.2374 48.8932 94.9522 49.3541 95.4884 49.6674C95.8169 49.8594 96.0395 50.0898 96.2549 50.2454C96.3251 50.2962 96.3591 50.2109 96.3508 50.1096C96.3425 50.0084 96.3019 49.8737 95.7858 48.9662C95.2697 48.0586 94.2793 46.3823 93.4435 45.1459C92.6077 43.9096 91.9565 43.1639 91.5788 42.7116C91.2011 42.2593 91.1166 42.1229 91.1439 42.0949C91.1711 42.0669 91.3127 42.1514 91.8832 42.6525C92.4537 43.1536 93.4488 44.0686 94.1317 44.6735C94.8147 45.2784 95.1553 45.5455 96.0842 46.3358C97.013 47.1261 98.5197 48.4314 99.3255 49.1394C100.336 50.0274 100.552 50.2252 100.721 50.281C100.785 50.3023 100.82 50.2029 100.827 50.0883C100.865 49.5048 100.491 48.782 99.9168 47.7837C99.5686 47.1788 98.9777 46.4524 98.1924 45.5872C97.4071 44.722 96.4127 43.7599 95.7468 43.1442C95.0808 42.5286 94.7736 42.2887 94.2365 41.7858C93.6995 41.2829 92.9421 40.5243 92.4087 39.9522C91.5608 39.0427 91.1241 38.4693 90.8177 38.1397C90.3556 37.6427 90.2126 37.1782 90.1708 36.9358C90.1592 36.8689 90.2501 36.9142 91.2844 37.9172C92.3188 38.9202 94.315 40.8792 96.6441 42.8895C98.9732 44.8998 101.575 46.9021 102.963 47.9888C104.782 49.4121 105.254 49.7956 105.32 49.8164C105.369 49.8315 105.256 49.5907 104.341 48.0256C103.425 46.4604 101.663 43.5106 100.273 41.4384C98.8842 39.3663 97.9219 38.2613 96.9224 37.2766C95.9229 36.2919 94.9155 35.461 94.2174 34.8329C93.1215 33.847 92.5675 33.1779 92.1618 32.7665C91.9741 32.5762 91.8489 32.3986 93.4871 33.6739C95.1253 34.9492 98.5373 37.6765 101.459 40.1844C104.381 42.6924 106.708 44.8984 107.987 46.1416C109.265 47.3849 109.424 47.5985 109.675 48.0468C110.295 49.155 110.694 49.9754 110.838 50.0787C110.967 50.1721 110.92 49.5489 110.675 48.7413C110.516 48.2159 110.203 47.4821 108.35 44.3115C106.497 41.1408 103.091 35.5623 101.237 32.4552C99.3824 29.3481 99.1821 28.8816 98.9117 28.3146C98.6413 27.7476 98.3069 27.0942 98.1999 26.8033C98.093 26.5124 98.2235 26.6038 100.521 28.6283C102.818 30.6528 107.277 34.6077 109.569 36.6007C111.86 38.5936 111.849 38.5048 111.802 38.3676C111.754 38.2303 111.672 38.0473 110.653 36.4971C109.634 34.9469 107.682 32.0351 106.239 29.6241C104.797 27.2132 103.924 25.3913 103.445 24.4208C102.843 23.202 102.506 23.0615 102.344 22.9302C102.244 22.8495 102.151 22.6944 103.763 24.494C105.375 26.2936 108.705 30.0409 110.65 32.1828C112.595 34.3248 113.054 34.748 113.312 34.9893C113.724 35.3745 114.187 36.0204 114.468 36.3039C114.513 36.35 114.42 36.0574 113.988 35.0706C113.556 34.0838 112.739 32.2974 112.204 30.8978C111.67 29.4982 111.443 28.5395 111.023 27.3453C110.603 26.1511 109.997 24.7505 109.63 23.8477C109.263 22.9449 109.153 22.5824 109.08 22.3665C109.006 22.1505 108.972 22.0921 108.911 22.0142" stroke="#636363" stroke-width="1.98078" stroke-linecap="round"/>
<path d="M110.779 20.5387C110.688 20.4997 110.419 20.2901 109.951 19.458C109.803 19.1959 109.651 18.5187 109.393 16.9021C109.229 15.8744 109.172 14.4016 109.124 13.5231C109.063 12.4 109.216 11.8066 109.472 11.2076C109.813 10.4069 110.494 10.1807 111.104 9.94726C111.585 9.76302 112.112 9.92021 112.244 10.0472C112.676 10.4617 112.605 11.5823 112.507 12.0665C112.436 12.4156 111.406 12.5986 109.672 12.7359C108.816 12.8037 108.29 12.3763 107.941 12.0103C107.473 11.52 107.524 10.6552 107.508 8.51571C107.5 7.45438 107.951 6.67129 108.626 5.70437C109.569 4.35491 110.455 4.00434 111.267 3.69567C111.552 3.58739 111.935 3.54299 112.643 3.49032C113.351 3.43766 114.382 3.40809 115.133 3.41778C115.884 3.42747 116.323 3.47732 116.887 3.58624C118.136 3.82716 119.24 4.19984 119.965 4.51118C121.046 4.97521 121.943 6.01028 122.26 6.46256C122.386 6.64094 122.369 6.88821 122.342 7.07344C122.33 7.15727 122.26 7.20577 122.177 7.24028C121.648 7.46095 120.833 7.11864 120.131 6.83472C119.874 6.7307 119.693 6.54728 119.512 6.34536C119.086 5.87055 119.436 4.68881 119.66 4.17557C119.787 3.88491 120.045 3.71902 120.472 3.4125C121.44 2.71629 122.383 2.19443 122.934 1.92593C123.212 1.76836 123.488 1.56749 123.726 1.418C123.963 1.26851 124.155 1.17649 124.537 1.01575" stroke="#636363" stroke-width="2" stroke-linecap="round"/>
</svg>
