<svg width="232" height="141" viewBox="0 0 232 141" fill="none" xmlns="http://www.w3.org/2000/svg">
<rect x="0.5" y="0.5" width="231" height="140" rx="4.5" stroke="#8A38F5" stroke-dasharray="10 5"/>
<path d="M20.0003 23.1864C20.0003 23.2118 19.984 23.6308 20.1759 24.041C20.4834 24.6981 21.6552 22.9331 22.6195 22.5087C24.8446 21.5296 27.6345 22.561 30.8744 22.9234C33.3566 23.201 36.7071 24.6008 39.0161 24.7758C42.1586 25.014 44.0817 24.4481 45.7391 24.8874C47.3071 25.3031 49.3507 24.4567 51.4776 24.1479C54.5206 23.7062 56.3827 23.0874 57.7793 22.2651C58.653 21.7507 59.2008 20.9057 59.8266 20.476C61.5521 19.2915 64.6033 20.6377 66.165 21.0716C67.8929 21.5516 70.8566 21.6586 74.3059 21.9895C75.4336 22.2641 76.5147 22.5672 78.2725 22.7553C79.4033 22.8192 81.0189 22.8192 83 22.7193" stroke="black" stroke-width="6" stroke-linecap="round"/>
<path d="M20 43.233C21.5966 42.6305 23.9249 41.971 24.6553 42.001C25.4223 42.0324 26.1115 42.794 26.9849 43.3033C28.2958 44.0676 30.3052 43.7203 32.0722 43.8184C33.7188 43.9098 34.999 42.772 36.6926 42.3652C39.418 41.7106 40.9797 43.0315 42.5385 42.9974C44.2732 42.9595 50.3735 43.4739 54.4947 43.2741C56.4445 43.1795 57.8965 42.7628 60.3615 42.4188C66.7526 41.5269 68.7347 43.4641 71.7337 43.9991C75.4131 44.0149 78.3369 43.8211 79.7578 43.5123C80.6035 43.3657 81.7022 43.2397 83 43.0766" stroke="black" stroke-width="6" stroke-linecap="round"/>
<path d="M20 62.3057C20.3436 62.1333 20.9379 61.8653 21.7748 61.7523C22.7445 61.6214 23.52 62.6429 24.7351 62.8958C26.3192 63.2256 27.9183 62.7104 29.3012 62.2145C31.2118 61.5293 37.2765 60.9248 45.964 61.0421C53.9801 61.1503 55.9019 62.1256 58.0982 62.1027C60.4409 62.0783 63.4959 61.6191 65.3494 61.5097C67.8128 61.3642 73.9649 61.1154 78.6941 61C79.481 61.1293 80.127 61.3717 80.824 61.5569C81.521 61.7422 82.2495 61.8632 83 61.9878" stroke="black" stroke-width="6" stroke-linecap="round"/>
<path d="M117 76.1864C117 76.2118 116.984 76.6308 117.176 77.041C117.483 77.6981 118.655 75.9331 119.62 75.5087C121.845 74.5296 124.634 75.561 127.874 75.9234C130.357 76.201 133.707 77.6008 136.016 77.7758C139.159 78.014 141.082 77.4481 142.739 77.8874C144.307 78.3031 146.351 77.4567 148.478 77.1479C151.521 76.7062 153.383 76.0874 154.779 75.2651C155.653 74.7507 156.201 73.9057 156.827 73.476C158.552 72.2915 161.603 73.6377 163.165 74.0716C164.893 74.5516 167.857 74.6586 171.306 74.9895C172.434 75.2641 173.515 75.5672 175.272 75.7553C176.403 75.8192 178.019 75.8192 180 75.7193" stroke="black" stroke-width="6" stroke-linecap="round"/>
<path d="M137 96.233C138.014 95.6305 139.492 94.971 139.956 95.001C140.443 95.0324 140.88 95.794 141.435 96.3033C142.267 97.0676 143.543 96.7203 144.665 96.8184C145.71 96.9098 146.523 95.772 147.598 95.3652C149.329 94.7106 150.32 96.0315 151.31 95.9974C152.412 95.9595 156.285 96.4739 158.901 96.2741C160.139 96.1795 161.061 95.7628 162.626 95.4188C166.684 94.5269 167.943 96.4641 169.847 96.9991C172.183 97.0149 174.039 96.8211 174.941 96.5123C175.478 96.3657 176.176 96.2397 177 96.0766" stroke="black" stroke-width="6" stroke-linecap="round"/>
<path d="M137 115.306C137.344 115.133 137.938 114.865 138.775 114.752C139.744 114.621 140.52 115.643 141.735 115.896C143.319 116.226 144.918 115.71 146.301 115.214C148.212 114.529 154.276 113.925 162.964 114.042C170.98 114.15 172.902 115.126 175.098 115.103C177.441 115.078 180.496 114.619 182.349 114.51C184.813 114.364 190.965 114.115 195.694 114C196.481 114.129 197.127 114.372 197.824 114.557C198.521 114.742 199.249 114.863 200 114.988" stroke="black" stroke-width="6" stroke-linecap="round"/>
</svg>
