<svg width="820" height="444" viewBox="0 0 820 444" fill="none" xmlns="http://www.w3.org/2000/svg">
<rect x="0.5" y="0.5" width="819" height="443" rx="4.5" stroke="#8A38F5" stroke-dasharray="10 5"/>
<g filter="url(#filter0_g_810_400)">
<rect x="20.4004" y="20.4004" width="327.199" height="342.199" rx="39.6359" stroke="black" stroke-width="0.800726"/>
</g>
<path d="M131.768 155.4H131.728L128.328 165.96H135.088L131.768 155.4ZM138.368 176L136.688 170.52H126.888L125.008 176H119.128L128.608 149.44H135.048L144.408 176H138.368ZM145.871 176V156.32H151.071V176H145.871ZM145.871 153.96V149.12H151.071V153.96H145.871ZM153.446 176V156.32H158.326V158.68C158.753 158.013 159.193 157.493 159.646 157.12C160.126 156.747 160.606 156.467 161.086 156.28C161.593 156.067 162.1 155.933 162.606 155.88C163.113 155.827 163.633 155.8 164.166 155.8H164.846V161.12C164.366 161.04 163.886 161 163.406 161C160.233 161 158.646 162.587 158.646 165.76V176H153.446ZM177.018 161.84C178.618 161.84 179.764 161.48 180.458 160.76C181.178 160.013 181.538 159.053 181.538 157.88C181.538 156.76 181.178 155.84 180.458 155.12C179.764 154.4 178.618 154.04 177.018 154.04H171.738V161.84H177.018ZM166.178 176V149.44H177.898C179.204 149.44 180.378 149.667 181.418 150.12C182.458 150.547 183.351 151.16 184.098 151.96C184.844 152.733 185.418 153.64 185.818 154.68C186.218 155.72 186.418 156.84 186.418 158.04C186.418 159.24 186.218 160.36 185.818 161.4C185.418 162.413 184.844 163.293 184.098 164.04C183.351 164.76 182.458 165.333 181.418 165.76C180.378 166.16 179.204 166.36 177.898 166.36H171.738V176H166.178ZM197.345 172.16C200.518 172.16 202.105 170.16 202.105 166.16C202.105 162.187 200.518 160.2 197.345 160.2C194.172 160.2 192.585 162.187 192.585 166.16C192.585 170.16 194.172 172.16 197.345 172.16ZM197.345 176.52C195.745 176.52 194.318 176.267 193.065 175.76C191.812 175.253 190.745 174.547 189.865 173.64C189.012 172.733 188.358 171.64 187.905 170.36C187.452 169.08 187.225 167.68 187.225 166.16C187.225 164.613 187.452 163.2 187.905 161.92C188.385 160.64 189.065 159.547 189.945 158.64C190.825 157.733 191.878 157.04 193.105 156.56C194.358 156.053 195.772 155.8 197.345 155.8C198.892 155.8 200.278 156.053 201.505 156.56C202.732 157.04 203.772 157.733 204.625 158.64C205.505 159.52 206.172 160.6 206.625 161.88C207.105 163.16 207.345 164.587 207.345 166.16C207.345 167.733 207.105 169.16 206.625 170.44C206.172 171.693 205.505 172.773 204.625 173.68C203.772 174.587 202.718 175.293 201.465 175.8C200.238 176.28 198.865 176.52 197.345 176.52ZM218.548 172.28C219.801 172.28 220.841 171.76 221.668 170.72C222.521 169.68 222.948 168.32 222.948 166.64C222.948 162.373 221.494 160.24 218.588 160.24C215.601 160.24 214.108 162.267 214.108 166.32C214.108 168.08 214.521 169.52 215.348 170.64C216.174 171.733 217.241 172.28 218.548 172.28ZM222.868 176L222.828 173.6C221.628 175.547 219.801 176.52 217.348 176.52C216.094 176.52 214.948 176.28 213.908 175.8C212.868 175.32 211.974 174.627 211.228 173.72C210.481 172.813 209.894 171.707 209.468 170.4C209.041 169.093 208.828 167.613 208.828 165.96C208.828 164.467 209.001 163.107 209.348 161.88C209.721 160.627 210.254 159.547 210.948 158.64C211.641 157.733 212.481 157.04 213.467 156.56C214.481 156.053 215.628 155.8 216.908 155.8C219.334 155.8 221.281 156.827 222.748 158.88V149.12H227.868V176H222.868ZM242.005 162.28C241.872 161.32 241.525 160.653 240.965 160.28C240.405 159.88 239.525 159.68 238.325 159.68C237.338 159.68 236.578 159.813 236.045 160.08C235.512 160.32 235.245 160.733 235.245 161.32C235.245 161.907 235.512 162.36 236.045 162.68C236.578 162.973 237.378 163.267 238.445 163.56C239.565 163.88 240.632 164.173 241.645 164.44C242.658 164.68 243.552 164.947 244.325 165.24C245.365 165.667 246.165 166.253 246.725 167C247.285 167.72 247.565 168.72 247.565 170C247.565 172.053 246.832 173.653 245.365 174.8C243.925 175.947 241.792 176.52 238.965 176.52C235.925 176.52 233.592 175.88 231.965 174.6C230.365 173.32 229.538 171.68 229.485 169.68H234.845C234.845 170.613 235.205 171.333 235.925 171.84C236.645 172.347 237.645 172.6 238.925 172.6C239.858 172.6 240.672 172.453 241.365 172.16C242.058 171.84 242.405 171.307 242.405 170.56C242.405 169.867 242.085 169.373 241.445 169.08C240.832 168.787 240.098 168.533 239.245 168.32C237.592 167.92 236.258 167.56 235.245 167.24C234.232 166.92 233.378 166.533 232.685 166.08C231.752 165.493 231.098 164.827 230.725 164.08C230.378 163.333 230.205 162.52 230.205 161.64C230.205 160.813 230.352 160.04 230.645 159.32C230.938 158.6 231.418 157.987 232.085 157.48C232.752 156.947 233.605 156.533 234.645 156.24C235.712 155.947 236.992 155.8 238.485 155.8C241.338 155.8 243.432 156.347 244.765 157.44C246.125 158.533 246.872 160.147 247.005 162.28H242.005Z" fill="black"/>
<path d="M131.768 185.4H131.728L128.328 195.96H135.088L131.768 185.4ZM138.368 206L136.688 200.52H126.888L125.008 206H119.128L128.608 179.44H135.048L144.408 206H138.368ZM145.871 206V186.32H151.071V206H145.871ZM145.871 183.96V179.12H151.071V183.96H145.871ZM153.446 206V186.32H158.326V188.68C158.753 188.013 159.193 187.493 159.646 187.12C160.126 186.747 160.606 186.467 161.086 186.28C161.593 186.067 162.1 185.933 162.606 185.88C163.113 185.827 163.633 185.8 164.166 185.8H164.846V191.12C164.366 191.04 163.886 191 163.406 191C160.233 191 158.646 192.587 158.646 195.76V206H153.446ZM177.018 191.84C178.618 191.84 179.764 191.48 180.458 190.76C181.178 190.013 181.538 189.053 181.538 187.88C181.538 186.76 181.178 185.84 180.458 185.12C179.764 184.4 178.618 184.04 177.018 184.04H171.738V191.84H177.018ZM166.178 206V179.44H177.898C179.204 179.44 180.378 179.667 181.418 180.12C182.458 180.547 183.351 181.16 184.098 181.96C184.844 182.733 185.418 183.64 185.818 184.68C186.218 185.72 186.418 186.84 186.418 188.04C186.418 189.24 186.218 190.36 185.818 191.4C185.418 192.413 184.844 193.293 184.098 194.04C183.351 194.76 182.458 195.333 181.418 195.76C180.378 196.16 179.204 196.36 177.898 196.36H171.738V206H166.178ZM197.345 202.16C200.518 202.16 202.105 200.16 202.105 196.16C202.105 192.187 200.518 190.2 197.345 190.2C194.172 190.2 192.585 192.187 192.585 196.16C192.585 200.16 194.172 202.16 197.345 202.16ZM197.345 206.52C195.745 206.52 194.318 206.267 193.065 205.76C191.812 205.253 190.745 204.547 189.865 203.64C189.012 202.733 188.358 201.64 187.905 200.36C187.452 199.08 187.225 197.68 187.225 196.16C187.225 194.613 187.452 193.2 187.905 191.92C188.385 190.64 189.065 189.547 189.945 188.64C190.825 187.733 191.878 187.04 193.105 186.56C194.358 186.053 195.772 185.8 197.345 185.8C198.892 185.8 200.278 186.053 201.505 186.56C202.732 187.04 203.772 187.733 204.625 188.64C205.505 189.52 206.172 190.6 206.625 191.88C207.105 193.16 207.345 194.587 207.345 196.16C207.345 197.733 207.105 199.16 206.625 200.44C206.172 201.693 205.505 202.773 204.625 203.68C203.772 204.587 202.718 205.293 201.465 205.8C200.238 206.28 198.865 206.52 197.345 206.52ZM218.548 202.28C219.801 202.28 220.841 201.76 221.668 200.72C222.521 199.68 222.948 198.32 222.948 196.64C222.948 192.373 221.494 190.24 218.588 190.24C215.601 190.24 214.108 192.267 214.108 196.32C214.108 198.08 214.521 199.52 215.348 200.64C216.174 201.733 217.241 202.28 218.548 202.28ZM222.868 206L222.828 203.6C221.628 205.547 219.801 206.52 217.348 206.52C216.094 206.52 214.948 206.28 213.908 205.8C212.868 205.32 211.974 204.627 211.228 203.72C210.481 202.813 209.894 201.707 209.468 200.4C209.041 199.093 208.828 197.613 208.828 195.96C208.828 194.467 209.001 193.107 209.348 191.88C209.721 190.627 210.254 189.547 210.948 188.64C211.641 187.733 212.481 187.04 213.467 186.56C214.481 186.053 215.628 185.8 216.908 185.8C219.334 185.8 221.281 186.827 222.748 188.88V179.12H227.868V206H222.868ZM242.005 192.28C241.872 191.32 241.525 190.653 240.965 190.28C240.405 189.88 239.525 189.68 238.325 189.68C237.338 189.68 236.578 189.813 236.045 190.08C235.512 190.32 235.245 190.733 235.245 191.32C235.245 191.907 235.512 192.36 236.045 192.68C236.578 192.973 237.378 193.267 238.445 193.56C239.565 193.88 240.632 194.173 241.645 194.44C242.658 194.68 243.552 194.947 244.325 195.24C245.365 195.667 246.165 196.253 246.725 197C247.285 197.72 247.565 198.72 247.565 200C247.565 202.053 246.832 203.653 245.365 204.8C243.925 205.947 241.792 206.52 238.965 206.52C235.925 206.52 233.592 205.88 231.965 204.6C230.365 203.32 229.538 201.68 229.485 199.68H234.845C234.845 200.613 235.205 201.333 235.925 201.84C236.645 202.347 237.645 202.6 238.925 202.6C239.858 202.6 240.672 202.453 241.365 202.16C242.058 201.84 242.405 201.307 242.405 200.56C242.405 199.867 242.085 199.373 241.445 199.08C240.832 198.787 240.098 198.533 239.245 198.32C237.592 197.92 236.258 197.56 235.245 197.24C234.232 196.92 233.378 196.533 232.685 196.08C231.752 195.493 231.098 194.827 230.725 194.08C230.378 193.333 230.205 192.52 230.205 191.64C230.205 190.813 230.352 190.04 230.645 189.32C230.938 188.6 231.418 187.987 232.085 187.48C232.752 186.947 233.605 186.533 234.645 186.24C235.712 185.947 236.992 185.8 238.485 185.8C241.338 185.8 243.432 186.347 244.765 187.44C246.125 188.533 246.872 190.147 247.005 192.28H242.005Z" fill="black"/>
<path d="M131.768 215.4H131.728L128.328 225.96H135.088L131.768 215.4ZM138.368 236L136.688 230.52H126.888L125.008 236H119.128L128.608 209.44H135.048L144.408 236H138.368ZM145.871 236V216.32H151.071V236H145.871ZM145.871 213.96V209.12H151.071V213.96H145.871ZM153.446 236V216.32H158.326V218.68C158.753 218.013 159.193 217.493 159.646 217.12C160.126 216.747 160.606 216.467 161.086 216.28C161.593 216.067 162.1 215.933 162.606 215.88C163.113 215.827 163.633 215.8 164.166 215.8H164.846V221.12C164.366 221.04 163.886 221 163.406 221C160.233 221 158.646 222.587 158.646 225.76V236H153.446ZM177.018 221.84C178.618 221.84 179.764 221.48 180.458 220.76C181.178 220.013 181.538 219.053 181.538 217.88C181.538 216.76 181.178 215.84 180.458 215.12C179.764 214.4 178.618 214.04 177.018 214.04H171.738V221.84H177.018ZM166.178 236V209.44H177.898C179.204 209.44 180.378 209.667 181.418 210.12C182.458 210.547 183.351 211.16 184.098 211.96C184.844 212.733 185.418 213.64 185.818 214.68C186.218 215.72 186.418 216.84 186.418 218.04C186.418 219.24 186.218 220.36 185.818 221.4C185.418 222.413 184.844 223.293 184.098 224.04C183.351 224.76 182.458 225.333 181.418 225.76C180.378 226.16 179.204 226.36 177.898 226.36H171.738V236H166.178ZM197.345 232.16C200.518 232.16 202.105 230.16 202.105 226.16C202.105 222.187 200.518 220.2 197.345 220.2C194.172 220.2 192.585 222.187 192.585 226.16C192.585 230.16 194.172 232.16 197.345 232.16ZM197.345 236.52C195.745 236.52 194.318 236.267 193.065 235.76C191.812 235.253 190.745 234.547 189.865 233.64C189.012 232.733 188.358 231.64 187.905 230.36C187.452 229.08 187.225 227.68 187.225 226.16C187.225 224.613 187.452 223.2 187.905 221.92C188.385 220.64 189.065 219.547 189.945 218.64C190.825 217.733 191.878 217.04 193.105 216.56C194.358 216.053 195.772 215.8 197.345 215.8C198.892 215.8 200.278 216.053 201.505 216.56C202.732 217.04 203.772 217.733 204.625 218.64C205.505 219.52 206.172 220.6 206.625 221.88C207.105 223.16 207.345 224.587 207.345 226.16C207.345 227.733 207.105 229.16 206.625 230.44C206.172 231.693 205.505 232.773 204.625 233.68C203.772 234.587 202.718 235.293 201.465 235.8C200.238 236.28 198.865 236.52 197.345 236.52ZM218.548 232.28C219.801 232.28 220.841 231.76 221.668 230.72C222.521 229.68 222.948 228.32 222.948 226.64C222.948 222.373 221.494 220.24 218.588 220.24C215.601 220.24 214.108 222.267 214.108 226.32C214.108 228.08 214.521 229.52 215.348 230.64C216.174 231.733 217.241 232.28 218.548 232.28ZM222.868 236L222.828 233.6C221.628 235.547 219.801 236.52 217.348 236.52C216.094 236.52 214.948 236.28 213.908 235.8C212.868 235.32 211.974 234.627 211.228 233.72C210.481 232.813 209.894 231.707 209.468 230.4C209.041 229.093 208.828 227.613 208.828 225.96C208.828 224.467 209.001 223.107 209.348 221.88C209.721 220.627 210.254 219.547 210.948 218.64C211.641 217.733 212.481 217.04 213.467 216.56C214.481 216.053 215.628 215.8 216.908 215.8C219.334 215.8 221.281 216.827 222.748 218.88V209.12H227.868V236H222.868ZM242.005 222.28C241.872 221.32 241.525 220.653 240.965 220.28C240.405 219.88 239.525 219.68 238.325 219.68C237.338 219.68 236.578 219.813 236.045 220.08C235.512 220.32 235.245 220.733 235.245 221.32C235.245 221.907 235.512 222.36 236.045 222.68C236.578 222.973 237.378 223.267 238.445 223.56C239.565 223.88 240.632 224.173 241.645 224.44C242.658 224.68 243.552 224.947 244.325 225.24C245.365 225.667 246.165 226.253 246.725 227C247.285 227.72 247.565 228.72 247.565 230C247.565 232.053 246.832 233.653 245.365 234.8C243.925 235.947 241.792 236.52 238.965 236.52C235.925 236.52 233.592 235.88 231.965 234.6C230.365 233.32 229.538 231.68 229.485 229.68H234.845C234.845 230.613 235.205 231.333 235.925 231.84C236.645 232.347 237.645 232.6 238.925 232.6C239.858 232.6 240.672 232.453 241.365 232.16C242.058 231.84 242.405 231.307 242.405 230.56C242.405 229.867 242.085 229.373 241.445 229.08C240.832 228.787 240.098 228.533 239.245 228.32C237.592 227.92 236.258 227.56 235.245 227.24C234.232 226.92 233.378 226.533 232.685 226.08C231.752 225.493 231.098 224.827 230.725 224.08C230.378 223.333 230.205 222.52 230.205 221.64C230.205 220.813 230.352 220.04 230.645 219.32C230.938 218.6 231.418 217.987 232.085 217.48C232.752 216.947 233.605 216.533 234.645 216.24C235.712 215.947 236.992 215.8 238.485 215.8C241.338 215.8 243.432 216.347 244.765 217.44C246.125 218.533 246.872 220.147 247.005 222.28H242.005Z" fill="black"/>
<path d="M164.033 402.949C164.567 402.728 165.088 402.526 165.596 402.344C166.104 402.161 166.585 402.07 167.041 402.07C167.51 402.07 167.744 402.214 167.744 402.5C167.744 402.565 167.725 402.669 167.686 402.812C167.66 402.943 167.484 403.105 167.158 403.301C166.846 403.483 166.455 403.659 165.986 403.828C165.531 403.997 165.029 404.154 164.482 404.297C163.936 404.44 163.402 404.564 162.881 404.668C161.8 404.889 161.032 405 160.576 405C160.12 405 159.626 404.948 159.092 404.844C158.571 404.74 158.083 404.57 157.627 404.336C156.572 403.789 156.045 402.982 156.045 401.914C156.045 401.836 156.045 401.68 156.045 401.445C156.045 401.211 156.143 400.879 156.338 400.449C156.533 400.007 156.826 399.57 157.217 399.141C157.607 398.698 158.063 398.294 158.584 397.93C159.678 397.148 160.824 396.641 162.021 396.406C162.438 396.315 162.783 396.27 163.057 396.27C163.343 396.27 163.577 396.276 163.76 396.289C163.942 396.289 164.131 396.302 164.326 396.328C164.521 396.341 164.691 396.387 164.834 396.465C165.173 396.634 165.342 396.966 165.342 397.461C165.342 397.773 165.12 398.079 164.678 398.379C164.561 398.457 164.456 398.529 164.365 398.594C164.3 398.294 164.215 398.04 164.111 397.832C164.007 397.624 163.779 397.52 163.428 397.52C161.891 397.845 160.57 398.333 159.463 398.984C158.213 399.727 157.588 400.508 157.588 401.328C157.588 401.419 157.594 401.517 157.607 401.621C157.607 402.454 157.926 403.047 158.564 403.398C159.046 403.659 159.665 403.789 160.42 403.789C161.188 403.789 161.852 403.704 162.412 403.535C162.972 403.353 163.512 403.158 164.033 402.949ZM169.15 397.422C169.124 396.719 169.098 396.094 169.072 395.547C169.046 394.987 169.027 394.577 169.014 394.316C169.014 394.043 168.91 393.385 168.701 392.344C168.818 392.188 168.929 392.038 169.033 391.895C169.15 391.751 169.313 391.68 169.521 391.68C169.977 391.68 170.329 393.6 170.576 397.441C170.706 399.668 170.771 401.895 170.771 404.121C170.771 404.72 170.355 405.02 169.521 405.02L169.365 405C169.365 404.323 169.346 403.457 169.307 402.402C169.268 401.348 169.235 400.43 169.209 399.648C169.196 398.867 169.176 398.125 169.15 397.422ZM173.701 395.82C173.87 398.255 174.014 401.074 174.131 404.277C174.053 404.681 173.74 404.883 173.193 404.883C173.05 404.883 172.9 404.857 172.744 404.805C172.601 404.74 172.51 404.655 172.471 404.551V395.82H173.701ZM171.885 393.164C171.885 392.708 172.152 392.48 172.686 392.48C173.037 392.48 173.324 392.559 173.545 392.715C173.584 392.858 173.604 393.001 173.604 393.145C173.604 393.275 173.551 393.405 173.447 393.535C173.343 393.665 173.187 393.73 172.979 393.73C172.77 393.73 172.562 393.685 172.354 393.594C172.145 393.49 171.989 393.346 171.885 393.164ZM182.861 402.949C183.395 402.728 183.916 402.526 184.424 402.344C184.932 402.161 185.413 402.07 185.869 402.07C186.338 402.07 186.572 402.214 186.572 402.5C186.572 402.565 186.553 402.669 186.514 402.812C186.488 402.943 186.312 403.105 185.986 403.301C185.674 403.483 185.283 403.659 184.814 403.828C184.359 403.997 183.857 404.154 183.311 404.297C182.764 404.44 182.23 404.564 181.709 404.668C180.628 404.889 179.86 405 179.404 405C178.949 405 178.454 404.948 177.92 404.844C177.399 404.74 176.911 404.57 176.455 404.336C175.4 403.789 174.873 402.982 174.873 401.914C174.873 401.836 174.873 401.68 174.873 401.445C174.873 401.211 174.971 400.879 175.166 400.449C175.361 400.007 175.654 399.57 176.045 399.141C176.436 398.698 176.891 398.294 177.412 397.93C178.506 397.148 179.652 396.641 180.85 396.406C181.266 396.315 181.611 396.27 181.885 396.27C182.171 396.27 182.406 396.276 182.588 396.289C182.77 396.289 182.959 396.302 183.154 396.328C183.35 396.341 183.519 396.387 183.662 396.465C184.001 396.634 184.17 396.966 184.17 397.461C184.17 397.773 183.949 398.079 183.506 398.379C183.389 398.457 183.285 398.529 183.193 398.594C183.128 398.294 183.044 398.04 182.939 397.832C182.835 397.624 182.607 397.52 182.256 397.52C180.719 397.845 179.398 398.333 178.291 398.984C177.041 399.727 176.416 400.508 176.416 401.328C176.416 401.419 176.423 401.517 176.436 401.621C176.436 402.454 176.755 403.047 177.393 403.398C177.874 403.659 178.493 403.789 179.248 403.789C180.016 403.789 180.68 403.704 181.24 403.535C181.8 403.353 182.34 403.158 182.861 402.949ZM189.561 401.445L189.658 403.145C189.658 404.186 189.411 404.818 188.916 405.039C188.812 405.078 188.688 405.098 188.545 405.098C188.402 405.098 188.232 405.065 188.037 405L188.057 397.695C188.057 396.641 187.992 395.586 187.861 394.531C187.744 393.464 187.686 392.402 187.686 391.348C187.686 390.931 187.907 390.723 188.35 390.723H188.506C188.597 390.723 188.656 390.729 188.682 390.742C188.877 391.549 189.007 392.526 189.072 393.672C189.215 396.211 189.346 397.917 189.463 398.789C189.684 398.672 190.179 398.34 190.947 397.793C191.715 397.246 192.334 396.81 192.803 396.484C193.271 396.146 193.714 395.833 194.131 395.547C195.107 394.909 195.719 394.59 195.967 394.59C196.175 394.59 196.338 394.714 196.455 394.961C195.804 395.781 194.756 396.693 193.311 397.695C192.725 398.099 192.139 398.503 191.553 398.906C190.98 399.297 190.452 399.707 189.971 400.137C190.843 400.371 191.67 400.618 192.451 400.879C193.232 401.126 193.988 401.354 194.717 401.562C196.396 402.057 197.842 402.337 199.053 402.402C199.053 402.754 199.02 402.982 198.955 403.086C198.838 403.268 198.597 403.372 198.232 403.398H198.076C197.282 403.177 196.227 402.93 194.912 402.656C192.321 402.122 190.537 401.719 189.561 401.445Z" fill="black" fill-opacity="0.65"/>
<path d="M172.584 370.743C172.584 371.027 172.584 371.312 172.594 373.163C172.603 375.015 172.623 378.425 172.667 380.397C172.712 382.369 172.78 382.8 172.884 383.545" stroke="black" stroke-opacity="0.65" stroke-linecap="round"/>
<path d="M173.087 370.378C173.087 371.61 172.793 374.769 171.924 375.812C171.715 376.062 171.442 376.231 171.365 376.205C170.498 375.902 172.351 374.125 172.764 373.064C172.954 372.576 172.915 371.822 173.02 371.505C173.65 369.594 173.941 374.682 174.22 375.309C173.657 374.259 173.097 373.105 172.866 372.415C172.759 372.065 172.67 371.719 172.579 371.239" stroke="black" stroke-opacity="0.65" stroke-linecap="round"/>
<g filter="url(#filter1_dg_810_400)">
<rect x="442.4" y="20.4004" width="327.199" height="342.199" rx="39.6359" stroke="black" stroke-width="0.800726" shape-rendering="crispEdges"/>
</g>
<path d="M553.768 95.4H553.728L550.328 105.96H557.088L553.768 95.4ZM560.368 116L558.688 110.52H548.888L547.008 116H541.128L550.608 89.44H557.048L566.408 116H560.368ZM567.871 116V96.32H573.071V116H567.871ZM567.871 93.96V89.12H573.071V93.96H567.871ZM575.446 116V96.32H580.326V98.68C580.753 98.0133 581.193 97.4933 581.646 97.12C582.126 96.7467 582.606 96.4667 583.086 96.28C583.593 96.0667 584.1 95.9333 584.606 95.88C585.113 95.8267 585.633 95.8 586.166 95.8H586.846V101.12C586.366 101.04 585.886 101 585.406 101C582.233 101 580.646 102.587 580.646 105.76V116H575.446ZM599.018 101.84C600.618 101.84 601.764 101.48 602.458 100.76C603.178 100.013 603.538 99.0533 603.538 97.88C603.538 96.76 603.178 95.84 602.458 95.12C601.764 94.4 600.618 94.04 599.018 94.04H593.738V101.84H599.018ZM588.178 116V89.44H599.898C601.204 89.44 602.378 89.6667 603.418 90.12C604.458 90.5467 605.351 91.16 606.098 91.96C606.844 92.7333 607.418 93.64 607.818 94.68C608.218 95.72 608.418 96.84 608.418 98.04C608.418 99.24 608.218 100.36 607.818 101.4C607.418 102.413 606.844 103.293 606.098 104.04C605.351 104.76 604.458 105.333 603.418 105.76C602.378 106.16 601.204 106.36 599.898 106.36H593.738V116H588.178ZM619.345 112.16C622.518 112.16 624.105 110.16 624.105 106.16C624.105 102.187 622.518 100.2 619.345 100.2C616.172 100.2 614.585 102.187 614.585 106.16C614.585 110.16 616.172 112.16 619.345 112.16ZM619.345 116.52C617.745 116.52 616.318 116.267 615.065 115.76C613.812 115.253 612.745 114.547 611.865 113.64C611.012 112.733 610.358 111.64 609.905 110.36C609.452 109.08 609.225 107.68 609.225 106.16C609.225 104.613 609.452 103.2 609.905 101.92C610.385 100.64 611.065 99.5467 611.945 98.64C612.825 97.7333 613.878 97.04 615.105 96.56C616.358 96.0533 617.772 95.8 619.345 95.8C620.892 95.8 622.278 96.0533 623.505 96.56C624.732 97.04 625.772 97.7333 626.625 98.64C627.505 99.52 628.172 100.6 628.625 101.88C629.105 103.16 629.345 104.587 629.345 106.16C629.345 107.733 629.105 109.16 628.625 110.44C628.172 111.693 627.505 112.773 626.625 113.68C625.772 114.587 624.718 115.293 623.465 115.8C622.238 116.28 620.865 116.52 619.345 116.52ZM640.548 112.28C641.801 112.28 642.841 111.76 643.668 110.72C644.521 109.68 644.948 108.32 644.948 106.64C644.948 102.373 643.494 100.24 640.588 100.24C637.601 100.24 636.108 102.267 636.108 106.32C636.108 108.08 636.521 109.52 637.348 110.64C638.174 111.733 639.241 112.28 640.548 112.28ZM644.868 116L644.828 113.6C643.628 115.547 641.801 116.52 639.348 116.52C638.094 116.52 636.948 116.28 635.908 115.8C634.868 115.32 633.974 114.627 633.228 113.72C632.481 112.813 631.894 111.707 631.468 110.4C631.041 109.093 630.828 107.613 630.828 105.96C630.828 104.467 631.001 103.107 631.348 101.88C631.721 100.627 632.254 99.5467 632.948 98.64C633.641 97.7333 634.481 97.04 635.467 96.56C636.481 96.0533 637.628 95.8 638.908 95.8C641.334 95.8 643.281 96.8267 644.748 98.88V89.12H649.868V116H644.868ZM664.005 102.28C663.872 101.32 663.525 100.653 662.965 100.28C662.405 99.88 661.525 99.68 660.325 99.68C659.338 99.68 658.578 99.8133 658.045 100.08C657.512 100.32 657.245 100.733 657.245 101.32C657.245 101.907 657.512 102.36 658.045 102.68C658.578 102.973 659.378 103.267 660.445 103.56C661.565 103.88 662.632 104.173 663.645 104.44C664.658 104.68 665.552 104.947 666.325 105.24C667.365 105.667 668.165 106.253 668.725 107C669.285 107.72 669.565 108.72 669.565 110C669.565 112.053 668.832 113.653 667.365 114.8C665.925 115.947 663.792 116.52 660.965 116.52C657.925 116.52 655.592 115.88 653.965 114.6C652.365 113.32 651.538 111.68 651.485 109.68H656.845C656.845 110.613 657.205 111.333 657.925 111.84C658.645 112.347 659.645 112.6 660.925 112.6C661.858 112.6 662.672 112.453 663.365 112.16C664.058 111.84 664.405 111.307 664.405 110.56C664.405 109.867 664.085 109.373 663.445 109.08C662.832 108.787 662.098 108.533 661.245 108.32C659.592 107.92 658.258 107.56 657.245 107.24C656.232 106.92 655.378 106.533 654.685 106.08C653.752 105.493 653.098 104.827 652.725 104.08C652.378 103.333 652.205 102.52 652.205 101.64C652.205 100.813 652.352 100.04 652.645 99.32C652.938 98.6 653.418 97.9867 654.085 97.48C654.752 96.9467 655.605 96.5333 656.645 96.24C657.712 95.9467 658.992 95.8 660.485 95.8C663.338 95.8 665.432 96.3467 666.765 97.44C668.125 98.5333 668.872 100.147 669.005 102.28H664.005Z" fill="black"/>
<path d="M553.768 185.4H553.728L550.328 195.96H557.088L553.768 185.4ZM560.368 206L558.688 200.52H548.888L547.008 206H541.128L550.608 179.44H557.048L566.408 206H560.368ZM567.871 206V186.32H573.071V206H567.871ZM567.871 183.96V179.12H573.071V183.96H567.871ZM575.446 206V186.32H580.326V188.68C580.753 188.013 581.193 187.493 581.646 187.12C582.126 186.747 582.606 186.467 583.086 186.28C583.593 186.067 584.1 185.933 584.606 185.88C585.113 185.827 585.633 185.8 586.166 185.8H586.846V191.12C586.366 191.04 585.886 191 585.406 191C582.233 191 580.646 192.587 580.646 195.76V206H575.446ZM599.018 191.84C600.618 191.84 601.764 191.48 602.458 190.76C603.178 190.013 603.538 189.053 603.538 187.88C603.538 186.76 603.178 185.84 602.458 185.12C601.764 184.4 600.618 184.04 599.018 184.04H593.738V191.84H599.018ZM588.178 206V179.44H599.898C601.204 179.44 602.378 179.667 603.418 180.12C604.458 180.547 605.351 181.16 606.098 181.96C606.844 182.733 607.418 183.64 607.818 184.68C608.218 185.72 608.418 186.84 608.418 188.04C608.418 189.24 608.218 190.36 607.818 191.4C607.418 192.413 606.844 193.293 606.098 194.04C605.351 194.76 604.458 195.333 603.418 195.76C602.378 196.16 601.204 196.36 599.898 196.36H593.738V206H588.178ZM619.345 202.16C622.518 202.16 624.105 200.16 624.105 196.16C624.105 192.187 622.518 190.2 619.345 190.2C616.172 190.2 614.585 192.187 614.585 196.16C614.585 200.16 616.172 202.16 619.345 202.16ZM619.345 206.52C617.745 206.52 616.318 206.267 615.065 205.76C613.812 205.253 612.745 204.547 611.865 203.64C611.012 202.733 610.358 201.64 609.905 200.36C609.452 199.08 609.225 197.68 609.225 196.16C609.225 194.613 609.452 193.2 609.905 191.92C610.385 190.64 611.065 189.547 611.945 188.64C612.825 187.733 613.878 187.04 615.105 186.56C616.358 186.053 617.772 185.8 619.345 185.8C620.892 185.8 622.278 186.053 623.505 186.56C624.732 187.04 625.772 187.733 626.625 188.64C627.505 189.52 628.172 190.6 628.625 191.88C629.105 193.16 629.345 194.587 629.345 196.16C629.345 197.733 629.105 199.16 628.625 200.44C628.172 201.693 627.505 202.773 626.625 203.68C625.772 204.587 624.718 205.293 623.465 205.8C622.238 206.28 620.865 206.52 619.345 206.52ZM640.548 202.28C641.801 202.28 642.841 201.76 643.668 200.72C644.521 199.68 644.948 198.32 644.948 196.64C644.948 192.373 643.494 190.24 640.588 190.24C637.601 190.24 636.108 192.267 636.108 196.32C636.108 198.08 636.521 199.52 637.348 200.64C638.174 201.733 639.241 202.28 640.548 202.28ZM644.868 206L644.828 203.6C643.628 205.547 641.801 206.52 639.348 206.52C638.094 206.52 636.948 206.28 635.908 205.8C634.868 205.32 633.974 204.627 633.228 203.72C632.481 202.813 631.894 201.707 631.468 200.4C631.041 199.093 630.828 197.613 630.828 195.96C630.828 194.467 631.001 193.107 631.348 191.88C631.721 190.627 632.254 189.547 632.948 188.64C633.641 187.733 634.481 187.04 635.467 186.56C636.481 186.053 637.628 185.8 638.908 185.8C641.334 185.8 643.281 186.827 644.748 188.88V179.12H649.868V206H644.868ZM664.005 192.28C663.872 191.32 663.525 190.653 662.965 190.28C662.405 189.88 661.525 189.68 660.325 189.68C659.338 189.68 658.578 189.813 658.045 190.08C657.512 190.32 657.245 190.733 657.245 191.32C657.245 191.907 657.512 192.36 658.045 192.68C658.578 192.973 659.378 193.267 660.445 193.56C661.565 193.88 662.632 194.173 663.645 194.44C664.658 194.68 665.552 194.947 666.325 195.24C667.365 195.667 668.165 196.253 668.725 197C669.285 197.72 669.565 198.72 669.565 200C669.565 202.053 668.832 203.653 667.365 204.8C665.925 205.947 663.792 206.52 660.965 206.52C657.925 206.52 655.592 205.88 653.965 204.6C652.365 203.32 651.538 201.68 651.485 199.68H656.845C656.845 200.613 657.205 201.333 657.925 201.84C658.645 202.347 659.645 202.6 660.925 202.6C661.858 202.6 662.672 202.453 663.365 202.16C664.058 201.84 664.405 201.307 664.405 200.56C664.405 199.867 664.085 199.373 663.445 199.08C662.832 198.787 662.098 198.533 661.245 198.32C659.592 197.92 658.258 197.56 657.245 197.24C656.232 196.92 655.378 196.533 654.685 196.08C653.752 195.493 653.098 194.827 652.725 194.08C652.378 193.333 652.205 192.52 652.205 191.64C652.205 190.813 652.352 190.04 652.645 189.32C652.938 188.6 653.418 187.987 654.085 187.48C654.752 186.947 655.605 186.533 656.645 186.24C657.712 185.947 658.992 185.8 660.485 185.8C663.338 185.8 665.432 186.347 666.765 187.44C668.125 188.533 668.872 190.147 669.005 192.28H664.005Z" fill="black"/>
<path d="M553.768 275.4H553.728L550.328 285.96H557.088L553.768 275.4ZM560.368 296L558.688 290.52H548.888L547.008 296H541.128L550.608 269.44H557.048L566.408 296H560.368ZM567.871 296V276.32H573.071V296H567.871ZM567.871 273.96V269.12H573.071V273.96H567.871ZM575.446 296V276.32H580.326V278.68C580.753 278.013 581.193 277.493 581.646 277.12C582.126 276.747 582.606 276.467 583.086 276.28C583.593 276.067 584.1 275.933 584.606 275.88C585.113 275.827 585.633 275.8 586.166 275.8H586.846V281.12C586.366 281.04 585.886 281 585.406 281C582.233 281 580.646 282.587 580.646 285.76V296H575.446ZM599.018 281.84C600.618 281.84 601.764 281.48 602.458 280.76C603.178 280.013 603.538 279.053 603.538 277.88C603.538 276.76 603.178 275.84 602.458 275.12C601.764 274.4 600.618 274.04 599.018 274.04H593.738V281.84H599.018ZM588.178 296V269.44H599.898C601.204 269.44 602.378 269.667 603.418 270.12C604.458 270.547 605.351 271.16 606.098 271.96C606.844 272.733 607.418 273.64 607.818 274.68C608.218 275.72 608.418 276.84 608.418 278.04C608.418 279.24 608.218 280.36 607.818 281.4C607.418 282.413 606.844 283.293 606.098 284.04C605.351 284.76 604.458 285.333 603.418 285.76C602.378 286.16 601.204 286.36 599.898 286.36H593.738V296H588.178ZM619.345 292.16C622.518 292.16 624.105 290.16 624.105 286.16C624.105 282.187 622.518 280.2 619.345 280.2C616.172 280.2 614.585 282.187 614.585 286.16C614.585 290.16 616.172 292.16 619.345 292.16ZM619.345 296.52C617.745 296.52 616.318 296.267 615.065 295.76C613.812 295.253 612.745 294.547 611.865 293.64C611.012 292.733 610.358 291.64 609.905 290.36C609.452 289.08 609.225 287.68 609.225 286.16C609.225 284.613 609.452 283.2 609.905 281.92C610.385 280.64 611.065 279.547 611.945 278.64C612.825 277.733 613.878 277.04 615.105 276.56C616.358 276.053 617.772 275.8 619.345 275.8C620.892 275.8 622.278 276.053 623.505 276.56C624.732 277.04 625.772 277.733 626.625 278.64C627.505 279.52 628.172 280.6 628.625 281.88C629.105 283.16 629.345 284.587 629.345 286.16C629.345 287.733 629.105 289.16 628.625 290.44C628.172 291.693 627.505 292.773 626.625 293.68C625.772 294.587 624.718 295.293 623.465 295.8C622.238 296.28 620.865 296.52 619.345 296.52ZM640.548 292.28C641.801 292.28 642.841 291.76 643.668 290.72C644.521 289.68 644.948 288.32 644.948 286.64C644.948 282.373 643.494 280.24 640.588 280.24C637.601 280.24 636.108 282.267 636.108 286.32C636.108 288.08 636.521 289.52 637.348 290.64C638.174 291.733 639.241 292.28 640.548 292.28ZM644.868 296L644.828 293.6C643.628 295.547 641.801 296.52 639.348 296.52C638.094 296.52 636.948 296.28 635.908 295.8C634.868 295.32 633.974 294.627 633.228 293.72C632.481 292.813 631.894 291.707 631.468 290.4C631.041 289.093 630.828 287.613 630.828 285.96C630.828 284.467 631.001 283.107 631.348 281.88C631.721 280.627 632.254 279.547 632.948 278.64C633.641 277.733 634.481 277.04 635.467 276.56C636.481 276.053 637.628 275.8 638.908 275.8C641.334 275.8 643.281 276.827 644.748 278.88V269.12H649.868V296H644.868ZM664.005 282.28C663.872 281.32 663.525 280.653 662.965 280.28C662.405 279.88 661.525 279.68 660.325 279.68C659.338 279.68 658.578 279.813 658.045 280.08C657.512 280.32 657.245 280.733 657.245 281.32C657.245 281.907 657.512 282.36 658.045 282.68C658.578 282.973 659.378 283.267 660.445 283.56C661.565 283.88 662.632 284.173 663.645 284.44C664.658 284.68 665.552 284.947 666.325 285.24C667.365 285.667 668.165 286.253 668.725 287C669.285 287.72 669.565 288.72 669.565 290C669.565 292.053 668.832 293.653 667.365 294.8C665.925 295.947 663.792 296.52 660.965 296.52C657.925 296.52 655.592 295.88 653.965 294.6C652.365 293.32 651.538 291.68 651.485 289.68H656.845C656.845 290.613 657.205 291.333 657.925 291.84C658.645 292.347 659.645 292.6 660.925 292.6C661.858 292.6 662.672 292.453 663.365 292.16C664.058 291.84 664.405 291.307 664.405 290.56C664.405 289.867 664.085 289.373 663.445 289.08C662.832 288.787 662.098 288.533 661.245 288.32C659.592 287.92 658.258 287.56 657.245 287.24C656.232 286.92 655.378 286.533 654.685 286.08C653.752 285.493 653.098 284.827 652.725 284.08C652.378 283.333 652.205 282.52 652.205 281.64C652.205 280.813 652.352 280.04 652.645 279.32C652.938 278.6 653.418 277.987 654.085 277.48C654.752 276.947 655.605 276.533 656.645 276.24C657.712 275.947 658.992 275.8 660.485 275.8C663.338 275.8 665.432 276.347 666.765 277.44C668.125 278.533 668.872 280.147 669.005 282.28H664.005Z" fill="black"/>
<g filter="url(#filter2_d_810_400)">
<path d="M586.033 402.949C586.567 402.728 587.088 402.526 587.596 402.344C588.104 402.161 588.585 402.07 589.041 402.07C589.51 402.07 589.744 402.214 589.744 402.5C589.744 402.565 589.725 402.669 589.686 402.812C589.66 402.943 589.484 403.105 589.158 403.301C588.846 403.483 588.455 403.659 587.986 403.828C587.531 403.997 587.029 404.154 586.482 404.297C585.936 404.44 585.402 404.564 584.881 404.668C583.8 404.889 583.032 405 582.576 405C582.12 405 581.626 404.948 581.092 404.844C580.571 404.74 580.083 404.57 579.627 404.336C578.572 403.789 578.045 402.982 578.045 401.914C578.045 401.836 578.045 401.68 578.045 401.445C578.045 401.211 578.143 400.879 578.338 400.449C578.533 400.007 578.826 399.57 579.217 399.141C579.607 398.698 580.063 398.294 580.584 397.93C581.678 397.148 582.824 396.641 584.021 396.406C584.438 396.315 584.783 396.27 585.057 396.27C585.343 396.27 585.577 396.276 585.76 396.289C585.942 396.289 586.131 396.302 586.326 396.328C586.521 396.341 586.691 396.387 586.834 396.465C587.173 396.634 587.342 396.966 587.342 397.461C587.342 397.773 587.12 398.079 586.678 398.379C586.561 398.457 586.456 398.529 586.365 398.594C586.3 398.294 586.215 398.04 586.111 397.832C586.007 397.624 585.779 397.52 585.428 397.52C583.891 397.845 582.57 398.333 581.463 398.984C580.213 399.727 579.588 400.508 579.588 401.328C579.588 401.419 579.594 401.517 579.607 401.621C579.607 402.454 579.926 403.047 580.564 403.398C581.046 403.659 581.665 403.789 582.42 403.789C583.188 403.789 583.852 403.704 584.412 403.535C584.972 403.353 585.512 403.158 586.033 402.949ZM591.15 397.422C591.124 396.719 591.098 396.094 591.072 395.547C591.046 394.987 591.027 394.577 591.014 394.316C591.014 394.043 590.91 393.385 590.701 392.344C590.818 392.188 590.929 392.038 591.033 391.895C591.15 391.751 591.313 391.68 591.521 391.68C591.977 391.68 592.329 393.6 592.576 397.441C592.706 399.668 592.771 401.895 592.771 404.121C592.771 404.72 592.355 405.02 591.521 405.02L591.365 405C591.365 404.323 591.346 403.457 591.307 402.402C591.268 401.348 591.235 400.43 591.209 399.648C591.196 398.867 591.176 398.125 591.15 397.422ZM595.701 395.82C595.87 398.255 596.014 401.074 596.131 404.277C596.053 404.681 595.74 404.883 595.193 404.883C595.05 404.883 594.9 404.857 594.744 404.805C594.601 404.74 594.51 404.655 594.471 404.551V395.82H595.701ZM593.885 393.164C593.885 392.708 594.152 392.48 594.686 392.48C595.037 392.48 595.324 392.559 595.545 392.715C595.584 392.858 595.604 393.001 595.604 393.145C595.604 393.275 595.551 393.405 595.447 393.535C595.343 393.665 595.187 393.73 594.979 393.73C594.77 393.73 594.562 393.685 594.354 393.594C594.145 393.49 593.989 393.346 593.885 393.164ZM604.861 402.949C605.395 402.728 605.916 402.526 606.424 402.344C606.932 402.161 607.413 402.07 607.869 402.07C608.338 402.07 608.572 402.214 608.572 402.5C608.572 402.565 608.553 402.669 608.514 402.812C608.488 402.943 608.312 403.105 607.986 403.301C607.674 403.483 607.283 403.659 606.814 403.828C606.359 403.997 605.857 404.154 605.311 404.297C604.764 404.44 604.23 404.564 603.709 404.668C602.628 404.889 601.86 405 601.404 405C600.949 405 600.454 404.948 599.92 404.844C599.399 404.74 598.911 404.57 598.455 404.336C597.4 403.789 596.873 402.982 596.873 401.914C596.873 401.836 596.873 401.68 596.873 401.445C596.873 401.211 596.971 400.879 597.166 400.449C597.361 400.007 597.654 399.57 598.045 399.141C598.436 398.698 598.891 398.294 599.412 397.93C600.506 397.148 601.652 396.641 602.85 396.406C603.266 396.315 603.611 396.27 603.885 396.27C604.171 396.27 604.406 396.276 604.588 396.289C604.77 396.289 604.959 396.302 605.154 396.328C605.35 396.341 605.519 396.387 605.662 396.465C606.001 396.634 606.17 396.966 606.17 397.461C606.17 397.773 605.949 398.079 605.506 398.379C605.389 398.457 605.285 398.529 605.193 398.594C605.128 398.294 605.044 398.04 604.939 397.832C604.835 397.624 604.607 397.52 604.256 397.52C602.719 397.845 601.398 398.333 600.291 398.984C599.041 399.727 598.416 400.508 598.416 401.328C598.416 401.419 598.423 401.517 598.436 401.621C598.436 402.454 598.755 403.047 599.393 403.398C599.874 403.659 600.493 403.789 601.248 403.789C602.016 403.789 602.68 403.704 603.24 403.535C603.8 403.353 604.34 403.158 604.861 402.949ZM611.561 401.445L611.658 403.145C611.658 404.186 611.411 404.818 610.916 405.039C610.812 405.078 610.688 405.098 610.545 405.098C610.402 405.098 610.232 405.065 610.037 405L610.057 397.695C610.057 396.641 609.992 395.586 609.861 394.531C609.744 393.464 609.686 392.402 609.686 391.348C609.686 390.931 609.907 390.723 610.35 390.723H610.506C610.597 390.723 610.656 390.729 610.682 390.742C610.877 391.549 611.007 392.526 611.072 393.672C611.215 396.211 611.346 397.917 611.463 398.789C611.684 398.672 612.179 398.34 612.947 397.793C613.715 397.246 614.334 396.81 614.803 396.484C615.271 396.146 615.714 395.833 616.131 395.547C617.107 394.909 617.719 394.59 617.967 394.59C618.175 394.59 618.338 394.714 618.455 394.961C617.804 395.781 616.756 396.693 615.311 397.695C614.725 398.099 614.139 398.503 613.553 398.906C612.98 399.297 612.452 399.707 611.971 400.137C612.843 400.371 613.67 400.618 614.451 400.879C615.232 401.126 615.988 401.354 616.717 401.562C618.396 402.057 619.842 402.337 621.053 402.402C621.053 402.754 621.02 402.982 620.955 403.086C620.838 403.268 620.597 403.372 620.232 403.398H620.076C619.282 403.177 618.227 402.93 616.912 402.656C614.321 402.122 612.537 401.719 611.561 401.445Z" fill="black" fill-opacity="0.65" shape-rendering="crispEdges"/>
</g>
<g filter="url(#filter3_d_810_400)">
<path d="M594.584 370.743C594.584 371.027 594.584 371.312 594.594 373.163C594.603 375.015 594.623 378.425 594.667 380.397C594.712 382.369 594.78 382.8 594.884 383.545" stroke="black" stroke-opacity="0.65" stroke-linecap="round" shape-rendering="crispEdges"/>
</g>
<g filter="url(#filter4_d_810_400)">
<path d="M595.087 370.378C595.087 371.61 594.793 374.769 593.924 375.812C593.715 376.062 593.442 376.231 593.365 376.205C592.498 375.902 594.351 374.125 594.764 373.064C594.954 372.576 594.915 371.822 595.02 371.505C595.65 369.594 595.941 374.682 596.22 375.309C595.657 374.259 595.097 373.105 594.866 372.415C594.759 372.065 594.67 371.719 594.579 371.239" stroke="black" stroke-opacity="0.65" stroke-linecap="round" shape-rendering="crispEdges"/>
</g>
<defs>
<filter id="filter0_g_810_400" x="16.7971" y="16.7971" width="334.406" height="349.406" filterUnits="userSpaceOnUse" color-interpolation-filters="sRGB">
<feFlood flood-opacity="0" result="BackgroundImageFix"/>
<feBlend mode="normal" in="SourceGraphic" in2="BackgroundImageFix" result="shape"/>
<feTurbulence type="fractalNoise" baseFrequency="0.027508091181516647 0.027508091181516647" numOctaves="3" seed="3084" />
<feDisplacementMap in="shape" scale="6.4058046340942383" xChannelSelector="R" yChannelSelector="G" result="displacedImage" width="100%" height="100%" />
<feMerge result="effect1_texture_810_400">
<feMergeNode in="displacedImage"/>
</feMerge>
</filter>
<filter id="filter1_dg_810_400" x="434.7" y="16.7" width="342.6" height="357.6" filterUnits="userSpaceOnUse" color-interpolation-filters="sRGB">
<feFlood flood-opacity="0" result="BackgroundImageFix"/>
<feColorMatrix in="SourceAlpha" type="matrix" values="0 0 0 0 0 0 0 0 0 0 0 0 0 0 0 0 0 0 127 0" result="hardAlpha"/>
<feOffset dy="4"/>
<feGaussianBlur stdDeviation="3.65"/>
<feComposite in2="hardAlpha" operator="out"/>
<feColorMatrix type="matrix" values="0 0 0 0 0 0 0 0 0 0 0 0 0 0 0 0 0 0 0.5 0"/>
<feBlend mode="normal" in2="BackgroundImageFix" result="effect1_dropShadow_810_400"/>
<feBlend mode="normal" in="SourceGraphic" in2="effect1_dropShadow_810_400" result="shape"/>
<feTurbulence type="fractalNoise" baseFrequency="0.027508091181516647 0.027508091181516647" numOctaves="3" seed="3084" />
<feDisplacementMap in="shape" scale="6.4058046340942383" xChannelSelector="R" yChannelSelector="G" result="displacedImage" width="100%" height="100%" />
<feMerge result="effect2_texture_810_400">
<feMergeNode in="displacedImage"/>
</feMerge>
</filter>
<filter id="filter2_d_810_400" x="574.045" y="388.723" width="51.0078" height="22.375" filterUnits="userSpaceOnUse" color-interpolation-filters="sRGB">
<feFlood flood-opacity="0" result="BackgroundImageFix"/>
<feColorMatrix in="SourceAlpha" type="matrix" values="0 0 0 0 0 0 0 0 0 0 0 0 0 0 0 0 0 0 127 0" result="hardAlpha"/>
<feOffset dy="2"/>
<feGaussianBlur stdDeviation="2"/>
<feComposite in2="hardAlpha" operator="out"/>
<feColorMatrix type="matrix" values="0 0 0 0 0 0 0 0 0 0 0 0 0 0 0 0 0 0 0.25 0"/>
<feBlend mode="normal" in2="BackgroundImageFix" result="effect1_dropShadow_810_400"/>
<feBlend mode="normal" in="SourceGraphic" in2="effect1_dropShadow_810_400" result="shape"/>
</filter>
<filter id="filter3_d_810_400" x="590.084" y="368.243" width="9.30078" height="21.8023" filterUnits="userSpaceOnUse" color-interpolation-filters="sRGB">
<feFlood flood-opacity="0" result="BackgroundImageFix"/>
<feColorMatrix in="SourceAlpha" type="matrix" values="0 0 0 0 0 0 0 0 0 0 0 0 0 0 0 0 0 0 127 0" result="hardAlpha"/>
<feOffset dy="2"/>
<feGaussianBlur stdDeviation="2"/>
<feComposite in2="hardAlpha" operator="out"/>
<feColorMatrix type="matrix" values="0 0 0 0 0 0 0 0 0 0 0 0 0 0 0 0 0 0 0.25 0"/>
<feBlend mode="normal" in2="BackgroundImageFix" result="effect1_dropShadow_810_400"/>
<feBlend mode="normal" in="SourceGraphic" in2="effect1_dropShadow_810_400" result="shape"/>
</filter>
<filter id="filter4_d_810_400" x="588.637" y="367.878" width="12.041" height="14.8296" filterUnits="userSpaceOnUse" color-interpolation-filters="sRGB">
<feFlood flood-opacity="0" result="BackgroundImageFix"/>
<feColorMatrix in="SourceAlpha" type="matrix" values="0 0 0 0 0 0 0 0 0 0 0 0 0 0 0 0 0 0 127 0" result="hardAlpha"/>
<feOffset dy="2"/>
<feGaussianBlur stdDeviation="2"/>
<feComposite in2="hardAlpha" operator="out"/>
<feColorMatrix type="matrix" values="0 0 0 0 0 0 0 0 0 0 0 0 0 0 0 0 0 0 0.25 0"/>
<feBlend mode="normal" in2="BackgroundImageFix" result="effect1_dropShadow_810_400"/>
<feBlend mode="normal" in="SourceGraphic" in2="effect1_dropShadow_810_400" result="shape"/>
</filter>
</defs>
</svg>
