<svg width="123" height="98" viewBox="0 0 123 98" fill="none" xmlns="http://www.w3.org/2000/svg">
<rect x="0.5" y="0.5" width="122" height="97" rx="4.5" stroke="#8A38F5" stroke-dasharray="10 5"/>
<g filter="url(#filter0_g_781_40)">
<path d="M29.9217 23.0268L32.8935 28.7001C32.8935 28.7001 34.9445 21.8916 36.5406 20.826C38.5371 19.4932 39.9853 19.983 42.2328 20.826C44.1531 21.5462 44.8411 23.0793 45.3216 25.0731C45.773 26.9458 45.2142 28.1135 44.6781 29.9637C44.0713 32.058 41.727 33.2883 40.5034 35.0929C37.9132 38.9131 31.6263 42.7935 31.6263 42.7935C31.6263 42.7935 25.9574 39.6749 22.9631 36.1625C21.4165 34.3482 20.857 32.2625 20.225 29.9637C19.7187 28.1221 20.225 26.983 20.225 25.0731C20.225 23.1632 21.7056 21.6101 23.7001 20.826C26.2449 19.8254 29.9217 23.0268 29.9217 23.0268Z" stroke="black"/>
</g>
<g filter="url(#filter1_g_781_40)">
<path d="M29.2893 58.4526L32.6707 64.924C32.6707 64.924 35.0043 57.1577 36.8205 55.9422C39.0921 54.4219 40.7399 54.9806 43.2973 55.9421C45.4822 56.7637 46.2651 58.5125 46.8118 60.7867C47.3254 62.9229 46.6896 64.2548 46.0796 66.3654C45.3892 68.7542 42.7218 70.1576 41.3295 72.2161C38.3822 76.5737 31.2288 81 31.2288 81C31.2288 81 24.7785 77.4426 21.3716 73.4361C19.6117 71.3666 18.9751 68.9875 18.256 66.3654C17.68 64.2647 18.256 62.9653 18.256 60.7867C18.256 58.6082 19.9407 56.8366 22.2101 55.9421C25.1057 54.8008 29.2893 58.4526 29.2893 58.4526Z" stroke="black"/>
</g>
<g filter="url(#filter2_g_781_40)">
<path d="M86.2893 58.4526L89.6707 64.924C89.6707 64.924 92.0043 57.1577 93.8205 55.9422C96.0921 54.4219 97.7399 54.9806 100.297 55.9421C102.482 56.7637 103.265 58.5125 103.812 60.7867C104.325 62.9229 103.69 64.2548 103.08 66.3654C102.389 68.7542 99.7218 70.1576 98.3295 72.2161C95.3822 76.5737 88.2288 81 88.2288 81C88.2288 81 81.7785 77.4426 78.3716 73.4361C76.6117 71.3666 75.9751 68.9875 75.256 66.3654C74.68 64.2647 75.256 62.9653 75.256 60.7867C75.256 58.6082 76.9407 56.8366 79.2101 55.9421C82.1057 54.8008 86.2893 58.4526 86.2893 58.4526Z" fill="#FF4D4D"/>
<path d="M86.2893 58.4526L89.6707 64.924C89.6707 64.924 92.0043 57.1577 93.8205 55.9422C96.0921 54.4219 97.7399 54.9806 100.297 55.9421C102.482 56.7637 103.265 58.5125 103.812 60.7867C104.325 62.9229 103.69 64.2548 103.08 66.3654C102.389 68.7542 99.7218 70.1576 98.3295 72.2161C95.3822 76.5737 88.2288 81 88.2288 81C88.2288 81 81.7785 77.4426 78.3716 73.4361C76.6117 71.3666 75.9751 68.9875 75.256 66.3654C74.68 64.2647 75.256 62.9653 75.256 60.7867C75.256 58.6082 76.9407 56.8366 79.2101 55.9421C82.1057 54.8008 86.2893 58.4526 86.2893 58.4526Z" stroke="black"/>
</g>
<g filter="url(#filter3_g_781_40)">
<path d="M87.9217 23.0268L90.8935 28.7001C90.8935 28.7001 92.9445 21.8916 94.5406 20.826C96.5371 19.4932 97.9853 19.983 100.233 20.826C102.153 21.5462 102.841 23.0793 103.322 25.0731C103.773 26.9458 103.214 28.1135 102.678 29.9637C102.071 32.058 99.727 33.2883 98.5034 35.0929C95.9132 38.9131 89.6263 42.7935 89.6263 42.7935C89.6263 42.7935 83.9574 39.6749 80.9631 36.1625C79.4165 34.3482 78.857 32.2625 78.225 29.9637C77.7187 28.1221 78.225 26.983 78.225 25.0731C78.225 23.1632 79.7056 21.6101 81.7001 20.826C84.2449 19.8254 87.9217 23.0268 87.9217 23.0268Z" fill="#FF4D4D"/>
<path d="M87.9217 23.0268L90.8935 28.7001C90.8935 28.7001 92.9445 21.8916 94.5406 20.826C96.5371 19.4932 97.9853 19.983 100.233 20.826C102.153 21.5462 102.841 23.0793 103.322 25.0731C103.773 26.9458 103.214 28.1135 102.678 29.9637C102.071 32.058 99.727 33.2883 98.5034 35.0929C95.9132 38.9131 89.6263 42.7935 89.6263 42.7935C89.6263 42.7935 83.9574 39.6749 80.9631 36.1625C79.4165 34.3482 78.857 32.2625 78.225 29.9637C77.7187 28.1221 78.225 26.983 78.225 25.0731C78.225 23.1632 79.7056 21.6101 81.7001 20.826C84.2449 19.8254 87.9217 23.0268 87.9217 23.0268Z" stroke="black"/>
</g>
<defs>
<filter id="filter0_g_781_40" x="15.5" y="15.5" width="34.4863" height="31.8721" filterUnits="userSpaceOnUse" color-interpolation-filters="sRGB">
<feFlood flood-opacity="0" result="BackgroundImageFix"/>
<feBlend mode="normal" in="SourceGraphic" in2="BackgroundImageFix" result="shape"/>
<feTurbulence type="fractalNoise" baseFrequency="0.0099999997764825821 0.0099999997764825821" numOctaves="3" seed="6960" />
<feDisplacementMap in="shape" scale="8" xChannelSelector="R" yChannelSelector="G" result="displacedImage" width="100%" height="100%" />
<feMerge result="effect1_texture_781_40">
<feMergeNode in="displacedImage"/>
</feMerge>
</filter>
<filter id="filter1_g_781_40" x="13.5" y="50.5" width="37.998" height="35.0791" filterUnits="userSpaceOnUse" color-interpolation-filters="sRGB">
<feFlood flood-opacity="0" result="BackgroundImageFix"/>
<feBlend mode="normal" in="SourceGraphic" in2="BackgroundImageFix" result="shape"/>
<feTurbulence type="fractalNoise" baseFrequency="0.0099999997764825821 0.0099999997764825821" numOctaves="3" seed="6960" />
<feDisplacementMap in="shape" scale="8" xChannelSelector="R" yChannelSelector="G" result="displacedImage" width="100%" height="100%" />
<feMerge result="effect1_texture_781_40">
<feMergeNode in="displacedImage"/>
</feMerge>
</filter>
<filter id="filter2_g_781_40" x="70.5" y="50.5" width="37.998" height="35.0791" filterUnits="userSpaceOnUse" color-interpolation-filters="sRGB">
<feFlood flood-opacity="0" result="BackgroundImageFix"/>
<feBlend mode="normal" in="SourceGraphic" in2="BackgroundImageFix" result="shape"/>
<feTurbulence type="fractalNoise" baseFrequency="0.0099999997764825821 0.0099999997764825821" numOctaves="3" seed="6960" />
<feDisplacementMap in="shape" scale="8" xChannelSelector="R" yChannelSelector="G" result="displacedImage" width="100%" height="100%" />
<feMerge result="effect1_texture_781_40">
<feMergeNode in="displacedImage"/>
</feMerge>
</filter>
<filter id="filter3_g_781_40" x="73.5" y="15.5" width="34.4863" height="31.8721" filterUnits="userSpaceOnUse" color-interpolation-filters="sRGB">
<feFlood flood-opacity="0" result="BackgroundImageFix"/>
<feBlend mode="normal" in="SourceGraphic" in2="BackgroundImageFix" result="shape"/>
<feTurbulence type="fractalNoise" baseFrequency="0.0099999997764825821 0.0099999997764825821" numOctaves="3" seed="6960" />
<feDisplacementMap in="shape" scale="8" xChannelSelector="R" yChannelSelector="G" result="displacedImage" width="100%" height="100%" />
<feMerge result="effect1_texture_781_40">
<feMergeNode in="displacedImage"/>
</feMerge>
</filter>
</defs>
</svg>
