<svg width="294" height="167" viewBox="0 0 294 167" fill="none" xmlns="http://www.w3.org/2000/svg">
<rect x="1.01829" y="1.01829" width="291.232" height="164.963" rx="9.16463" stroke="#8A38F5" stroke-width="2.03659" stroke-dasharray="20.37 10.18"/>
<path d="M76.5589 41.1792C76.3529 41.3101 73.9149 43.5341 71.6144 45.4262C71.3224 45.6664 71.1885 45.7664 69.9717 47.2039C68.7549 48.6414 66.4478 51.3989 63.8775 54.1556C61.3071 56.9123 58.5433 59.5846 56.523 61.4496C53.371 64.3591 51.6117 65.7817 50.2616 67.04C48.1929 68.9679 46.1874 70.5816 44.8561 71.8753C42.3921 74.2696 41.571 75.0798 40.9434 76.3313C40.8156 76.5861 40.6937 76.7229 40.744 76.8082C41.3035 77.7567 44.6529 76.7232 46.5351 76.5553C49.2622 76.3097 50.9531 76.339 51.427 76.4187C51.7191 76.4673 52.1157 76.5325 52.6017 76.6214" stroke="black" stroke-width="4.07317" stroke-linecap="round"/>
<path d="M52.7285 76.9561C52.7285 76.9697 52.7285 77.9435 52.7893 82.3707C52.8368 85.8313 52.9715 91.7558 53.0269 95.348C53.099 100.02 53.1473 101.757 53.3355 102.833C53.5442 104.027 54.2675 104.533 55.7033 105.405C56.6568 105.984 57.4563 106.184 57.9842 106.31C58.7606 106.494 60.9829 106.46 65.0292 106.414C67.3381 106.388 70.1661 106.383 72.2837 106.323C77.7261 105.938 79.2192 105.716 79.6179 105.702C79.8257 105.695 80.0445 105.688 80.3066 105.463" stroke="black" stroke-width="4.07317" stroke-linecap="round"/>
<path d="M80.3066 105.463C80.3188 105.463 82.4012 105.467 86.0427 105.536C88.6061 105.584 90.5662 106.032 92.6481 106.307C96.8056 106.856 98.2019 106.282 98.9345 105.962C99.6117 105.666 99.7969 104.048 100.147 101.393C100.366 99.7251 100.346 97.3708 100.37 93.806C100.395 90.2412 100.381 85.5283 100.421 82.7157C100.46 79.903 100.553 79.1334 100.668 78.668C100.784 78.2026 100.918 78.0647 101.267 77.9934C103.008 77.6372 104.768 78.4863 106.882 78.8564C109.447 78.8094 110.839 78.4433 111.77 78.1344C111.966 78.078 112.141 78.0421 112.801 77.9434" stroke="black" stroke-width="4.07317" stroke-linecap="round"/>
<path d="M112.799 77.9431C112.772 77.6671 111.403 75.096 110.15 73.3773C109.648 72.6902 108.417 72.1157 106.859 71.0783C103.577 68.3716 102.64 67.2266 101.741 65.749C101.54 65.4425 101.42 65.323 100.945 65.137" stroke="black" stroke-width="4.07317" stroke-linecap="round"/>
<path d="M104.003 43.7166C104.003 43.7321 103.993 45.4619 103.567 51.0377C103.152 54.8918 102.332 60.8259 101.909 64.0426C101.486 67.2593 101.486 67.5786 101.486 67.9077" stroke="black" stroke-width="4.07317" stroke-linecap="round"/>
<path d="M103.405 42.9728C103.348 42.9728 101.121 42.9626 97.6383 42.923C95.175 42.8008 93.7991 42.8505 92.8888 42.9111C92.236 42.9322 91.1956 42.9338 89.748 42.7639" stroke="black" stroke-width="4.07317" stroke-linecap="round"/>
<path d="M87.9591 42.6196C87.9591 43.049 87.9591 43.4785 87.9496 45.1693C87.9402 46.8601 87.9212 49.7994 87.8228 52.7133C87.7244 55.6272 87.5472 58.4267 87.2598 61.6303" stroke="black" stroke-width="4.07317" stroke-linecap="round"/>
<path d="M86.4519 50.8944C86.4383 50.908 86.2963 50.8089 85.6001 49.9544C83.935 47.9109 82.2523 45.3608 80.7649 43.5016C80.0679 42.6699 79.4883 42.0652 79.082 41.672C78.6758 41.2787 78.4605 41.1152 77.8242 40.7317" stroke="black" stroke-width="4.07317" stroke-linecap="round"/>
<path d="M70.4922 73.258C70.4922 73.3712 70.4922 77.4207 70.8833 83.5243C71.0207 85.6684 72.0567 85.7501 73.1703 85.8084C78.4074 86.0825 82.2588 85.2522 84.2348 84.7466C88.4534 83.6673 84.6774 75.2039 84.4181 73.8389C84.0904 73.2471 83.3649 72.8604 81.1496 72.6451C78.9344 72.4297 75.2514 72.3973 71.4569 72.364" stroke="black" stroke-width="4" stroke-linecap="round"/>
<path d="M78.4336 72.6313C78.4336 72.6591 78.4336 72.6869 78.4336 74.2389C78.4336 75.7909 78.4336 78.8662 78.6463 80.8785C78.8589 82.8907 79.2842 83.7467 79.8513 85.0718" stroke="black" stroke-width="4" stroke-linecap="round"/>
<path d="M78.4707 78.6917C78.4989 78.6917 78.5271 78.6917 79.5592 78.6993C80.5912 78.7069 82.6263 78.7222 85.4723 78.8877" stroke="black" stroke-width="4" stroke-linecap="round"/>
<path d="M54.1191 75.0589C56.0287 73.6022 62.3536 68.845 66.1876 66.3006C67.0965 65.6293 68.1068 64.7739 69.3407 63.8311C70.5747 62.8883 72.0017 61.8841 74.168 60.4617" stroke="black" stroke-width="4" stroke-linecap="round"/>
<path d="M74.168 60.4617C74.2819 60.4617 78.8046 63.174 86.4886 68.0366C91.5491 71.6926 94.9939 74.2872 97.5489 76.1921C98.5554 77.0539 98.9731 77.7028 99.5731 78.0992" stroke="black" stroke-width="4" stroke-linecap="round"/>
<path d="M206.554 41.1748C206.35 41.3044 203.936 43.507 201.657 45.381C201.368 45.6189 201.236 45.7179 200.031 47.1416C198.825 48.5653 196.541 51.2963 193.995 54.0265C191.449 56.7567 188.712 59.4033 186.711 61.2503C183.589 64.132 181.847 65.5408 180.51 66.787C178.461 68.6964 176.475 70.2946 175.156 71.5758C172.716 73.9471 171.903 74.7496 171.281 75.9891C171.155 76.2414 171.034 76.3769 171.084 76.4613C171.638 77.4007 174.955 76.3772 176.819 76.2108C179.52 75.9676 181.195 75.9967 181.664 76.0756C181.953 76.1238 182.346 76.1883 182.827 76.2763" stroke="black" stroke-width="4.03402" stroke-linecap="round"/>
<path d="M182.955 76.6082C182.955 76.6217 182.955 77.5861 183.015 81.9707C183.062 85.398 183.196 91.2656 183.251 94.8233C183.322 99.4504 183.37 101.171 183.556 102.237C183.763 103.419 184.479 103.92 185.901 104.783C186.846 105.357 187.637 105.556 188.16 105.68C188.929 105.863 191.13 105.829 195.138 105.783C197.424 105.757 200.225 105.752 202.322 105.693C207.712 105.311 209.191 105.092 209.586 105.078C209.792 105.071 210.009 105.063 210.268 104.841" stroke="black" stroke-width="4.03402" stroke-linecap="round"/>
<path d="M210.266 104.841C210.278 104.841 212.34 104.845 215.947 104.912C218.485 104.96 220.427 105.404 222.488 105.676C226.606 106.22 227.989 105.651 228.714 105.334C229.385 105.041 229.569 103.439 229.915 100.81C230.133 99.1578 230.112 96.8261 230.136 93.2955C230.161 89.765 230.147 85.0974 230.187 82.3118C230.226 79.5262 230.318 78.764 230.432 78.303C230.546 77.8421 230.679 77.7055 231.024 77.6349C232.749 77.2822 234.492 78.1231 236.586 78.4896C239.126 78.4431 240.504 78.0805 241.426 77.7746C241.621 77.7187 241.794 77.6832 242.448 77.5853" stroke="black" stroke-width="4.03402" stroke-linecap="round"/>
<path d="M242.447 77.5853C242.42 77.312 241.064 74.7657 239.823 73.0635C239.326 72.383 238.106 71.814 236.564 70.7866C233.313 68.1058 232.386 66.9719 231.495 65.5085C231.296 65.205 231.177 65.0866 230.707 64.9023" stroke="black" stroke-width="4.03402" stroke-linecap="round"/>
<path d="M233.737 43.6877C233.737 43.7031 233.727 45.4163 233.305 50.9386C232.894 54.7556 232.081 60.6327 231.663 63.8184C231.244 67.0042 231.244 67.3205 231.244 67.6464" stroke="black" stroke-width="4.03402" stroke-linecap="round"/>
<path d="M233.147 42.9513C233.09 42.9513 230.885 42.9412 227.435 42.9019C224.996 42.7809 223.633 42.8301 222.732 42.8901C222.085 42.9111 221.055 42.9126 219.621 42.7444" stroke="black" stroke-width="4.03402" stroke-linecap="round"/>
<path d="M217.843 42.6013C217.843 43.0266 217.843 43.4519 217.834 45.1265C217.824 46.8011 217.805 49.7121 217.708 52.598C217.611 55.4839 217.435 58.2565 217.15 61.4293" stroke="black" stroke-width="4.03402" stroke-linecap="round"/>
<path d="M216.355 50.7967C216.342 50.8101 216.201 50.7121 215.512 49.8658C213.863 47.8419 212.196 45.3163 210.723 43.475C210.033 42.6513 209.459 42.0524 209.056 41.6629C208.654 41.2734 208.441 41.1115 207.811 40.7317" stroke="black" stroke-width="4.03402" stroke-linecap="round"/>
<path d="M208.942 44.2605C208.763 44.3898 208.223 44.7766 206.423 46.4644C204.794 47.9917 201.733 50.902 199.922 52.5916C198.111 54.2812 197.65 54.6673 196.96 55.3752C196.27 56.083 195.365 57.101 192.654 59.9662C189.942 62.8315 185.452 67.5131 183.121 69.9869C180.789 72.4608 180.753 72.585 180.837 72.5963C180.921 72.6076 181.126 72.5022 185.916 69.9083C190.707 67.3144 200.077 62.2352 205.926 58.8587C211.775 55.4821 213.819 53.9621 215.06 53.096C216.302 52.23 216.679 52.0639 216.796 52.1355C216.913 52.2071 216.759 52.5214 215.242 54.0881C213.726 55.6548 210.853 58.4645 205.438 62.7434C200.023 67.0223 192.153 72.6854 187.988 75.7046C183.823 78.7237 183.601 78.9274 183.365 79.1994C183.13 79.4715 182.888 79.8058 183.855 79.1643C184.823 78.5228 187.007 76.8952 192.071 73.5738C197.134 70.2524 205.01 65.2863 211.068 61.0707C217.127 56.8552 221.129 53.5405 224.295 51.1506C227.461 48.7607 229.669 47.3961 230.817 46.7584C231.964 46.1208 231.985 46.2517 231.798 46.6016C231.612 46.9515 231.218 47.5165 229.454 49.5923C227.689 51.6681 224.566 55.2375 222.551 57.3823C220.536 59.5271 219.725 60.1392 219.103 60.5753C218.48 61.0115 218.071 61.2532 219.561 61.0095C221.051 60.7658 224.453 60.0294 226.277 59.6415C228.241 59.2238 228.562 59.2191 228.755 59.2943C228.828 59.3228 228.646 59.5199 223.391 63.1182C218.137 66.7165 207.763 73.7582 200.597 78.2339C193.431 82.7095 189.788 84.4058 187.608 85.3853C185.428 86.3648 184.822 86.5761 184.633 86.6682C184.443 86.7603 184.69 86.7269 191.03 84.0218C197.371 81.3166 209.798 75.9409 217.173 72.8824C224.548 69.8239 226.495 69.2455 227.837 68.8739C229.849 68.317 230.86 68.1202 231.194 68.097C231.261 68.0923 230.981 68.3605 225.307 71.2094C219.634 74.0583 208.539 79.5459 202.16 82.8662C195.782 86.1865 194.455 87.1733 193.421 88.0257C191.629 89.502 190.786 90.4062 190.153 90.8214C188.029 92.2169 187.401 92.6681 187.399 92.8432C187.398 92.9847 187.971 92.6829 191.573 91.323C195.174 89.963 201.934 87.4133 205.787 86.0151C209.639 84.6168 210.38 84.4473 212.381 83.7266C214.383 83.0059 217.624 81.7392 219.558 81.0289C223.259 79.6698 225.287 79.7976 225.728 79.869C225.869 79.8919 225.772 80.0833 225.605 80.2543C225.438 80.4253 225.186 80.6203 221.467 82.9961C217.748 85.3719 210.569 89.9227 206.607 92.4764C202.645 95.03 202.118 95.4486 201.704 95.7439C201.024 96.228 199.594 96.7296 197.661 97.3373C196.378 97.7406 195.668 97.7955 195.523 97.7995C195.178 97.8088 196.566 97.6406 197.766 97.2266C198.582 96.9449 199.768 96.3773 201.729 95.2444C203.691 94.1116 206.378 92.3947 208.205 91.3255C210.032 90.2562 210.915 89.8867 212.878 89.2823C214.84 88.6778 217.854 87.8497 219.49 87.4155C221.968 86.7577 223.478 86.7692 225.04 86.6055C225.724 86.5338 226.172 86.6314 226.414 86.7908C226.53 86.867 226.557 87.0252 226.515 87.1734C226.421 87.51 225.019 88.4515 222.574 90.241C221.292 91.1799 220.041 92.337 218.922 93.1922C215.94 95.4696 215.248 95.4059 214.833 95.5391C213.496 95.9683 212.616 98.0984 211.958 99.4224C211.792 99.7358 211.649 99.9596 211.507 100.146C211.365 100.332 211.23 100.473 210.962 100.793" stroke="black" stroke-width="4.03402" stroke-linecap="round"/>
<path d="M184.885 92.7288C184.885 92.7582 185.475 93.4732 186.708 94.8723C188.777 97.2185 189.639 97.9664 190.675 98.6962C191.922 99.5752 193.378 100.514 194.47 101.152C195.139 101.543 195.593 102.012 196.031 102.329C196.174 102.433 196.243 102.259 196.227 102.053C196.21 101.846 196.127 101.572 195.076 99.7238C194.025 97.8755 192.008 94.4616 190.306 91.9436C188.603 89.4256 187.277 87.907 186.508 86.9858C185.739 86.0646 185.567 85.7868 185.622 85.7298C185.678 85.6728 185.966 85.845 187.128 86.8655C188.29 87.886 190.316 89.7494 191.707 90.9814C193.098 92.2134 193.792 92.7574 195.684 94.3668C197.575 95.9763 200.644 98.6347 202.285 100.077C204.343 101.885 204.783 102.288 205.127 102.402C205.258 102.445 205.328 102.242 205.343 102.009C205.42 100.821 204.659 99.3487 203.489 97.3157C202.78 96.0838 201.576 94.6044 199.977 92.8423C198.378 91.0801 196.353 89.1207 194.996 87.867C193.64 86.6133 193.014 86.1246 191.921 85.1004C190.827 84.0762 189.284 82.5312 188.198 81.366C186.471 79.5139 185.582 78.3461 184.958 77.6748C184.017 76.6626 183.726 75.7166 183.64 75.223C183.617 75.0866 183.802 75.1789 185.908 77.2216C188.015 79.2644 192.081 83.254 196.824 87.3482C201.567 91.4423 206.865 95.5201 209.694 97.7333C213.398 100.632 214.358 101.413 214.494 101.455C214.592 101.486 214.362 100.996 212.499 97.8082C210.635 94.6207 207.045 88.613 204.215 84.3929C201.386 80.1729 199.426 77.9225 197.391 75.917C195.355 73.9116 193.303 72.2193 191.882 70.9402C189.65 68.9324 188.522 67.5696 187.695 66.7318C187.313 66.3441 187.058 65.9825 190.394 68.5798C193.731 71.1771 200.68 76.7314 206.63 81.8391C212.58 86.9467 217.321 91.4394 219.924 93.9714C222.528 96.5033 222.851 96.9384 223.362 97.8514C224.626 100.108 225.438 101.779 225.73 101.99C225.994 102.18 225.899 100.911 225.399 99.2659C225.074 98.1958 224.438 96.7015 220.664 90.2442C216.89 83.7869 209.954 72.4256 206.177 66.0978C202.401 59.77 201.993 58.8199 201.442 57.6651C200.891 56.5103 200.21 55.1797 199.992 54.5873C199.775 53.9948 200.041 54.1809 204.719 58.304C209.397 62.4271 218.479 70.4816 223.146 74.5404C227.813 78.5993 227.79 78.4184 227.693 78.1389C227.597 77.8594 227.429 77.4866 225.355 74.3295C223.28 71.1724 219.303 65.2422 216.366 60.3321C213.428 55.4219 211.65 51.7115 210.674 49.735C209.448 47.253 208.761 46.9667 208.431 46.6994C208.229 46.5351 208.039 46.2192 211.322 49.8842C214.605 53.5492 221.388 61.1808 225.349 65.5431C229.31 69.9055 230.243 70.7673 230.769 71.2587C231.609 72.0433 232.552 73.3586 233.123 73.9359C233.216 74.0299 233.025 73.4339 232.146 71.4243C231.266 69.4146 229.602 65.7764 228.513 62.926C227.425 60.0756 226.963 58.1232 226.107 55.6911C225.252 53.2591 224.018 50.4065 223.27 48.5679C222.523 46.7293 222.3 45.991 222.15 45.5512C222 45.1114 221.93 44.9925 221.807 44.8337" stroke="black" stroke-width="4.03402" stroke-linecap="round"/>
<path d="M225.611 41.829C225.427 41.7495 224.878 41.3228 223.924 39.628C223.624 39.0942 223.315 37.7152 222.789 34.4228C222.455 32.3297 222.338 29.3303 222.241 27.5412C222.117 25.2538 222.429 24.0453 222.949 22.8254C223.644 21.1947 225.031 20.7341 226.272 20.2586C227.252 19.8834 228.326 20.2035 228.595 20.4623C229.474 21.3064 229.329 23.5885 229.13 24.5747C228.987 25.2855 226.888 25.6584 223.357 25.9379C221.614 26.076 220.541 25.2055 219.831 24.4602C218.878 23.4617 218.982 21.7004 218.949 17.3432C218.933 15.1817 219.851 13.5868 221.227 11.6176C223.147 8.86934 224.951 8.15538 226.605 7.52673C227.185 7.30621 227.965 7.21579 229.407 7.10854C230.849 7.00129 232.95 6.94107 234.479 6.9608C236.008 6.98053 236.901 7.08205 238.051 7.30388C240.594 7.79452 242.843 8.55352 244.32 9.1876C246.521 10.1326 248.347 12.2406 248.994 13.1618C249.249 13.525 249.215 14.0286 249.161 14.4059C249.136 14.5766 248.993 14.6754 248.824 14.7456C247.747 15.1951 246.088 14.4979 244.657 13.9197C244.133 13.7078 243.765 13.3343 243.396 12.9231C242.528 11.9561 243.242 9.54935 243.698 8.50409C243.956 7.91214 244.483 7.5743 245.351 6.95004C247.323 5.53214 249.244 4.46933 250.365 3.92252C250.932 3.6016 251.494 3.19252 251.978 2.88807C252.462 2.58363 252.852 2.3962 253.631 2.06885" stroke="black" stroke-width="4.07317" stroke-linecap="round"/>
</svg>
