<svg width="243" height="9" viewBox="0 0 243 9" fill="none" xmlns="http://www.w3.org/2000/svg">
<path d="M0.432596 3.62554C0.158974 3.66277 -0.0326622 3.91476 0.0045642 4.18838C0.0417906 4.462 0.293783 4.65364 0.567404 4.61641L0.5 4.12098L0.432596 3.62554ZM7.16204 3.73334L7.10256 4.22979L7.16204 3.73334ZM18.8931 3.52977L18.8052 3.03757L18.8931 3.52977ZM36.663 3.5505L36.6161 4.04829V4.04829L36.663 3.5505ZM44.0381 5.48963L43.862 5.9576L44.0381 5.48963ZM48.6504 7.51083L48.6373 8.01065L48.6504 7.51083ZM52.3057 5.5617L52.1582 5.08397L52.3057 5.5617ZM61.2801 5.30731L61.3227 4.80913L61.2801 5.30731ZM77.3698 7.65873L77.3567 8.15856L77.3698 7.65873ZM99.8738 4.4546L99.6955 3.98747L99.8738 4.4546ZM122.873 3.15325L122.874 3.65325L122.873 3.15325ZM137.351 2.27563L137.347 2.77562L137.351 2.27563ZM161.127 7.23716L161.091 7.73585L161.127 7.23716ZM181.643 3.63064L181.584 3.1341L181.643 3.63064ZM201.486 3.28877L201.56 2.79433V2.79433L201.486 3.28877ZM210.344 4.10044L210.331 3.60062L210.344 4.10044ZM233.382 4.10202L233.378 4.60201L233.381 4.60202L233.382 4.10202ZM242.169 4.79988C242.407 4.65895 242.485 4.35219 242.344 4.11472L240.047 0.244902C239.906 0.00743032 239.6 -0.0708301 239.362 0.0701022C239.125 0.211035 239.047 0.517792 239.187 0.755263L241.229 4.1951L237.789 6.23655C237.552 6.37748 237.473 6.68424 237.614 6.92171C237.755 7.15918 238.062 7.23744 238.299 7.09651L242.169 4.79988ZM0.5 4.12098L0.567404 4.61641C1.37864 4.50604 4.04217 3.86308 7.10256 4.22979L7.16204 3.73334L7.22153 3.2369C3.99491 2.85026 1.13618 3.52982 0.432596 3.62554L0.5 4.12098ZM7.16204 3.73334L7.10256 4.22979C11.2321 4.72462 14.9789 4.73727 18.9811 4.02197L18.8931 3.52977L18.8052 3.03757C14.9208 3.73181 11.2759 3.72271 7.22153 3.2369L7.16204 3.73334ZM18.8931 3.52977L18.9811 4.02197C24.498 3.03595 32.3245 3.64338 36.6161 4.04829L36.663 3.5505L36.71 3.05271C32.4386 2.6497 24.4775 2.02378 18.8052 3.03757L18.8931 3.52977ZM36.663 3.5505L36.6161 4.04829C38.5661 4.23228 41.5416 5.08456 43.862 5.9576L44.0381 5.48963L44.2141 5.02166C41.8636 4.13725 38.791 3.24905 36.71 3.05271L36.663 3.5505ZM44.0381 5.48963L43.862 5.9576C44.8364 6.32422 45.6674 6.80115 46.4396 7.21559C47.1731 7.60924 47.9262 7.99203 48.6373 8.01065L48.6504 7.51083L48.6635 7.011C48.2322 6.9997 47.6928 6.75326 46.9125 6.33447C46.1709 5.93648 45.2669 5.41776 44.2141 5.02166L44.0381 5.48963ZM48.6504 7.51083L48.6373 8.01065C49.4233 8.03124 50.047 7.54463 50.5687 7.14442C51.1318 6.71245 51.6884 6.27568 52.4533 6.03943L52.3057 5.5617L52.1582 5.08397C51.1958 5.38122 50.5034 5.93416 49.9601 6.35097C49.3753 6.79952 49.0349 7.02073 48.6635 7.011L48.6504 7.51083ZM52.3057 5.5617L52.4533 6.03943C54.1978 5.50058 56.7083 5.41821 61.2375 5.8055L61.2801 5.30731L61.3227 4.80913C56.7937 4.42187 54.1073 4.48192 52.1582 5.08397L52.3057 5.5617ZM61.2801 5.30731L61.2375 5.8055C65.0447 6.13104 68.1966 6.69277 70.8312 7.18672C73.4474 7.67723 75.6044 8.11251 77.3567 8.15856L77.3698 7.65873L77.383 7.1589C75.7319 7.11551 73.6768 6.70281 71.0154 6.20384C68.3724 5.7083 65.181 5.13904 61.3227 4.80913L61.2801 5.30731ZM77.3698 7.65873L77.3567 8.15856C84.794 8.354 89.3703 7.96918 92.6469 7.31752C95.9261 6.66534 97.8956 5.74481 100.052 4.92173L99.8738 4.4546L99.6955 3.98747C97.4905 4.82909 95.6255 5.70556 92.4519 6.33673C89.2756 6.96842 84.7807 7.35331 77.383 7.1589L77.3698 7.65873ZM99.8738 4.4546L100.052 4.92173C102.357 4.04215 106.245 3.72032 110.518 3.62644C114.779 3.53279 119.293 3.66513 122.874 3.65325L122.873 3.15325L122.871 2.65325C119.347 2.66495 114.758 2.53302 110.496 2.62668C106.244 2.72011 102.185 3.03717 99.6955 3.98747L99.8738 4.4546ZM122.873 3.15325L122.874 3.65325C124.856 3.64667 127.231 3.41414 129.714 3.19228C132.21 2.96933 134.829 2.75542 137.347 2.77562L137.351 2.27563L137.355 1.77565C134.783 1.75501 132.119 1.97342 129.625 2.19625C127.119 2.42016 124.799 2.64686 122.871 2.65325L122.873 3.15325ZM137.351 2.27563L137.347 2.77562C141.522 2.80912 146.627 3.97624 151.118 5.17958C153.365 5.78191 155.424 6.38315 157.151 6.85765C158.848 7.32397 160.248 7.67466 161.091 7.73585L161.127 7.23716L161.163 6.73847C160.439 6.6859 159.143 6.36803 157.416 5.89338C155.718 5.42691 153.62 4.81477 151.377 4.21367C146.886 3.01017 141.671 1.81028 137.355 1.77565L137.351 2.27563ZM161.127 7.23716L161.091 7.73585C161.961 7.79897 163.087 7.66413 164.403 7.42627C165.727 7.18697 167.287 6.83432 169.037 6.44202C172.544 5.65559 176.848 4.70103 181.702 4.12719L181.643 3.63064L181.584 3.1341C176.674 3.71461 172.325 4.67978 168.818 5.46626C167.06 5.86041 165.523 6.20751 164.225 6.44222C162.919 6.67839 161.898 6.79182 161.163 6.73847L161.127 7.23716ZM181.643 3.63064L181.702 4.12719C192.29 2.87538 199.088 3.43384 201.411 3.78321L201.486 3.28877L201.56 2.79433C199.139 2.43021 192.251 1.87309 181.584 3.1341L181.643 3.63064ZM201.486 3.28877L201.411 3.78321C204.487 4.24573 207.725 4.66997 210.357 4.60027L210.344 4.10044L210.331 3.60062C207.799 3.66767 204.643 3.25795 201.56 2.79433L201.486 3.28877ZM210.344 4.10044L210.357 4.60027C212.099 4.55413 220.833 4.50022 233.378 4.602L233.382 4.10202L233.386 3.60204C220.842 3.50026 212.092 3.55397 210.331 3.60062L210.344 4.10044ZM233.382 4.10202L233.381 4.60202C237.86 4.61098 238.49 4.53295 239.115 4.49206L239.082 3.99313L239.05 3.49419C238.45 3.53343 237.843 3.61094 233.383 3.60202L233.382 4.10202ZM239.082 3.99313L239.115 4.49206C239.663 4.45617 240.195 4.44746 241.79 4.85438L241.914 4.3699L242.038 3.88542C240.365 3.45867 239.725 3.44996 239.05 3.49419L239.082 3.99313Z" fill="black"/>
</svg>
